<svg width="1271" height="765" viewBox="0 0 1271 765" fill="none" xmlns="http://www.w3.org/2000/svg">
    <g clip-path="url(#clip0_0_1)">
        <path d="M1047.24 656.407C1053.34 645.491 1067.02 648.184 1077.32 651.575C1073.22 661.275 1060.09 663.399 1051.83 659.78C1050.8 659.237 1048.48 657.257 1047.24 656.407Z" fill="#85B719"/>
        <path d="M946.928 543.344C938.396 534.202 945.139 521.999 951.514 513.228C959.499 520.093 957.51 533.248 951.542 540.004C950.709 540.822 948.116 542.426 946.928 543.344Z" fill="#85B719"/>
        <path d="M1141.39 373.312C1139.23 360.994 1151.55 354.455 1161.68 350.59C1164.62 360.702 1155.77 370.635 1147.08 373.034C1145.93 373.264 1142.88 373.191 1141.39 373.312Z" fill="#85B719"/>
        <path d="M1242.3 599.855C1252.79 593.05 1263.62 601.82 1271.15 609.628C1263 616.292 1250.39 612.037 1244.78 604.982C1244.12 604.018 1242.99 601.185 1242.3 599.855Z" fill="#85B719"/>
        <path d="M1205.6 71.1679C1202.13 59.1549 1213.67 51.3237 1223.32 46.3865C1227.33 56.121 1219.61 66.9526 1211.23 70.2768C1210.12 70.6294 1207.08 70.8859 1205.6 71.1679Z" fill="#85B719"/>
        <path d="M237.771 428.317C229.335 419.087 236.204 406.955 242.669 398.25C250.583 405.197 248.457 418.331 242.42 425.025C241.578 425.834 238.968 427.411 237.771 428.317Z" fill="#85B719"/>
        <path d="M21.602 30.1651C9.54912 26.8347 8.9146 12.9073 9.76126 2.09732C20.1571 3.77235 25.3414 16.0258 23.7879 24.9048C23.5054 26.0382 22.1337 28.761 21.602 30.1651Z" fill="#85B719"/>
        <path d="M74.9803 264.137C68.7025 253.322 77.9969 242.931 86.1674 235.802C92.4203 244.274 87.5472 256.655 80.2233 261.909C79.2282 262.521 76.3428 263.506 74.9803 264.137Z" fill="#85B719"/>
        <path d="M295.832 663.908C291.892 652.04 303.111 643.763 312.564 638.451C316.957 648.021 309.661 659.147 301.419 662.797C300.32 663.193 297.294 663.568 295.832 663.908Z" fill="#85B719"/>
        <path d="M123.483 506.466C112.476 512.402 102.381 502.786 95.5128 494.396C104.177 488.412 116.399 493.671 121.421 501.156C122.001 502.17 122.895 505.085 123.483 506.466Z" fill="#85B719"/>
    </g>
    <g clip-path="url(#clip1_0_1)">
        <path d="M779 755.032C779 760.538 723.522 765.001 674.625 765.001C625.727 765.001 601.927 760.538 601.927 755.032C601.927 749.526 625.727 745.063 674.625 745.063C723.522 745.063 779 749.526 779 755.032Z" fill="#E0E0E0" fill-opacity="0.4"/>
        <path d="M715.807 436.724C706.354 442.035 695.135 450.312 699.075 462.18C697.223 467.538 694.722 475.185 692.098 484.404C691.361 476.65 683.777 469.136 676.901 463.443C669.85 471.578 675.504 484.409 683.875 490.206C685.421 491.132 687.315 492.119 689.661 493.113C689.692 493.073 689.713 493.034 689.742 492.99C685.559 508.885 681.461 528.139 679.507 547.911C679.383 548.631 679.311 549.363 679.299 550.114C678.407 559.977 678.063 569.946 678.529 579.668C675.194 565.116 671.391 551.326 667.651 539.028C669.152 538.511 670.364 537.736 671.341 536.824C676.728 529.234 678.349 520.103 675.122 511.686C669.1 514.86 664.774 521.705 664.344 528.475C659.353 512.986 654.774 500.677 651.947 493.415C652.736 492.346 653.263 491.235 653.574 490.125C654.23 480.847 650.864 472.204 643.727 466.683C638.609 475.222 640.682 488.601 649.758 493.187C651.989 498.887 655.499 508.197 659.495 520.015C655.268 513.388 643.67 508.294 634.441 512.963C640.409 520.47 649.468 529.181 661.038 524.638C667.658 544.703 680.172 602.166 680.416 602.847C675.643 597.992 667.449 595.318 660.292 593.603C657.924 604.018 668.43 612.94 678.122 614.364C679.565 614.484 681.249 614.512 683.183 614.434C683.786 618.43 684.314 622.442 684.781 626.452H686.763C685.448 615.221 683.61 603.996 681.411 593.056C682.256 592.987 683.028 592.794 683.731 592.506C689.639 588.547 693.274 582.469 693.259 575.586C687.742 576.271 682.462 580.464 680.602 585.64C679.759 575.771 679.829 565.558 680.54 555.381C682.579 554.978 684.286 554.499 685.701 553.989C693.939 550.342 701.239 539.218 696.844 529.651C691.489 532.656 685.568 536.615 682.155 541.641C682.592 537.296 684.619 524.277 684.338 525.147C689.143 497.849 696.733 473.991 700.838 462.177C702.301 461.838 703.563 461.465 704.662 461.069C712.904 457.419 720.2 446.293 715.807 436.724Z" fill="#85B719"/>
        <path d="M661.638 458.218C672.854 463.475 686.093 471.489 680.885 481.972C682.921 486.887 685.652 493.895 688.475 502.326C689.657 495.384 699.101 489.004 707.623 484.228C715.832 491.904 708.516 503.166 698.187 507.962C696.286 508.716 693.96 509.509 691.089 510.286C691.054 510.247 691.03 510.212 690.996 510.172C695.448 524.689 699.672 542.222 701.284 560.115C701.407 560.767 701.467 561.431 701.454 562.108C702.157 571.029 702.197 580.017 701.269 588.744C705.845 575.816 710.959 563.599 715.942 552.718C714.149 552.177 712.714 551.419 711.568 550.548C705.347 543.447 703.734 535.147 707.95 527.735C715.103 530.895 720.07 537.275 720.335 543.388C726.946 529.699 732.943 518.854 736.631 512.461C735.719 511.459 735.123 510.433 734.791 509.419C734.347 501.035 738.738 493.427 747.568 488.817C753.426 496.76 750.42 508.696 739.284 512.366C736.374 517.383 731.782 525.584 726.509 536.018C731.865 530.268 746.065 526.267 757.036 530.936C749.545 537.391 738.275 544.774 724.472 540.102C715.718 557.824 698.436 608.907 698.114 609.51C704.062 605.38 714.059 603.387 722.768 602.205C725.235 611.698 712.209 619.197 700.45 619.99C698.704 620.026 696.667 619.965 694.335 619.796C693.456 623.363 692.666 626.946 691.951 630.531L689.556 630.431C691.568 620.391 694.213 610.382 697.281 600.647C696.265 600.544 695.339 600.328 694.5 600.033C687.515 596.175 683.353 590.521 683.632 584.326C690.269 585.221 696.488 589.261 698.54 594.012C699.931 585.174 700.231 575.981 699.755 566.784C697.308 566.318 695.265 565.802 693.575 565.273C683.76 561.571 675.366 551.194 681.035 542.806C687.388 545.779 694.39 549.641 698.325 554.338C697.96 550.406 696.004 538.587 696.311 539.384C691.537 514.575 683.272 492.719 678.759 481.881C677.006 481.502 675.494 481.102 674.182 480.691C664.364 476.99 655.971 466.609 661.638 458.218Z" fill="#85B719"/>
        <path d="M734.408 753.264C734.093 754.929 732.637 756.135 730.942 756.135H645.844C644.106 756.135 642.626 754.868 642.358 753.151L626.318 650.365H753.917L734.408 753.264Z" fill="#EF9D6B"/>
        <g filter="url(#filter0_d_0_1)">
            <path d="M761.015 639.883H618.146C616.198 639.883 614.618 641.462 614.618 643.411V654.46C614.618 656.408 616.198 657.988 618.146 657.988H761.015C762.963 657.988 764.543 656.408 764.543 654.46V643.411C764.543 641.462 762.963 639.883 761.015 639.883Z" fill="#EF9D6B"/>
        </g>
        <path d="M756.895 639.883C752.933 630.355 740.482 625.094 725.712 625.094C721.865 625.094 718.192 625.192 714.769 625.934C706.993 623.756 696.839 622.26 685.692 622.26C675.447 622.26 666.042 623.307 658.547 625.176C656.025 624.761 653.385 625.132 650.642 625.132C636.358 625.132 624.434 630.355 621.385 639.883H756.895Z" fill="#372626"/>
        <path d="M741.865 632.718C741.865 633.129 740.81 633.463 739.511 633.463C738.211 633.463 737.157 633.129 737.157 632.718C737.157 632.305 738.211 631.972 739.511 631.972C740.81 631.972 741.865 632.305 741.865 632.718Z" fill="#593639"/>
        <path d="M738.841 637.274C738.841 637.685 737.787 638.019 736.488 638.019C735.188 638.019 734.134 637.685 734.134 637.274C734.134 636.863 735.188 636.53 736.488 636.53C737.787 636.529 738.841 636.862 738.841 637.274Z" fill="#593639"/>
        <path d="M639.492 631.39C639.492 631.802 638.438 632.135 637.138 632.135C635.838 632.135 634.784 631.802 634.784 631.39C634.784 630.978 635.838 630.646 637.138 630.646C638.438 630.646 639.492 630.978 639.492 631.39Z" fill="#593639"/>
        <path d="M744.641 636.53C744.641 636.941 743.587 637.274 742.287 637.274C740.987 637.274 739.933 636.941 739.933 636.53C739.933 636.119 740.987 635.785 742.287 635.785C743.587 635.785 744.641 636.119 744.641 636.53Z" fill="#593639"/>
        <path d="M738.471 634.461C738.471 634.649 738.066 634.803 737.566 634.803C737.065 634.803 736.659 634.649 736.659 634.461C736.659 634.273 737.065 634.121 737.566 634.121C738.065 634.121 738.471 634.273 738.471 634.461Z" fill="#593639"/>
        <path d="M738.96 630.218C738.96 630.404 738.555 630.558 738.054 630.558C737.553 630.558 737.149 630.404 737.149 630.218C737.149 630.028 737.553 629.875 738.054 629.875C738.554 629.876 738.96 630.029 738.96 630.218Z" fill="#593639"/>
        <path d="M652.958 631.724C652.958 631.912 652.552 632.065 652.052 632.065C651.552 632.065 651.147 631.912 651.147 631.724C651.147 631.535 651.552 631.383 652.052 631.383C652.552 631.383 652.958 631.535 652.958 631.724Z" fill="#593639"/>
        <path d="M638.043 638.105C638.043 638.294 637.638 638.447 637.138 638.447C636.638 638.447 636.232 638.294 636.232 638.105C636.232 637.918 636.638 637.765 637.138 637.765C637.638 637.765 638.043 637.918 638.043 638.105Z" fill="#593639"/>
        <path d="M642.189 635.713C642.189 635.901 641.783 636.054 641.284 636.054C640.784 636.054 640.378 635.901 640.378 635.713C640.378 635.524 640.784 635.373 641.284 635.373C641.784 635.373 642.189 635.524 642.189 635.713Z" fill="#593639"/>
        <path d="M745.546 634.12C745.546 634.554 745.141 634.909 744.641 634.909C744.14 634.909 743.736 634.554 743.736 634.12C743.736 633.683 744.14 633.33 744.641 633.33C745.141 633.33 745.546 633.683 745.546 634.12Z" fill="#593639"/>
        <path d="M735.675 631.97C735.675 632.406 735.271 632.761 734.769 632.761C734.27 632.761 733.863 632.406 733.863 631.97C733.863 631.535 734.27 631.181 734.769 631.181C735.271 631.181 735.675 631.534 735.675 631.97Z" fill="#593639"/>
        <path d="M735.176 634.12C735.176 634.316 734.994 634.475 734.77 634.475C734.547 634.475 734.364 634.316 734.364 634.12C734.364 633.924 734.547 633.765 734.77 633.765C734.994 633.765 735.176 633.924 735.176 634.12Z" fill="#593639"/>
        <path d="M726.89 627.841C726.89 628.037 726.709 628.196 726.485 628.196C726.261 628.196 726.08 628.037 726.08 627.841C726.08 627.646 726.261 627.487 726.485 627.487C726.709 627.488 726.89 627.646 726.89 627.841Z" fill="#593639"/>
        <path d="M714.454 633.463C714.454 633.881 714.271 634.224 714.048 634.224C713.824 634.224 713.643 633.881 713.643 633.463C713.643 633.041 713.824 632.7 714.048 632.7C714.271 632.7 714.454 633.041 714.454 633.463Z" fill="#593639"/>
        <path d="M638.855 633.551C638.855 633.746 638.673 633.906 638.449 633.906C638.225 633.906 638.043 633.746 638.043 633.551C638.043 633.355 638.225 633.197 638.449 633.197C638.673 633.197 638.855 633.356 638.855 633.551Z" fill="#593639"/>
        <path d="M628.34 637.754C628.34 637.949 628.158 638.108 627.934 638.108C627.711 638.108 627.529 637.949 627.529 637.754C627.529 637.558 627.711 637.399 627.934 637.399C628.158 637.399 628.34 637.558 628.34 637.754Z" fill="#593639"/>
        <path d="M643.085 630.646C643.085 630.841 642.903 631.001 642.679 631.001C642.456 631.001 642.274 630.841 642.274 630.646C642.274 630.449 642.456 630.292 642.679 630.292C642.903 630.292 643.085 630.449 643.085 630.646Z" fill="#593639"/>
        <path d="M735.176 635.591C735.176 635.786 734.994 635.945 734.77 635.945C734.547 635.945 734.364 635.786 734.364 635.591C734.364 635.396 734.547 635.237 734.77 635.237C734.994 635.236 735.176 635.396 735.176 635.591Z" fill="#593639"/>
        <path d="M748.214 638.636C748.214 638.833 748.032 638.992 747.807 638.992C747.584 638.992 747.402 638.833 747.402 638.636C747.402 638.442 747.584 638.282 747.807 638.282C748.032 638.282 748.214 638.442 748.214 638.636Z" fill="#593639"/>
        <path d="M741.062 638.636C741.062 638.833 740.881 638.992 740.657 638.992C740.434 638.992 740.253 638.833 740.253 638.636C740.253 638.442 740.434 638.282 740.657 638.282C740.881 638.282 741.062 638.442 741.062 638.636Z" fill="#593639"/>
        <path d="M644.662 638.107C644.662 638.304 644.48 638.463 644.256 638.463C644.032 638.463 643.85 638.304 643.85 638.107C643.85 637.912 644.032 637.753 644.256 637.753C644.48 637.754 644.662 637.912 644.662 638.107Z" fill="#593639"/>
        <path d="M742.271 634.448C742.271 634.643 742.089 634.802 741.865 634.802C741.641 634.802 741.459 634.643 741.459 634.448C741.459 634.251 741.641 634.092 741.865 634.092C742.089 634.093 742.271 634.251 742.271 634.448Z" fill="#593639"/>
        <path d="M743.736 631.693C743.736 631.888 743.554 632.048 743.33 632.048C743.106 632.048 742.924 631.888 742.924 631.693C742.924 631.497 743.106 631.338 743.33 631.338C743.554 631.338 743.736 631.497 743.736 631.693Z" fill="#593639"/>
        <path d="M749.119 633.766C749.119 633.961 748.937 634.121 748.713 634.121C748.489 634.121 748.308 633.961 748.308 633.766C748.308 633.57 748.489 633.412 748.713 633.412C748.937 633.413 749.119 633.571 749.119 633.766Z" fill="#593639"/>
        <path d="M738.53 635.945C738.53 636.141 738.67 636.299 738.841 636.299C739.013 636.299 739.152 636.14 739.152 635.945C739.152 635.749 739.014 635.59 738.841 635.59C738.67 635.591 738.53 635.749 738.53 635.945Z" fill="#593639"/>
        <path d="M636.595 635.85C636.595 636.285 636.189 636.64 635.689 636.64C635.188 636.64 634.784 636.285 634.784 635.85C634.784 635.415 635.189 635.061 635.689 635.061C636.19 635.061 636.595 635.414 636.595 635.85Z" fill="#593639"/>
        <path d="M638.043 635.678C638.043 636.113 637.638 636.469 637.138 636.469C636.638 636.469 636.232 636.113 636.232 635.678C636.232 635.243 636.638 634.889 637.138 634.889C637.638 634.889 638.043 635.243 638.043 635.678Z" fill="#593639"/>
        <path d="M655.907 627.533C655.907 627.967 655.502 628.323 655.003 628.323C654.502 628.323 654.096 627.967 654.096 627.533C654.096 627.097 654.502 626.743 655.003 626.743C655.502 626.744 655.907 627.097 655.907 627.533Z" fill="#593639"/>
        <path d="M646.068 635.341C646.068 635.776 645.663 636.13 645.162 636.13C644.662 636.13 644.256 635.776 644.256 635.341C644.256 634.905 644.662 634.551 645.162 634.551C645.663 634.551 646.068 634.905 646.068 635.341Z" fill="#593639"/>
        <path d="M649.214 637.399C649.214 637.834 648.809 638.189 648.308 638.189C647.808 638.189 647.402 637.834 647.402 637.399C647.402 636.965 647.808 636.61 648.308 636.61C648.808 636.61 649.214 636.965 649.214 637.399Z" fill="#593639"/>
        <path d="M748.308 635.59C748.308 636.025 747.903 636.379 747.401 636.379C746.901 636.379 746.495 636.026 746.495 635.59C746.495 635.154 746.901 634.8 747.401 634.8C747.902 634.8 748.308 635.153 748.308 635.59Z" fill="#593639"/>
        <path d="M641.877 637.846C641.877 638.281 641.471 638.636 640.972 638.636C640.472 638.636 640.066 638.282 640.066 637.846C640.066 637.41 640.472 637.057 640.972 637.057C641.471 637.057 641.877 637.41 641.877 637.846Z" fill="#593639"/>
        <path d="M699.786 629.366C699.786 629.98 698.214 630.478 696.275 630.478C694.335 630.478 692.763 629.979 692.763 629.366C692.763 628.753 694.335 628.255 696.275 628.255C698.214 628.255 699.786 628.753 699.786 629.366Z" fill="#593639"/>
        <path d="M652.499 629.171C652.499 629.785 650.927 630.283 648.987 630.283C647.047 630.283 645.475 629.784 645.475 629.171C645.475 628.556 647.047 628.06 648.987 628.06C650.926 628.059 652.499 628.556 652.499 629.171Z" fill="#593639"/>
        <path d="M637.525 632.477C637.525 633.09 635.953 633.588 634.013 633.588C632.073 633.588 630.5 633.089 630.5 632.477C630.5 631.862 632.073 631.366 634.013 631.366C635.953 631.366 637.525 631.862 637.525 632.477Z" fill="#593639"/>
        <path d="M695.275 636.167C695.275 636.781 693.702 637.278 691.763 637.278C689.823 637.278 688.251 636.78 688.251 636.167C688.251 635.552 689.824 635.056 691.763 635.056C693.702 635.056 695.275 635.553 695.275 636.167Z" fill="#593639"/>
        <path d="M674.553 633.945C674.553 634.561 672.981 635.057 671.041 635.057C669.101 635.057 667.529 634.56 667.529 633.945C667.529 633.332 669.101 632.834 671.041 632.834C672.981 632.834 674.553 633.332 674.553 633.945Z" fill="#593639"/>
        <path d="M677.723 627.257C677.723 627.872 676.15 628.369 674.211 628.369C672.272 628.369 670.7 627.871 670.7 627.257C670.7 626.641 672.272 626.146 674.211 626.146C676.15 626.146 677.723 626.641 677.723 627.257Z" fill="#593639"/>
        <path d="M703.929 635.057C703.929 635.671 702.357 636.168 700.416 636.168C698.477 636.168 696.904 635.67 696.904 635.057C696.904 634.444 698.477 633.945 700.416 633.945C702.357 633.945 703.929 634.444 703.929 635.057Z" fill="#593639"/>
        <path d="M723.89 630.284C723.89 630.899 722.317 631.395 720.377 631.395C718.438 631.395 716.865 630.898 716.865 630.284C716.865 629.67 718.438 629.172 720.377 629.172C722.317 629.172 723.89 629.67 723.89 630.284Z" fill="#593639"/>
        <path d="M694.723 631.969C694.723 632.249 694.118 632.477 693.373 632.477C692.626 632.477 692.02 632.249 692.02 631.969C692.02 631.689 692.626 631.462 693.373 631.462C694.118 631.462 694.723 631.688 694.723 631.969Z" fill="#593639"/>
        <path d="M695.451 625.638C695.451 625.916 694.848 626.144 694.101 626.144C693.353 626.144 692.75 625.916 692.75 625.638C692.75 625.356 693.353 625.13 694.101 625.13C694.848 625.13 695.451 625.357 695.451 625.638Z" fill="#593639"/>
        <path d="M683.48 626.146C683.48 626.427 682.875 626.654 682.129 626.654C681.383 626.654 680.778 626.427 680.778 626.146C680.778 625.867 681.383 625.64 682.129 625.64C682.875 625.639 683.48 625.866 683.48 626.146Z" fill="#593639"/>
        <path d="M672.049 630.792C672.049 631.071 671.444 631.299 670.699 631.299C669.951 631.299 669.345 631.071 669.345 630.792C669.345 630.51 669.95 630.284 670.699 630.284C671.444 630.284 672.049 630.51 672.049 630.792Z" fill="#593639"/>
        <path d="M652.499 635.341C652.499 635.621 651.894 635.849 651.149 635.849C650.401 635.849 649.796 635.621 649.796 635.341C649.796 635.061 650.401 634.833 651.149 634.833C651.893 634.833 652.499 635.061 652.499 635.341Z" fill="#593639"/>
        <path d="M664.807 635.055C664.807 635.335 664.202 635.562 663.455 635.562C662.709 635.562 662.104 635.335 662.104 635.055C662.104 634.776 662.709 634.547 663.455 634.547C664.202 634.547 664.807 634.775 664.807 635.055Z" fill="#593639"/>
        <path d="M675.562 637.278C675.562 637.559 674.956 637.786 674.211 637.786C673.465 637.786 672.86 637.559 672.86 637.278C672.86 636.997 673.465 636.772 674.211 636.772C674.956 636.772 675.562 636.998 675.562 637.278Z" fill="#593639"/>
        <path d="M685.841 634.833C685.841 635.112 685.236 635.341 684.49 635.341C683.744 635.341 683.139 635.112 683.139 634.833C683.139 634.553 683.744 634.326 684.49 634.326C685.236 634.326 685.841 634.552 685.841 634.833Z" fill="#593639"/>
        <path d="M705.28 631.462C705.28 632.109 704.675 632.639 703.928 632.639C703.182 632.639 702.577 632.109 702.577 631.462C702.577 630.809 703.182 630.283 703.928 630.283C704.675 630.284 705.28 630.81 705.28 631.462Z" fill="#593639"/>
        <path d="M731.185 631.989C731.185 632.639 730.58 633.167 729.835 633.167C729.089 633.167 728.484 632.638 728.484 631.989C728.484 631.338 729.089 630.811 729.835 630.811C730.581 630.812 731.185 631.338 731.185 631.989Z" fill="#593639"/>
        <path d="M690.552 628.256C690.552 628.905 689.948 629.435 689.201 629.435C688.455 629.435 687.85 628.905 687.85 628.256C687.85 627.605 688.455 627.079 689.201 627.079C689.948 627.08 690.552 627.605 690.552 628.256Z" fill="#593639"/>
        <path d="M689.808 631.462C689.808 631.752 689.536 631.988 689.202 631.988C688.867 631.988 688.596 631.752 688.596 631.462C688.596 631.17 688.867 630.933 689.202 630.933C689.536 630.933 689.808 631.17 689.808 631.462Z" fill="#593639"/>
        <path d="M710.611 627.532C710.611 627.822 710.34 628.06 710.006 628.06C709.67 628.06 709.399 627.822 709.399 627.532C709.399 627.241 709.67 627.004 710.006 627.004C710.341 627.005 710.611 627.241 710.611 627.532Z" fill="#593639"/>
        <path d="M729.836 635.713C729.836 636.003 729.564 636.24 729.229 636.24C728.894 636.24 728.624 636.003 728.624 635.713C728.624 635.422 728.894 635.185 729.229 635.185C729.564 635.185 729.836 635.422 729.836 635.713Z" fill="#593639"/>
        <path d="M711.822 637.3C711.822 637.59 711.55 637.827 711.216 637.827C710.881 637.827 710.61 637.59 710.61 637.3C710.61 637.008 710.881 636.772 711.216 636.772C711.55 636.772 711.822 637.008 711.822 637.3Z" fill="#593639"/>
        <path d="M731.046 628.587C731.046 628.878 730.774 629.115 730.44 629.115C730.105 629.115 729.835 628.878 729.835 628.587C729.835 628.297 730.105 628.06 730.44 628.06C730.774 628.06 731.046 628.297 731.046 628.587Z" fill="#593639"/>
        <path d="M724.496 632.765C724.496 633.056 724.224 633.294 723.89 633.294C723.555 633.294 723.284 633.056 723.284 632.765C723.284 632.474 723.555 632.238 723.89 632.238C724.224 632.238 724.496 632.474 724.496 632.765Z" fill="#593639"/>
        <path d="M719.632 637.754C719.632 638.044 719.36 638.281 719.026 638.281C718.691 638.281 718.42 638.044 718.42 637.754C718.42 637.463 718.691 637.226 719.026 637.226C719.36 637.226 719.632 637.462 719.632 637.754Z" fill="#593639"/>
        <path d="M717.471 633.765C717.471 634.056 717.199 634.293 716.865 634.293C716.53 634.293 716.259 634.056 716.259 633.765C716.259 633.474 716.53 633.238 716.865 633.238C717.199 633.239 717.471 633.474 717.471 633.765Z" fill="#593639"/>
        <path d="M721.731 627.313C721.731 627.604 721.458 627.841 721.124 627.841C720.79 627.841 720.518 627.604 720.518 627.313C720.518 627.022 720.79 626.786 721.124 626.786C721.458 626.786 721.731 627.022 721.731 627.313Z" fill="#593639"/>
        <path d="M735.783 627.532C735.783 627.822 735.511 628.06 735.176 628.06C734.841 628.06 734.571 627.822 734.571 627.532C734.571 627.241 734.841 627.004 735.176 627.004C735.511 627.005 735.783 627.241 735.783 627.532Z" fill="#593639"/>
        <path d="M731.651 637.806C731.651 638.096 731.38 638.333 731.045 638.333C730.711 638.333 730.44 638.096 730.44 637.806C730.44 637.514 730.711 637.278 731.045 637.278C731.38 637.278 731.651 637.514 731.651 637.806Z" fill="#593639"/>
        <path d="M676.774 630.478C676.774 630.769 676.502 631.007 676.167 631.007C675.833 631.007 675.562 630.769 675.562 630.478C675.562 630.188 675.833 629.952 676.167 629.952C676.502 629.952 676.774 630.187 676.774 630.478Z" fill="#593639"/>
        <path d="M663.457 625.639C663.457 625.929 663.184 626.167 662.85 626.167C662.516 626.167 662.244 625.929 662.244 625.639C662.244 625.347 662.516 625.111 662.85 625.111C663.184 625.111 663.457 625.347 663.457 625.639Z" fill="#593639"/>
        <path d="M643.892 628.061C643.892 628.352 643.618 628.588 643.285 628.588C642.952 628.588 642.679 628.352 642.679 628.061C642.679 627.77 642.952 627.534 643.285 627.534C643.618 627.534 643.892 627.77 643.892 628.061Z" fill="#593639"/>
        <path d="M627.53 634.711C627.53 635 627.258 635.238 626.923 635.238C626.589 635.238 626.318 635 626.318 634.711C626.318 634.42 626.589 634.183 626.923 634.183C627.258 634.183 627.53 634.42 627.53 634.711Z" fill="#593639"/>
        <path d="M633.277 636.772C633.277 637.063 633.005 637.3 632.671 637.3C632.336 637.3 632.065 637.063 632.065 636.772C632.065 636.481 632.336 636.245 632.671 636.245C633.005 636.245 633.277 636.481 633.277 636.772Z" fill="#593639"/>
        <path d="M639.802 628.587C639.802 628.878 639.53 629.115 639.195 629.115C638.861 629.115 638.59 628.878 638.59 628.587C638.59 628.297 638.861 628.06 639.195 628.06C639.53 628.06 639.802 628.297 639.802 628.587Z" fill="#593639"/>
        <path d="M656.862 633.005C656.862 633.295 656.59 633.532 656.256 633.532C655.921 633.532 655.65 633.295 655.65 633.005C655.65 632.714 655.921 632.477 656.256 632.477C656.589 632.477 656.862 632.714 656.862 633.005Z" fill="#593639"/>
        <path d="M655.002 637.258C655.002 637.548 654.73 637.784 654.396 637.784C654.06 637.784 653.79 637.548 653.79 637.258C653.79 636.966 654.061 636.73 654.396 636.73C654.73 636.73 655.002 636.966 655.002 637.258Z" fill="#593639"/>
        <path d="M667.531 637.806C667.531 638.096 667.259 638.333 666.924 638.333C666.59 638.333 666.319 638.096 666.319 637.806C666.319 637.514 666.59 637.278 666.924 637.278C667.258 637.278 667.531 637.514 667.531 637.806Z" fill="#593639"/>
        <path d="M706.492 628.061C706.492 628.352 706.219 628.588 705.885 628.588C705.551 628.588 705.279 628.352 705.279 628.061C705.279 627.77 705.551 627.534 705.885 627.534C706.22 627.534 706.492 627.77 706.492 628.061Z" fill="#593639"/>
        <path d="M714.049 630.858C714.049 631.149 713.777 631.386 713.443 631.386C713.109 631.386 712.837 631.149 712.837 630.858C712.837 630.567 713.109 630.331 713.443 630.331C713.777 630.331 714.049 630.567 714.049 630.858Z" fill="#593639"/>
        <path d="M714.653 637.827C714.988 637.827 715.26 637.591 715.26 637.3C715.26 637.008 714.988 636.772 714.653 636.772C714.318 636.772 714.047 637.008 714.047 637.3C714.047 637.591 714.318 637.827 714.653 637.827Z" fill="#593639"/>
        <path d="M667.531 629.367C667.531 629.658 667.259 629.895 666.925 629.895C666.59 629.895 666.319 629.658 666.319 629.367C666.319 629.077 666.59 628.839 666.925 628.839C667.259 628.839 667.531 629.077 667.531 629.367Z" fill="#593639"/>
        <path d="M666.018 632.477C666.018 632.768 665.747 633.005 665.412 633.005C665.078 633.005 664.807 632.768 664.807 632.477C664.807 632.186 665.078 631.95 665.412 631.95C665.746 631.95 666.018 632.186 666.018 632.477Z" fill="#593639"/>
        <path d="M660.168 633.948C660.168 634.239 659.897 634.477 659.562 634.477C659.228 634.477 658.957 634.239 658.957 633.948C658.957 633.658 659.228 633.421 659.562 633.421C659.897 633.421 660.168 633.657 660.168 633.948Z" fill="#593639"/>
        <path d="M687.394 624.603C687.394 624.893 687.124 625.131 686.788 625.131C686.454 625.131 686.183 624.893 686.183 624.603C686.183 624.312 686.454 624.075 686.788 624.075C687.123 624.075 687.394 624.312 687.394 624.603Z" fill="#593639"/>
        <path d="M689.808 633.654C689.808 633.947 689.536 634.183 689.202 634.183C688.867 634.183 688.596 633.947 688.596 633.654C688.596 633.365 688.867 633.126 689.202 633.126C689.536 633.126 689.808 633.364 689.808 633.654Z" fill="#593639"/>
        <path d="M685.439 637.278C685.439 637.569 685.166 637.806 684.833 637.806C684.498 637.806 684.226 637.569 684.226 637.278C684.226 636.988 684.498 636.75 684.833 636.75C685.166 636.75 685.439 636.988 685.439 637.278Z" fill="#593639"/>
        <path d="M700.392 631.949C700.392 632.238 700.121 632.477 699.787 632.477C699.453 632.477 699.181 632.238 699.181 631.949C699.181 631.658 699.453 631.421 699.787 631.421C700.121 631.421 700.392 631.658 700.392 631.949Z" fill="#593639"/>
        <path d="M706.491 636.168C706.491 636.458 706.22 636.696 705.886 636.696C705.552 636.696 705.28 636.458 705.28 636.168C705.28 635.877 705.552 635.64 705.886 635.64C706.22 635.64 706.491 635.877 706.491 636.168Z" fill="#593639"/>
        <path d="M702.579 627.841C702.579 628.131 702.307 628.368 701.972 628.368C701.639 628.368 701.366 628.131 701.366 627.841C701.366 627.549 701.639 627.313 701.972 627.313C702.307 627.313 702.579 627.549 702.579 627.841Z" fill="#593639"/>
        <path d="M694.812 634.182C694.812 634.474 695.021 634.71 695.277 634.71C695.532 634.71 695.74 634.474 695.74 634.182C695.74 633.892 695.533 633.654 695.277 633.654C695.021 633.655 694.812 633.892 694.812 634.182Z" fill="#593639"/>
        <path d="M679.929 631.969C679.929 632.619 679.324 633.147 678.578 633.147C677.831 633.147 677.227 632.618 677.227 631.969C677.227 631.319 677.831 630.792 678.578 630.792C679.324 630.792 679.929 631.319 679.929 631.969Z" fill="#593639"/>
        <path d="M681.28 631.656C681.28 632.306 680.675 632.834 679.929 632.834C679.183 632.834 678.578 632.305 678.578 631.656C678.578 631.007 679.183 630.478 679.929 630.478C680.675 630.479 681.28 631.007 681.28 631.656Z" fill="#593639"/>
        <path d="M716.005 629.95C716.005 630.601 715.4 631.128 714.654 631.128C713.908 631.128 713.303 630.6 713.303 629.95C713.303 629.301 713.908 628.773 714.654 628.773C715.4 628.773 716.005 629.301 716.005 629.95Z" fill="#593639"/>
        <path d="M685.333 628.435C685.333 629.083 684.73 629.613 683.984 629.613C683.237 629.613 682.632 629.083 682.632 628.435C682.632 627.784 683.237 627.256 683.984 627.256C684.73 627.256 685.333 627.784 685.333 628.435Z" fill="#593639"/>
        <path d="M647.402 632.835C647.402 633.451 645.829 633.947 643.89 633.947C641.95 633.947 640.378 633.45 640.378 632.835C640.378 632.22 641.95 631.724 643.89 631.724C645.83 631.724 647.402 632.221 647.402 632.835Z" fill="#593639"/>
        <path d="M660.07 637.258C660.07 637.537 659.465 637.766 658.719 637.766C657.973 637.766 657.368 637.537 657.368 637.258C657.368 636.978 657.973 636.75 658.719 636.75C659.465 636.75 660.07 636.977 660.07 637.258Z" fill="#593639"/>
        <path d="M659.563 630.859C659.563 631.507 658.959 632.036 658.213 632.036C657.466 632.036 656.861 631.506 656.861 630.859C656.861 630.208 657.466 629.679 658.213 629.679C658.959 629.679 659.563 630.208 659.563 630.859Z" fill="#593639"/>
        <path d="M664.2 630.08C664.2 630.946 663.597 631.657 662.851 631.657C662.105 631.657 661.499 630.946 661.499 630.08C661.499 629.207 662.104 628.501 662.851 628.501C663.597 628.502 664.2 629.207 664.2 630.08Z" fill="#593639"/>
        <path d="M686.182 632.478C686.182 633.128 685.578 633.656 684.831 633.656C684.085 633.656 683.48 633.128 683.48 632.478C683.48 631.828 684.085 631.301 684.831 631.301C685.579 631.301 686.182 631.828 686.182 632.478Z" fill="#593639"/>
        <path d="M726.89 637.258C726.89 637.907 726.288 638.434 725.54 638.434C724.794 638.434 724.189 637.906 724.189 637.258C724.189 636.609 724.794 636.081 725.54 636.081C726.288 636.081 726.89 636.608 726.89 637.258Z" fill="#593639"/>
        <path d="M709.4 633.654C709.4 634.306 708.795 634.833 708.048 634.833C707.302 634.833 706.697 634.305 706.697 633.654C706.697 633.005 707.302 632.477 708.048 632.477C708.795 632.477 709.4 633.005 709.4 633.654Z" fill="#593639"/>
        <path d="M699.607 638.067C699.607 638.719 699.002 639.245 698.255 639.245C697.509 639.245 696.904 638.718 696.904 638.067C696.904 637.418 697.509 636.89 698.255 636.89C699.002 636.891 699.607 637.419 699.607 638.067Z" fill="#593639"/>
        <path d="M721.729 633.942C721.729 634.594 721.123 635.121 720.376 635.121C719.63 635.121 719.025 634.593 719.025 633.942C719.025 633.293 719.63 632.764 720.376 632.764C721.123 632.764 721.729 633.293 721.729 633.942Z" fill="#593639"/>
        <path d="M681.28 636.889C681.28 637.539 680.675 638.069 679.929 638.069C679.183 638.069 678.578 637.538 678.578 636.889C678.578 636.238 679.183 635.712 679.929 635.712C680.675 635.712 681.28 636.238 681.28 636.889Z" fill="#593639"/>
        <path d="M473.431 358.354C459.725 358.354 447.34 372.449 447.34 386.127V677.065C447.34 690.742 460.742 704.498 474.45 704.498H597.998C611.706 704.498 625.448 691.082 625.448 677.401V385.788C625.448 372.109 613.064 358.354 599.356 358.354H473.431Z" fill="#878282"/>
        <path d="M447.34 425.415H440V440.318H447.34V425.415Z" fill="#141C28"/>
        <path d="M632.788 457.929H625.449V488.411H632.788V457.929Z" fill="#141C28"/>
        <path d="M447.34 447.769H440V469.445H447.34V447.769Z" fill="#141C28"/>
        <path d="M447.34 476.896H440V498.572H447.34V476.896Z" fill="#141C28"/>
        <path d="M598.553 708.96H474.236C456.784 708.96 442.587 694.794 442.587 677.38V385.581C442.587 368.167 456.784 354 474.236 354H598.553C616.002 354 630.201 368.167 630.201 385.581V677.38C630.201 694.794 616.002 708.96 598.553 708.96ZM474.236 360.774C460.529 360.774 449.376 371.903 449.376 385.581V677.38C449.376 691.058 460.529 702.186 474.236 702.186H598.553C612.26 702.186 623.412 691.058 623.412 677.38V385.581C623.412 371.903 612.26 360.774 598.553 360.774H474.236Z" fill="#141C28"/>
        <path d="M557.791 424.403C549.589 429.013 539.853 436.195 543.272 446.493C541.665 451.142 539.495 457.778 537.218 465.778C536.578 459.05 529.997 452.529 524.03 447.589C517.912 454.648 522.818 465.782 530.082 470.813C531.424 471.616 533.068 472.473 535.103 473.336C535.13 473.301 535.148 473.267 535.173 473.229C531.544 487.022 527.987 503.729 526.292 520.886C526.184 521.511 526.122 522.147 526.111 522.798C525.338 531.357 525.039 540.007 525.443 548.444C522.549 535.816 519.249 523.85 516.004 513.178C517.306 512.73 518.358 512.057 519.206 511.266C523.881 504.68 525.287 496.756 522.487 489.452C517.261 492.206 513.507 498.146 513.134 504.021C508.803 490.58 504.83 479.899 502.377 473.598C503.061 472.67 503.519 471.706 503.788 470.743C504.358 462.691 501.437 455.192 495.244 450.401C490.803 457.811 492.601 469.42 500.477 473.399C502.413 478.346 505.459 486.425 508.926 496.679C505.259 490.929 495.194 486.509 487.186 490.561C492.364 497.074 500.225 504.634 510.265 500.692C516.01 518.102 526.868 567.966 527.08 568.558C522.939 564.344 515.828 562.024 509.618 560.536C507.563 569.574 516.68 577.316 525.09 578.551C526.342 578.655 527.803 578.679 529.481 578.612C530.005 582.08 530.463 585.561 530.868 589.041H532.588C531.447 579.295 529.852 569.554 527.944 560.061C528.678 560.001 529.348 559.834 529.958 559.584C535.084 556.149 538.238 550.875 538.225 544.902C533.438 545.496 528.856 549.134 527.242 553.626C526.51 545.062 526.571 536.2 527.188 527.368C528.957 527.018 530.439 526.603 531.667 526.161C538.816 522.996 545.149 513.343 541.336 505.041C536.689 507.649 531.551 511.084 528.589 515.446C528.969 511.676 530.728 500.378 530.484 501.133C534.654 477.445 541.239 456.742 544.802 446.491C546.071 446.196 547.166 445.873 548.12 445.529C555.272 442.362 561.603 432.708 557.791 424.403Z" fill="#85B719"/>
        <path d="M510.786 443.055C520.518 447.617 532.007 454.571 527.488 463.668C529.254 467.932 531.624 474.014 534.073 481.329C535.099 475.306 543.295 469.769 550.689 465.625C557.813 472.286 551.465 482.059 542.501 486.22C540.852 486.875 538.834 487.563 536.342 488.237C536.312 488.203 536.291 488.173 536.261 488.138C540.125 500.735 543.79 515.95 545.189 531.476C545.296 532.042 545.347 532.618 545.336 533.206C545.947 540.947 545.981 548.746 545.176 556.32C549.147 545.101 553.585 534.499 557.908 525.058C556.353 524.588 555.107 523.931 554.113 523.175C548.715 517.012 547.315 509.81 550.973 503.378C557.181 506.12 561.491 511.657 561.72 516.961C567.457 505.083 572.661 495.672 575.861 490.124C575.07 489.255 574.553 488.365 574.264 487.485C573.879 480.209 577.69 473.608 585.352 469.607C590.435 476.5 587.826 486.858 578.164 490.042C575.639 494.395 571.654 501.512 567.078 510.566C571.726 505.577 584.048 502.105 593.567 506.156C587.068 511.758 577.288 518.164 565.31 514.11C557.714 529.488 542.717 573.816 542.438 574.339C547.6 570.755 556.275 569.026 563.832 568C565.973 576.237 554.669 582.745 544.466 583.433C542.95 583.464 541.182 583.411 539.158 583.264C538.396 586.36 537.71 589.469 537.09 592.58L535.012 592.493C536.758 583.781 539.053 575.095 541.715 566.648C540.833 566.559 540.03 566.371 539.302 566.116C533.241 562.767 529.629 557.861 529.871 552.485C535.631 553.262 541.027 556.768 542.808 560.891C544.015 553.222 544.275 545.244 543.862 537.264C541.739 536.859 539.966 536.411 538.499 535.952C529.983 532.74 522.698 523.735 527.618 516.457C533.131 519.036 539.207 522.387 542.621 526.463C542.304 523.051 540.607 512.795 540.873 513.487C536.731 491.959 529.559 472.993 525.642 463.588C524.122 463.259 522.81 462.913 521.671 462.556C513.151 459.344 505.869 450.336 510.786 443.055Z" fill="#85B719"/>
        <path d="M574.005 698.703C573.689 700.369 572.234 701.574 570.539 701.574H497.48C495.742 701.574 494.263 700.308 493.995 698.59L480.137 609.792H590.862L574.005 698.703Z" fill="#EF9D6B"/>
        <g filter="url(#filter1_d_0_1)">
            <path d="M596.554 600.695H473.512C471.564 600.695 469.984 602.274 469.984 604.223V612.878C469.984 614.826 471.564 616.405 473.512 616.405H596.554C598.502 616.405 600.082 614.826 600.082 612.878V604.223C600.082 602.274 598.502 600.695 596.554 600.695Z" fill="#EF9D6B"/>
        </g>
        <path d="M593.446 600.696C590.008 592.427 579.203 587.862 566.386 587.862C563.048 587.862 559.861 587.947 556.89 588.591C550.143 586.702 541.332 585.403 531.659 585.403C522.769 585.403 514.608 586.311 508.104 587.934C505.915 587.573 503.624 587.896 501.244 587.896C488.849 587.896 478.502 592.427 475.856 600.696H593.446Z" fill="#372626"/>
        <path d="M580.403 594.477C580.403 594.834 579.488 595.124 578.361 595.124C577.233 595.124 576.318 594.834 576.318 594.477C576.318 594.119 577.233 593.83 578.361 593.83C579.488 593.83 580.403 594.119 580.403 594.477Z" fill="#593639"/>
        <path d="M577.779 598.431C577.779 598.788 576.864 599.077 575.737 599.077C574.609 599.077 573.694 598.788 573.694 598.431C573.694 598.074 574.609 597.785 575.737 597.785C576.864 597.784 577.779 598.074 577.779 598.431Z" fill="#593639"/>
        <path d="M491.569 593.325C491.569 593.683 490.654 593.972 489.526 593.972C488.398 593.972 487.483 593.683 487.483 593.325C487.483 592.968 488.398 592.68 489.526 592.68C490.654 592.68 491.569 592.968 491.569 593.325Z" fill="#593639"/>
        <path d="M582.812 597.784C582.812 598.141 581.897 598.431 580.769 598.431C579.641 598.431 578.727 598.141 578.727 597.784C578.727 597.428 579.641 597.138 580.769 597.138C581.897 597.138 582.812 597.428 582.812 597.784Z" fill="#593639"/>
        <path d="M577.46 595.99C577.46 596.153 577.108 596.286 576.674 596.286C576.239 596.286 575.886 596.153 575.886 595.99C575.886 595.827 576.239 595.694 576.674 595.694C577.107 595.694 577.46 595.827 577.46 595.99Z" fill="#593639"/>
        <path d="M577.884 592.309C577.884 592.471 577.532 592.604 577.097 592.604C576.662 592.604 576.311 592.471 576.311 592.309C576.311 592.144 576.662 592.012 577.097 592.012C577.531 592.012 577.884 592.145 577.884 592.309Z" fill="#593639"/>
        <path d="M503.256 593.616C503.256 593.779 502.902 593.912 502.469 593.912C502.034 593.912 501.682 593.779 501.682 593.616C501.682 593.452 502.034 593.32 502.469 593.32C502.902 593.32 503.256 593.452 503.256 593.616Z" fill="#593639"/>
        <path d="M490.313 599.155C490.313 599.318 489.961 599.451 489.527 599.451C489.092 599.451 488.74 599.318 488.74 599.155C488.74 598.992 489.092 598.859 489.527 598.859C489.961 598.859 490.313 598.992 490.313 599.155Z" fill="#593639"/>
        <path d="M493.91 597.077C493.91 597.24 493.558 597.373 493.124 597.373C492.69 597.373 492.337 597.24 492.337 597.077C492.337 596.913 492.69 596.781 493.124 596.781C493.559 596.781 493.91 596.913 493.91 597.077Z" fill="#593639"/>
        <path d="M583.599 595.694C583.599 596.072 583.247 596.379 582.812 596.379C582.378 596.379 582.026 596.072 582.026 595.694C582.026 595.316 582.378 595.009 582.812 595.009C583.247 595.009 583.599 595.316 583.599 595.694Z" fill="#593639"/>
        <path d="M575.033 593.829C575.033 594.207 574.682 594.515 574.246 594.515C573.813 594.515 573.46 594.207 573.46 593.829C573.46 593.452 573.813 593.145 574.246 593.145C574.682 593.145 575.033 593.451 575.033 593.829Z" fill="#593639"/>
        <path d="M574.599 595.695C574.599 595.865 574.441 596.004 574.247 596.004C574.053 596.004 573.895 595.865 573.895 595.695C573.895 595.526 574.053 595.388 574.247 595.388C574.441 595.388 574.599 595.526 574.599 595.695Z" fill="#593639"/>
        <path d="M567.408 590.246C567.408 590.416 567.251 590.554 567.057 590.554C566.863 590.554 566.706 590.416 566.706 590.246C566.706 590.076 566.863 589.938 567.057 589.938C567.251 589.939 567.408 590.076 567.408 590.246Z" fill="#593639"/>
        <path d="M556.617 595.123C556.617 595.486 556.458 595.784 556.264 595.784C556.07 595.784 555.913 595.486 555.913 595.123C555.913 594.757 556.07 594.461 556.264 594.461C556.458 594.461 556.617 594.757 556.617 595.123Z" fill="#593639"/>
        <path d="M491.016 595.201C491.016 595.37 490.858 595.509 490.663 595.509C490.469 595.509 490.311 595.37 490.311 595.201C490.311 595.031 490.469 594.894 490.663 594.894C490.858 594.894 491.016 595.031 491.016 595.201Z" fill="#593639"/>
        <path d="M481.892 598.849C481.892 599.018 481.734 599.156 481.54 599.156C481.346 599.156 481.188 599.018 481.188 598.849C481.188 598.678 481.346 598.54 481.54 598.54C481.734 598.54 481.892 598.678 481.892 598.849Z" fill="#593639"/>
        <path d="M494.686 592.681C494.686 592.85 494.528 592.989 494.334 592.989C494.14 592.989 493.982 592.85 493.982 592.681C493.982 592.51 494.14 592.373 494.334 592.373C494.528 592.373 494.686 592.51 494.686 592.681Z" fill="#593639"/>
        <path d="M574.599 596.971C574.599 597.141 574.441 597.279 574.247 597.279C574.053 597.279 573.895 597.141 573.895 596.971C573.895 596.802 574.053 596.664 574.247 596.664C574.441 596.663 574.599 596.802 574.599 596.971Z" fill="#593639"/>
        <path d="M585.913 599.614C585.913 599.785 585.754 599.923 585.56 599.923C585.366 599.923 585.208 599.785 585.208 599.614C585.208 599.445 585.366 599.307 585.56 599.307C585.754 599.307 585.913 599.445 585.913 599.614Z" fill="#593639"/>
        <path d="M579.707 599.614C579.707 599.785 579.55 599.923 579.356 599.923C579.162 599.923 579.004 599.785 579.004 599.614C579.004 599.445 579.162 599.307 579.356 599.307C579.55 599.307 579.707 599.445 579.707 599.614Z" fill="#593639"/>
        <path d="M496.054 599.154C496.054 599.324 495.897 599.462 495.702 599.462C495.508 599.462 495.35 599.324 495.35 599.154C495.35 598.985 495.508 598.847 495.702 598.847C495.897 598.847 496.054 598.985 496.054 599.154Z" fill="#593639"/>
        <path d="M580.755 595.978C580.755 596.148 580.597 596.286 580.403 596.286C580.208 596.286 580.05 596.148 580.05 595.978C580.05 595.808 580.208 595.67 580.403 595.67C580.597 595.671 580.755 595.808 580.755 595.978Z" fill="#593639"/>
        <path d="M582.027 593.589C582.027 593.758 581.869 593.897 581.674 593.897C581.48 593.897 581.322 593.758 581.322 593.589C581.322 593.419 581.48 593.281 581.674 593.281C581.869 593.281 582.027 593.419 582.027 593.589Z" fill="#593639"/>
        <path d="M586.698 595.389C586.698 595.558 586.54 595.697 586.345 595.697C586.151 595.697 585.994 595.558 585.994 595.389C585.994 595.218 586.151 595.081 586.345 595.081C586.54 595.082 586.698 595.219 586.698 595.389Z" fill="#593639"/>
        <path d="M577.509 597.277C577.509 597.446 577.63 597.583 577.779 597.583C577.928 597.583 578.049 597.446 578.049 597.277C578.049 597.107 577.929 596.969 577.779 596.969C577.63 596.97 577.509 597.107 577.509 597.277Z" fill="#593639"/>
        <path d="M489.056 597.196C489.056 597.573 488.704 597.881 488.269 597.881C487.834 597.881 487.483 597.573 487.483 597.196C487.483 596.818 487.835 596.511 488.269 596.511C488.705 596.511 489.056 596.817 489.056 597.196Z" fill="#593639"/>
        <path d="M490.313 597.045C490.313 597.422 489.961 597.731 489.527 597.731C489.092 597.731 488.74 597.422 488.74 597.045C488.74 596.667 489.092 596.36 489.527 596.36C489.961 596.36 490.313 596.667 490.313 597.045Z" fill="#593639"/>
        <path d="M505.814 589.979C505.814 590.356 505.463 590.664 505.029 590.664C504.594 590.664 504.241 590.356 504.241 589.979C504.241 589.6 504.594 589.293 505.029 589.293C505.463 589.294 505.814 589.6 505.814 589.979Z" fill="#593639"/>
        <path d="M497.276 596.755C497.276 597.133 496.925 597.44 496.489 597.44C496.055 597.44 495.703 597.133 495.703 596.755C495.703 596.377 496.055 596.07 496.489 596.07C496.925 596.07 497.276 596.377 497.276 596.755Z" fill="#593639"/>
        <path d="M500.006 598.539C500.006 598.917 499.654 599.225 499.219 599.225C498.785 599.225 498.432 598.917 498.432 598.539C498.432 598.162 498.785 597.854 499.219 597.854C499.654 597.854 500.006 598.162 500.006 598.539Z" fill="#593639"/>
        <path d="M585.995 596.97C585.995 597.348 585.644 597.655 585.208 597.655C584.773 597.655 584.421 597.349 584.421 596.97C584.421 596.592 584.773 596.285 585.208 596.285C585.643 596.285 585.995 596.591 585.995 596.97Z" fill="#593639"/>
        <path d="M493.639 598.927C493.639 599.305 493.287 599.613 492.853 599.613C492.419 599.613 492.066 599.306 492.066 598.927C492.066 598.549 492.419 598.243 492.853 598.243C493.287 598.243 493.639 598.549 493.639 598.927Z" fill="#593639"/>
        <path d="M543.889 591.57C543.889 592.103 542.525 592.535 540.842 592.535C539.158 592.535 537.794 592.102 537.794 591.57C537.794 591.038 539.158 590.606 540.842 590.606C542.525 590.606 543.889 591.038 543.889 591.57Z" fill="#593639"/>
        <path d="M502.856 591.4C502.856 591.933 501.492 592.365 499.808 592.365C498.125 592.365 496.76 591.932 496.76 591.4C496.76 590.867 498.125 590.437 499.808 590.437C501.491 590.436 502.856 590.867 502.856 591.4Z" fill="#593639"/>
        <path d="M489.862 594.269C489.862 594.801 488.498 595.233 486.814 595.233C485.131 595.233 483.766 594.8 483.766 594.269C483.766 593.735 485.131 593.305 486.814 593.305C488.498 593.305 489.862 593.735 489.862 594.269Z" fill="#593639"/>
        <path d="M539.975 597.471C539.975 598.003 538.61 598.435 536.927 598.435C535.244 598.435 533.879 598.003 533.879 597.471C533.879 596.938 535.244 596.507 536.927 596.507C538.61 596.507 539.975 596.938 539.975 597.471Z" fill="#593639"/>
        <path d="M521.993 595.542C521.993 596.076 520.628 596.507 518.945 596.507C517.262 596.507 515.898 596.075 515.898 595.542C515.898 595.01 517.262 594.578 518.945 594.578C520.628 594.577 521.993 595.01 521.993 595.542Z" fill="#593639"/>
        <path d="M524.743 589.738C524.743 590.272 523.378 590.703 521.696 590.703C520.013 590.703 518.649 590.272 518.649 589.738C518.649 589.204 520.013 588.774 521.696 588.774C523.378 588.774 524.743 589.204 524.743 589.738Z" fill="#593639"/>
        <path d="M547.484 596.508C547.484 597.041 546.119 597.472 544.436 597.472C542.753 597.472 541.388 597.04 541.388 596.508C541.388 595.976 542.753 595.543 544.436 595.543C546.119 595.543 547.484 595.976 547.484 596.508Z" fill="#593639"/>
        <path d="M564.804 592.366C564.804 592.899 563.44 593.33 561.757 593.33C560.074 593.33 558.709 592.899 558.709 592.366C558.709 591.834 560.074 591.401 561.757 591.401C563.44 591.401 564.804 591.834 564.804 592.366Z" fill="#593639"/>
        <path d="M539.496 593.829C539.496 594.072 538.971 594.27 538.324 594.27C537.676 594.27 537.15 594.072 537.15 593.829C537.15 593.586 537.676 593.39 538.324 593.39C538.971 593.389 539.496 593.586 539.496 593.829Z" fill="#593639"/>
        <path d="M540.127 588.335C540.127 588.576 539.604 588.775 538.956 588.775C538.307 588.775 537.783 588.576 537.783 588.335C537.783 588.09 538.307 587.895 538.956 587.895C539.604 587.895 540.127 588.091 540.127 588.335Z" fill="#593639"/>
        <path d="M529.739 588.774C529.739 589.018 529.214 589.215 528.567 589.215C527.92 589.215 527.394 589.018 527.394 588.774C527.394 588.532 527.92 588.335 528.567 588.335C529.214 588.334 529.739 588.531 529.739 588.774Z" fill="#593639"/>
        <path d="M519.82 592.807C519.82 593.05 519.295 593.247 518.649 593.247C518 593.247 517.474 593.05 517.474 592.807C517.474 592.563 517.999 592.366 518.649 592.366C519.295 592.366 519.82 592.563 519.82 592.807Z" fill="#593639"/>
        <path d="M502.856 596.753C502.856 596.996 502.331 597.194 501.684 597.194C501.035 597.194 500.51 596.996 500.51 596.753C500.51 596.51 501.035 596.312 501.684 596.312C502.33 596.312 502.856 596.51 502.856 596.753Z" fill="#593639"/>
        <path d="M513.535 596.507C513.535 596.75 513.01 596.947 512.362 596.947C511.715 596.947 511.19 596.75 511.19 596.507C511.19 596.265 511.715 596.066 512.362 596.066C513.01 596.066 513.535 596.264 513.535 596.507Z" fill="#593639"/>
        <path d="M522.868 598.435C522.868 598.679 522.343 598.876 521.696 598.876C521.049 598.876 520.524 598.679 520.524 598.435C520.524 598.191 521.049 597.996 521.696 597.996C522.342 597.996 522.868 598.192 522.868 598.435Z" fill="#593639"/>
        <path d="M531.788 596.314C531.788 596.557 531.263 596.755 530.616 596.755C529.968 596.755 529.443 596.557 529.443 596.314C529.443 596.071 529.968 595.874 530.616 595.874C531.263 595.874 531.788 596.071 531.788 596.314Z" fill="#593639"/>
        <path d="M548.656 593.388C548.656 593.95 548.131 594.41 547.483 594.41C546.836 594.41 546.311 593.95 546.311 593.388C546.311 592.822 546.836 592.365 547.483 592.365C548.131 592.366 548.656 592.823 548.656 593.388Z" fill="#593639"/>
        <path d="M571.135 593.845C571.135 594.408 570.61 594.867 569.964 594.867C569.316 594.867 568.791 594.407 568.791 593.845C568.791 593.279 569.316 592.822 569.964 592.822C570.611 592.823 571.135 593.279 571.135 593.845Z" fill="#593639"/>
        <path d="M535.876 590.606C535.876 591.169 535.352 591.629 534.704 591.629C534.056 591.629 533.531 591.169 533.531 590.606C533.531 590.041 534.056 589.584 534.704 589.584C535.352 589.585 535.876 590.041 535.876 590.606Z" fill="#593639"/>
        <path d="M535.229 593.388C535.229 593.64 534.994 593.845 534.704 593.845C534.413 593.845 534.179 593.64 534.179 593.388C534.179 593.135 534.413 592.93 534.704 592.93C534.994 592.93 535.229 593.135 535.229 593.388Z" fill="#593639"/>
        <path d="M553.283 589.978C553.283 590.23 553.047 590.436 552.757 590.436C552.466 590.436 552.231 590.23 552.231 589.978C552.231 589.726 552.466 589.521 552.757 589.521C553.048 589.521 553.283 589.726 553.283 589.978Z" fill="#593639"/>
        <path d="M569.965 597.075C569.965 597.327 569.728 597.533 569.438 597.533C569.147 597.533 568.912 597.327 568.912 597.075C568.912 596.822 569.147 596.617 569.438 596.617C569.729 596.617 569.965 596.822 569.965 597.075Z" fill="#593639"/>
        <path d="M554.334 598.454C554.334 598.706 554.097 598.912 553.807 598.912C553.516 598.912 553.282 598.706 553.282 598.454C553.282 598.201 553.516 597.996 553.807 597.996C554.097 597.996 554.334 598.201 554.334 598.454Z" fill="#593639"/>
        <path d="M571.014 590.894C571.014 591.146 570.778 591.352 570.489 591.352C570.198 591.352 569.964 591.146 569.964 590.894C569.964 590.642 570.198 590.437 570.489 590.437C570.778 590.437 571.014 590.642 571.014 590.894Z" fill="#593639"/>
        <path d="M565.33 594.519C565.33 594.771 565.095 594.978 564.805 594.978C564.514 594.978 564.28 594.771 564.28 594.519C564.28 594.267 564.514 594.062 564.805 594.062C565.095 594.062 565.33 594.267 565.33 594.519Z" fill="#593639"/>
        <path d="M561.109 598.848C561.109 599.099 560.874 599.305 560.584 599.305C560.293 599.305 560.059 599.099 560.059 598.848C560.059 598.595 560.293 598.39 560.584 598.39C560.874 598.39 561.109 598.594 561.109 598.848Z" fill="#593639"/>
        <path d="M559.236 595.387C559.236 595.638 558.999 595.844 558.71 595.844C558.419 595.844 558.184 595.638 558.184 595.387C558.184 595.134 558.419 594.929 558.71 594.929C558.999 594.929 559.236 595.134 559.236 595.387Z" fill="#593639"/>
        <path d="M562.932 589.788C562.932 590.04 562.695 590.246 562.405 590.246C562.115 590.246 561.879 590.04 561.879 589.788C561.879 589.535 562.115 589.33 562.405 589.33C562.695 589.33 562.932 589.535 562.932 589.788Z" fill="#593639"/>
        <path d="M575.125 589.978C575.125 590.23 574.889 590.436 574.599 590.436C574.308 590.436 574.073 590.23 574.073 589.978C574.073 589.726 574.308 589.521 574.599 589.521C574.889 589.521 575.125 589.726 575.125 589.978Z" fill="#593639"/>
        <path d="M571.539 598.893C571.539 599.145 571.303 599.351 571.014 599.351C570.724 599.351 570.488 599.145 570.488 598.893C570.488 598.641 570.724 598.436 571.014 598.436C571.303 598.436 571.539 598.641 571.539 598.893Z" fill="#593639"/>
        <path d="M523.92 592.535C523.92 592.787 523.683 592.994 523.393 592.994C523.103 592.994 522.868 592.787 522.868 592.535C522.868 592.283 523.103 592.078 523.393 592.078C523.683 592.078 523.92 592.283 523.92 592.535Z" fill="#593639"/>
        <path d="M512.364 588.335C512.364 588.587 512.128 588.794 511.837 588.794C511.547 588.794 511.312 588.587 511.312 588.335C511.312 588.082 511.547 587.877 511.837 587.877C512.128 587.877 512.364 588.082 512.364 588.335Z" fill="#593639"/>
        <path d="M495.386 590.436C495.386 590.688 495.149 590.894 494.86 590.894C494.571 590.894 494.334 590.688 494.334 590.436C494.334 590.184 494.571 589.979 494.86 589.979C495.149 589.979 495.386 590.184 495.386 590.436Z" fill="#593639"/>
        <path d="M481.189 596.206C481.189 596.457 480.953 596.664 480.663 596.664C480.372 596.664 480.137 596.457 480.137 596.206C480.137 595.953 480.372 595.748 480.663 595.748C480.953 595.748 481.189 595.953 481.189 596.206Z" fill="#593639"/>
        <path d="M486.175 597.995C486.175 598.247 485.939 598.453 485.649 598.453C485.359 598.453 485.123 598.247 485.123 597.995C485.123 597.742 485.359 597.537 485.649 597.537C485.939 597.537 486.175 597.742 486.175 597.995Z" fill="#593639"/>
        <path d="M491.838 590.894C491.838 591.146 491.601 591.352 491.311 591.352C491.021 591.352 490.786 591.146 490.786 590.894C490.786 590.642 491.021 590.437 491.311 590.437C491.601 590.437 491.838 590.642 491.838 590.894Z" fill="#593639"/>
        <path d="M506.642 594.728C506.642 594.98 506.405 595.186 506.115 595.186C505.825 595.186 505.59 594.98 505.59 594.728C505.59 594.476 505.825 594.271 506.115 594.271C506.405 594.271 506.642 594.476 506.642 594.728Z" fill="#593639"/>
        <path d="M505.027 598.417C505.027 598.669 504.791 598.874 504.501 598.874C504.21 598.874 503.975 598.669 503.975 598.417C503.975 598.164 504.211 597.959 504.501 597.959C504.791 597.959 505.027 598.164 505.027 598.417Z" fill="#593639"/>
        <path d="M515.899 598.893C515.899 599.145 515.663 599.351 515.373 599.351C515.083 599.351 514.847 599.145 514.847 598.893C514.847 598.641 515.083 598.436 515.373 598.436C515.662 598.436 515.899 598.641 515.899 598.893Z" fill="#593639"/>
        <path d="M549.708 590.436C549.708 590.688 549.471 590.894 549.182 590.894C548.892 590.894 548.655 590.688 548.655 590.436C548.655 590.184 548.892 589.979 549.182 589.979C549.472 589.979 549.708 590.184 549.708 590.436Z" fill="#593639"/>
        <path d="M556.265 592.864C556.265 593.116 556.029 593.322 555.739 593.322C555.45 593.322 555.213 593.116 555.213 592.864C555.213 592.611 555.45 592.406 555.739 592.406C556.029 592.407 556.265 592.611 556.265 592.864Z" fill="#593639"/>
        <path d="M556.79 598.912C557.081 598.912 557.316 598.707 557.316 598.454C557.316 598.201 557.081 597.996 556.79 597.996C556.499 597.996 556.263 598.201 556.263 598.454C556.263 598.707 556.499 598.912 556.79 598.912Z" fill="#593639"/>
        <path d="M515.898 591.569C515.898 591.822 515.662 592.027 515.373 592.027C515.082 592.027 514.848 591.822 514.848 591.569C514.848 591.317 515.082 591.111 515.373 591.111C515.662 591.111 515.898 591.317 515.898 591.569Z" fill="#593639"/>
        <path d="M514.586 594.269C514.586 594.521 514.351 594.727 514.061 594.727C513.771 594.727 513.536 594.521 513.536 594.269C513.536 594.017 513.771 593.812 514.061 593.812C514.35 593.812 514.586 594.017 514.586 594.269Z" fill="#593639"/>
        <path d="M509.509 595.545C509.509 595.798 509.274 596.004 508.984 596.004C508.694 596.004 508.46 595.798 508.46 595.545C508.46 595.293 508.694 595.088 508.984 595.088C509.274 595.088 509.509 595.292 509.509 595.545Z" fill="#593639"/>
        <path d="M533.135 587.436C533.135 587.687 532.9 587.894 532.61 587.894C532.32 587.894 532.084 587.687 532.084 587.436C532.084 587.184 532.32 586.978 532.61 586.978C532.899 586.978 533.135 587.184 533.135 587.436Z" fill="#593639"/>
        <path d="M535.229 595.291C535.229 595.545 534.994 595.75 534.704 595.75C534.413 595.75 534.179 595.545 534.179 595.291C534.179 595.04 534.413 594.833 534.704 594.833C534.994 594.833 535.229 595.039 535.229 595.291Z" fill="#593639"/>
        <path d="M531.439 598.434C531.439 598.687 531.203 598.892 530.914 598.892C530.623 598.892 530.387 598.687 530.387 598.434C530.387 598.183 530.623 597.977 530.914 597.977C531.203 597.977 531.439 598.183 531.439 598.434Z" fill="#593639"/>
        <path d="M544.414 593.811C544.414 594.062 544.179 594.269 543.889 594.269C543.6 594.269 543.364 594.062 543.364 593.811C543.364 593.559 543.6 593.354 543.889 593.354C544.179 593.354 544.414 593.559 544.414 593.811Z" fill="#593639"/>
        <path d="M549.706 597.472C549.706 597.723 549.471 597.929 549.182 597.929C548.892 597.929 548.656 597.723 548.656 597.472C548.656 597.219 548.892 597.014 549.182 597.014C549.471 597.014 549.706 597.219 549.706 597.472Z" fill="#593639"/>
        <path d="M546.312 590.245C546.312 590.497 546.076 590.703 545.785 590.703C545.496 590.703 545.26 590.497 545.26 590.245C545.26 589.992 545.496 589.787 545.785 589.787C546.076 589.787 546.312 589.992 546.312 590.245Z" fill="#593639"/>
        <path d="M539.573 595.748C539.573 596.001 539.754 596.206 539.976 596.206C540.198 596.206 540.378 596.001 540.378 595.748C540.378 595.496 540.198 595.289 539.976 595.289C539.754 595.29 539.573 595.496 539.573 595.748Z" fill="#593639"/>
        <path d="M526.658 593.828C526.658 594.393 526.133 594.851 525.486 594.851C524.837 594.851 524.313 594.392 524.313 593.828C524.313 593.265 524.837 592.808 525.486 592.808C526.133 592.807 526.658 593.265 526.658 593.828Z" fill="#593639"/>
        <path d="M527.831 593.557C527.831 594.121 527.306 594.58 526.658 594.58C526.011 594.58 525.486 594.12 525.486 593.557C525.486 592.994 526.011 592.535 526.658 592.535C527.306 592.536 527.831 592.994 527.831 593.557Z" fill="#593639"/>
        <path d="M557.963 592.077C557.963 592.642 557.437 593.099 556.79 593.099C556.143 593.099 555.618 592.641 555.618 592.077C555.618 591.514 556.143 591.056 556.79 591.056C557.437 591.056 557.963 591.514 557.963 592.077Z" fill="#593639"/>
        <path d="M531.347 590.762C531.347 591.324 530.824 591.785 530.176 591.785C529.528 591.785 529.003 591.324 529.003 590.762C529.003 590.197 529.528 589.739 530.176 589.739C530.824 589.739 531.347 590.197 531.347 590.762Z" fill="#593639"/>
        <path d="M498.432 594.579C498.432 595.113 497.067 595.544 495.385 595.544C493.702 595.544 492.337 595.113 492.337 594.579C492.337 594.046 493.702 593.615 495.385 593.615C497.068 593.615 498.432 594.047 498.432 594.579Z" fill="#593639"/>
        <path d="M509.426 598.417C509.426 598.659 508.901 598.857 508.253 598.857C507.606 598.857 507.081 598.659 507.081 598.417C507.081 598.174 507.606 597.977 508.253 597.977C508.901 597.977 509.426 598.173 509.426 598.417Z" fill="#593639"/>
        <path d="M508.985 592.866C508.985 593.428 508.461 593.887 507.814 593.887C507.166 593.887 506.641 593.427 506.641 592.866C506.641 592.3 507.166 591.842 507.814 591.842C508.461 591.842 508.985 592.3 508.985 592.866Z" fill="#593639"/>
        <path d="M513.01 592.189C513.01 592.941 512.486 593.557 511.839 593.557C511.191 593.557 510.665 592.941 510.665 592.189C510.665 591.432 511.191 590.819 511.839 590.819C512.486 590.82 513.01 591.432 513.01 592.189Z" fill="#593639"/>
        <path d="M532.084 594.27C532.084 594.833 531.56 595.291 530.912 595.291C530.265 595.291 529.74 594.833 529.74 594.27C529.74 593.705 530.265 593.248 530.912 593.248C531.561 593.248 532.084 593.705 532.084 594.27Z" fill="#593639"/>
        <path d="M567.408 598.418C567.408 598.982 566.886 599.439 566.237 599.439C565.589 599.439 565.064 598.981 565.064 598.418C565.064 597.855 565.589 597.396 566.237 597.396C566.886 597.396 567.408 597.854 567.408 598.418Z" fill="#593639"/>
        <path d="M552.231 595.292C552.231 595.857 551.706 596.315 551.058 596.315C550.41 596.315 549.885 595.856 549.885 595.292C549.885 594.728 550.41 594.271 551.058 594.271C551.706 594.271 552.231 594.728 552.231 595.292Z" fill="#593639"/>
        <path d="M543.734 599.12C543.734 599.685 543.209 600.142 542.561 600.142C541.913 600.142 541.388 599.685 541.388 599.12C541.388 598.557 541.913 598.099 542.561 598.099C543.209 598.099 543.734 598.557 543.734 599.12Z" fill="#593639"/>
        <path d="M562.93 595.542C562.93 596.107 562.404 596.565 561.756 596.565C561.109 596.565 560.583 596.106 560.583 595.542C560.583 594.978 561.109 594.52 561.756 594.52C562.404 594.52 562.93 594.978 562.93 595.542Z" fill="#593639"/>
        <path d="M527.831 598.099C527.831 598.663 527.306 599.123 526.658 599.123C526.011 599.123 525.486 598.662 525.486 598.099C525.486 597.534 526.011 597.078 526.658 597.078C527.306 597.077 527.831 597.534 527.831 598.099Z" fill="#593639"/>
        <g filter="url(#filter2_b_0_1)">
            <path d="M473.431 358.353C459.725 358.353 447.34 372.448 447.34 386.126V677.064C447.34 690.741 460.742 704.497 474.45 704.497H597.998C611.706 704.497 625.448 691.081 625.448 677.4V385.787C625.448 372.108 613.064 358.353 599.356 358.353H473.431Z" fill="black" fill-opacity="0.1"/>
        </g>
        <path d="M575.13 566.259C575.13 568.765 573.087 570.803 570.576 570.803H564.414C563.65 570.803 563.031 571.422 563.031 572.186V572.186C563.031 572.95 563.65 573.57 564.414 573.57H570.576C574.616 573.57 577.903 570.29 577.903 566.258V560.116C577.903 559.35 577.282 558.729 576.516 558.729V558.729C575.751 558.729 575.13 559.35 575.13 560.116V566.259Z" fill="white"/>
        <path d="M570.576 493.187C573.087 493.187 575.13 495.226 575.13 497.732V503.874C575.13 504.64 575.751 505.261 576.516 505.261V505.261C577.282 505.261 577.903 504.64 577.903 503.874V497.732C577.903 493.701 574.616 490.421 570.576 490.421H564.414C563.65 490.421 563.031 491.04 563.031 491.804V491.804C563.031 492.568 563.65 493.187 564.414 493.187L570.576 493.187Z" fill="white"/>
        <path d="M501.903 570.802C499.391 570.802 497.348 568.764 497.348 566.258V560.115C497.348 559.35 496.727 558.729 495.962 558.729V558.729C495.196 558.729 494.575 559.35 494.575 560.115V566.258C494.575 570.289 497.863 573.569 501.903 573.569H508.065C508.829 573.569 509.448 572.95 509.448 572.186V572.186C509.448 571.422 508.829 570.803 508.065 570.803L501.903 570.802Z" fill="white"/>
        <path d="M497.348 497.731C497.348 495.225 499.391 493.187 501.903 493.187H508.065C508.829 493.187 509.448 492.568 509.448 491.804V491.804C509.448 491.04 508.829 490.421 508.065 490.421H501.903C497.863 490.421 494.575 493.701 494.575 497.732V503.874C494.575 504.64 495.196 505.261 495.962 505.261V505.261C496.727 505.261 497.348 504.64 497.348 503.874V497.731Z" fill="white"/>
        <path d="M539.673 600.674C539.673 599.139 538.426 597.896 536.889 597.896C535.352 597.896 534.105 599.139 534.105 600.674C534.105 602.208 535.352 603.451 536.889 603.451C538.426 603.452 539.673 602.208 539.673 600.674Z" fill="white"/>
        <path d="M537.371 600.193L536.406 601.157L548.031 618.763H604.126V617.401H548.597L537.371 600.193Z" fill="white"/>
        <path opacity="0.6" d="M604.126 622.014H549.494V646.545H604.126V622.014Z" fill="white"/>
        <path d="M591.607 639.844H562.697V641.888H591.607V639.844Z" fill="white"/>
        <path d="M591.607 635.764H562.697V637.808H591.607V635.764Z" fill="white"/>
        <path d="M591.607 631.683H562.697V633.727H591.607V631.683Z" fill="white"/>
        <path d="M591.607 627.601H562.697V629.645H591.607V627.601Z" fill="white"/>
    </g>
    <defs>
        <filter id="filter0_d_0_1" x="612.854" y="639.883" width="153.452" height="21.6329" filterUnits="userSpaceOnUse" color-interpolation-filters="sRGB">
            <feFlood flood-opacity="0" result="BackgroundImageFix"/>
            <feColorMatrix in="SourceAlpha" type="matrix" values="0 0 0 0 0 0 0 0 0 0 0 0 0 0 0 0 0 0 127 0" result="hardAlpha"/>
            <feOffset dy="1.76395"/>
            <feGaussianBlur stdDeviation="0.881975"/>
            <feComposite in2="hardAlpha" operator="out"/>
            <feColorMatrix type="matrix" values="0 0 0 0 0 0 0 0 0 0 0 0 0 0 0 0 0 0 0.05 0"/>
            <feBlend mode="normal" in2="BackgroundImageFix" result="effect1_dropShadow_0_1"/>
            <feBlend mode="normal" in="SourceGraphic" in2="effect1_dropShadow_0_1" result="shape"/>
        </filter>
        <filter id="filter1_d_0_1" x="468.221" y="600.695" width="133.625" height="19.2383" filterUnits="userSpaceOnUse" color-interpolation-filters="sRGB">
            <feFlood flood-opacity="0" result="BackgroundImageFix"/>
            <feColorMatrix in="SourceAlpha" type="matrix" values="0 0 0 0 0 0 0 0 0 0 0 0 0 0 0 0 0 0 127 0" result="hardAlpha"/>
            <feOffset dy="1.76395"/>
            <feGaussianBlur stdDeviation="0.881975"/>
            <feComposite in2="hardAlpha" operator="out"/>
            <feColorMatrix type="matrix" values="0 0 0 0 0 0 0 0 0 0 0 0 0 0 0 0 0 0 0.05 0"/>
            <feBlend mode="normal" in2="BackgroundImageFix" result="effect1_dropShadow_0_1"/>
            <feBlend mode="normal" in="SourceGraphic" in2="effect1_dropShadow_0_1" result="shape"/>
        </filter>
        <filter id="filter2_b_0_1" x="441.09" y="352.103" width="190.607" height="358.643" filterUnits="userSpaceOnUse" color-interpolation-filters="sRGB">
            <feFlood flood-opacity="0" result="BackgroundImageFix"/>
            <feGaussianBlur in="BackgroundImage" stdDeviation="3.12461"/>
            <feComposite in2="SourceAlpha" operator="in" result="effect1_backgroundBlur_0_1"/>
            <feBlend mode="normal" in="SourceGraphic" in2="effect1_backgroundBlur_0_1" result="shape"/>
        </filter>
        <clipPath id="clip0_0_1">
            <rect width="1271" height="669" fill="white"/>
        </clipPath>
        <clipPath id="clip1_0_1">
            <rect width="339" height="411.001" fill="white" transform="translate(440 354)"/>
        </clipPath>
    </defs>
</svg>
