<svg width="969" height="410" viewBox="0 0 969 410" fill="none" xmlns="http://www.w3.org/2000/svg">
<g clip-path="url(#clip0_2_1840)">
<path d="M777.63 67.1628C777.63 67.1628 780.108 66.8584 780.548 67.5131C780.987 68.1678 780.003 70.6985 780.003 70.6985" fill="#FC8181"/>
<path d="M777.63 67.1628C777.63 67.1628 780.108 66.8584 780.548 67.5131C780.987 68.1678 780.003 70.6985 780.003 70.6985" stroke="#FC8181" stroke-width="2.26564" stroke-miterlimit="10" stroke-linecap="round" stroke-linejoin="round"/>
<path d="M774.672 67.2514C775.622 66.1375 777.059 66.3115 777.63 67.1627C778.202 68.0139 779.432 69.8472 780.004 70.6985C780.575 71.5497 780.193 72.9471 778.803 73.4062" fill="#FC8181"/>
<path d="M774.672 67.2514C775.622 66.1375 777.059 66.3115 777.63 67.1627C778.202 68.0139 779.432 69.8472 780.004 70.6985C780.575 71.5497 780.193 72.9471 778.803 73.4062" stroke="#FC8181" stroke-width="2.26564" stroke-miterlimit="10" stroke-linecap="round" stroke-linejoin="round"/>
<path d="M748.896 82.4924C750.721 78.8895 758.855 70.3796 762.865 68.0636C766.874 65.7476 774.19 66.53 774.673 67.2502C775.157 67.9704 778.321 72.6843 778.804 73.4044C779.288 74.1245 777.246 81.1986 773.588 84.0383C769.93 86.8779 758.983 91.1979 754.961 91.5273" fill="#FC8181"/>
<path d="M748.896 82.4924C750.721 78.8895 758.855 70.3796 762.865 68.0636C766.874 65.7476 774.19 66.53 774.673 67.2502C775.157 67.9704 778.321 72.6843 778.804 73.4044C779.288 74.1245 777.246 81.1986 773.588 84.0383C769.93 86.8779 758.983 91.1979 754.961 91.5273" stroke="#FC8181" stroke-width="2.26564" stroke-miterlimit="10" stroke-linecap="round" stroke-linejoin="round"/>
<path d="M753.938 92.2632L754.842 97.9734C754.842 97.9734 746.319 98.7633 745.493 98.9383" stroke="#FC8181" stroke-width="2.26564" stroke-miterlimit="10" stroke-linecap="round" stroke-linejoin="round"/>
<path d="M747.418 93.9036L764.837 99.237" stroke="#FC8181" stroke-width="2.26564" stroke-miterlimit="10" stroke-linecap="round" stroke-linejoin="round"/>
<path d="M762.812 89.3714L762.363 93.8686L775.198 93.6005" stroke="#FC8181" stroke-width="2.26564" stroke-miterlimit="10" stroke-linecap="round" stroke-linejoin="round"/>
<path d="M769.713 86.3683L774.605 89.6282L786.292 76.0693" stroke="#FC8181" stroke-width="2.26564" stroke-miterlimit="10" stroke-linecap="round" stroke-linejoin="round"/>
<path d="M747.894 83.1036L742.886 80.1644C742.886 80.1644 738.934 87.7631 738.46 88.4619" stroke="#FC8181" stroke-width="2.26564" stroke-miterlimit="10" stroke-linecap="round" stroke-linejoin="round"/>
<path d="M743.865 88.6431L745.497 70.4265" stroke="#FC8181" stroke-width="2.26564" stroke-miterlimit="10" stroke-linecap="round" stroke-linejoin="round"/>
<path d="M753.847 76.0805L749.528 74.7482L754.628 62.9571" stroke="#FC8181" stroke-width="2.26564" stroke-miterlimit="10" stroke-linecap="round" stroke-linejoin="round"/>
<path d="M759.292 70.7507L758.078 65.0086L775.038 59.3056" stroke="#FC8181" stroke-width="2.26564" stroke-miterlimit="10" stroke-linecap="round" stroke-linejoin="round"/>
<path d="M748.65 82.5218C747.488 82.6642 747.388 85.3243 746.421 86.5067C745.454 87.6891 744.43 87.1001 743.92 88.4012C743.41 89.7023 744.429 89.3236 744.275 89.8663C744.013 90.7877 745.441 92.9152 746.392 93.0209C746.953 93.0832 746.217 93.884 747.613 93.9034C749.01 93.9229 748.852 92.7512 750.311 92.3024C751.77 91.8536 754.269 92.7659 754.84 91.7432C755.411 90.7205 755.015 88.8199 753.169 86.0688C751.322 83.3176 749.812 82.3794 748.65 82.5218Z" fill="#FC8181" stroke="#FC8181" stroke-width="2.26564" stroke-miterlimit="10" stroke-linecap="round" stroke-linejoin="round"/>
<path d="M2.63279 165.909C2.63279 165.909 1.52513 165.102 1.59399 164.674C1.66285 164.247 3.00464 163.602 3.00464 163.602" fill="#FC8181"/>
<path d="M2.63279 165.909C2.63279 165.909 1.52513 165.102 1.59399 164.674C1.66285 164.247 3.00464 163.602 3.00464 163.602" stroke="#FC8181" stroke-width="1.24297" stroke-miterlimit="10" stroke-linecap="round" stroke-linejoin="round"/>
<path d="M3.85158 166.983C3.05359 167.074 2.54244 166.465 2.63199 165.909C2.72155 165.354 2.91442 164.158 3.00397 163.602C3.09352 163.047 3.76999 162.63 4.49909 162.967" fill="#FC8181"/>
<path d="M3.85158 166.983C3.05359 167.074 2.54244 166.465 2.63199 165.909C2.72155 165.354 2.91442 164.158 3.00397 163.602C3.09352 163.047 3.76999 162.63 4.49909 162.967" stroke="#FC8181" stroke-width="1.24297" stroke-miterlimit="10" stroke-linecap="round" stroke-linejoin="round"/>
<path d="M19.8876 170.538C17.8075 171.298 11.3623 171.659 8.88841 171.084C6.41455 170.508 3.77518 167.452 3.85094 166.982C3.9267 166.512 4.42256 163.436 4.49831 162.966C4.57407 162.497 8.03987 160.427 10.5688 160.66C13.0978 160.894 19.1023 163.267 20.838 164.643" fill="#FC8181"/>
<path d="M19.8876 170.538C17.8075 171.298 11.3623 171.659 8.88841 171.084C6.41455 170.508 3.77518 167.452 3.85094 166.982C3.9267 166.512 4.42256 163.436 4.49831 162.966C4.57407 162.497 8.03987 160.427 10.5688 160.66C13.0978 160.894 19.1023 163.267 20.838 164.643" stroke="#FC8181" stroke-width="1.24297" stroke-miterlimit="10" stroke-linecap="round" stroke-linejoin="round"/>
<path d="M21.5245 164.729L23.2992 162.103C23.2992 162.103 27.011 164.981 27.4074 165.22" stroke="#FC8181" stroke-width="1.24297" stroke-miterlimit="10" stroke-linecap="round" stroke-linejoin="round"/>
<path d="M24.7513 166.518L19.7655 157.849" stroke="#FC8181" stroke-width="1.24297" stroke-miterlimit="10" stroke-linecap="round" stroke-linejoin="round"/>
<path d="M16.8847 162.563L18.7478 160.929L13.503 156.224" stroke="#FC8181" stroke-width="1.24297" stroke-miterlimit="10" stroke-linecap="round" stroke-linejoin="round"/>
<path d="M12.9947 161.178L12.254 158.038L2.4953 159.09" stroke="#FC8181" stroke-width="1.24297" stroke-miterlimit="10" stroke-linecap="round" stroke-linejoin="round"/>
<path d="M20.5178 170.668L21.425 173.723C21.425 173.723 25.8531 172.16 26.3045 172.057" stroke="#FC8181" stroke-width="1.24297" stroke-miterlimit="10" stroke-linecap="round" stroke-linejoin="round"/>
<path d="M24.2056 169.958L16.7338 176.648" stroke="#FC8181" stroke-width="1.24297" stroke-miterlimit="10" stroke-linecap="round" stroke-linejoin="round"/>
<path d="M15.5024 171.251L16.7353 173.405L10.2783 176.219" stroke="#FC8181" stroke-width="1.24297" stroke-miterlimit="10" stroke-linecap="round" stroke-linejoin="round"/>
<path d="M11.3251 171.347L9.66292 174.103L0.730543 170.03" stroke="#FC8181" stroke-width="1.24297" stroke-miterlimit="10" stroke-linecap="round" stroke-linejoin="round"/>
<path d="M19.9961 170.618C20.5151 170.996 21.551 169.968 22.381 169.857C23.2111 169.745 23.4011 170.365 24.0925 170.035C24.7838 169.705 24.2337 169.474 24.4986 169.315C24.9484 169.043 25.1723 167.655 24.8306 167.256C24.6293 167.021 25.2238 166.976 24.6714 166.445C24.1191 165.913 23.7438 166.442 22.9909 166.075C22.2381 165.708 21.578 164.405 20.9664 164.601C20.3547 164.797 19.8019 165.707 19.5125 167.502C19.223 169.297 19.4771 170.239 19.9961 170.618Z" fill="#FC8181" stroke="#FC8181" stroke-width="1.24297" stroke-miterlimit="10" stroke-linecap="round" stroke-linejoin="round"/>
<path d="M799.332 393.715C799.332 393.715 800.491 393.844 800.62 394.19C800.749 394.535 800.028 395.579 800.028 395.579" fill="#FC8181"/>
<path d="M799.332 393.715C799.332 393.715 800.491 393.844 800.62 394.19C800.749 394.535 800.028 395.579 800.028 395.579" stroke="#FC8181" stroke-width="1.0588" stroke-miterlimit="10" stroke-linecap="round" stroke-linejoin="round"/>
<path d="M797.977 393.435C798.529 393.031 799.164 393.266 799.332 393.715C799.5 394.164 799.861 395.13 800.029 395.579C800.196 396.028 799.871 396.622 799.19 396.68" fill="#FC8181"/>
<path d="M797.977 393.435C798.529 393.031 799.164 393.266 799.332 393.715C799.5 394.164 799.861 395.13 800.029 395.579C800.196 396.028 799.871 396.622 799.19 396.68" stroke="#FC8181" stroke-width="1.0588" stroke-miterlimit="10" stroke-linecap="round" stroke-linejoin="round"/>
<path d="M784.611 397.575C785.831 396.134 790.448 393.145 792.522 392.526C794.595 391.907 797.836 393.054 797.978 393.434C798.12 393.814 799.049 396.299 799.191 396.679C799.333 397.059 797.64 400.054 795.67 400.949C793.7 401.844 788.256 402.624 786.392 402.339" fill="#FC8181"/>
<path d="M784.611 397.575C785.831 396.134 790.448 393.145 792.522 392.526C794.595 391.907 797.836 393.054 797.978 393.434C798.12 393.814 799.049 396.299 799.191 396.679C799.333 397.059 797.64 400.054 795.67 400.949C793.7 401.844 788.256 402.624 786.392 402.339" stroke="#FC8181" stroke-width="1.0588" stroke-miterlimit="10" stroke-linecap="round" stroke-linejoin="round"/>
<path d="M785.848 402.563L785.641 405.256C785.641 405.256 781.681 404.694 781.287 404.684" stroke="#FC8181" stroke-width="1.0588" stroke-miterlimit="10" stroke-linecap="round" stroke-linejoin="round"/>
<path d="M782.706 402.603L790.049 406.912" stroke="#FC8181" stroke-width="1.0588" stroke-miterlimit="10" stroke-linecap="round" stroke-linejoin="round"/>
<path d="M790.195 402.209L789.505 404.205L795.368 405.471" stroke="#FC8181" stroke-width="1.0588" stroke-miterlimit="10" stroke-linecap="round" stroke-linejoin="round"/>
<path d="M793.657 401.591L795.528 403.602L802.306 398.703" stroke="#FC8181" stroke-width="1.0588" stroke-miterlimit="10" stroke-linecap="round" stroke-linejoin="round"/>
<path d="M784.089 397.743L782.131 395.866C782.131 395.866 779.512 398.892 779.221 399.158" stroke="#FC8181" stroke-width="1.0588" stroke-miterlimit="10" stroke-linecap="round" stroke-linejoin="round"/>
<path d="M781.659 399.826L784.37 391.72" stroke="#FC8181" stroke-width="1.0588" stroke-miterlimit="10" stroke-linecap="round" stroke-linejoin="round"/>
<path d="M787.555 395.195L785.735 394.122L789.328 389.313" stroke="#FC8181" stroke-width="1.0588" stroke-miterlimit="10" stroke-linecap="round" stroke-linejoin="round"/>
<path d="M790.606 393.361L790.675 390.62L799.001 389.862" stroke="#FC8181" stroke-width="1.0588" stroke-miterlimit="10" stroke-linecap="round" stroke-linejoin="round"/>
<path d="M784.496 397.561C783.953 397.5 783.62 398.698 783.052 399.131C782.485 399.564 782.083 399.186 781.71 399.722C781.338 400.258 781.842 400.196 781.713 400.426C781.495 400.817 781.914 401.939 782.335 402.09C782.583 402.179 782.162 402.463 782.795 402.623C783.428 402.783 783.482 402.233 784.194 402.187C784.906 402.141 785.944 402.826 786.314 402.423C786.684 402.02 786.71 401.113 786.167 399.662C785.625 398.212 785.04 397.622 784.496 397.561Z" fill="#FC8181" stroke="#FC8181" stroke-width="1.0588" stroke-miterlimit="10" stroke-linecap="round" stroke-linejoin="round"/>
<path d="M928.942 180.608C928.942 180.608 930.305 180.47 930.538 180.835C930.771 181.199 930.201 182.575 930.201 182.575" fill="#FC8181"/>
<path d="M928.942 180.608C928.942 180.608 930.305 180.47 930.538 180.835C930.771 181.199 930.201 182.575 930.201 182.575" stroke="#FC8181" stroke-width="1.24297" stroke-miterlimit="10" stroke-linecap="round" stroke-linejoin="round"/>
<path d="M927.318 180.621C927.853 180.021 928.639 180.134 928.942 180.608C929.245 181.081 929.898 182.102 930.201 182.575C930.505 183.049 930.278 183.811 929.51 184.046" fill="#FC8181"/>
<path d="M927.318 180.621C927.853 180.021 928.639 180.134 928.942 180.608C929.245 181.081 929.898 182.102 930.201 182.575C930.505 183.049 930.278 183.811 929.51 184.046" stroke="#FC8181" stroke-width="1.24297" stroke-miterlimit="10" stroke-linecap="round" stroke-linejoin="round"/>
<path d="M912.998 188.671C914.042 186.717 918.606 182.147 920.833 180.925C923.06 179.702 927.063 180.219 927.319 180.62C927.576 181.021 929.255 183.644 929.511 184.045C929.768 184.446 928.563 188.301 926.523 189.815C924.482 191.329 918.426 193.567 916.216 193.699" fill="#FC8181"/>
<path d="M912.998 188.671C914.042 186.717 918.606 182.147 920.833 180.925C923.06 179.702 927.063 180.219 927.319 180.62C927.576 181.021 929.255 183.644 929.511 184.045C929.768 184.446 928.563 188.301 926.523 189.815C924.482 191.329 918.426 193.567 916.216 193.699" stroke="#FC8181" stroke-width="1.24297" stroke-miterlimit="10" stroke-linecap="round" stroke-linejoin="round"/>
<path d="M915.646 194.091L916.073 197.234C916.073 197.234 911.39 197.565 910.935 197.651" stroke="#FC8181" stroke-width="1.24297" stroke-miterlimit="10" stroke-linecap="round" stroke-linejoin="round"/>
<path d="M912.05 194.912L921.541 198.046" stroke="#FC8181" stroke-width="1.24297" stroke-miterlimit="10" stroke-linecap="round" stroke-linejoin="round"/>
<path d="M920.548 192.613L920.248 195.073L927.29 195.08" stroke="#FC8181" stroke-width="1.24297" stroke-miterlimit="10" stroke-linecap="round" stroke-linejoin="round"/>
<path d="M924.37 191.047L927.014 192.893L933.586 185.597" stroke="#FC8181" stroke-width="1.24297" stroke-miterlimit="10" stroke-linecap="round" stroke-linejoin="round"/>
<path d="M912.441 188.995L909.729 187.323C909.729 187.323 907.471 191.443 907.202 191.82" stroke="#FC8181" stroke-width="1.24297" stroke-miterlimit="10" stroke-linecap="round" stroke-linejoin="round"/>
<path d="M910.165 191.984L911.279 182.012" stroke="#FC8181" stroke-width="1.24297" stroke-miterlimit="10" stroke-linecap="round" stroke-linejoin="round"/>
<path d="M915.79 185.214L913.437 184.431L916.375 178.026" stroke="#FC8181" stroke-width="1.24297" stroke-miterlimit="10" stroke-linecap="round" stroke-linejoin="round"/>
<path d="M918.841 182.356L918.244 179.192L927.614 176.267" stroke="#FC8181" stroke-width="1.24297" stroke-miterlimit="10" stroke-linecap="round" stroke-linejoin="round"/>
<path d="M912.863 188.683C912.224 188.747 912.137 190.205 911.593 190.842C911.048 191.479 910.493 191.143 910.198 191.851C909.903 192.559 910.466 192.363 910.375 192.659C910.221 193.161 910.978 194.345 911.499 194.414C911.805 194.455 911.392 194.886 912.158 194.913C912.924 194.941 912.851 194.296 913.657 194.067C914.463 193.839 915.822 194.369 916.148 193.815C916.473 193.261 916.279 192.214 915.299 190.683C914.319 189.152 913.502 188.619 912.863 188.683Z" fill="#FC8181" stroke="#FC8181" stroke-width="1.24297" stroke-miterlimit="10" stroke-linecap="round" stroke-linejoin="round"/>
<path d="M191.683 353.48C191.683 353.48 191.177 352.705 191.323 352.451C191.469 352.198 192.471 352.114 192.471 352.114" fill="#FC8181"/>
<path d="M191.683 353.48C191.683 353.48 191.177 352.705 191.323 352.451C191.469 352.198 192.471 352.114 192.471 352.114" stroke="#FC8181" stroke-width="0.839513" stroke-miterlimit="10" stroke-linecap="round" stroke-linejoin="round"/>
<path d="M192.194 354.451C191.669 354.316 191.492 353.809 191.682 353.48C191.872 353.151 192.281 352.443 192.471 352.113C192.66 351.784 193.187 351.684 193.567 352.072" fill="#FC8181"/>
<path d="M192.194 354.451C191.669 354.316 191.492 353.809 191.682 353.48C191.872 353.151 192.281 352.443 192.471 352.113C192.66 351.784 193.187 351.684 193.567 352.072" stroke="#FC8181" stroke-width="0.839513" stroke-miterlimit="10" stroke-linecap="round" stroke-linejoin="round"/>
<path d="M201.464 360.55C199.969 360.529 195.813 359.208 194.39 358.25C192.966 357.293 192.033 354.729 192.194 354.45C192.354 354.172 193.406 352.35 193.566 352.071C193.727 351.793 196.411 351.32 197.952 352.075C199.492 352.83 202.714 355.771 203.479 357.057" fill="#FC8181"/>
<path d="M201.464 360.55C199.969 360.529 195.813 359.208 194.39 358.25C192.966 357.293 192.033 354.729 192.194 354.45C192.354 354.172 193.406 352.35 193.566 352.071C193.727 351.793 196.411 351.32 197.952 352.075C199.492 352.83 202.714 355.771 203.479 357.057" stroke="#FC8181" stroke-width="0.839513" stroke-miterlimit="10" stroke-linecap="round" stroke-linejoin="round"/>
<path d="M203.892 357.276L205.642 356.045C205.642 356.045 207.295 358.754 207.487 359" stroke="#FC8181" stroke-width="0.839513" stroke-miterlimit="10" stroke-linecap="round" stroke-linejoin="round"/>
<path d="M205.499 359.18L204.432 352.51" stroke="#FC8181" stroke-width="0.839513" stroke-miterlimit="10" stroke-linecap="round" stroke-linejoin="round"/>
<path d="M201.483 354.793L203.051 354.21L200.87 349.98" stroke="#FC8181" stroke-width="0.839513" stroke-miterlimit="10" stroke-linecap="round" stroke-linejoin="round"/>
<path d="M199.36 352.985L199.646 350.825L193.233 349.144" stroke="#FC8181" stroke-width="0.839513" stroke-miterlimit="10" stroke-linecap="round" stroke-linejoin="round"/>
<path d="M201.831 360.784L201.67 362.931C201.67 362.931 204.84 363.008 205.15 363.052" stroke="#FC8181" stroke-width="0.839513" stroke-miterlimit="10" stroke-linecap="round" stroke-linejoin="round"/>
<path d="M204.328 361.222L198.007 363.648" stroke="#FC8181" stroke-width="0.839513" stroke-miterlimit="10" stroke-linecap="round" stroke-linejoin="round"/>
<path d="M198.525 359.946L198.786 361.602L194.036 361.826" stroke="#FC8181" stroke-width="0.839513" stroke-miterlimit="10" stroke-linecap="round" stroke-linejoin="round"/>
<path d="M195.865 359.002L194.154 360.343L189.493 355.625" stroke="#FC8181" stroke-width="0.839513" stroke-miterlimit="10" stroke-linecap="round" stroke-linejoin="round"/>
<path d="M201.513 360.626C201.75 360.99 202.651 360.59 203.201 360.719C203.752 360.848 203.723 361.286 204.239 361.243C204.755 361.201 204.463 360.923 204.668 360.886C205.017 360.823 205.492 360.001 205.372 359.667C205.301 359.47 205.687 359.584 205.466 359.116C205.245 358.648 204.881 358.891 204.494 358.479C204.107 358.066 204.003 357.085 203.569 357.062C203.136 357.038 202.569 357.48 201.955 358.543C201.342 359.607 201.276 360.263 201.513 360.626Z" fill="#FC8181" stroke="#FC8181" stroke-width="0.839513" stroke-miterlimit="10" stroke-linecap="round" stroke-linejoin="round"/>
<path d="M97.8618 11.9038C97.8618 11.9038 97.1701 10.3348 97.5127 9.91583C97.8552 9.49688 99.7115 9.64136 99.7115 9.64136" fill="#FC8181"/>
<path d="M97.8618 11.9038C97.8618 11.9038 97.1701 10.3348 97.5127 9.91583C97.8552 9.49688 99.7115 9.64136 99.7115 9.64136" stroke="#FC8181" stroke-width="1.5548" stroke-miterlimit="10" stroke-linecap="round" stroke-linejoin="round"/>
<path d="M98.5078 13.8301C97.5882 13.4267 97.4172 12.4475 97.8625 11.9029C98.3077 11.3584 99.2666 10.1855 99.7118 9.64098C100.157 9.09642 101.15 9.07036 101.727 9.89259" fill="#FC8181"/>
<path d="M98.5078 13.8301C97.5882 13.4267 97.4172 12.4475 97.8625 11.9029C98.3077 11.3584 99.2666 10.1855 99.7118 9.64098C100.157 9.09642 101.15 9.07036 101.727 9.89259" stroke="#FC8181" stroke-width="1.5548" stroke-miterlimit="10" stroke-linecap="round" stroke-linejoin="round"/>
<path d="M113.628 27.7512C110.901 27.2665 103.7 23.6083 101.384 21.4321C99.0685 19.2558 98.1302 14.2909 98.5069 13.8301C98.8837 13.3693 101.35 10.3529 101.727 9.89211C102.103 9.43131 107.152 9.36902 109.742 11.2101C112.332 13.0513 117.34 19.3906 118.354 21.97" fill="#FC8181"/>
<path d="M113.628 27.7512C110.901 27.2665 103.7 23.6083 101.384 21.4321C99.0685 19.2558 98.1302 14.2909 98.5069 13.8301C98.8837 13.3693 101.35 10.3529 101.727 9.89211C102.103 9.43131 107.152 9.36902 109.742 11.2101C112.332 13.0513 117.34 19.3906 118.354 21.97" stroke="#FC8181" stroke-width="1.5548" stroke-miterlimit="10" stroke-linecap="round" stroke-linejoin="round"/>
<path d="M119.041 22.4971L122.61 20.7691C122.61 20.7691 124.82 26.2159 125.098 26.7239" stroke="#FC8181" stroke-width="1.5548" stroke-miterlimit="10" stroke-linecap="round" stroke-linejoin="round"/>
<path d="M121.412 26.4578L121.456 13.9467" stroke="#FC8181" stroke-width="1.5548" stroke-miterlimit="10" stroke-linecap="round" stroke-linejoin="round"/>
<path d="M115.381 17.2369L118.422 16.639L115.699 8.25399" stroke="#FC8181" stroke-width="1.5548" stroke-miterlimit="10" stroke-linecap="round" stroke-linejoin="round"/>
<path d="M112.04 13.2959L113.208 9.43247L101.989 4.44098" stroke="#FC8181" stroke-width="1.5548" stroke-miterlimit="10" stroke-linecap="round" stroke-linejoin="round"/>
<path d="M114.229 28.2878L113.293 32.1638C113.293 32.1638 119.066 33.2538 119.618 33.4267" stroke="#FC8181" stroke-width="1.5548" stroke-miterlimit="10" stroke-linecap="round" stroke-linejoin="round"/>
<path d="M118.664 29.8374L106.383 32.3813" stroke="#FC8181" stroke-width="1.5548" stroke-miterlimit="10" stroke-linecap="round" stroke-linejoin="round"/>
<path d="M108.436 25.7685L108.419 28.8731L99.6677 27.8613" stroke="#FC8181" stroke-width="1.5548" stroke-miterlimit="10" stroke-linecap="round" stroke-linejoin="round"/>
<path d="M103.857 23.2468L100.329 25.1854L93.2192 15.1669" stroke="#FC8181" stroke-width="1.5548" stroke-miterlimit="10" stroke-linecap="round" stroke-linejoin="round"/>
<path d="M113.696 27.907C114.02 28.6426 115.786 28.1807 116.754 28.5815C117.722 28.9823 117.539 29.7726 118.494 29.8495C119.449 29.9263 118.998 29.3318 119.385 29.3253C120.042 29.3145 121.155 27.9532 121.036 27.3068C120.965 26.9261 121.637 27.2506 121.373 26.3287C121.108 25.4069 120.37 25.7432 119.786 24.873C119.202 24.0027 119.305 22.1789 118.52 22.0065C117.736 21.8342 116.567 22.4716 115.128 24.232C113.688 25.9924 113.372 27.1714 113.696 27.907Z" fill="#FC8181" stroke="#FC8181" stroke-width="1.5548" stroke-miterlimit="10" stroke-linecap="round" stroke-linejoin="round"/>
<path d="M186.91 182.255C187.653 184.223 189.197 185.858 191.092 186.684C192.065 187.108 193.142 187.166 194.199 187.081C194.656 187.045 195.132 187.11 195.598 187.297C196.875 187.808 197.668 189.173 197.483 190.537C197.232 192.385 195.447 193.552 193.692 193.107C193.168 192.974 192.71 192.712 192.343 192.365C192.169 192.201 191.878 191.799 191.878 191.799C190.007 189.666 186.754 188.877 184.115 189.918" fill="#FC8181"/>
<path d="M186.91 182.255C187.653 184.223 189.197 185.858 191.092 186.684C192.065 187.108 193.142 187.166 194.199 187.081C194.656 187.045 195.132 187.11 195.598 187.297C196.875 187.808 197.668 189.173 197.483 190.537C197.232 192.385 195.447 193.552 193.692 193.107C193.168 192.974 192.71 192.712 192.343 192.365C192.169 192.201 191.878 191.799 191.878 191.799C190.007 189.666 186.754 188.877 184.115 189.918" stroke="#FC8181" stroke-width="1.72968" stroke-miterlimit="10" stroke-linecap="round" stroke-linejoin="round"/>
<path d="M151.583 192.757C149.594 192.074 147.352 192.222 145.507 193.154C144.56 193.633 143.829 194.426 143.22 195.294C142.957 195.67 142.603 195.995 142.162 196.235C140.954 196.893 139.398 196.633 138.466 195.62C137.203 194.248 137.443 192.128 138.905 191.06C139.342 190.741 139.835 190.554 140.336 190.493C140.574 190.464 141.068 190.496 141.068 190.496C143.903 190.416 146.585 188.413 147.466 185.715" fill="#FC8181"/>
<path d="M151.583 192.757C149.594 192.074 147.352 192.222 145.507 193.154C144.56 193.633 143.829 194.426 143.22 195.294C142.957 195.67 142.603 195.995 142.162 196.235C140.954 196.893 139.398 196.633 138.466 195.62C137.203 194.248 137.443 192.128 138.905 191.06C139.342 190.741 139.835 190.554 140.336 190.493C140.574 190.464 141.068 190.496 141.068 190.496C143.903 190.416 146.585 188.413 147.466 185.715" stroke="#FC8181" stroke-width="1.72968" stroke-miterlimit="10" stroke-linecap="round" stroke-linejoin="round"/>
<path d="M177.518 168.28C181.756 169.253 184.98 166.197 186.571 164.209C187.101 163.548 187.51 162.806 187.92 162.064C188.756 160.55 190.705 159.892 192.363 160.809C193.506 161.441 194.161 162.75 193.987 164.045C193.802 165.421 192.84 166.422 191.66 166.763C191.66 166.763 182.87 170.087 181.536 174.174" fill="#FC8181"/>
<path d="M177.518 168.28C181.756 169.253 184.98 166.197 186.571 164.209C187.101 163.548 187.51 162.806 187.92 162.064C188.756 160.55 190.705 159.892 192.363 160.809C193.506 161.441 194.161 162.75 193.987 164.045C193.802 165.421 192.84 166.422 191.66 166.763C191.66 166.763 182.87 170.087 181.536 174.174" stroke="#FC8181" stroke-width="1.72968" stroke-miterlimit="10" stroke-linecap="round" stroke-linejoin="round"/>
<path d="M168.971 161.153C170.437 159.456 170.807 157.183 170.204 155.03C170.088 154.403 170.141 153.737 170.393 153.1C171.107 151.3 173.145 150.419 174.945 151.134C176.745 151.849 177.625 153.887 176.911 155.688C176.757 156.077 176.542 156.422 176.28 156.718C174.535 158.636 173.878 160.796 174.516 163.16" fill="#FC8181"/>
<path d="M168.971 161.153C170.437 159.456 170.807 157.183 170.204 155.03C170.088 154.403 170.141 153.737 170.393 153.1C171.107 151.3 173.145 150.419 174.945 151.134C176.745 151.849 177.625 153.887 176.911 155.688C176.757 156.077 176.542 156.422 176.28 156.718C174.535 158.636 173.878 160.796 174.516 163.16" stroke="#FC8181" stroke-width="1.72968" stroke-miterlimit="10" stroke-linecap="round" stroke-linejoin="round"/>
<path d="M187.098 186.251C190.02 174.723 183.047 163.006 171.523 160.08C160 157.154 148.289 164.128 145.367 175.656C142.445 187.183 149.418 198.9 160.941 201.826C172.465 204.752 184.175 197.778 187.098 186.251Z" fill="#FC8181" stroke="#FC8181" stroke-width="1.72968" stroke-miterlimit="10" stroke-linecap="round" stroke-linejoin="round"/>
<path d="M171.34 173.887C171.622 172.773 172.329 171.88 173.243 171.335C174.158 170.791 175.28 170.595 176.393 170.878C177.506 171.16 178.399 171.868 178.944 172.782C179.488 173.697 179.684 174.82 179.402 175.933C179.12 177.047 178.413 177.941 177.499 178.485C176.584 179.03 175.462 179.225 174.349 178.943" fill="#FAFAFA"/>
<path d="M171.34 173.887C171.622 172.773 172.329 171.88 173.243 171.335C174.158 170.791 175.28 170.595 176.393 170.878C177.506 171.16 178.399 171.868 178.944 172.782C179.488 173.697 179.684 174.82 179.402 175.933C179.12 177.047 178.413 177.941 177.499 178.485C176.584 179.03 175.462 179.225 174.349 178.943" stroke="#FC8181" stroke-width="1.72968" stroke-miterlimit="10" stroke-linecap="round" stroke-linejoin="round"/>
<path d="M158.502 187.598C157.682 187.39 157.024 186.869 156.623 186.195C156.222 185.521 156.077 184.695 156.285 183.874C156.493 183.054 157.014 182.396 157.687 181.995C158.361 181.594 159.187 181.45 160.007 181.658C160.827 181.866 161.485 182.387 161.886 183.061C162.287 183.735 162.431 184.562 162.223 185.382" fill="#FAFAFA"/>
<path d="M158.502 187.598C157.682 187.39 157.024 186.869 156.623 186.195C156.222 185.521 156.077 184.695 156.285 183.874C156.493 183.054 157.014 182.396 157.687 181.995C158.361 181.594 159.187 181.45 160.007 181.658C160.827 181.866 161.485 182.387 161.886 183.061C162.287 183.735 162.431 184.562 162.223 185.382" stroke="#FC8181" stroke-width="1.72968" stroke-miterlimit="10" stroke-linecap="round" stroke-linejoin="round"/>
<path d="M160.793 196.591C159.332 198.544 158.627 200.771 158.753 203.144C158.78 203.644 158.875 204.138 159.016 204.618C159.277 205.514 159.242 206.513 158.825 207.472C158.099 209.14 156.303 210.147 154.499 209.91C151.98 209.578 150.387 207.147 150.992 204.759C151.204 203.924 151.654 203.212 152.252 202.679C152.775 202.212 153.275 201.716 153.661 201.131C155.016 199.078 155.827 196.389 155.428 194.082" fill="#FC8181"/>
<path d="M160.793 196.591C159.332 198.544 158.627 200.771 158.753 203.144C158.78 203.644 158.875 204.138 159.016 204.618C159.277 205.514 159.242 206.513 158.825 207.472C158.099 209.14 156.303 210.147 154.499 209.91C151.98 209.578 150.387 207.147 150.992 204.759C151.204 203.924 151.654 203.212 152.252 202.679C152.775 202.212 153.275 201.716 153.661 201.131C155.016 199.078 155.827 196.389 155.428 194.082" stroke="#FC8181" stroke-width="1.72968" stroke-miterlimit="10" stroke-linecap="round" stroke-linejoin="round"/>
<path d="M178.569 191.871C178.556 191.923 178.543 191.976 178.529 192.029C177.983 194.185 177.974 196.739 178.413 198.92C178.663 200.162 179.09 201.43 179.8 202.432C180.3 203.137 181.032 203.625 181.823 203.971C183.894 204.879 184.948 207.361 183.897 209.593C183.193 211.087 181.606 212.033 179.957 211.939C177.249 211.786 175.488 209.249 176.119 206.757C176.235 206.318 176.3 206.042 176.268 205.518C176.18 204.133 175.849 202.722 175.38 201.446C174.631 199.406 173.211 197.618 171.394 196.425" fill="#FC8181"/>
<path d="M178.569 191.871C178.556 191.923 178.543 191.976 178.529 192.029C177.983 194.185 177.974 196.739 178.413 198.92C178.663 200.162 179.09 201.43 179.8 202.432C180.3 203.137 181.032 203.625 181.823 203.971C183.894 204.879 184.948 207.361 183.897 209.593C183.193 211.087 181.606 212.033 179.957 211.939C177.249 211.786 175.488 209.249 176.119 206.757C176.235 206.318 176.3 206.042 176.268 205.518C176.18 204.133 175.849 202.722 175.38 201.446C174.631 199.406 173.211 197.618 171.394 196.425" stroke="#FC8181" stroke-width="1.72968" stroke-miterlimit="10" stroke-linecap="round" stroke-linejoin="round"/>
<path d="M153.89 168.869C154.788 166.515 154.703 163.823 153.661 161.576C153.127 160.423 152.208 159.515 151.193 158.751C150.754 158.42 150.38 157.982 150.111 157.445C149.372 155.972 149.746 154.119 150.996 153.044C152.689 151.588 155.215 151.962 156.434 153.756C156.798 154.292 157.001 154.89 157.054 155.493C157.079 155.779 157.021 156.369 157.021 156.369C157.002 159.768 159.291 163.06 162.482 164.226" fill="#FC8181"/>
<path d="M153.89 168.869C154.788 166.515 154.703 163.823 153.661 161.576C153.127 160.423 152.208 159.515 151.193 158.751C150.754 158.42 150.38 157.982 150.111 157.445C149.372 155.972 149.746 154.119 150.996 153.044C152.689 151.588 155.215 151.962 156.434 153.756C156.798 154.292 157.001 154.89 157.054 155.493C157.079 155.779 157.021 156.369 157.021 156.369C157.002 159.768 159.291 163.06 162.482 164.226" stroke="#FC8181" stroke-width="1.72968" stroke-miterlimit="10" stroke-linecap="round" stroke-linejoin="round"/>
<path d="M146.395 180.887C144.648 179.481 142.364 179.192 140.234 179.871C139.612 180.01 138.945 179.98 138.3 179.75C136.476 179.1 135.524 177.094 136.173 175.269C136.822 173.444 138.827 172.492 140.652 173.142C141.045 173.282 141.398 173.486 141.704 173.737C143.682 175.413 145.863 175.993 148.202 175.272" fill="#FC8181"/>
<path d="M146.395 180.887C144.648 179.481 142.364 179.192 140.234 179.871C139.612 180.01 138.945 179.98 138.3 179.75C136.476 179.1 135.524 177.094 136.173 175.269C136.822 173.444 138.827 172.492 140.652 173.142C141.045 173.282 141.398 173.486 141.704 173.737C143.682 175.413 145.863 175.993 148.202 175.272" stroke="#FC8181" stroke-width="1.72968" stroke-miterlimit="10" stroke-linecap="round" stroke-linejoin="round"/>
<path d="M144 162.247C144.455 160.417 143.34 158.565 141.511 158.111C139.682 157.656 137.831 158.771 137.376 160.601C136.922 162.43 138.036 164.282 139.865 164.737C141.695 165.191 143.546 164.076 144 162.247Z" fill="#FC8181" stroke="#FC8181" stroke-width="1.72968" stroke-miterlimit="10" stroke-linecap="round" stroke-linejoin="round"/>
<path d="M164.206 149.359C163.993 150.203 163.136 150.713 162.293 150.499C161.45 150.285 160.94 149.428 161.154 148.585C161.367 147.741 162.224 147.231 163.067 147.445C163.91 147.659 164.42 148.516 164.206 149.359Z" fill="#FC8181" stroke="#FC8181" stroke-width="1.72968" stroke-miterlimit="10" stroke-linecap="round" stroke-linejoin="round"/>
<path d="M139.286 206.079C139.072 206.922 138.215 207.432 137.372 207.218C136.529 207.004 136.019 206.147 136.233 205.304C136.447 204.46 137.303 203.95 138.146 204.164C138.989 204.378 139.499 205.235 139.286 206.079Z" fill="#FC8181" stroke="#FC8181" stroke-width="1.72968" stroke-miterlimit="10" stroke-linecap="round" stroke-linejoin="round"/>
<path d="M172.966 217.603C173.505 215.462 172.206 213.289 170.065 212.75C167.925 212.211 165.753 213.509 165.215 215.651C164.676 217.792 165.975 219.965 168.115 220.504C170.256 221.043 172.427 219.745 172.966 217.603Z" fill="#FC8181" stroke="#FC8181" stroke-width="1.72968" stroke-miterlimit="10" stroke-linecap="round" stroke-linejoin="round"/>
<path d="M200.233 173.889C200.578 172.519 199.748 171.128 198.379 170.782C197.009 170.436 195.619 171.266 195.273 172.636C194.928 174.006 195.758 175.397 197.127 175.744C198.497 176.09 199.887 175.259 200.233 173.889Z" fill="#FC8181" stroke="#FC8181" stroke-width="1.72968" stroke-miterlimit="10" stroke-linecap="round" stroke-linejoin="round"/>
<path d="M73.4603 364.184C74.0942 365.862 75.411 367.256 77.0272 367.961C77.8563 368.322 78.7747 368.372 79.6762 368.3C80.0659 368.268 80.472 368.324 80.8691 368.483C81.9586 368.919 82.6344 370.083 82.4766 371.246C82.2627 372.822 80.7406 373.818 79.2443 373.438C78.7971 373.324 78.4063 373.102 78.0933 372.805C77.9451 372.665 77.6973 372.323 77.6973 372.323C76.1018 370.504 73.3277 369.831 71.0773 370.719" fill="#FC8181"/>
<path d="M73.4603 364.184C74.0942 365.862 75.411 367.256 77.0272 367.961C77.8563 368.322 78.7747 368.372 79.6762 368.3C80.0659 368.268 80.472 368.324 80.8691 368.483C81.9586 368.919 82.6344 370.083 82.4766 371.246C82.2627 372.822 80.7405 373.818 79.2443 373.438C78.7971 373.324 78.4063 373.102 78.0933 372.805C77.9451 372.665 77.6973 372.323 77.6973 372.323C76.1018 370.504 73.3277 369.831 71.0773 370.719" stroke="#FC8181" stroke-width="1.47505" stroke-miterlimit="10" stroke-linecap="round" stroke-linejoin="round"/>
<path d="M43.3344 373.14C41.6382 372.558 39.7255 372.683 38.1523 373.478C37.3452 373.886 36.7214 374.563 36.2022 375.303C35.9778 375.624 35.6756 375.901 35.3002 376.105C34.27 376.667 32.9427 376.445 32.1479 375.581C31.071 374.411 31.2754 372.603 32.522 371.692C32.8946 371.42 33.3151 371.261 33.7428 371.209C33.9453 371.184 34.3667 371.212 34.3667 371.212C36.7847 371.143 39.0714 369.435 39.8231 367.135" fill="#FC8181"/>
<path d="M43.3344 373.14C41.6382 372.558 39.7255 372.683 38.1523 373.478C37.3452 373.886 36.7214 374.563 36.2022 375.303C35.9778 375.624 35.6756 375.901 35.3002 376.105C34.27 376.667 32.9427 376.445 32.1479 375.581C31.071 374.411 31.2754 372.603 32.522 371.692C32.8946 371.42 33.3151 371.261 33.7428 371.209C33.9453 371.184 34.3667 371.212 34.3667 371.212C36.7847 371.143 39.0714 369.435 39.8231 367.135" stroke="#FC8181" stroke-width="1.47505" stroke-miterlimit="10" stroke-linecap="round" stroke-linejoin="round"/>
<path d="M65.451 352.266C69.0656 353.095 71.8145 350.489 73.1716 348.794C73.6231 348.23 73.9725 347.597 74.3218 346.964C75.035 345.673 76.697 345.112 78.1105 345.894C79.0851 346.433 79.6441 347.55 79.4957 348.654C79.3379 349.827 78.5175 350.681 77.5115 350.971C77.5115 350.971 70.0151 353.806 68.8777 357.292" fill="#FC8181"/>
<path d="M65.451 352.266C69.0656 353.095 71.8145 350.489 73.1716 348.794C73.6231 348.23 73.9725 347.597 74.3218 346.964C75.035 345.673 76.697 345.112 78.1105 345.894C79.0851 346.433 79.6441 347.55 79.4957 348.654C79.3379 349.827 78.5175 350.681 77.5115 350.971C77.5115 350.971 70.0151 353.806 68.8777 357.292" stroke="#FC8181" stroke-width="1.47505" stroke-miterlimit="10" stroke-linecap="round" stroke-linejoin="round"/>
<path d="M58.1624 346.187C59.4127 344.74 59.7281 342.801 59.2135 340.965C59.1144 340.43 59.1597 339.862 59.3749 339.32C59.9836 337.784 61.7216 337.033 63.2565 337.643C64.7915 338.252 65.5423 339.991 64.9336 341.526C64.8022 341.858 64.6183 342.152 64.3951 342.405C62.9073 344.041 62.3472 345.882 62.8908 347.898" fill="#FC8181"/>
<path d="M58.1624 346.187C59.4127 344.74 59.7281 342.801 59.2135 340.965C59.1144 340.43 59.1597 339.862 59.3749 339.32C59.9836 337.784 61.7216 337.033 63.2565 337.643C64.7915 338.252 65.5423 339.991 64.9336 341.526C64.8022 341.858 64.6183 342.152 64.3951 342.405C62.9073 344.041 62.3472 345.882 62.8908 347.898" stroke="#FC8181" stroke-width="1.47505" stroke-miterlimit="10" stroke-linecap="round" stroke-linejoin="round"/>
<path d="M73.6205 367.591C76.1125 357.76 70.1661 347.768 60.3389 345.273C50.5117 342.778 40.525 348.725 38.033 358.555C35.541 368.386 41.4874 378.378 51.3146 380.873C61.1418 383.368 71.1285 377.422 73.6205 367.591Z" fill="#FC8181" stroke="#FC8181" stroke-width="1.47505" stroke-miterlimit="10" stroke-linecap="round" stroke-linejoin="round"/>
<path d="M60.1827 357.047C60.4235 356.097 61.026 355.335 61.8058 354.871C62.5856 354.407 63.5424 354.24 64.4917 354.481C65.441 354.722 66.2028 355.325 66.6671 356.105C67.1314 356.885 67.2983 357.843 67.0576 358.792C66.8169 359.742 66.2143 360.504 65.4345 360.968C64.6548 361.433 63.6978 361.6 62.7486 361.358" fill="#FC8181"/>
<path d="M60.1827 357.047C60.4235 356.097 61.026 355.335 61.8058 354.871C62.5856 354.407 63.5424 354.24 64.4917 354.481C65.441 354.722 66.2028 355.325 66.6671 356.105C67.1314 356.885 67.2983 357.843 67.0576 358.792C66.8169 359.742 66.2143 360.504 65.4345 360.968C64.6548 361.433 63.6978 361.6 62.7486 361.358" stroke="#FC8181" stroke-width="1.47505" stroke-miterlimit="10" stroke-linecap="round" stroke-linejoin="round"/>
<path d="M49.2342 368.74C48.5351 368.563 47.9738 368.119 47.6319 367.544C47.2898 366.969 47.1669 366.264 47.3442 365.565C47.5215 364.865 47.9654 364.304 48.5397 363.962C49.1141 363.62 49.819 363.497 50.5181 363.674C51.2173 363.852 51.7784 364.296 52.1205 364.871C52.4626 365.446 52.5854 366.151 52.4081 366.85" fill="#FC8181"/>
<path d="M49.2342 368.74C48.5351 368.563 47.9738 368.119 47.6319 367.544C47.2898 366.969 47.1669 366.264 47.3442 365.565C47.5215 364.865 47.9654 364.304 48.5397 363.962C49.1141 363.62 49.819 363.497 50.5181 363.674C51.2173 363.852 51.7784 364.296 52.1205 364.871C52.4626 365.446 52.5854 366.151 52.4081 366.85" stroke="#FC8181" stroke-width="1.47505" stroke-miterlimit="10" stroke-linecap="round" stroke-linejoin="round"/>
<path d="M51.1883 376.409C49.942 378.075 49.3404 379.974 49.4482 381.997C49.471 382.424 49.5527 382.845 49.6724 383.255C49.8956 384.019 49.8656 384.871 49.5098 385.688C48.8907 387.111 47.3586 387.97 45.8208 387.767C43.6727 387.484 42.3135 385.411 42.8298 383.374C43.0102 382.662 43.3943 382.056 43.904 381.601C44.3506 381.203 44.7764 380.78 45.1062 380.28C46.2613 378.53 46.9534 376.237 46.6124 374.27" fill="#FC8181"/>
<path d="M51.1883 376.409C49.942 378.075 49.3404 379.974 49.4482 381.997C49.471 382.424 49.5527 382.845 49.6724 383.255C49.8956 384.019 49.8656 384.871 49.5098 385.688C48.8907 387.111 47.3586 387.97 45.8208 387.767C43.6727 387.484 42.3135 385.411 42.8298 383.374C43.0102 382.662 43.3943 382.056 43.904 381.601C44.3506 381.203 44.7764 380.78 45.1062 380.28C46.2613 378.53 46.9534 376.237 46.6124 374.27" stroke="#FC8181" stroke-width="1.47505" stroke-miterlimit="10" stroke-linecap="round" stroke-linejoin="round"/>
<path d="M66.3478 372.384C66.3364 372.429 66.3251 372.473 66.3136 372.518C65.8476 374.357 65.8399 376.536 66.2142 378.395C66.4274 379.454 66.792 380.536 67.3976 381.39C67.8239 381.991 68.4476 382.407 69.1224 382.703C70.8888 383.477 71.7872 385.594 70.8912 387.497C70.2911 388.771 68.9372 389.578 67.5309 389.498C65.2217 389.367 63.7199 387.203 64.2584 385.079C64.3572 384.704 64.4129 384.469 64.3848 384.022C64.3103 382.84 64.0275 381.637 63.628 380.549C62.9888 378.809 61.7784 377.284 60.229 376.267" fill="#FC8181"/>
<path d="M66.3478 372.384C66.3364 372.429 66.3251 372.473 66.3136 372.518C65.8476 374.357 65.8399 376.536 66.2142 378.395C66.4274 379.454 66.792 380.536 67.3976 381.39C67.8239 381.991 68.4476 382.407 69.1224 382.703C70.8888 383.477 71.7872 385.594 70.8912 387.497C70.2911 388.771 68.9372 389.578 67.5309 389.498C65.2217 389.367 63.7199 387.203 64.2584 385.079C64.3572 384.704 64.4129 384.469 64.3848 384.022C64.3103 382.84 64.0275 381.637 63.628 380.549C62.9888 378.809 61.7784 377.284 60.229 376.267" stroke="#FC8181" stroke-width="1.47505" stroke-miterlimit="10" stroke-linecap="round" stroke-linejoin="round"/>
<path d="M45.3016 352.768C46.0669 350.761 45.9943 348.465 45.1061 346.549C44.6505 345.566 43.8667 344.791 43.0013 344.139C42.6273 343.857 42.3079 343.484 42.0783 343.026C41.4483 341.769 41.7674 340.189 42.8329 339.273C44.2768 338.031 46.4316 338.35 47.4705 339.88C47.7811 340.337 47.9544 340.847 47.9997 341.361C48.0211 341.605 47.9712 342.108 47.9712 342.108C47.9553 345.007 49.9072 347.815 52.6287 348.809" fill="#FC8181"/>
<path d="M45.3016 352.768C46.0669 350.761 45.9943 348.465 45.1061 346.549C44.6505 345.566 43.8667 344.791 43.0013 344.139C42.6273 343.857 42.3079 343.484 42.0783 343.026C41.4483 341.769 41.7674 340.189 42.8329 339.273C44.2768 338.031 46.4316 338.35 47.4705 339.88C47.7811 340.337 47.9544 340.847 47.9997 341.361C48.0211 341.605 47.9712 342.108 47.9712 342.108C47.9553 345.007 49.9072 347.815 52.6287 348.809" stroke="#FC8181" stroke-width="1.47505" stroke-miterlimit="10" stroke-linecap="round" stroke-linejoin="round"/>
<path d="M38.9098 363.016C37.4197 361.818 35.472 361.571 33.6558 362.151C33.1253 362.269 32.5563 362.243 32.0065 362.047C30.4509 361.493 29.6386 359.782 30.1924 358.226C30.7462 356.67 32.4561 355.857 34.0118 356.412C34.3476 356.531 34.6486 356.705 34.9089 356.919C36.5961 358.349 38.4558 358.843 40.4502 358.229" fill="#FC8181"/>
<path d="M38.9098 363.016C37.4196 361.818 35.472 361.571 33.6558 362.151C33.1253 362.269 32.5563 362.243 32.0065 362.047C30.4509 361.493 29.6386 359.782 30.1924 358.226C30.7462 356.67 32.4561 355.857 34.0118 356.412C34.3476 356.531 34.6486 356.705 34.9089 356.919C36.5961 358.349 38.4558 358.843 40.4502 358.229" stroke="#FC8181" stroke-width="1.47505" stroke-miterlimit="10" stroke-linecap="round" stroke-linejoin="round"/>
<path d="M36.8675 347.121C37.255 345.56 36.3047 343.981 34.7448 343.593C33.1849 343.206 31.6062 344.157 31.2186 345.717C30.8311 347.277 31.7815 348.856 33.3414 349.244C34.9013 349.632 36.48 348.681 36.8675 347.121Z" fill="#FC8181" stroke="#FC8181" stroke-width="1.47505" stroke-miterlimit="10" stroke-linecap="round" stroke-linejoin="round"/>
<path d="M54.0989 336.13C53.9167 336.849 53.1861 337.284 52.4672 337.101C51.7482 336.919 51.3132 336.188 51.4955 335.469C51.6778 334.75 52.4083 334.315 53.1273 334.498C53.8462 334.68 54.2812 335.411 54.0989 336.13Z" fill="#FC8181" stroke="#FC8181" stroke-width="1.47505" stroke-miterlimit="10" stroke-linecap="round" stroke-linejoin="round"/>
<path d="M32.8469 384.5C32.6646 385.219 31.934 385.653 31.2151 385.471C30.4962 385.289 30.0611 384.558 30.2434 383.839C30.4257 383.12 31.1563 382.685 31.8752 382.867C32.5941 383.05 33.0291 383.781 32.8469 384.5Z" fill="#FC8181" stroke="#FC8181" stroke-width="1.47505" stroke-miterlimit="10" stroke-linecap="round" stroke-linejoin="round"/>
<path d="M61.5692 394.329C62.0285 392.503 60.921 390.65 59.0956 390.19C57.2702 389.73 55.4181 390.837 54.9589 392.663C54.4996 394.49 55.6071 396.343 57.4325 396.802C59.2579 397.262 61.1099 396.155 61.5692 394.329Z" fill="#FC8181" stroke="#FC8181" stroke-width="1.47505" stroke-miterlimit="10" stroke-linecap="round" stroke-linejoin="round"/>
<path d="M84.8218 357.049C85.1165 355.881 84.4087 354.695 83.2408 354.4C82.0728 354.105 80.8871 354.812 80.5924 355.981C80.2977 357.149 81.0055 358.335 82.1734 358.631C83.3413 358.926 84.527 358.218 84.8218 357.049Z" fill="#FC8181" stroke="#FC8181" stroke-width="1.47505" stroke-miterlimit="10" stroke-linecap="round" stroke-linejoin="round"/>
<path d="M767.646 250.974C768.127 252.248 769.126 253.305 770.352 253.84C770.981 254.114 771.677 254.152 772.361 254.097C772.657 254.073 772.965 254.115 773.266 254.236C774.093 254.567 774.605 255.45 774.486 256.332C774.323 257.528 773.169 258.283 772.034 257.995C771.694 257.909 771.398 257.74 771.16 257.515C771.048 257.409 770.86 257.149 770.86 257.149C769.65 255.769 767.545 255.259 765.838 255.932" fill="#FC8181"/>
<path d="M767.646 250.974C768.127 252.248 769.126 253.305 770.352 253.84C770.981 254.114 771.677 254.152 772.361 254.097C772.657 254.073 772.965 254.115 773.266 254.236C774.093 254.567 774.605 255.45 774.486 256.332C774.323 257.528 773.169 258.283 772.034 257.995C771.694 257.909 771.398 257.74 771.16 257.515C771.048 257.409 770.86 257.149 770.86 257.149C769.65 255.769 767.545 255.259 765.838 255.932" stroke="#FC8181" stroke-width="1.11902" stroke-miterlimit="10" stroke-linecap="round" stroke-linejoin="round"/>
<path d="M744.791 257.769C743.504 257.327 742.053 257.422 740.86 258.025C740.248 258.335 739.774 258.848 739.38 259.41C739.21 259.653 738.981 259.863 738.696 260.018C737.915 260.444 736.908 260.276 736.305 259.62C735.488 258.733 735.643 257.361 736.589 256.67C736.871 256.464 737.19 256.343 737.515 256.304C737.668 256.285 737.988 256.306 737.988 256.306C739.822 256.254 741.557 254.958 742.127 253.213" fill="#FC8181"/>
<path d="M744.791 257.769C743.504 257.327 742.053 257.422 740.86 258.025C740.248 258.335 739.774 258.848 739.38 259.41C739.21 259.653 738.981 259.863 738.696 260.018C737.915 260.444 736.908 260.276 736.305 259.62C735.488 258.733 735.643 257.361 736.589 256.67C736.871 256.464 737.19 256.343 737.515 256.304C737.668 256.285 737.988 256.306 737.988 256.306C739.822 256.254 741.557 254.958 742.127 253.213" stroke="#FC8181" stroke-width="1.11902" stroke-miterlimit="10" stroke-linecap="round" stroke-linejoin="round"/>
<path d="M761.57 241.933C764.312 242.562 766.397 240.585 767.427 239.299C767.769 238.871 768.034 238.391 768.299 237.911C768.84 236.931 770.101 236.506 771.173 237.099C771.913 237.508 772.337 238.355 772.224 239.193C772.105 240.083 771.482 240.731 770.719 240.951C770.719 240.951 765.032 243.101 764.169 245.746" fill="#FC8181"/>
<path d="M761.57 241.933C764.312 242.562 766.397 240.585 767.427 239.299C767.769 238.871 768.034 238.391 768.299 237.911C768.84 236.931 770.101 236.506 771.173 237.099C771.913 237.508 772.337 238.355 772.224 239.193C772.105 240.083 771.482 240.731 770.719 240.951C770.719 240.951 765.032 243.101 764.169 245.746" stroke="#FC8181" stroke-width="1.11902" stroke-miterlimit="10" stroke-linecap="round" stroke-linejoin="round"/>
<path d="M756.04 237.321C756.989 236.223 757.228 234.753 756.838 233.359C756.762 232.954 756.797 232.523 756.96 232.111C757.422 230.946 758.74 230.377 759.905 230.839C761.069 231.301 761.639 232.62 761.177 233.785C761.077 234.037 760.938 234.26 760.769 234.452C759.64 235.693 759.215 237.09 759.627 238.619" fill="#FC8181"/>
<path d="M756.04 237.321C756.989 236.223 757.228 234.753 756.838 233.359C756.762 232.954 756.797 232.523 756.96 232.111C757.422 230.946 758.74 230.377 759.905 230.839C761.069 231.301 761.639 232.62 761.177 233.785C761.077 234.037 760.938 234.26 760.769 234.452C759.64 235.693 759.215 237.09 759.627 238.619" stroke="#FC8181" stroke-width="1.11902" stroke-miterlimit="10" stroke-linecap="round" stroke-linejoin="round"/>
<path d="M767.767 253.559C769.658 246.101 765.147 238.52 757.691 236.628C750.236 234.735 742.66 239.246 740.769 246.704C738.879 254.162 743.39 261.742 750.845 263.635C758.3 265.528 765.877 261.017 767.767 253.559Z" fill="#FC8181" stroke="#FC8181" stroke-width="1.11902" stroke-miterlimit="10" stroke-linecap="round" stroke-linejoin="round"/>
<path d="M757.573 245.56C757.755 244.84 758.213 244.262 758.804 243.91C759.396 243.557 760.122 243.431 760.842 243.614C761.562 243.796 762.14 244.254 762.492 244.846C762.844 245.438 762.971 246.164 762.788 246.884C762.606 247.605 762.149 248.183 761.557 248.535C760.965 248.887 760.239 249.014 759.519 248.831" fill="#FAFAFA"/>
<path d="M757.573 245.56C757.755 244.84 758.213 244.262 758.804 243.91C759.396 243.557 760.122 243.431 760.842 243.614C761.562 243.796 762.14 244.254 762.492 244.846C762.844 245.438 762.971 246.164 762.788 246.884C762.606 247.605 762.149 248.183 761.557 248.535C760.965 248.887 760.239 249.014 759.519 248.831" stroke="#FC8181" stroke-width="1.11902" stroke-miterlimit="10" stroke-linecap="round" stroke-linejoin="round"/>
<path d="M749.267 254.431C748.736 254.296 748.311 253.959 748.051 253.523C747.792 253.087 747.699 252.552 747.833 252.022C747.968 251.491 748.304 251.065 748.74 250.806C749.176 250.546 749.711 250.453 750.241 250.588C750.771 250.722 751.197 251.059 751.456 251.495C751.716 251.931 751.809 252.466 751.675 252.997" fill="#FAFAFA"/>
<path d="M749.267 254.431C748.736 254.296 748.311 253.959 748.051 253.523C747.792 253.087 747.699 252.552 747.833 252.022C747.968 251.491 748.304 251.065 748.74 250.806C749.176 250.546 749.711 250.453 750.241 250.588C750.771 250.722 751.197 251.059 751.456 251.495C751.716 251.931 751.809 252.466 751.675 252.997" stroke="#FC8181" stroke-width="1.11902" stroke-miterlimit="10" stroke-linecap="round" stroke-linejoin="round"/>
<path d="M750.749 260.249C749.804 261.512 749.348 262.953 749.429 264.488C749.447 264.811 749.509 265.131 749.599 265.442C749.769 266.021 749.746 266.668 749.476 267.288C749.006 268.367 747.844 269.019 746.677 268.865C745.048 268.65 744.017 267.078 744.408 265.533C744.545 264.992 744.837 264.532 745.223 264.187C745.562 263.885 745.885 263.564 746.135 263.185C747.012 261.858 747.537 260.118 747.278 258.625" fill="#FC8181"/>
<path d="M750.749 260.249C749.804 261.512 749.348 262.953 749.429 264.488C749.447 264.811 749.509 265.131 749.599 265.442C749.769 266.021 749.746 266.668 749.476 267.288C749.006 268.367 747.844 269.019 746.677 268.865C745.048 268.65 744.017 267.078 744.408 265.533C744.545 264.992 744.837 264.532 745.223 264.187C745.562 263.885 745.885 263.564 746.135 263.185C747.012 261.858 747.537 260.118 747.278 258.625" stroke="#FC8181" stroke-width="1.11902" stroke-miterlimit="10" stroke-linecap="round" stroke-linejoin="round"/>
<path d="M762.25 257.195C762.241 257.229 762.232 257.263 762.224 257.297C761.87 258.692 761.864 260.344 762.148 261.755C762.31 262.558 762.587 263.379 763.046 264.027C763.37 264.483 763.843 264.799 764.355 265.023C765.695 265.611 766.376 267.216 765.696 268.66C765.241 269.627 764.214 270.239 763.147 270.178C761.395 270.079 760.256 268.437 760.665 266.826C760.74 266.541 760.782 266.363 760.76 266.024C760.704 265.128 760.489 264.215 760.186 263.39C759.701 262.069 758.783 260.913 757.608 260.141" fill="#FC8181"/>
<path d="M762.25 257.195C762.241 257.229 762.232 257.263 762.224 257.297C761.87 258.692 761.864 260.344 762.148 261.755C762.31 262.558 762.587 263.379 763.046 264.027C763.37 264.483 763.843 264.799 764.355 265.023C765.695 265.611 766.376 267.216 765.696 268.66C765.241 269.627 764.214 270.239 763.147 270.178C761.395 270.079 760.256 268.437 760.665 266.826C760.74 266.541 760.782 266.363 760.76 266.024C760.704 265.128 760.489 264.215 760.186 263.39C759.701 262.069 758.783 260.913 757.608 260.141" stroke="#FC8181" stroke-width="1.11902" stroke-miterlimit="10" stroke-linecap="round" stroke-linejoin="round"/>
<path d="M746.284 242.313C746.864 240.79 746.809 239.048 746.135 237.595C745.79 236.849 745.195 236.261 744.539 235.767C744.255 235.553 744.012 235.27 743.838 234.922C743.36 233.969 743.602 232.77 744.411 232.075C745.506 231.133 747.141 231.375 747.929 232.535C748.165 232.882 748.296 233.269 748.33 233.659C748.347 233.844 748.309 234.226 748.309 234.226C748.297 236.425 749.777 238.555 751.842 239.309" fill="#FC8181"/>
<path d="M746.284 242.313C746.864 240.79 746.809 239.048 746.135 237.595C745.79 236.849 745.195 236.261 744.539 235.767C744.255 235.553 744.012 235.27 743.838 234.922C743.36 233.969 743.602 232.77 744.411 232.075C745.506 231.133 747.141 231.375 747.929 232.535C748.165 232.882 748.296 233.269 748.33 233.659C748.347 233.844 748.309 234.226 748.309 234.226C748.297 236.425 749.777 238.555 751.842 239.309" stroke="#FC8181" stroke-width="1.11902" stroke-miterlimit="10" stroke-linecap="round" stroke-linejoin="round"/>
<path d="M741.435 250.088C740.304 249.179 738.827 248.992 737.449 249.432C737.046 249.521 736.615 249.502 736.198 249.353C735.017 248.933 734.401 247.635 734.821 246.454C735.241 245.274 736.539 244.657 737.719 245.078C737.974 245.169 738.202 245.3 738.399 245.463C739.679 246.547 741.09 246.923 742.603 246.456" fill="#FC8181"/>
<path d="M741.435 250.088C740.304 249.179 738.827 248.992 737.449 249.432C737.046 249.521 736.615 249.502 736.198 249.353C735.017 248.933 734.401 247.635 734.821 246.454C735.241 245.274 736.539 244.657 737.719 245.078C737.974 245.169 738.202 245.3 738.399 245.463C739.679 246.547 741.09 246.923 742.603 246.456" stroke="#FC8181" stroke-width="1.11902" stroke-miterlimit="10" stroke-linecap="round" stroke-linejoin="round"/>
<path d="M739.885 238.029C740.179 236.846 739.458 235.648 738.275 235.354C737.092 235.06 735.894 235.781 735.6 236.965C735.306 238.148 736.027 239.346 737.21 239.64C738.394 239.934 739.591 239.213 739.885 238.029Z" fill="#FC8181" stroke="#FC8181" stroke-width="1.11902" stroke-miterlimit="10" stroke-linecap="round" stroke-linejoin="round"/>
<path d="M752.958 229.692C752.82 230.237 752.266 230.567 751.72 230.429C751.174 230.29 750.844 229.736 750.982 229.191C751.121 228.645 751.675 228.315 752.221 228.454C752.767 228.592 753.097 229.146 752.958 229.692Z" fill="#FC8181" stroke="#FC8181" stroke-width="1.11902" stroke-miterlimit="10" stroke-linecap="round" stroke-linejoin="round"/>
<path d="M736.836 266.386C736.698 266.932 736.143 267.262 735.598 267.123C735.052 266.985 734.722 266.431 734.86 265.885C734.999 265.34 735.553 265.01 736.099 265.148C736.644 265.287 736.974 265.841 736.836 266.386Z" fill="#FC8181" stroke="#FC8181" stroke-width="1.11902" stroke-miterlimit="10" stroke-linecap="round" stroke-linejoin="round"/>
<path d="M758.624 273.843C758.973 272.458 758.133 271.052 756.748 270.703C755.363 270.354 753.958 271.194 753.61 272.58C753.261 273.965 754.101 275.371 755.486 275.72C756.871 276.068 758.276 275.228 758.624 273.843Z" fill="#FC8181" stroke="#FC8181" stroke-width="1.11902" stroke-miterlimit="10" stroke-linecap="round" stroke-linejoin="round"/>
<path d="M776.265 245.562C776.488 244.676 775.951 243.776 775.065 243.552C774.179 243.328 773.28 243.865 773.056 244.751C772.833 245.638 773.37 246.538 774.256 246.762C775.142 246.985 776.041 246.448 776.265 245.562Z" fill="#FC8181" stroke="#FC8181" stroke-width="1.11902" stroke-miterlimit="10" stroke-linecap="round" stroke-linejoin="round"/>
<path d="M478.824 118.197C479.084 118.886 479.625 119.458 480.288 119.747C480.628 119.895 481.005 119.916 481.374 119.886C481.534 119.873 481.701 119.896 481.864 119.961C482.311 120.14 482.588 120.618 482.523 121.095C482.436 121.742 481.811 122.15 481.197 121.994C481.014 121.948 480.853 121.856 480.725 121.735C480.664 121.677 480.563 121.537 480.563 121.537C479.908 120.79 478.77 120.514 477.846 120.879" fill="#FC8181"/>
<path d="M478.824 118.197C479.084 118.886 479.625 119.458 480.288 119.747C480.628 119.895 481.005 119.916 481.374 119.886C481.534 119.873 481.701 119.896 481.864 119.961C482.311 120.14 482.588 120.618 482.523 121.095C482.436 121.742 481.811 122.15 481.197 121.994C481.014 121.948 480.853 121.856 480.725 121.735C480.664 121.677 480.563 121.537 480.563 121.537C479.908 120.79 478.77 120.514 477.846 120.879" stroke="#FC8181" stroke-width="1.11902" stroke-miterlimit="10" stroke-linecap="round" stroke-linejoin="round"/>
<path d="M466.464 121.872C465.768 121.633 464.983 121.684 464.337 122.011C464.006 122.178 463.75 122.456 463.537 122.76C463.445 122.891 463.321 123.005 463.167 123.089C462.744 123.319 462.2 123.228 461.874 122.874C461.432 122.393 461.516 121.652 462.027 121.278C462.18 121.166 462.353 121.101 462.528 121.08C462.611 121.069 462.784 121.081 462.784 121.081C463.776 121.053 464.714 120.352 465.023 119.408" fill="#FC8181"/>
<path d="M466.464 121.872C465.768 121.633 464.983 121.684 464.337 122.011C464.006 122.178 463.75 122.456 463.537 122.76C463.445 122.891 463.321 123.005 463.167 123.089C462.744 123.319 462.2 123.228 461.874 122.874C461.432 122.393 461.516 121.652 462.027 121.278C462.18 121.166 462.353 121.101 462.528 121.08C462.611 121.069 462.784 121.081 462.784 121.081C463.776 121.053 464.714 120.352 465.023 119.408" stroke="#FC8181" stroke-width="1.11902" stroke-miterlimit="10" stroke-linecap="round" stroke-linejoin="round"/>
<path d="M475.538 113.307C477.021 113.648 478.149 112.578 478.706 111.883C478.891 111.651 479.034 111.392 479.178 111.132C479.47 110.602 480.152 110.372 480.732 110.693C481.132 110.914 481.361 111.372 481.3 111.825C481.236 112.307 480.899 112.657 480.486 112.776C480.486 112.776 477.411 113.939 476.944 115.369" fill="#FC8181"/>
<path d="M475.538 113.307C477.021 113.648 478.149 112.578 478.706 111.883C478.891 111.651 479.034 111.392 479.178 111.132C479.47 110.602 480.152 110.372 480.732 110.693C481.132 110.914 481.361 111.372 481.3 111.825C481.236 112.307 480.899 112.657 480.486 112.776C480.486 112.776 477.411 113.939 476.944 115.369" stroke="#FC8181" stroke-width="1.11902" stroke-miterlimit="10" stroke-linecap="round" stroke-linejoin="round"/>
<path d="M472.547 110.813C473.061 110.219 473.19 109.424 472.979 108.67C472.938 108.451 472.957 108.218 473.045 107.995C473.295 107.365 474.008 107.057 474.638 107.307C475.267 107.557 475.575 108.271 475.326 108.901C475.272 109.037 475.196 109.158 475.105 109.261C474.494 109.932 474.264 110.688 474.488 111.515" fill="#FC8181"/>
<path d="M472.547 110.813C473.061 110.219 473.19 109.424 472.979 108.67C472.938 108.451 472.957 108.218 473.045 107.995C473.295 107.365 474.008 107.057 474.638 107.307C475.267 107.557 475.575 108.271 475.326 108.901C475.272 109.037 475.196 109.158 475.105 109.261C474.494 109.932 474.264 110.688 474.488 111.515" stroke="#FC8181" stroke-width="1.11902" stroke-miterlimit="10" stroke-linecap="round" stroke-linejoin="round"/>
<path d="M478.892 119.594C479.915 115.56 477.475 111.461 473.443 110.438C469.411 109.415 465.313 111.855 464.29 115.888C463.267 119.922 465.707 124.021 469.739 125.044C473.771 126.067 477.869 123.627 478.892 119.594Z" fill="#FC8181" stroke="#FC8181" stroke-width="1.11902" stroke-miterlimit="10" stroke-linecap="round" stroke-linejoin="round"/>
<path d="M473.376 115.269C473.475 114.879 473.722 114.567 474.042 114.376C474.362 114.186 474.755 114.118 475.144 114.216C475.534 114.315 475.846 114.563 476.037 114.883C476.227 115.203 476.296 115.595 476.197 115.985C476.098 116.374 475.851 116.687 475.531 116.877C475.211 117.068 474.818 117.136 474.429 117.037" fill="#FAFAFA"/>
<path d="M473.376 115.269C473.475 114.879 473.722 114.567 474.042 114.376C474.362 114.186 474.755 114.118 475.144 114.216C475.534 114.315 475.846 114.563 476.037 114.883C476.227 115.203 476.296 115.595 476.197 115.985C476.098 116.374 475.851 116.687 475.531 116.877C475.211 117.068 474.818 117.136 474.429 117.037" stroke="#FC8181" stroke-width="1.11902" stroke-miterlimit="10" stroke-linecap="round" stroke-linejoin="round"/>
<path d="M468.884 120.066C468.597 119.993 468.367 119.811 468.227 119.575C468.086 119.34 468.036 119.05 468.109 118.764C468.182 118.477 468.364 118.246 468.599 118.106C468.835 117.966 469.124 117.915 469.411 117.988C469.698 118.061 469.928 118.243 470.068 118.479C470.209 118.715 470.259 119.004 470.186 119.291" fill="#FAFAFA"/>
<path d="M468.884 120.066C468.597 119.993 468.367 119.811 468.227 119.575C468.086 119.34 468.036 119.05 468.109 118.764C468.182 118.477 468.364 118.246 468.599 118.106C468.835 117.966 469.124 117.915 469.411 117.988C469.698 118.061 469.928 118.243 470.068 118.479C470.209 118.715 470.259 119.004 470.186 119.291" stroke="#FC8181" stroke-width="1.11902" stroke-miterlimit="10" stroke-linecap="round" stroke-linejoin="round"/>
<path d="M469.686 123.213C469.175 123.897 468.928 124.676 468.972 125.506C468.981 125.681 469.015 125.854 469.064 126.022C469.156 126.335 469.143 126.685 468.997 127.021C468.743 127.604 468.115 127.956 467.484 127.873C466.602 127.757 466.045 126.907 466.256 126.071C466.33 125.779 466.488 125.53 466.697 125.343C466.88 125.18 467.055 125.007 467.19 124.802C467.664 124.084 467.948 123.143 467.808 122.335" fill="#FC8181"/>
<path d="M469.686 123.213C469.175 123.897 468.928 124.676 468.972 125.506C468.981 125.681 469.015 125.854 469.064 126.022C469.156 126.335 469.143 126.685 468.997 127.021C468.743 127.604 468.115 127.956 467.484 127.873C466.602 127.757 466.045 126.907 466.256 126.071C466.33 125.779 466.488 125.53 466.697 125.343C466.88 125.18 467.055 125.007 467.19 124.802C467.664 124.084 467.948 123.143 467.808 122.335" stroke="#FC8181" stroke-width="1.11902" stroke-miterlimit="10" stroke-linecap="round" stroke-linejoin="round"/>
<path d="M475.906 121.562C475.901 121.58 475.897 121.598 475.892 121.617C475.701 122.371 475.697 123.265 475.851 124.028C475.938 124.463 476.088 124.906 476.337 125.257C476.511 125.503 476.767 125.674 477.044 125.796C477.769 126.113 478.138 126.982 477.77 127.762C477.524 128.285 476.968 128.616 476.391 128.584C475.444 128.53 474.828 127.642 475.049 126.77C475.089 126.617 475.112 126.52 475.1 126.337C475.07 125.852 474.954 125.358 474.79 124.912C474.528 124.198 474.031 123.572 473.395 123.155" fill="#FC8181"/>
<path d="M475.906 121.562C475.901 121.58 475.897 121.598 475.892 121.617C475.701 122.371 475.697 123.265 475.851 124.028C475.938 124.463 476.088 124.906 476.337 125.257C476.511 125.503 476.767 125.674 477.044 125.796C477.769 126.113 478.138 126.982 477.77 127.762C477.524 128.285 476.968 128.616 476.391 128.584C475.444 128.53 474.828 127.642 475.049 126.77C475.089 126.617 475.112 126.52 475.1 126.337C475.07 125.852 474.954 125.358 474.79 124.912C474.528 124.198 474.031 123.572 473.395 123.155" stroke="#FC8181" stroke-width="1.11902" stroke-miterlimit="10" stroke-linecap="round" stroke-linejoin="round"/>
<path d="M467.271 113.513C467.585 112.689 467.555 111.747 467.19 110.961C467.004 110.558 466.682 110.24 466.327 109.972C466.173 109.857 466.042 109.704 465.948 109.516C465.69 109 465.821 108.352 466.258 107.976C466.85 107.466 467.734 107.597 468.161 108.225C468.288 108.412 468.359 108.622 468.378 108.833C468.386 108.933 468.366 109.139 468.366 109.139C468.359 110.328 469.16 111.48 470.277 111.888" fill="#FC8181"/>
<path d="M467.271 113.513C467.585 112.689 467.555 111.747 467.19 110.961C467.004 110.558 466.682 110.24 466.327 109.972C466.173 109.857 466.042 109.704 465.948 109.516C465.69 109 465.821 108.352 466.258 107.976C466.85 107.466 467.734 107.597 468.161 108.225C468.288 108.412 468.359 108.622 468.378 108.833C468.386 108.933 468.366 109.139 468.366 109.139C468.359 110.328 469.16 111.48 470.277 111.888" stroke="#FC8181" stroke-width="1.11902" stroke-miterlimit="10" stroke-linecap="round" stroke-linejoin="round"/>
<path d="M464.648 117.717C464.037 117.226 463.238 117.125 462.493 117.362C462.275 117.411 462.041 117.4 461.816 117.32C461.178 117.093 460.844 116.391 461.071 115.753C461.299 115.114 462 114.781 462.639 115.008C462.776 115.058 462.9 115.129 463.007 115.217C463.699 115.803 464.462 116.006 465.28 115.754" fill="#FC8181"/>
<path d="M464.648 117.717C464.037 117.226 463.238 117.125 462.493 117.362C462.275 117.411 462.041 117.4 461.816 117.32C461.178 117.093 460.844 116.391 461.071 115.753C461.299 115.114 462 114.781 462.639 115.008C462.776 115.058 462.9 115.129 463.007 115.217C463.699 115.803 464.462 116.006 465.28 115.754" stroke="#FC8181" stroke-width="1.11902" stroke-miterlimit="10" stroke-linecap="round" stroke-linejoin="round"/>
<path d="M463.811 111.197C463.97 110.557 463.58 109.909 462.94 109.75C462.299 109.591 461.651 109.981 461.492 110.621C461.334 111.261 461.724 111.909 462.364 112.068C463.004 112.227 463.652 111.837 463.811 111.197Z" fill="#FC8181" stroke="#FC8181" stroke-width="1.11902" stroke-miterlimit="10" stroke-linecap="round" stroke-linejoin="round"/>
<path d="M470.881 106.687C470.806 106.982 470.506 107.16 470.211 107.086C469.916 107.011 469.737 106.711 469.812 106.416C469.887 106.121 470.187 105.942 470.482 106.017C470.777 106.092 470.956 106.392 470.881 106.687Z" fill="#FC8181" stroke="#FC8181" stroke-width="1.11902" stroke-miterlimit="10" stroke-linecap="round" stroke-linejoin="round"/>
<path d="M462.161 126.533C462.086 126.828 461.786 127.006 461.491 126.931C461.196 126.856 461.018 126.557 461.092 126.262C461.167 125.967 461.467 125.788 461.762 125.863C462.057 125.938 462.236 126.238 462.161 126.533Z" fill="#FC8181" stroke="#FC8181" stroke-width="1.11902" stroke-miterlimit="10" stroke-linecap="round" stroke-linejoin="round"/>
<path d="M473.945 130.566C474.133 129.817 473.679 129.057 472.93 128.868C472.181 128.68 471.421 129.134 471.233 129.883C471.044 130.632 471.499 131.392 472.248 131.581C472.997 131.769 473.757 131.315 473.945 130.566Z" fill="#FC8181" stroke="#FC8181" stroke-width="1.11902" stroke-miterlimit="10" stroke-linecap="round" stroke-linejoin="round"/>
<path d="M483.487 115.271C483.607 114.791 483.317 114.305 482.837 114.184C482.358 114.062 481.871 114.353 481.75 114.832C481.63 115.311 481.92 115.798 482.4 115.919C482.879 116.04 483.366 115.75 483.487 115.271Z" fill="#FC8181" stroke="#FC8181" stroke-width="1.11902" stroke-miterlimit="10" stroke-linecap="round" stroke-linejoin="round"/>
<path d="M944.763 351.308C943.712 352.172 943.03 353.458 942.917 354.791C942.858 355.475 943.046 356.148 943.317 356.779C943.434 357.051 943.492 357.357 943.474 357.681C943.426 358.571 942.754 359.34 941.88 359.509C940.696 359.738 939.612 358.885 939.521 357.717C939.494 357.368 939.559 357.033 939.696 356.736C939.761 356.595 939.946 356.333 939.946 356.333C940.866 354.744 940.675 352.585 939.491 351.183" fill="#FC8181"/>
<path d="M944.763 351.308C943.712 352.172 943.03 353.458 942.917 354.791C942.858 355.475 943.046 356.148 943.317 356.779C943.434 357.051 943.492 357.357 943.474 357.681C943.426 358.571 942.754 359.34 941.88 359.509C940.696 359.738 939.612 358.885 939.521 357.717C939.494 357.368 939.559 357.033 939.696 356.736C939.761 356.595 939.946 356.333 939.946 356.333C940.866 354.744 940.675 352.585 939.491 351.183" stroke="#FC8181" stroke-width="1.11902" stroke-miterlimit="10" stroke-linecap="round" stroke-linejoin="round"/>
<path d="M931.012 331.814C931.018 330.453 930.464 329.108 929.51 328.17C929.021 327.689 928.384 327.404 927.726 327.211C927.441 327.127 927.169 326.977 926.931 326.757C926.277 326.153 926.114 325.144 926.542 324.363C927.121 323.304 928.469 323.012 929.426 323.687C929.712 323.889 929.928 324.152 930.07 324.447C930.136 324.587 930.219 324.897 930.219 324.897C930.855 326.619 932.638 327.848 934.473 327.83" fill="#FC8181"/>
<path d="M931.012 331.814C931.018 330.453 930.464 329.108 929.51 328.17C929.021 327.689 928.384 327.404 927.726 327.211C927.441 327.127 927.169 326.977 926.931 326.757C926.277 326.153 926.114 325.144 926.542 324.363C927.121 323.304 928.469 323.012 929.426 323.687C929.712 323.889 929.928 324.152 930.07 324.447C930.136 324.587 930.219 324.897 930.219 324.897C930.855 326.619 932.638 327.848 934.473 327.83" stroke="#FC8181" stroke-width="1.11902" stroke-miterlimit="10" stroke-linecap="round" stroke-linejoin="round"/>
<path d="M951.376 342.653C951.658 345.454 954.197 346.798 955.744 347.362C956.259 347.549 956.799 347.647 957.338 347.744C958.438 347.943 959.245 349.002 959.026 350.209C958.876 351.041 958.21 351.714 957.381 351.876C956.5 352.047 955.687 351.665 955.234 351.012C955.234 351.012 951.378 346.31 948.598 346.339" fill="#FC8181"/>
<path d="M951.376 342.653C951.658 345.454 954.197 346.798 955.744 347.362C956.259 347.549 956.799 347.647 957.338 347.744C958.438 347.943 959.245 349.002 959.026 350.209C958.876 351.041 958.21 351.714 957.381 351.876C956.5 352.047 955.687 351.665 955.234 351.012C955.234 351.012 951.378 346.31 948.598 346.339" stroke="#FC8181" stroke-width="1.11902" stroke-miterlimit="10" stroke-linecap="round" stroke-linejoin="round"/>
<path d="M953.97 335.934C955.313 336.481 956.781 336.237 957.975 335.421C958.335 335.22 958.754 335.114 959.196 335.137C960.447 335.202 961.408 336.269 961.343 337.52C961.278 338.772 960.211 339.734 958.961 339.67C958.691 339.656 958.434 339.595 958.199 339.496C956.663 338.824 955.205 338.869 953.889 339.75" fill="#FC8181"/>
<path d="M953.97 335.934C955.313 336.481 956.781 336.237 957.975 335.421C958.335 335.22 958.754 335.114 959.196 335.137C960.447 335.202 961.408 336.269 961.343 337.52C961.278 338.772 960.211 339.734 958.961 339.67C958.691 339.656 958.434 339.595 958.199 339.496C956.663 338.824 955.205 338.869 953.889 339.75" stroke="#FC8181" stroke-width="1.11902" stroke-miterlimit="10" stroke-linecap="round" stroke-linejoin="round"/>
<path d="M942.352 352.249C950.019 351.652 955.752 344.947 955.158 337.274C954.563 329.601 947.867 323.865 940.2 324.463C932.534 325.06 926.801 331.764 927.395 339.437C927.989 347.11 934.686 352.846 942.352 352.249Z" fill="#FC8181" stroke="#FC8181" stroke-width="1.11902" stroke-miterlimit="10" stroke-linecap="round" stroke-linejoin="round"/>
<path d="M946.662 340.025C947.402 339.967 948.096 340.216 948.619 340.663C949.142 341.111 949.494 341.759 949.551 342.5C949.609 343.241 949.361 343.936 948.913 344.459C948.465 344.983 947.818 345.336 947.078 345.393C946.337 345.451 945.644 345.203 945.121 344.755C944.598 344.307 944.246 343.659 944.188 342.918" fill="#FC8181"/>
<path d="M946.662 340.025C947.402 339.967 948.096 340.216 948.619 340.663C949.142 341.111 949.494 341.759 949.551 342.5C949.609 343.241 949.361 343.936 948.913 344.459C948.465 344.983 947.818 345.336 947.078 345.393C946.337 345.451 945.644 345.203 945.121 344.755C944.598 344.307 944.246 343.659 944.188 342.918" stroke="#FC8181" stroke-width="1.11902" stroke-miterlimit="10" stroke-linecap="round" stroke-linejoin="round"/>
<path d="M935.605 334.99C935.563 334.445 935.746 333.933 936.075 333.548C936.405 333.162 936.882 332.902 937.427 332.86C937.972 332.817 938.483 333 938.868 333.33C939.253 333.66 939.513 334.137 939.555 334.683C939.597 335.228 939.414 335.74 939.085 336.125C938.755 336.511 938.278 336.771 937.733 336.813" fill="#FC8181"/>
<path d="M935.605 334.99C935.563 334.445 935.746 333.933 936.075 333.548C936.405 333.162 936.882 332.902 937.427 332.86C937.972 332.817 938.483 333 938.868 333.33C939.253 333.66 939.513 334.137 939.555 334.683C939.597 335.228 939.414 335.74 939.085 336.125C938.755 336.511 938.278 336.771 937.733 336.813" stroke="#FC8181" stroke-width="1.11902" stroke-miterlimit="10" stroke-linecap="round" stroke-linejoin="round"/>
<path d="M930.572 338.258C929.074 337.766 927.564 337.796 926.137 338.365C925.836 338.485 925.553 338.646 925.288 338.832C924.794 339.178 924.175 339.363 923.501 339.306C922.329 339.207 921.34 338.314 921.112 337.159C920.794 335.545 921.952 334.064 923.541 333.94C924.096 333.897 924.625 334.026 925.075 334.282C925.47 334.506 925.877 334.709 926.315 334.825C927.853 335.231 929.668 335.171 930.998 334.448" fill="#FC8181"/>
<path d="M930.572 338.258C929.074 337.766 927.564 337.796 926.137 338.365C925.836 338.485 925.553 338.646 925.288 338.832C924.794 339.178 924.175 339.363 923.501 339.306C922.329 339.207 921.34 338.314 921.112 337.159C920.794 335.545 921.952 334.064 923.541 333.94C924.096 333.897 924.625 334.026 925.075 334.282C925.47 334.506 925.877 334.709 926.315 334.825C927.853 335.231 929.668 335.171 930.998 334.448" stroke="#FC8181" stroke-width="1.11902" stroke-miterlimit="10" stroke-linecap="round" stroke-linejoin="round"/>
<path d="M937.147 348.183C937.112 348.186 937.077 348.189 937.042 348.192C935.608 348.303 934.041 348.827 932.797 349.548C932.088 349.959 931.4 350.484 930.933 351.127C930.605 351.58 930.458 352.129 930.409 352.687C930.282 354.145 928.98 355.305 927.396 355.124C926.335 355.002 925.427 354.224 925.143 353.194C924.676 351.501 925.865 349.895 927.522 349.766C927.815 349.746 927.997 349.729 928.311 349.6C929.142 349.26 929.937 348.764 930.622 348.212C931.716 347.33 932.517 346.089 932.872 344.727" fill="#FC8181"/>
<path d="M937.147 348.183C937.112 348.186 937.077 348.189 937.042 348.192C935.608 348.303 934.041 348.827 932.797 349.548C932.088 349.959 931.4 350.484 930.933 351.127C930.605 351.58 930.458 352.129 930.409 352.687C930.282 354.145 928.98 355.305 927.396 355.124C926.335 355.002 925.427 354.224 925.143 353.194C924.676 351.501 925.865 349.895 927.522 349.766C927.815 349.746 927.997 349.729 928.311 349.6C929.142 349.26 929.937 348.764 930.622 348.212C931.716 347.33 932.517 346.089 932.872 344.727" stroke="#FC8181" stroke-width="1.11902" stroke-miterlimit="10" stroke-linecap="round" stroke-linejoin="round"/>
<path d="M946.119 328.283C947.747 328.346 949.378 327.735 950.539 326.631C951.134 326.064 951.5 325.312 951.758 324.532C951.87 324.194 952.06 323.874 952.333 323.597C953.083 322.839 954.295 322.684 955.212 323.228C956.455 323.965 956.749 325.592 955.902 326.71C955.649 327.045 955.325 327.294 954.967 327.451C954.797 327.526 954.423 327.612 954.423 327.612C952.338 328.305 950.795 330.391 950.742 332.59" fill="#FC8181"/>
<path d="M946.119 328.283C947.747 328.346 949.378 327.735 950.539 326.631C951.134 326.064 951.5 325.312 951.758 324.532C951.87 324.194 952.06 323.874 952.333 323.597C953.083 322.839 954.295 322.684 955.212 323.228C956.455 323.965 956.749 325.592 955.902 326.71C955.649 327.045 955.325 327.294 954.967 327.451C954.797 327.526 954.423 327.612 954.423 327.612C952.338 328.305 950.795 330.391 950.742 332.59" stroke="#FC8181" stroke-width="1.11902" stroke-miterlimit="10" stroke-linecap="round" stroke-linejoin="round"/>
<path d="M937.206 326.174C937.706 324.811 937.41 323.35 936.553 322.185C936.339 321.832 936.219 321.417 936.226 320.974C936.247 319.721 937.278 318.721 938.531 318.741C939.783 318.761 940.782 319.793 940.761 321.046C940.757 321.317 940.705 321.576 940.615 321.815C939.997 323.376 940.094 324.833 941.02 326.118" fill="#FC8181"/>
<path d="M937.206 326.174C937.706 324.811 937.41 323.35 936.553 322.185C936.339 321.832 936.219 321.417 936.226 320.974C936.247 319.721 937.278 318.721 938.531 318.741C939.783 318.761 940.782 319.793 940.761 321.046C940.757 321.317 940.705 321.576 940.615 321.815C939.997 323.376 940.094 324.833 941.02 326.118" stroke="#FC8181" stroke-width="1.11902" stroke-miterlimit="10" stroke-linecap="round" stroke-linejoin="round"/>
<path d="M948.125 320.842C949.34 320.741 950.244 319.674 950.143 318.458C950.043 317.243 948.977 316.339 947.763 316.439C946.548 316.54 945.644 317.607 945.744 318.823C945.845 320.038 946.911 320.942 948.125 320.842Z" fill="#FC8181" stroke="#FC8181" stroke-width="1.11902" stroke-miterlimit="10" stroke-linecap="round" stroke-linejoin="round"/>
<path d="M960.204 330.568C959.643 330.612 959.153 330.192 959.11 329.631C959.066 329.07 959.486 328.579 960.047 328.535C960.608 328.492 961.097 328.911 961.141 329.473C961.184 330.034 960.765 330.524 960.204 330.568Z" fill="#FC8181" stroke="#FC8181" stroke-width="1.11902" stroke-miterlimit="10" stroke-linecap="round" stroke-linejoin="round"/>
<path d="M920.306 327.033C919.745 327.076 919.255 326.657 919.212 326.095C919.169 325.534 919.588 325.044 920.149 325C920.71 324.956 921.2 325.376 921.243 325.937C921.287 326.498 920.867 326.989 920.306 327.033Z" fill="#FC8181" stroke="#FC8181" stroke-width="1.11902" stroke-miterlimit="10" stroke-linecap="round" stroke-linejoin="round"/>
<path d="M920.226 350.078C921.649 349.965 922.711 348.718 922.598 347.294C922.485 345.869 921.24 344.807 919.817 344.92C918.394 345.034 917.332 346.28 917.445 347.705C917.558 349.129 918.803 350.192 920.226 350.078Z" fill="#FC8181" stroke="#FC8181" stroke-width="1.11902" stroke-miterlimit="10" stroke-linecap="round" stroke-linejoin="round"/>
<path d="M952.646 357.747C953.556 357.675 954.237 356.877 954.165 355.966C954.094 355.054 953.297 354.374 952.386 354.446C951.475 354.518 950.795 355.315 950.866 356.227C950.938 357.138 951.735 357.819 952.646 357.747Z" fill="#FC8181" stroke="#FC8181" stroke-width="1.11902" stroke-miterlimit="10" stroke-linecap="round" stroke-linejoin="round"/>
</g>
<defs>
<clipPath id="clip0_2_1840">
<rect width="969" height="410" fill="white"/>
</clipPath>
</defs>
</svg>
