<svg width="339" height="409" viewBox="0 0 339 409" fill="none" xmlns="http://www.w3.org/2000/svg">
<g clip-path="url(#clip0_2_2021)">
<path d="M339.305 396.924C339.305 403.79 270.626 409.356 210.093 409.356C149.56 409.356 120.096 403.79 120.096 396.924C120.096 390.059 149.56 384.493 210.093 384.493C270.626 384.493 339.305 390.059 339.305 396.924Z" fill="#E0E0E0" fill-opacity="0.4"/>
<path d="M261.075 0C249.372 6.62356 235.484 16.9448 240.361 31.7437C238.068 38.4242 234.972 47.9602 231.724 59.4567C230.811 49.7878 221.423 40.4172 212.91 33.3189C204.182 43.4625 211.181 59.4623 221.544 66.6914C223.458 67.8454 225.803 69.0765 228.707 70.3165C228.745 70.2662 228.772 70.2182 228.807 70.1635C223.629 89.9839 218.555 113.992 216.137 138.648C215.983 139.546 215.894 140.459 215.879 141.395C214.775 153.695 214.349 166.125 214.925 178.248C210.797 160.103 206.089 142.906 201.459 127.571C203.317 126.927 204.818 125.96 206.027 124.823C212.697 115.359 214.703 103.972 210.708 93.476C203.253 97.4341 197.898 105.97 197.366 114.411C191.187 95.097 185.519 79.7486 182.019 70.693C182.994 69.3602 183.648 67.975 184.033 66.5908C184.845 55.0206 180.678 44.2434 171.842 37.3585C165.507 48.0071 168.072 64.6894 179.309 70.4081C182.071 77.5165 186.416 89.1259 191.363 103.862C186.13 95.5986 171.771 89.2465 160.347 95.0691C167.734 104.43 178.949 115.293 193.272 109.628C201.468 134.647 216.959 206.302 217.262 207.152C211.353 201.097 201.209 197.764 192.35 195.624C189.418 208.612 202.424 219.738 214.422 221.513C216.208 221.663 218.293 221.698 220.687 221.6C221.434 226.584 222.087 231.587 222.665 236.587H225.119C223.491 222.582 221.216 208.585 218.494 194.943C219.54 194.857 220.496 194.616 221.366 194.257C228.679 189.32 233.18 181.742 233.161 173.159C226.331 174.012 219.794 179.24 217.492 185.695C216.448 173.389 216.535 160.653 217.415 147.963C219.939 147.46 222.053 146.863 223.805 146.228C234.003 141.68 243.039 127.808 237.599 115.878C230.97 119.625 223.64 124.562 219.414 130.83C219.956 125.412 222.465 109.176 222.117 110.262C228.066 76.2217 237.461 46.471 242.544 31.7403C244.354 31.3169 245.917 30.8522 247.277 30.3584C257.48 25.8072 266.513 11.9334 261.075 0Z" fill="url(#paint0_linear_2_2021)"/>
<path d="M159.4 94.4344C170.824 88.6118 185.183 94.9639 190.416 103.227L192.325 108.993C178.002 114.658 166.788 103.795 159.4 94.4344Z" fill="url(#paint1_linear_2_2021)"/>
<path d="M194.016 26.8022C207.9 33.3577 224.29 43.3516 217.843 56.4234C220.363 62.552 223.744 71.2914 227.238 81.8038C228.702 73.1481 240.393 65.1918 250.943 59.2363C261.105 68.808 252.049 82.8517 239.262 88.8318C236.909 89.7724 234.029 90.7611 230.475 91.7296C230.432 91.6816 230.402 91.638 230.359 91.5877C235.871 109.69 241.1 131.554 243.096 153.865C243.249 154.679 243.322 155.506 243.307 156.351C244.177 167.475 244.226 178.683 243.078 189.566C248.743 173.444 255.073 158.21 261.242 144.642C259.022 143.967 257.245 143.022 255.827 141.936C248.126 133.081 246.128 122.732 251.348 113.488C260.204 117.428 266.352 125.385 266.68 133.007C274.865 115.938 282.288 102.414 286.854 94.4421C285.725 93.1931 284.987 91.914 284.576 90.6493C284.027 80.194 289.463 70.7072 300.394 64.9584C307.646 74.8641 303.924 89.7478 290.138 94.3236C286.536 100.58 280.851 110.806 274.324 123.817C280.955 116.648 298.533 111.658 312.114 117.48C302.841 125.53 288.889 134.735 271.802 128.911C260.965 151.009 239.57 214.708 239.172 215.46C246.535 210.31 258.911 207.825 269.692 206.351C272.747 218.188 256.621 227.54 242.064 228.529C239.902 228.573 237.38 228.497 234.493 228.286C233.405 232.735 232.427 237.202 231.542 241.673L228.578 241.548C231.068 229.029 234.343 216.547 238.141 204.408C236.882 204.28 235.736 204.011 234.697 203.643C226.05 198.832 220.898 191.781 221.243 184.056C229.46 185.172 237.159 190.211 239.699 196.135C241.421 185.114 241.793 173.65 241.204 162.182C238.174 161.6 235.644 160.957 233.552 160.298C221.402 155.682 211.01 142.742 218.029 132.282C225.894 135.989 234.562 140.805 239.433 146.662C238.981 141.759 236.559 127.02 236.939 128.015C231.029 97.0786 220.798 69.8246 215.21 56.3094C213.041 55.8369 211.169 55.3386 209.544 54.8258C197.39 50.2109 187.001 37.2654 194.016 26.8022Z" fill="#50AA75"/>
<path d="M283.714 396.785C283.548 397.664 282.781 398.3 281.887 398.3H172.318C171.401 398.3 170.621 397.632 170.481 396.726L150.291 266.408H308.254L283.714 396.785Z" fill="#EF9D6B"/>
<g filter="url(#filter0_d_2_2021)">
<path d="M319.549 253.336H137.667C136.64 253.336 135.807 254.169 135.807 255.196V274.054C135.807 275.08 136.64 275.913 137.667 275.913H319.549C320.576 275.913 321.408 275.08 321.408 274.054V255.196C321.408 254.169 320.576 253.336 319.549 253.336Z" fill="#EF9D6B"/>
</g>
<path d="M311.94 253.336C307.035 241.454 291.621 234.894 273.336 234.894C268.574 234.894 264.027 235.016 259.789 235.942C250.163 233.226 237.593 231.361 223.794 231.361C211.111 231.361 199.467 232.666 190.189 234.997C187.067 234.479 183.798 234.942 180.403 234.942C162.72 234.942 147.958 241.454 144.184 253.336H311.94Z" fill="#372626"/>
<path d="M293.333 244.4C293.333 244.912 292.027 245.329 290.419 245.329C288.81 245.329 287.505 244.912 287.505 244.4C287.505 243.886 288.81 243.47 290.419 243.47C292.027 243.47 293.333 243.886 293.333 244.4Z" fill="#593639"/>
<path d="M289.59 250.082C289.59 250.595 288.285 251.011 286.677 251.011C285.067 251.011 283.763 250.595 283.763 250.082C283.763 249.57 285.067 249.154 286.677 249.154C288.285 249.153 289.59 249.569 289.59 250.082Z" fill="#593639"/>
<path d="M166.6 242.745C166.6 243.259 165.295 243.675 163.686 243.675C162.076 243.675 160.772 243.259 160.772 242.745C160.772 242.232 162.076 241.818 163.686 241.818C165.295 241.818 166.6 242.232 166.6 242.745Z" fill="#593639"/>
<path d="M296.771 249.155C296.771 249.668 295.466 250.083 293.856 250.083C292.247 250.083 290.942 249.668 290.942 249.155C290.942 248.642 292.247 248.225 293.856 248.225C295.466 248.225 296.771 248.642 296.771 249.155Z" fill="#593639"/>
<path d="M289.132 246.574C289.132 246.808 288.631 246.999 288.012 246.999C287.392 246.999 286.889 246.808 286.889 246.574C286.889 246.34 287.392 246.15 288.012 246.15C288.63 246.15 289.132 246.34 289.132 246.574Z" fill="#593639"/>
<path d="M289.737 241.283C289.737 241.515 289.236 241.706 288.616 241.706C287.996 241.706 287.495 241.515 287.495 241.283C287.495 241.047 287.996 240.857 288.616 240.857C289.235 240.859 289.737 241.048 289.737 241.283Z" fill="#593639"/>
<path d="M183.27 243.161C183.27 243.396 182.767 243.585 182.149 243.585C181.53 243.585 181.028 243.396 181.028 243.161C181.028 242.926 181.53 242.738 182.149 242.738C182.767 242.738 183.27 242.926 183.27 243.161Z" fill="#593639"/>
<path d="M164.806 251.12C164.806 251.354 164.305 251.545 163.686 251.545C163.067 251.545 162.564 251.354 162.564 251.12C162.564 250.886 163.067 250.696 163.686 250.696C164.305 250.696 164.806 250.886 164.806 251.12Z" fill="#593639"/>
<path d="M169.939 248.135C169.939 248.369 169.436 248.559 168.819 248.559C168.199 248.559 167.697 248.369 167.697 248.135C167.697 247.9 168.199 247.711 168.819 247.711C169.438 247.711 169.939 247.9 169.939 248.135Z" fill="#593639"/>
<path d="M297.891 246.149C297.891 246.691 297.388 247.134 296.769 247.134C296.15 247.134 295.649 246.691 295.649 246.149C295.649 245.605 296.15 245.164 296.769 245.164C297.388 245.164 297.891 245.605 297.891 246.149Z" fill="#593639"/>
<path d="M285.67 243.471C285.67 244.014 285.17 244.457 284.549 244.457C283.931 244.457 283.427 244.014 283.427 243.471C283.427 242.928 283.931 242.487 284.549 242.487C285.17 242.487 285.67 242.927 285.67 243.471Z" fill="#593639"/>
<path d="M285.053 246.15C285.053 246.394 284.827 246.592 284.55 246.592C284.273 246.592 284.048 246.394 284.048 246.15C284.048 245.906 284.273 245.709 284.55 245.709C284.827 245.709 285.053 245.906 285.053 246.15Z" fill="#593639"/>
<path d="M274.795 238.32C274.795 238.564 274.571 238.761 274.294 238.761C274.017 238.761 273.793 238.564 273.793 238.32C273.793 238.077 274.017 237.879 274.294 237.879C274.571 237.88 274.795 238.077 274.795 238.32Z" fill="#593639"/>
<path d="M259.399 245.33C259.399 245.851 259.173 246.279 258.897 246.279C258.62 246.279 258.395 245.851 258.395 245.33C258.395 244.804 258.62 244.378 258.897 244.378C259.173 244.378 259.399 244.804 259.399 245.33Z" fill="#593639"/>
<path d="M165.811 245.438C165.811 245.682 165.586 245.881 165.308 245.881C165.032 245.881 164.806 245.682 164.806 245.438C164.806 245.195 165.032 244.998 165.308 244.998C165.586 244.998 165.811 245.196 165.811 245.438Z" fill="#593639"/>
<path d="M152.794 250.681C152.794 250.924 152.569 251.121 152.292 251.121C152.015 251.121 151.79 250.924 151.79 250.681C151.79 250.436 152.015 250.239 152.292 250.239C152.569 250.239 152.794 250.436 152.794 250.681Z" fill="#593639"/>
<path d="M171.048 241.818C171.048 242.06 170.822 242.259 170.545 242.259C170.269 242.259 170.043 242.06 170.043 241.818C170.043 241.573 170.269 241.377 170.545 241.377C170.822 241.377 171.048 241.573 171.048 241.818Z" fill="#593639"/>
<path d="M285.053 247.983C285.053 248.226 284.827 248.424 284.55 248.424C284.273 248.424 284.048 248.226 284.048 247.983C284.048 247.741 284.273 247.543 284.55 247.543C284.827 247.542 285.053 247.741 285.053 247.983Z" fill="#593639"/>
<path d="M301.193 251.781C301.193 252.026 300.967 252.224 300.689 252.224C300.412 252.224 300.188 252.026 300.188 251.781C300.188 251.539 300.412 251.34 300.689 251.34C300.967 251.34 301.193 251.539 301.193 251.781Z" fill="#593639"/>
<path d="M292.34 251.781C292.34 252.026 292.115 252.224 291.839 252.224C291.562 252.224 291.337 252.026 291.337 251.781C291.337 251.539 291.562 251.34 291.839 251.34C292.115 251.34 292.34 251.539 292.34 251.781Z" fill="#593639"/>
<path d="M173 251.12C173 251.365 172.775 251.562 172.497 251.562C172.221 251.562 171.995 251.365 171.995 251.12C171.995 250.878 172.221 250.68 172.497 250.68C172.775 250.681 173 250.878 173 251.12Z" fill="#593639"/>
<path d="M293.836 246.557C293.836 246.8 293.61 246.998 293.334 246.998C293.056 246.998 292.83 246.8 292.83 246.557C292.83 246.312 293.056 246.115 293.334 246.115C293.61 246.116 293.836 246.312 293.836 246.557Z" fill="#593639"/>
<path d="M295.65 243.123C295.65 243.366 295.424 243.565 295.147 243.565C294.87 243.565 294.644 243.366 294.644 243.123C294.644 242.88 294.87 242.682 295.147 242.682C295.424 242.682 295.65 242.88 295.65 243.123Z" fill="#593639"/>
<path d="M302.314 245.708C302.314 245.951 302.088 246.149 301.81 246.149C301.533 246.149 301.309 245.951 301.309 245.708C301.309 245.463 301.533 245.267 301.81 245.267C302.088 245.268 302.314 245.465 302.314 245.708Z" fill="#593639"/>
<path d="M289.204 248.423C289.204 248.667 289.378 248.863 289.591 248.863C289.804 248.863 289.977 248.666 289.977 248.423C289.977 248.18 289.805 247.982 289.591 247.982C289.378 247.983 289.204 248.18 289.204 248.423Z" fill="#593639"/>
<path d="M163.013 248.306C163.013 248.848 162.511 249.292 161.892 249.292C161.272 249.292 160.772 248.848 160.772 248.306C160.772 247.763 161.273 247.322 161.892 247.322C162.512 247.322 163.013 247.762 163.013 248.306Z" fill="#593639"/>
<path d="M164.806 248.092C164.806 248.634 164.305 249.077 163.686 249.077C163.067 249.077 162.564 248.634 162.564 248.092C162.564 247.549 163.067 247.108 163.686 247.108C164.305 247.108 164.806 247.549 164.806 248.092Z" fill="#593639"/>
<path d="M186.921 237.936C186.921 238.477 186.419 238.921 185.801 238.921C185.181 238.921 184.679 238.477 184.679 237.936C184.679 237.391 185.181 236.95 185.801 236.95C186.419 236.951 186.921 237.391 186.921 237.936Z" fill="#593639"/>
<path d="M174.74 247.672C174.74 248.215 174.239 248.656 173.618 248.656C172.999 248.656 172.497 248.215 172.497 247.672C172.497 247.129 172.999 246.688 173.618 246.688C174.239 246.688 174.74 247.129 174.74 247.672Z" fill="#593639"/>
<path d="M178.635 250.238C178.635 250.781 178.133 251.223 177.513 251.223C176.894 251.223 176.392 250.781 176.392 250.238C176.392 249.696 176.894 249.254 177.513 249.254C178.132 249.254 178.635 249.696 178.635 250.238Z" fill="#593639"/>
<path d="M301.31 247.982C301.31 248.525 300.808 248.966 300.187 248.966C299.568 248.966 299.066 248.526 299.066 247.982C299.066 247.439 299.568 246.998 300.187 246.998C300.807 246.998 301.31 247.438 301.31 247.982Z" fill="#593639"/>
<path d="M169.552 250.796C169.552 251.339 169.05 251.781 168.432 251.781C167.813 251.781 167.311 251.34 167.311 250.796C167.311 250.253 167.813 249.813 168.432 249.813C169.05 249.813 169.552 250.253 169.552 250.796Z" fill="#593639"/>
<path d="M241.241 240.222C241.241 240.987 239.295 241.608 236.894 241.608C234.492 241.608 232.546 240.986 232.546 240.222C232.546 239.457 234.492 238.837 236.894 238.837C239.295 238.837 241.241 239.457 241.241 240.222Z" fill="#593639"/>
<path d="M182.703 239.979C182.703 240.745 180.757 241.366 178.355 241.366C175.953 241.366 174.007 240.744 174.007 239.979C174.007 239.213 175.953 238.594 178.355 238.594C180.756 238.593 182.703 239.213 182.703 239.979Z" fill="#593639"/>
<path d="M164.165 244.101C164.165 244.866 162.219 245.487 159.817 245.487C157.415 245.487 155.469 244.865 155.469 244.101C155.469 243.335 157.415 242.716 159.817 242.716C162.219 242.716 164.165 243.335 164.165 244.101Z" fill="#593639"/>
<path d="M235.657 248.703C235.657 249.468 233.71 250.088 231.309 250.088C228.907 250.088 226.961 249.467 226.961 248.703C226.961 247.936 228.908 247.317 231.309 247.317C233.71 247.317 235.657 247.937 235.657 248.703Z" fill="#593639"/>
<path d="M210.004 245.93C210.004 246.698 208.057 247.317 205.656 247.317C203.254 247.317 201.308 246.697 201.308 245.93C201.308 245.165 203.254 244.545 205.656 244.545C208.057 244.544 210.004 245.165 210.004 245.93Z" fill="#593639"/>
<path d="M213.927 237.591C213.927 238.359 211.98 238.977 209.58 238.977C207.18 238.977 205.234 238.357 205.234 237.591C205.234 236.824 207.18 236.206 209.58 236.206C211.98 236.206 213.927 236.824 213.927 237.591Z" fill="#593639"/>
<path d="M246.369 247.317C246.369 248.083 244.423 248.702 242.021 248.702C239.62 248.702 237.673 248.082 237.673 247.317C237.673 246.553 239.62 245.93 242.021 245.93C244.423 245.93 246.369 246.553 246.369 247.317Z" fill="#593639"/>
<path d="M271.08 241.366C271.08 242.133 269.134 242.751 266.732 242.751C264.332 242.751 262.384 242.131 262.384 241.366C262.384 240.601 264.332 239.98 266.732 239.98C269.134 239.98 271.08 240.601 271.08 241.366Z" fill="#593639"/>
<path d="M234.974 243.468C234.974 243.817 234.225 244.101 233.302 244.101C232.377 244.101 231.627 243.817 231.627 243.468C231.627 243.119 232.377 242.836 233.302 242.836C234.225 242.835 234.974 243.118 234.974 243.468Z" fill="#593639"/>
<path d="M235.876 235.574C235.876 235.92 235.129 236.205 234.204 236.205C233.278 236.205 232.531 235.92 232.531 235.574C232.531 235.222 233.278 234.94 234.204 234.94C235.129 234.94 235.876 235.223 235.876 235.574Z" fill="#593639"/>
<path d="M221.055 236.205C221.055 236.555 220.306 236.839 219.383 236.839C218.459 236.839 217.71 236.555 217.71 236.205C217.71 235.857 218.459 235.574 219.383 235.574C220.306 235.573 221.055 235.856 221.055 236.205Z" fill="#593639"/>
<path d="M206.904 241.999C206.904 242.348 206.155 242.632 205.233 242.632C204.307 242.632 203.557 242.348 203.557 241.999C203.557 241.649 204.306 241.366 205.233 241.366C206.155 241.366 206.904 241.649 206.904 241.999Z" fill="#593639"/>
<path d="M182.703 247.672C182.703 248.021 181.954 248.306 181.031 248.306C180.105 248.306 179.356 248.021 179.356 247.672C179.356 247.323 180.105 247.039 181.031 247.039C181.952 247.039 182.703 247.323 182.703 247.672Z" fill="#593639"/>
<path d="M197.938 247.317C197.938 247.666 197.189 247.95 196.264 247.95C195.341 247.95 194.592 247.666 194.592 247.317C194.592 246.969 195.341 246.684 196.264 246.684C197.189 246.684 197.938 246.968 197.938 247.317Z" fill="#593639"/>
<path d="M211.252 250.087C211.252 250.437 210.503 250.721 209.581 250.721C208.657 250.721 207.908 250.437 207.908 250.087C207.908 249.737 208.657 249.456 209.581 249.456C210.502 249.456 211.252 249.738 211.252 250.087Z" fill="#593639"/>
<path d="M223.979 247.038C223.979 247.387 223.229 247.672 222.306 247.672C221.382 247.672 220.633 247.387 220.633 247.038C220.633 246.69 221.382 246.406 222.306 246.406C223.229 246.406 223.979 246.689 223.979 247.038Z" fill="#593639"/>
<path d="M248.042 242.835C248.042 243.643 247.293 244.303 246.369 244.303C245.446 244.303 244.697 243.642 244.697 242.835C244.697 242.022 245.446 241.365 246.369 241.365C247.293 241.366 248.042 242.023 248.042 242.835Z" fill="#593639"/>
<path d="M280.112 243.492C280.112 244.302 279.363 244.961 278.44 244.961C277.517 244.961 276.768 244.301 276.768 243.492C276.768 242.68 277.517 242.023 278.44 242.023C279.364 242.024 280.112 242.68 280.112 243.492Z" fill="#593639"/>
<path d="M229.81 238.837C229.81 239.647 229.062 240.307 228.137 240.307C227.214 240.307 226.465 239.647 226.465 238.837C226.465 238.026 227.214 237.369 228.137 237.369C229.062 237.37 229.81 238.026 229.81 238.837Z" fill="#593639"/>
<path d="M228.887 242.835C228.887 243.197 228.551 243.492 228.137 243.492C227.723 243.492 227.388 243.197 227.388 242.835C227.388 242.47 227.723 242.176 228.137 242.176C228.551 242.176 228.887 242.47 228.887 242.835Z" fill="#593639"/>
<path d="M254.641 237.935C254.641 238.297 254.305 238.593 253.892 238.593C253.477 238.593 253.142 238.297 253.142 237.935C253.142 237.572 253.477 237.277 253.892 237.277C254.307 237.278 254.641 237.572 254.641 237.935Z" fill="#593639"/>
<path d="M278.44 248.134C278.44 248.496 278.103 248.792 277.69 248.792C277.275 248.792 276.941 248.496 276.941 248.134C276.941 247.771 277.275 247.476 277.69 247.476C278.105 247.476 278.44 247.771 278.44 248.134Z" fill="#593639"/>
<path d="M256.14 250.114C256.14 250.476 255.803 250.772 255.39 250.772C254.975 250.772 254.641 250.476 254.641 250.114C254.641 249.751 254.975 249.456 255.39 249.456C255.803 249.456 256.14 249.751 256.14 250.114Z" fill="#593639"/>
<path d="M279.939 239.249C279.939 239.612 279.602 239.909 279.189 239.909C278.775 239.909 278.44 239.612 278.44 239.249C278.44 238.887 278.775 238.593 279.189 238.593C279.602 238.593 279.939 238.887 279.939 239.249Z" fill="#593639"/>
<path d="M271.83 244.46C271.83 244.822 271.494 245.12 271.081 245.12C270.666 245.12 270.331 244.822 270.331 244.46C270.331 244.097 270.666 243.802 271.081 243.802C271.494 243.802 271.83 244.097 271.83 244.46Z" fill="#593639"/>
<path d="M265.808 250.68C265.808 251.042 265.472 251.338 265.059 251.338C264.644 251.338 264.309 251.042 264.309 250.68C264.309 250.317 264.644 250.022 265.059 250.022C265.472 250.022 265.808 250.316 265.808 250.68Z" fill="#593639"/>
<path d="M263.133 245.708C263.133 246.07 262.796 246.366 262.384 246.366C261.969 246.366 261.634 246.07 261.634 245.708C261.634 245.345 261.969 245.05 262.384 245.05C262.796 245.051 263.133 245.345 263.133 245.708Z" fill="#593639"/>
<path d="M268.406 237.662C268.406 238.024 268.069 238.32 267.656 238.32C267.242 238.32 266.907 238.024 266.907 237.662C266.907 237.299 267.242 237.004 267.656 237.004C268.069 237.004 268.406 237.299 268.406 237.662Z" fill="#593639"/>
<path d="M285.803 237.935C285.803 238.297 285.466 238.593 285.052 238.593C284.638 238.593 284.303 238.297 284.303 237.935C284.303 237.572 284.638 237.277 285.052 237.277C285.466 237.278 285.803 237.572 285.803 237.935Z" fill="#593639"/>
<path d="M280.687 250.746C280.687 251.108 280.352 251.404 279.938 251.404C279.525 251.404 279.189 251.108 279.189 250.746C279.189 250.383 279.525 250.088 279.938 250.088C280.352 250.088 280.687 250.383 280.687 250.746Z" fill="#593639"/>
<path d="M212.752 241.61C212.752 241.972 212.415 242.269 212.002 242.269C211.588 242.269 211.252 241.972 211.252 241.61C211.252 241.248 211.588 240.953 212.002 240.953C212.415 240.953 212.752 241.247 212.752 241.61Z" fill="#593639"/>
<path d="M196.265 235.574C196.265 235.936 195.929 236.233 195.515 236.233C195.102 236.233 194.766 235.936 194.766 235.574C194.766 235.211 195.102 234.916 195.515 234.916C195.929 234.916 196.265 235.211 196.265 235.574Z" fill="#593639"/>
<path d="M172.045 238.593C172.045 238.955 171.707 239.25 171.295 239.25C170.883 239.25 170.546 238.955 170.546 238.593C170.546 238.23 170.883 237.935 171.295 237.935C171.707 237.935 172.045 238.23 172.045 238.593Z" fill="#593639"/>
<path d="M151.79 246.885C151.79 247.246 151.453 247.543 151.04 247.543C150.626 247.543 150.291 247.246 150.291 246.885C150.291 246.522 150.626 246.227 151.04 246.227C151.453 246.227 151.79 246.522 151.79 246.885Z" fill="#593639"/>
<path d="M158.904 249.457C158.904 249.819 158.568 250.115 158.154 250.115C157.741 250.115 157.405 249.819 157.405 249.457C157.405 249.094 157.741 248.799 158.154 248.799C158.568 248.799 158.904 249.094 158.904 249.457Z" fill="#593639"/>
<path d="M166.982 239.249C166.982 239.612 166.646 239.909 166.232 239.909C165.819 239.909 165.483 239.612 165.483 239.249C165.483 238.887 165.819 238.593 166.232 238.593C166.646 238.593 166.982 238.887 166.982 239.249Z" fill="#593639"/>
<path d="M188.102 244.759C188.102 245.121 187.765 245.417 187.352 245.417C186.938 245.417 186.603 245.121 186.603 244.759C186.603 244.396 186.938 244.101 187.352 244.101C187.764 244.101 188.102 244.396 188.102 244.759Z" fill="#593639"/>
<path d="M185.799 250.062C185.799 250.424 185.462 250.718 185.049 250.718C184.634 250.718 184.299 250.424 184.299 250.062C184.299 249.698 184.635 249.404 185.049 249.404C185.462 249.404 185.799 249.698 185.799 250.062Z" fill="#593639"/>
<path d="M201.309 250.746C201.309 251.108 200.973 251.404 200.559 251.404C200.146 251.404 199.81 251.108 199.81 250.746C199.81 250.383 200.146 250.088 200.559 250.088C200.972 250.088 201.309 250.383 201.309 250.746Z" fill="#593639"/>
<path d="M249.542 238.593C249.542 238.955 249.204 239.25 248.791 239.25C248.378 239.25 248.041 238.955 248.041 238.593C248.041 238.23 248.378 237.935 248.791 237.935C249.205 237.935 249.542 238.23 249.542 238.593Z" fill="#593639"/>
<path d="M258.897 242.082C258.897 242.444 258.56 242.74 258.146 242.74C257.734 242.74 257.397 242.444 257.397 242.082C257.397 241.719 257.734 241.424 258.146 241.424C258.56 241.425 258.897 241.719 258.897 242.082Z" fill="#593639"/>
<path d="M259.646 250.772C260.06 250.772 260.396 250.478 260.396 250.114C260.396 249.751 260.06 249.456 259.646 249.456C259.231 249.456 258.895 249.751 258.895 250.114C258.895 250.478 259.231 250.772 259.646 250.772Z" fill="#593639"/>
<path d="M201.309 240.223C201.309 240.586 200.972 240.881 200.56 240.881C200.146 240.881 199.811 240.586 199.811 240.223C199.811 239.861 200.146 239.565 200.56 239.565C200.972 239.565 201.309 239.861 201.309 240.223Z" fill="#593639"/>
<path d="M199.437 244.101C199.437 244.463 199.101 244.759 198.687 244.759C198.274 244.759 197.94 244.463 197.94 244.101C197.94 243.738 198.274 243.443 198.687 243.443C199.1 243.443 199.437 243.738 199.437 244.101Z" fill="#593639"/>
<path d="M192.194 245.934C192.194 246.297 191.859 246.593 191.445 246.593C191.032 246.593 190.697 246.297 190.697 245.934C190.697 245.572 191.032 245.277 191.445 245.277C191.859 245.277 192.194 245.571 192.194 245.934Z" fill="#593639"/>
<path d="M225.899 234.281C225.899 234.642 225.564 234.939 225.15 234.939C224.736 234.939 224.401 234.642 224.401 234.281C224.401 233.918 224.736 233.622 225.15 233.622C225.563 233.622 225.899 233.918 225.899 234.281Z" fill="#593639"/>
<path d="M228.887 245.569C228.887 245.934 228.551 246.228 228.137 246.228C227.723 246.228 227.388 245.934 227.388 245.569C227.388 245.208 227.723 244.911 228.137 244.911C228.551 244.911 228.887 245.207 228.887 245.569Z" fill="#593639"/>
<path d="M223.478 250.087C223.478 250.45 223.141 250.745 222.729 250.745C222.316 250.745 221.979 250.45 221.979 250.087C221.979 249.725 222.316 249.429 222.729 249.429C223.141 249.429 223.478 249.725 223.478 250.087Z" fill="#593639"/>
<path d="M241.99 243.443C241.99 243.803 241.655 244.101 241.241 244.101C240.829 244.101 240.492 243.803 240.492 243.443C240.492 243.08 240.829 242.785 241.241 242.785C241.655 242.785 241.99 243.08 241.99 243.443Z" fill="#593639"/>
<path d="M249.54 248.702C249.54 249.064 249.205 249.36 248.792 249.36C248.379 249.36 248.042 249.064 248.042 248.702C248.042 248.339 248.379 248.044 248.792 248.044C249.205 248.044 249.54 248.339 249.54 248.702Z" fill="#593639"/>
<path d="M244.697 238.32C244.697 238.682 244.361 238.978 243.947 238.978C243.534 238.978 243.198 238.682 243.198 238.32C243.198 237.957 243.534 237.662 243.947 237.662C244.361 237.662 244.697 237.957 244.697 238.32Z" fill="#593639"/>
<path d="M235.084 246.226C235.084 246.59 235.342 246.884 235.658 246.884C235.975 246.884 236.232 246.59 236.232 246.226C236.232 245.864 235.976 245.567 235.658 245.567C235.342 245.568 235.084 245.864 235.084 246.226Z" fill="#593639"/>
<path d="M216.659 243.467C216.659 244.278 215.91 244.936 214.986 244.936C214.062 244.936 213.314 244.277 213.314 243.467C213.314 242.657 214.062 242 214.986 242C215.91 241.999 216.659 242.657 216.659 243.467Z" fill="#593639"/>
<path d="M218.332 243.077C218.332 243.887 217.583 244.546 216.659 244.546C215.736 244.546 214.986 243.886 214.986 243.077C214.986 242.267 215.736 241.608 216.659 241.608C217.583 241.609 218.332 242.267 218.332 243.077Z" fill="#593639"/>
<path d="M261.319 240.95C261.319 241.761 260.57 242.419 259.647 242.419C258.723 242.419 257.974 241.76 257.974 240.95C257.974 240.14 258.723 239.482 259.647 239.482C260.57 239.482 261.319 240.14 261.319 240.95Z" fill="#593639"/>
<path d="M223.35 239.061C223.35 239.869 222.603 240.53 221.679 240.53C220.754 240.53 220.005 239.869 220.005 239.061C220.005 238.249 220.754 237.591 221.679 237.591C222.603 237.591 223.35 238.249 223.35 239.061Z" fill="#593639"/>
<path d="M176.392 244.547C176.392 245.314 174.445 245.933 172.045 245.933C169.643 245.933 167.697 245.313 167.697 244.547C167.697 243.781 169.643 243.162 172.045 243.162C174.446 243.162 176.392 243.782 176.392 244.547Z" fill="#593639"/>
<path d="M192.076 250.061C192.076 250.41 191.327 250.695 190.403 250.695C189.479 250.695 188.73 250.41 188.73 250.061C188.73 249.713 189.479 249.429 190.403 249.429C191.327 249.429 192.076 249.712 192.076 250.061Z" fill="#593639"/>
<path d="M191.447 242.085C191.447 242.892 190.7 243.552 189.776 243.552C188.851 243.552 188.102 242.891 188.102 242.085C188.102 241.272 188.851 240.613 189.776 240.613C190.7 240.613 191.447 241.272 191.447 242.085Z" fill="#593639"/>
<path d="M197.188 241.113C197.188 242.193 196.441 243.079 195.518 243.079C194.594 243.079 193.844 242.193 193.844 241.113C193.844 240.025 194.593 239.145 195.518 239.145C196.441 239.146 197.188 240.025 197.188 241.113Z" fill="#593639"/>
<path d="M224.399 244.101C224.399 244.911 223.652 245.569 222.728 245.569C221.804 245.569 221.055 244.911 221.055 244.101C221.055 243.29 221.804 242.633 222.728 242.633C223.654 242.633 224.399 243.29 224.399 244.101Z" fill="#593639"/>
<path d="M274.795 250.063C274.795 250.873 274.049 251.529 273.123 251.529C272.2 251.529 271.451 250.871 271.451 250.063C271.451 249.254 272.2 248.595 273.123 248.595C274.049 248.595 274.795 249.253 274.795 250.063Z" fill="#593639"/>
<path d="M253.143 245.569C253.143 246.381 252.394 247.039 251.469 247.039C250.545 247.039 249.796 246.38 249.796 245.569C249.796 244.759 250.545 244.101 251.469 244.101C252.394 244.101 253.143 244.759 253.143 245.569Z" fill="#593639"/>
<path d="M241.02 251.071C241.02 251.883 240.271 252.54 239.346 252.54C238.422 252.54 237.673 251.882 237.673 251.071C237.673 250.261 238.422 249.603 239.346 249.603C240.271 249.604 241.02 250.262 241.02 251.071Z" fill="#593639"/>
<path d="M268.406 245.929C268.406 246.741 267.656 247.399 266.731 247.399C265.808 247.399 265.059 246.74 265.059 245.929C265.059 245.119 265.808 244.46 266.731 244.46C267.656 244.46 268.406 245.119 268.406 245.929Z" fill="#593639"/>
<path d="M218.332 249.602C218.332 250.413 217.583 251.074 216.659 251.074C215.736 251.074 214.986 250.412 214.986 249.602C214.986 248.791 215.736 248.135 216.659 248.135C217.583 248.134 218.332 248.791 218.332 249.602Z" fill="#593639"/>
<g filter="url(#filter1_d_2_2021)">
<path d="M162.402 122.661L169.383 112.875L178.978 109.964L179.983 111.721L172.946 116.476L169.941 123.307L162.402 122.661Z" fill="#F0B5A2"/>
<path d="M38.3409 66.2658C43.131 79.0835 48.8439 90.97 58.0944 91.7992C58.5193 95.6765 60.7898 113.274 68.4876 130.652C80.0526 156.789 98.5463 170.604 121.962 170.604C147.663 170.604 161.769 155.916 169.064 143.586C176.931 130.31 178.725 117.245 178.798 116.693L180.615 101.765L178.432 101.503L176.623 116.423C176.608 116.54 174.799 129.641 167.138 142.539C156.943 159.714 141.737 168.421 121.962 168.421C99.1616 168.421 81.847 155.422 70.4944 129.779C63.053 112.961 60.7751 95.9675 60.2991 91.792C69.4763 90.8681 75.1526 79.0253 79.9281 66.2658C83.3998 56.9836 79.8182 53.2009 76.2073 51.6587L75.3431 53.6592C79.3201 55.3614 80.1698 59.3478 77.8699 65.502C69.9011 86.8017 63.9246 89.6678 59.1345 89.6678C50.5871 89.6678 44.8668 77.454 40.399 65.502C38.0992 59.3478 38.9488 55.3614 42.9259 53.6592L42.0617 51.6587C38.4435 53.2009 34.8692 56.9836 38.3409 66.2658Z" fill="#40608F"/>
<path d="M178.324 106.16C175.19 105.491 173.197 102.426 173.87 99.3134C174.544 96.2014 177.63 94.2205 180.763 94.8898C183.897 95.559 185.891 98.6238 185.217 101.737C184.544 104.849 181.458 106.829 178.324 106.16Z" fill="#A3A8B8"/>
<path d="M178.927 103.368C177.271 103.014 176.217 101.395 176.573 99.7499C176.929 98.1052 178.56 97.0584 180.216 97.4119C181.872 97.7655 182.926 99.3855 182.57 101.03C182.214 102.675 180.583 103.721 178.927 103.368Z" fill="#E0E3EE"/>
<path d="M155.731 124.439L172.734 113.734L182.66 109.888L184.855 111.491L185.2 124.708L179.775 129.506L160.598 136.587L155.731 124.439Z" fill="#F0B5A2"/>
<path d="M49.5782 81.3092C49.5782 81.3092 50.17 73.9169 50.0221 71.2246H68.4719C68.324 73.9169 68.915 81.3092 68.915 81.3092H49.5782Z" fill="#F0B5A2"/>
<path d="M25.7279 206.262L28.4525 386.953H41.79L59.4708 227.555L60.5035 386.953H73.3795L94.2024 206.262H25.7279Z" fill="#A3A8B8"/>
<path d="M102.297 397.383H60.2004L60.5073 386.952H73.3789C73.3789 386.952 80.6541 389.877 90.273 390.267C99.892 390.657 102.297 392.996 102.297 397.383Z" fill="#81574E"/>
<path d="M12.1361 194.643L12.7338 224.094L21.5917 237.773L29.6711 237.135L23.8901 194.46L12.1361 194.643Z" fill="#FACCBE"/>
<path d="M27.2263 84.3481C27.2263 84.3481 21.5126 86.7538 19.5871 94.2734C17.1393 103.837 9.36755 155.882 9.36755 155.882L12.1376 203.791H25.8735L27.0315 157.027L26.6762 108.958L27.2263 84.3481Z" fill="#EDF7FF"/>
<path d="M26.8213 128.58L9.36755 155.889L12.1376 203.798H25.8735L27.0315 157.034L26.8213 128.58Z" fill="url(#paint2_linear_2_2021)"/>
<path d="M59.4756 206.262V227.555L53.2354 282.262L26.3561 249.886L25.7284 206.262H59.4756Z" fill="url(#paint3_linear_2_2021)"/>
<path d="M27.2248 84.3527L46.0561 81.2502L49.7981 78.0596H68.6713L72.4132 81.2502L91.2446 84.3527L95.4861 245.28L23.8966 245.06L27.2248 84.3527Z" fill="#EDF7FF"/>
<path d="M0 397.383H41.7776L41.79 386.952H28.4547C28.4547 386.952 21.6432 389.877 12.0235 390.267C2.40455 390.657 0 392.996 0 397.383Z" fill="#81574E"/>
<path d="M92.383 128.345L93.579 178.45L81.0114 116.208L92.383 128.345Z" fill="url(#paint4_linear_2_2021)"/>
<path d="M91.2458 84.3552L123.591 135.194L158.2 121.754L164.786 136.099L117.686 158.007L86.0345 120.781L91.2458 84.3552Z" fill="#EDF7FF"/>
<path d="M123.589 135.191L123.564 142.552L159.768 125.143L158.199 121.751L123.589 135.191Z" fill="url(#paint5_linear_2_2021)"/>
<path d="M59.2757 19.7664C54.7977 19.6064 50.5481 20.902 48.0103 24.7524C46.0796 24.4468 43.6186 24.6323 42.3025 26.2793L42.2453 26.2516C37.2539 31.4318 34.1 52.0389 45.5405 67.5336C50.3093 73.9926 56.0508 74.0849 60.2008 73.914C67.6415 73.6077 71.7965 68.6545 72.6154 67.6368C74.8764 64.8304 80.8632 55.8078 79.788 44.5615C79.6752 31.5533 72.5685 21.4498 59.2757 19.7664Z" fill="#3E2B2E"/>
</g>
</g>
<defs>
<filter id="filter0_d_2_2021" x="134.878" y="253.336" width="187.46" height="24.4356" filterUnits="userSpaceOnUse" color-interpolation-filters="sRGB">
<feFlood flood-opacity="0" result="BackgroundImageFix"/>
<feColorMatrix in="SourceAlpha" type="matrix" values="0 0 0 0 0 0 0 0 0 0 0 0 0 0 0 0 0 0 127 0" result="hardAlpha"/>
<feOffset dy="0.929602"/>
<feGaussianBlur stdDeviation="0.464801"/>
<feComposite in2="hardAlpha" operator="out"/>
<feColorMatrix type="matrix" values="0 0 0 0 0 0 0 0 0 0 0 0 0 0 0 0 0 0 0.05 0"/>
<feBlend mode="normal" in2="BackgroundImageFix" result="effect1_dropShadow_2_2021"/>
<feBlend mode="normal" in="SourceGraphic" in2="effect1_dropShadow_2_2021" result="shape"/>
</filter>
<filter id="filter1_d_2_2021" x="-2.78881" y="19.7534" width="192.785" height="385.066" filterUnits="userSpaceOnUse" color-interpolation-filters="sRGB">
<feFlood flood-opacity="0" result="BackgroundImageFix"/>
<feColorMatrix in="SourceAlpha" type="matrix" values="0 0 0 0 0 0 0 0 0 0 0 0 0 0 0 0 0 0 127 0" result="hardAlpha"/>
<feOffset dx="0.929602" dy="3.71841"/>
<feGaussianBlur stdDeviation="1.8592"/>
<feColorMatrix type="matrix" values="0 0 0 0 0 0 0 0 0 0 0 0 0 0 0 0 0 0 0.1 0"/>
<feBlend mode="normal" in2="BackgroundImageFix" result="effect1_dropShadow_2_2021"/>
<feBlend mode="normal" in="SourceGraphic" in2="effect1_dropShadow_2_2021" result="shape"/>
</filter>
<linearGradient id="paint0_linear_2_2021" x1="211.528" y1="0" x2="211.528" y2="236.587" gradientUnits="userSpaceOnUse">
<stop stop-color="#7B5C53"/>
<stop offset="0.385417" stop-color="#76574E"/>
<stop offset="1" stop-color="#50AA75"/>
</linearGradient>
<linearGradient id="paint1_linear_2_2021" x1="175.862" y1="92.1787" x2="175.862" y2="110.556" gradientUnits="userSpaceOnUse">
<stop stop-color="#7B5C53"/>
<stop offset="0.385417" stop-color="#76574E"/>
<stop offset="1" stop-color="#50AA75"/>
</linearGradient>
<linearGradient id="paint2_linear_2_2021" x1="11.3805" y1="160.673" x2="33.6728" y2="176.063" gradientUnits="userSpaceOnUse">
<stop stop-color="#EDF7FF"/>
<stop offset="1" stop-color="#D8DFF4"/>
</linearGradient>
<linearGradient id="paint3_linear_2_2021" x1="29.4096" y1="256.09" x2="63.3704" y2="215.665" gradientUnits="userSpaceOnUse">
<stop offset="0.103" stop-color="#A3A8B8"/>
<stop offset="1" stop-color="#696C76"/>
</linearGradient>
<linearGradient id="paint4_linear_2_2021" x1="90.5628" y1="145.987" x2="98.3387" y2="142.749" gradientUnits="userSpaceOnUse">
<stop stop-color="#EDF7FF"/>
<stop offset="1" stop-color="#D8DFF4"/>
</linearGradient>
<linearGradient id="paint5_linear_2_2021" x1="140.704" y1="131.854" x2="136.203" y2="124.2" gradientUnits="userSpaceOnUse">
<stop stop-color="#EDF7FF"/>
<stop offset="1" stop-color="#D8DFF4"/>
</linearGradient>
<clipPath id="clip0_2_2021">
<rect width="339" height="409" fill="white"/>
</clipPath>
</defs>
</svg>
