<svg width="1271" height="669" viewBox="0 0 1271 669" fill="none" xmlns="http://www.w3.org/2000/svg">
<g clip-path="url(#clip0_2_2989)">
<path d="M1047.24 656.407C1053.34 645.491 1067.02 648.184 1077.32 651.575C1073.22 661.275 1060.09 663.399 1051.83 659.78C1050.8 659.237 1048.48 657.257 1047.24 656.407Z" fill="#85B719"/>
<path d="M946.928 543.344C938.396 534.202 945.139 521.999 951.514 513.228C959.499 520.093 957.51 533.248 951.542 540.004C950.709 540.822 948.116 542.426 946.928 543.344Z" fill="#85B719"/>
<path d="M1141.39 373.312C1139.23 360.994 1151.55 354.455 1161.68 350.59C1164.62 360.702 1155.77 370.635 1147.08 373.034C1145.93 373.264 1142.88 373.191 1141.39 373.312Z" fill="#85B719"/>
<path d="M1242.3 599.855C1252.79 593.05 1263.62 601.82 1271.15 609.628C1263 616.292 1250.39 612.037 1244.78 604.982C1244.12 604.018 1242.99 601.185 1242.3 599.855Z" fill="#85B719"/>
<path d="M1205.6 71.1679C1202.13 59.1549 1213.67 51.3237 1223.32 46.3865C1227.33 56.121 1219.61 66.9526 1211.23 70.2768C1210.12 70.6294 1207.08 70.8859 1205.6 71.1679Z" fill="#85B719"/>
<path d="M237.771 428.317C229.335 419.087 236.204 406.955 242.669 398.25C250.583 405.197 248.457 418.331 242.42 425.025C241.578 425.834 238.968 427.411 237.771 428.317Z" fill="#85B719"/>
<path d="M21.602 30.1651C9.54912 26.8347 8.9146 12.9073 9.76126 2.09732C20.1571 3.77235 25.3414 16.0258 23.7879 24.9048C23.5054 26.0382 22.1337 28.761 21.602 30.1651Z" fill="#85B719"/>
<path d="M74.9803 264.137C68.7025 253.322 77.9969 242.931 86.1674 235.802C92.4203 244.274 87.5472 256.655 80.2233 261.909C79.2282 262.521 76.3428 263.506 74.9803 264.137Z" fill="#85B719"/>
<path d="M295.832 663.908C291.892 652.04 303.111 643.763 312.564 638.451C316.957 648.021 309.661 659.147 301.419 662.797C300.32 663.193 297.294 663.568 295.832 663.908Z" fill="#85B719"/>
<path d="M123.483 506.466C112.476 512.402 102.381 502.786 95.5128 494.396C104.177 488.412 116.399 493.671 121.421 501.156C122.001 502.17 122.895 505.085 123.483 506.466Z" fill="#85B719"/>
</g>
<defs>
<clipPath id="clip0_2_2989">
<rect width="1271" height="669" fill="white"/>
</clipPath>
</defs>
</svg>
