<svg width="339" height="411" viewBox="0 0 339 411" fill="none" xmlns="http://www.w3.org/2000/svg">
<g clip-path="url(#clip0_2_3001)">
<path d="M339 401.032C339 406.538 283.522 411.001 234.625 411.001C185.727 411.001 161.927 406.538 161.927 401.032C161.927 395.526 185.727 391.063 234.625 391.063C283.522 391.063 339 395.526 339 401.032Z" fill="#E0E0E0" fill-opacity="0.4"/>
<path d="M275.807 82.7236C266.354 88.0353 255.135 96.3124 259.075 108.18C257.223 113.538 254.722 121.185 252.098 130.404C251.361 122.65 243.777 115.136 236.901 109.443C229.85 117.578 235.504 130.409 243.875 136.206C245.421 137.132 247.315 138.119 249.661 139.113C249.692 139.073 249.713 139.034 249.742 138.99C245.559 154.885 241.461 174.139 239.507 193.911C239.383 194.631 239.311 195.363 239.299 196.114C238.407 205.977 238.063 215.946 238.529 225.668C235.194 211.116 231.391 197.326 227.651 185.028C229.152 184.511 230.364 183.736 231.341 182.824C236.728 175.234 238.349 166.103 235.122 157.686C229.1 160.86 224.774 167.705 224.344 174.475C219.353 158.986 214.774 146.677 211.947 139.415C212.736 138.346 213.263 137.235 213.574 136.125C214.23 126.847 210.864 118.204 203.727 112.683C198.609 121.222 200.682 134.601 209.758 139.187C211.989 144.887 215.499 154.197 219.495 166.015C215.268 159.388 203.67 154.294 194.441 158.963C200.409 166.47 209.468 175.181 221.038 170.638C227.658 190.703 240.172 248.166 240.416 248.847C235.643 243.992 227.449 241.318 220.292 239.603C217.924 250.018 228.43 258.94 238.122 260.364C239.565 260.484 241.249 260.512 243.183 260.434C243.786 264.43 244.314 268.442 244.781 272.452H246.763C245.448 261.221 243.61 249.996 241.411 239.056C242.256 238.987 243.028 238.794 243.731 238.506C249.639 234.547 253.274 228.469 253.259 221.586C247.742 222.271 242.462 226.464 240.602 231.64C239.759 221.771 239.829 211.558 240.54 201.381C242.579 200.978 244.286 200.499 245.701 199.989C253.939 196.342 261.239 185.218 256.844 175.651C251.489 178.656 245.568 182.615 242.155 187.641C242.592 183.296 244.619 170.277 244.338 171.147C249.143 143.849 256.733 119.991 260.838 108.177C262.301 107.838 263.563 107.465 264.662 107.069C272.904 103.419 280.2 92.2935 275.807 82.7236Z" fill="#85B719"/>
<path d="M221.638 104.218C232.854 109.475 246.093 117.489 240.885 127.972C242.921 132.887 245.652 139.895 248.475 148.326C249.657 141.384 259.101 135.004 267.623 130.228C275.832 137.904 268.516 149.166 258.187 153.962C256.286 154.716 253.96 155.509 251.089 156.286C251.054 156.247 251.03 156.212 250.996 156.172C255.448 170.689 259.672 188.222 261.284 206.115C261.407 206.767 261.467 207.431 261.454 208.108C262.157 217.029 262.197 226.017 261.269 234.744C265.845 221.816 270.959 209.599 275.942 198.718C274.149 198.177 272.714 197.419 271.568 196.548C265.347 189.447 263.734 181.147 267.95 173.735C275.103 176.895 280.07 183.275 280.335 189.388C286.946 175.699 292.943 164.854 296.631 158.461C295.719 157.459 295.123 156.433 294.791 155.419C294.347 147.035 298.738 139.427 307.568 134.817C313.426 142.76 310.42 154.696 299.284 158.366C296.374 163.383 291.782 171.584 286.509 182.018C291.866 176.268 306.065 172.267 317.035 176.936C309.545 183.391 298.275 190.774 284.472 186.102C275.718 203.824 258.436 254.907 258.114 255.51C264.062 251.38 274.059 249.387 282.768 248.205C285.235 257.698 272.209 265.197 260.45 265.99C258.704 266.026 256.667 265.965 254.335 265.796C253.456 269.363 252.666 272.946 251.951 276.531L249.556 276.431C251.568 266.391 254.213 256.382 257.281 246.647C256.265 246.544 255.339 246.328 254.5 246.033C247.515 242.175 243.353 236.521 243.632 230.326C250.269 231.221 256.488 235.261 258.54 240.012C259.931 231.174 260.231 221.981 259.755 212.784C257.308 212.318 255.265 211.802 253.575 211.273C243.76 207.571 235.366 197.194 241.035 188.806C247.388 191.779 254.39 195.641 258.325 200.338C257.96 196.406 256.004 184.587 256.311 185.384C251.537 160.575 243.272 138.719 238.759 127.881C237.006 127.502 235.494 127.102 234.182 126.691C224.364 122.99 215.971 112.609 221.638 104.218Z" fill="#85B719"/>
<path d="M294.408 399.264C294.093 400.929 292.637 402.135 290.942 402.135H205.844C204.106 402.135 202.626 400.868 202.358 399.151L186.318 296.365H313.917L294.408 399.264Z" fill="#EF9D6B"/>
<g filter="url(#filter0_d_2_3001)">
<path d="M321.015 285.883H178.146C176.198 285.883 174.618 287.462 174.618 289.411V300.46C174.618 302.408 176.198 303.988 178.146 303.988H321.015C322.963 303.988 324.543 302.408 324.543 300.46V289.411C324.543 287.462 322.963 285.883 321.015 285.883Z" fill="#EF9D6B"/>
</g>
<path d="M316.895 285.883C312.933 276.355 300.482 271.094 285.712 271.094C281.865 271.094 278.192 271.192 274.769 271.934C266.993 269.756 256.839 268.26 245.692 268.26C235.447 268.26 226.042 269.307 218.547 271.176C216.025 270.761 213.385 271.132 210.642 271.132C196.358 271.132 184.434 276.355 181.385 285.883H316.895Z" fill="#372626"/>
<path d="M301.865 278.718C301.865 279.129 300.81 279.463 299.511 279.463C298.211 279.463 297.157 279.129 297.157 278.718C297.157 278.305 298.211 277.972 299.511 277.972C300.81 277.972 301.865 278.305 301.865 278.718Z" fill="#593639"/>
<path d="M298.841 283.274C298.841 283.685 297.787 284.019 296.488 284.019C295.188 284.019 294.134 283.685 294.134 283.274C294.134 282.863 295.188 282.53 296.488 282.53C297.787 282.529 298.841 282.862 298.841 283.274Z" fill="#593639"/>
<path d="M199.492 277.39C199.492 277.802 198.438 278.135 197.138 278.135C195.838 278.135 194.784 277.802 194.784 277.39C194.784 276.978 195.838 276.646 197.138 276.646C198.438 276.646 199.492 276.978 199.492 277.39Z" fill="#593639"/>
<path d="M304.641 282.53C304.641 282.941 303.587 283.274 302.287 283.274C300.987 283.274 299.933 282.941 299.933 282.53C299.933 282.119 300.987 281.785 302.287 281.785C303.587 281.785 304.641 282.119 304.641 282.53Z" fill="#593639"/>
<path d="M298.471 280.461C298.471 280.649 298.066 280.803 297.566 280.803C297.065 280.803 296.659 280.649 296.659 280.461C296.659 280.273 297.065 280.121 297.566 280.121C298.065 280.121 298.471 280.273 298.471 280.461Z" fill="#593639"/>
<path d="M298.96 276.218C298.96 276.404 298.555 276.558 298.054 276.558C297.553 276.558 297.149 276.404 297.149 276.218C297.149 276.028 297.553 275.875 298.054 275.875C298.554 275.876 298.96 276.029 298.96 276.218Z" fill="#593639"/>
<path d="M212.958 277.724C212.958 277.912 212.552 278.065 212.052 278.065C211.552 278.065 211.147 277.912 211.147 277.724C211.147 277.535 211.552 277.383 212.052 277.383C212.552 277.383 212.958 277.535 212.958 277.724Z" fill="#593639"/>
<path d="M198.043 284.105C198.043 284.294 197.638 284.447 197.138 284.447C196.638 284.447 196.232 284.294 196.232 284.105C196.232 283.918 196.638 283.765 197.138 283.765C197.638 283.765 198.043 283.918 198.043 284.105Z" fill="#593639"/>
<path d="M202.189 281.713C202.189 281.901 201.783 282.054 201.284 282.054C200.784 282.054 200.378 281.901 200.378 281.713C200.378 281.524 200.784 281.373 201.284 281.373C201.784 281.373 202.189 281.524 202.189 281.713Z" fill="#593639"/>
<path d="M305.546 280.12C305.546 280.554 305.141 280.909 304.641 280.909C304.14 280.909 303.736 280.554 303.736 280.12C303.736 279.683 304.14 279.33 304.641 279.33C305.141 279.33 305.546 279.683 305.546 280.12Z" fill="#593639"/>
<path d="M295.675 277.97C295.675 278.406 295.271 278.761 294.769 278.761C294.27 278.761 293.863 278.406 293.863 277.97C293.863 277.535 294.27 277.181 294.769 277.181C295.271 277.181 295.675 277.534 295.675 277.97Z" fill="#593639"/>
<path d="M295.176 280.12C295.176 280.316 294.994 280.475 294.77 280.475C294.547 280.475 294.364 280.316 294.364 280.12C294.364 279.924 294.547 279.765 294.77 279.765C294.994 279.765 295.176 279.924 295.176 280.12Z" fill="#593639"/>
<path d="M286.89 273.841C286.89 274.037 286.709 274.196 286.485 274.196C286.261 274.196 286.08 274.037 286.08 273.841C286.08 273.646 286.261 273.487 286.485 273.487C286.709 273.488 286.89 273.646 286.89 273.841Z" fill="#593639"/>
<path d="M274.454 279.463C274.454 279.881 274.271 280.224 274.048 280.224C273.824 280.224 273.643 279.881 273.643 279.463C273.643 279.041 273.824 278.7 274.048 278.7C274.271 278.7 274.454 279.041 274.454 279.463Z" fill="#593639"/>
<path d="M198.855 279.551C198.855 279.746 198.673 279.906 198.449 279.906C198.225 279.906 198.043 279.746 198.043 279.551C198.043 279.355 198.225 279.197 198.449 279.197C198.673 279.197 198.855 279.356 198.855 279.551Z" fill="#593639"/>
<path d="M188.34 283.754C188.34 283.949 188.158 284.108 187.934 284.108C187.711 284.108 187.529 283.949 187.529 283.754C187.529 283.558 187.711 283.399 187.934 283.399C188.158 283.399 188.34 283.558 188.34 283.754Z" fill="#593639"/>
<path d="M203.085 276.646C203.085 276.841 202.903 277.001 202.679 277.001C202.456 277.001 202.274 276.841 202.274 276.646C202.274 276.449 202.456 276.292 202.679 276.292C202.903 276.292 203.085 276.449 203.085 276.646Z" fill="#593639"/>
<path d="M295.176 281.591C295.176 281.786 294.994 281.945 294.77 281.945C294.547 281.945 294.364 281.786 294.364 281.591C294.364 281.396 294.547 281.237 294.77 281.237C294.994 281.236 295.176 281.396 295.176 281.591Z" fill="#593639"/>
<path d="M308.214 284.636C308.214 284.833 308.032 284.992 307.807 284.992C307.584 284.992 307.402 284.833 307.402 284.636C307.402 284.442 307.584 284.282 307.807 284.282C308.032 284.282 308.214 284.442 308.214 284.636Z" fill="#593639"/>
<path d="M301.062 284.636C301.062 284.833 300.881 284.992 300.657 284.992C300.434 284.992 300.253 284.833 300.253 284.636C300.253 284.442 300.434 284.282 300.657 284.282C300.881 284.282 301.062 284.442 301.062 284.636Z" fill="#593639"/>
<path d="M204.662 284.107C204.662 284.304 204.48 284.463 204.256 284.463C204.032 284.463 203.85 284.304 203.85 284.107C203.85 283.912 204.032 283.753 204.256 283.753C204.48 283.754 204.662 283.912 204.662 284.107Z" fill="#593639"/>
<path d="M302.271 280.448C302.271 280.643 302.089 280.802 301.865 280.802C301.641 280.802 301.459 280.643 301.459 280.448C301.459 280.251 301.641 280.092 301.865 280.092C302.089 280.093 302.271 280.251 302.271 280.448Z" fill="#593639"/>
<path d="M303.736 277.693C303.736 277.888 303.554 278.048 303.33 278.048C303.106 278.048 302.924 277.888 302.924 277.693C302.924 277.497 303.106 277.338 303.33 277.338C303.554 277.338 303.736 277.497 303.736 277.693Z" fill="#593639"/>
<path d="M309.119 279.766C309.119 279.961 308.937 280.121 308.713 280.121C308.489 280.121 308.308 279.961 308.308 279.766C308.308 279.57 308.489 279.412 308.713 279.412C308.937 279.413 309.119 279.571 309.119 279.766Z" fill="#593639"/>
<path d="M298.53 281.945C298.53 282.141 298.67 282.299 298.841 282.299C299.013 282.299 299.152 282.14 299.152 281.945C299.152 281.749 299.014 281.59 298.841 281.59C298.67 281.591 298.53 281.749 298.53 281.945Z" fill="#593639"/>
<path d="M196.595 281.85C196.595 282.285 196.189 282.64 195.689 282.64C195.188 282.64 194.784 282.285 194.784 281.85C194.784 281.415 195.189 281.061 195.689 281.061C196.19 281.061 196.595 281.414 196.595 281.85Z" fill="#593639"/>
<path d="M198.043 281.678C198.043 282.113 197.638 282.469 197.138 282.469C196.638 282.469 196.232 282.113 196.232 281.678C196.232 281.243 196.638 280.889 197.138 280.889C197.638 280.889 198.043 281.243 198.043 281.678Z" fill="#593639"/>
<path d="M215.907 273.533C215.907 273.967 215.502 274.323 215.003 274.323C214.502 274.323 214.096 273.967 214.096 273.533C214.096 273.097 214.502 272.743 215.003 272.743C215.502 272.744 215.907 273.097 215.907 273.533Z" fill="#593639"/>
<path d="M206.068 281.341C206.068 281.776 205.663 282.13 205.162 282.13C204.662 282.13 204.256 281.776 204.256 281.341C204.256 280.905 204.662 280.551 205.162 280.551C205.663 280.551 206.068 280.905 206.068 281.341Z" fill="#593639"/>
<path d="M209.214 283.399C209.214 283.834 208.809 284.189 208.308 284.189C207.808 284.189 207.402 283.834 207.402 283.399C207.402 282.965 207.808 282.61 208.308 282.61C208.808 282.61 209.214 282.965 209.214 283.399Z" fill="#593639"/>
<path d="M308.308 281.59C308.308 282.025 307.903 282.379 307.401 282.379C306.901 282.379 306.495 282.026 306.495 281.59C306.495 281.154 306.901 280.8 307.401 280.8C307.902 280.8 308.308 281.153 308.308 281.59Z" fill="#593639"/>
<path d="M201.877 283.846C201.877 284.281 201.471 284.636 200.972 284.636C200.472 284.636 200.066 284.282 200.066 283.846C200.066 283.41 200.472 283.057 200.972 283.057C201.471 283.057 201.877 283.41 201.877 283.846Z" fill="#593639"/>
<path d="M259.786 275.366C259.786 275.98 258.214 276.478 256.275 276.478C254.335 276.478 252.763 275.979 252.763 275.366C252.763 274.753 254.335 274.255 256.275 274.255C258.214 274.255 259.786 274.753 259.786 275.366Z" fill="#593639"/>
<path d="M212.499 275.171C212.499 275.785 210.927 276.283 208.987 276.283C207.047 276.283 205.475 275.784 205.475 275.171C205.475 274.556 207.047 274.06 208.987 274.06C210.926 274.059 212.499 274.556 212.499 275.171Z" fill="#593639"/>
<path d="M197.525 278.477C197.525 279.09 195.953 279.588 194.013 279.588C192.073 279.588 190.5 279.089 190.5 278.477C190.5 277.862 192.073 277.366 194.013 277.366C195.953 277.366 197.525 277.862 197.525 278.477Z" fill="#593639"/>
<path d="M255.275 282.167C255.275 282.781 253.702 283.278 251.763 283.278C249.823 283.278 248.251 282.78 248.251 282.167C248.251 281.552 249.824 281.056 251.763 281.056C253.702 281.056 255.275 281.553 255.275 282.167Z" fill="#593639"/>
<path d="M234.553 279.945C234.553 280.561 232.981 281.057 231.041 281.057C229.101 281.057 227.529 280.56 227.529 279.945C227.529 279.332 229.101 278.834 231.041 278.834C232.981 278.834 234.553 279.332 234.553 279.945Z" fill="#593639"/>
<path d="M237.723 273.257C237.723 273.872 236.15 274.369 234.211 274.369C232.272 274.369 230.7 273.871 230.7 273.257C230.7 272.641 232.272 272.146 234.211 272.146C236.15 272.146 237.723 272.641 237.723 273.257Z" fill="#593639"/>
<path d="M263.929 281.057C263.929 281.671 262.357 282.168 260.416 282.168C258.477 282.168 256.904 281.67 256.904 281.057C256.904 280.444 258.477 279.945 260.416 279.945C262.357 279.945 263.929 280.444 263.929 281.057Z" fill="#593639"/>
<path d="M283.89 276.284C283.89 276.899 282.317 277.395 280.377 277.395C278.438 277.395 276.865 276.898 276.865 276.284C276.865 275.67 278.438 275.172 280.377 275.172C282.317 275.172 283.89 275.67 283.89 276.284Z" fill="#593639"/>
<path d="M254.723 277.969C254.723 278.249 254.118 278.477 253.373 278.477C252.626 278.477 252.02 278.249 252.02 277.969C252.02 277.689 252.626 277.462 253.373 277.462C254.118 277.462 254.723 277.688 254.723 277.969Z" fill="#593639"/>
<path d="M255.451 271.638C255.451 271.916 254.848 272.144 254.101 272.144C253.353 272.144 252.75 271.916 252.75 271.638C252.75 271.356 253.353 271.13 254.101 271.13C254.848 271.13 255.451 271.357 255.451 271.638Z" fill="#593639"/>
<path d="M243.48 272.146C243.48 272.427 242.875 272.654 242.129 272.654C241.383 272.654 240.778 272.427 240.778 272.146C240.778 271.867 241.383 271.64 242.129 271.64C242.875 271.639 243.48 271.866 243.48 272.146Z" fill="#593639"/>
<path d="M232.049 276.792C232.049 277.071 231.444 277.299 230.699 277.299C229.951 277.299 229.345 277.071 229.345 276.792C229.345 276.51 229.95 276.284 230.699 276.284C231.444 276.284 232.049 276.51 232.049 276.792Z" fill="#593639"/>
<path d="M212.499 281.341C212.499 281.621 211.894 281.849 211.149 281.849C210.401 281.849 209.796 281.621 209.796 281.341C209.796 281.061 210.401 280.833 211.149 280.833C211.893 280.833 212.499 281.061 212.499 281.341Z" fill="#593639"/>
<path d="M224.807 281.055C224.807 281.335 224.202 281.562 223.455 281.562C222.709 281.562 222.104 281.335 222.104 281.055C222.104 280.776 222.709 280.547 223.455 280.547C224.202 280.547 224.807 280.775 224.807 281.055Z" fill="#593639"/>
<path d="M235.562 283.278C235.562 283.559 234.956 283.786 234.211 283.786C233.465 283.786 232.86 283.559 232.86 283.278C232.86 282.997 233.465 282.772 234.211 282.772C234.956 282.772 235.562 282.998 235.562 283.278Z" fill="#593639"/>
<path d="M245.841 280.833C245.841 281.112 245.236 281.341 244.49 281.341C243.744 281.341 243.139 281.112 243.139 280.833C243.139 280.553 243.744 280.326 244.49 280.326C245.236 280.326 245.841 280.552 245.841 280.833Z" fill="#593639"/>
<path d="M265.28 277.462C265.28 278.109 264.675 278.639 263.928 278.639C263.182 278.639 262.577 278.109 262.577 277.462C262.577 276.809 263.182 276.283 263.928 276.283C264.675 276.284 265.28 276.81 265.28 277.462Z" fill="#593639"/>
<path d="M291.185 277.989C291.185 278.639 290.58 279.167 289.835 279.167C289.089 279.167 288.484 278.638 288.484 277.989C288.484 277.338 289.089 276.811 289.835 276.811C290.581 276.812 291.185 277.338 291.185 277.989Z" fill="#593639"/>
<path d="M250.552 274.256C250.552 274.905 249.948 275.435 249.201 275.435C248.455 275.435 247.85 274.905 247.85 274.256C247.85 273.605 248.455 273.079 249.201 273.079C249.948 273.08 250.552 273.605 250.552 274.256Z" fill="#593639"/>
<path d="M249.808 277.462C249.808 277.752 249.536 277.988 249.202 277.988C248.867 277.988 248.596 277.752 248.596 277.462C248.596 277.17 248.867 276.933 249.202 276.933C249.536 276.933 249.808 277.17 249.808 277.462Z" fill="#593639"/>
<path d="M270.611 273.532C270.611 273.822 270.34 274.06 270.006 274.06C269.67 274.06 269.399 273.822 269.399 273.532C269.399 273.241 269.67 273.004 270.006 273.004C270.341 273.005 270.611 273.241 270.611 273.532Z" fill="#593639"/>
<path d="M289.836 281.713C289.836 282.003 289.564 282.24 289.229 282.24C288.894 282.24 288.624 282.003 288.624 281.713C288.624 281.422 288.894 281.185 289.229 281.185C289.564 281.185 289.836 281.422 289.836 281.713Z" fill="#593639"/>
<path d="M271.822 283.3C271.822 283.59 271.55 283.827 271.216 283.827C270.881 283.827 270.61 283.59 270.61 283.3C270.61 283.008 270.881 282.772 271.216 282.772C271.55 282.772 271.822 283.008 271.822 283.3Z" fill="#593639"/>
<path d="M291.046 274.587C291.046 274.878 290.774 275.115 290.44 275.115C290.105 275.115 289.835 274.878 289.835 274.587C289.835 274.297 290.105 274.06 290.44 274.06C290.774 274.06 291.046 274.297 291.046 274.587Z" fill="#593639"/>
<path d="M284.496 278.765C284.496 279.056 284.224 279.294 283.89 279.294C283.555 279.294 283.284 279.056 283.284 278.765C283.284 278.474 283.555 278.238 283.89 278.238C284.224 278.238 284.496 278.474 284.496 278.765Z" fill="#593639"/>
<path d="M279.632 283.754C279.632 284.044 279.36 284.281 279.026 284.281C278.691 284.281 278.42 284.044 278.42 283.754C278.42 283.463 278.691 283.226 279.026 283.226C279.36 283.226 279.632 283.462 279.632 283.754Z" fill="#593639"/>
<path d="M277.471 279.765C277.471 280.056 277.199 280.293 276.865 280.293C276.53 280.293 276.259 280.056 276.259 279.765C276.259 279.474 276.53 279.238 276.865 279.238C277.199 279.239 277.471 279.474 277.471 279.765Z" fill="#593639"/>
<path d="M281.731 273.313C281.731 273.604 281.458 273.841 281.124 273.841C280.79 273.841 280.518 273.604 280.518 273.313C280.518 273.022 280.79 272.786 281.124 272.786C281.458 272.786 281.731 273.022 281.731 273.313Z" fill="#593639"/>
<path d="M295.783 273.532C295.783 273.822 295.511 274.06 295.176 274.06C294.841 274.06 294.571 273.822 294.571 273.532C294.571 273.241 294.841 273.004 295.176 273.004C295.511 273.005 295.783 273.241 295.783 273.532Z" fill="#593639"/>
<path d="M291.651 283.806C291.651 284.096 291.38 284.333 291.045 284.333C290.711 284.333 290.44 284.096 290.44 283.806C290.44 283.514 290.711 283.278 291.045 283.278C291.38 283.278 291.651 283.514 291.651 283.806Z" fill="#593639"/>
<path d="M236.774 276.478C236.774 276.769 236.502 277.007 236.167 277.007C235.833 277.007 235.562 276.769 235.562 276.478C235.562 276.188 235.833 275.952 236.167 275.952C236.502 275.952 236.774 276.187 236.774 276.478Z" fill="#593639"/>
<path d="M223.457 271.639C223.457 271.929 223.184 272.167 222.85 272.167C222.516 272.167 222.244 271.929 222.244 271.639C222.244 271.347 222.516 271.111 222.85 271.111C223.184 271.111 223.457 271.347 223.457 271.639Z" fill="#593639"/>
<path d="M203.892 274.061C203.892 274.352 203.618 274.588 203.285 274.588C202.952 274.588 202.679 274.352 202.679 274.061C202.679 273.77 202.952 273.534 203.285 273.534C203.618 273.534 203.892 273.77 203.892 274.061Z" fill="#593639"/>
<path d="M187.53 280.711C187.53 281 187.258 281.238 186.923 281.238C186.589 281.238 186.318 281 186.318 280.711C186.318 280.42 186.589 280.183 186.923 280.183C187.258 280.183 187.53 280.42 187.53 280.711Z" fill="#593639"/>
<path d="M193.277 282.772C193.277 283.063 193.005 283.3 192.671 283.3C192.336 283.3 192.065 283.063 192.065 282.772C192.065 282.481 192.336 282.245 192.671 282.245C193.005 282.245 193.277 282.481 193.277 282.772Z" fill="#593639"/>
<path d="M199.802 274.587C199.802 274.878 199.53 275.115 199.195 275.115C198.861 275.115 198.59 274.878 198.59 274.587C198.59 274.297 198.861 274.06 199.195 274.06C199.53 274.06 199.802 274.297 199.802 274.587Z" fill="#593639"/>
<path d="M216.862 279.005C216.862 279.295 216.59 279.532 216.256 279.532C215.921 279.532 215.65 279.295 215.65 279.005C215.65 278.714 215.921 278.477 216.256 278.477C216.589 278.477 216.862 278.714 216.862 279.005Z" fill="#593639"/>
<path d="M215.002 283.258C215.002 283.548 214.73 283.784 214.396 283.784C214.06 283.784 213.79 283.548 213.79 283.258C213.79 282.966 214.061 282.73 214.396 282.73C214.73 282.73 215.002 282.966 215.002 283.258Z" fill="#593639"/>
<path d="M227.531 283.806C227.531 284.096 227.259 284.333 226.924 284.333C226.59 284.333 226.319 284.096 226.319 283.806C226.319 283.514 226.59 283.278 226.924 283.278C227.258 283.278 227.531 283.514 227.531 283.806Z" fill="#593639"/>
<path d="M266.492 274.061C266.492 274.352 266.219 274.588 265.885 274.588C265.551 274.588 265.279 274.352 265.279 274.061C265.279 273.77 265.551 273.534 265.885 273.534C266.22 273.534 266.492 273.77 266.492 274.061Z" fill="#593639"/>
<path d="M274.049 276.858C274.049 277.149 273.777 277.386 273.443 277.386C273.109 277.386 272.837 277.149 272.837 276.858C272.837 276.567 273.109 276.331 273.443 276.331C273.777 276.331 274.049 276.567 274.049 276.858Z" fill="#593639"/>
<path d="M274.653 283.827C274.988 283.827 275.26 283.591 275.26 283.3C275.26 283.008 274.988 282.772 274.653 282.772C274.318 282.772 274.047 283.008 274.047 283.3C274.047 283.591 274.318 283.827 274.653 283.827Z" fill="#593639"/>
<path d="M227.531 275.367C227.531 275.658 227.259 275.895 226.925 275.895C226.59 275.895 226.319 275.658 226.319 275.367C226.319 275.077 226.59 274.839 226.925 274.839C227.259 274.839 227.531 275.077 227.531 275.367Z" fill="#593639"/>
<path d="M226.018 278.477C226.018 278.768 225.747 279.005 225.412 279.005C225.078 279.005 224.807 278.768 224.807 278.477C224.807 278.186 225.078 277.95 225.412 277.95C225.746 277.95 226.018 278.186 226.018 278.477Z" fill="#593639"/>
<path d="M220.168 279.948C220.168 280.239 219.897 280.477 219.562 280.477C219.228 280.477 218.957 280.239 218.957 279.948C218.957 279.658 219.228 279.421 219.562 279.421C219.897 279.421 220.168 279.657 220.168 279.948Z" fill="#593639"/>
<path d="M247.394 270.603C247.394 270.893 247.124 271.131 246.788 271.131C246.454 271.131 246.183 270.893 246.183 270.603C246.183 270.312 246.454 270.075 246.788 270.075C247.123 270.075 247.394 270.312 247.394 270.603Z" fill="#593639"/>
<path d="M249.808 279.654C249.808 279.947 249.536 280.183 249.202 280.183C248.867 280.183 248.596 279.947 248.596 279.654C248.596 279.365 248.867 279.126 249.202 279.126C249.536 279.126 249.808 279.364 249.808 279.654Z" fill="#593639"/>
<path d="M245.439 283.278C245.439 283.569 245.166 283.806 244.833 283.806C244.498 283.806 244.226 283.569 244.226 283.278C244.226 282.988 244.498 282.75 244.833 282.75C245.166 282.75 245.439 282.988 245.439 283.278Z" fill="#593639"/>
<path d="M260.392 277.949C260.392 278.238 260.121 278.477 259.787 278.477C259.453 278.477 259.181 278.238 259.181 277.949C259.181 277.658 259.453 277.421 259.787 277.421C260.121 277.421 260.392 277.658 260.392 277.949Z" fill="#593639"/>
<path d="M266.491 282.168C266.491 282.458 266.22 282.696 265.886 282.696C265.552 282.696 265.28 282.458 265.28 282.168C265.28 281.877 265.552 281.64 265.886 281.64C266.22 281.64 266.491 281.877 266.491 282.168Z" fill="#593639"/>
<path d="M262.579 273.841C262.579 274.131 262.307 274.368 261.972 274.368C261.639 274.368 261.366 274.131 261.366 273.841C261.366 273.549 261.639 273.313 261.972 273.313C262.307 273.313 262.579 273.549 262.579 273.841Z" fill="#593639"/>
<path d="M254.812 280.182C254.812 280.474 255.021 280.71 255.277 280.71C255.532 280.71 255.74 280.474 255.74 280.182C255.74 279.892 255.533 279.654 255.277 279.654C255.021 279.655 254.812 279.892 254.812 280.182Z" fill="#593639"/>
<path d="M239.929 277.969C239.929 278.619 239.324 279.147 238.578 279.147C237.831 279.147 237.227 278.618 237.227 277.969C237.227 277.319 237.831 276.792 238.578 276.792C239.324 276.792 239.929 277.319 239.929 277.969Z" fill="#593639"/>
<path d="M241.28 277.656C241.28 278.306 240.675 278.834 239.929 278.834C239.183 278.834 238.578 278.305 238.578 277.656C238.578 277.007 239.183 276.478 239.929 276.478C240.675 276.479 241.28 277.007 241.28 277.656Z" fill="#593639"/>
<path d="M276.005 275.95C276.005 276.601 275.4 277.128 274.654 277.128C273.908 277.128 273.303 276.6 273.303 275.95C273.303 275.301 273.908 274.773 274.654 274.773C275.4 274.773 276.005 275.301 276.005 275.95Z" fill="#593639"/>
<path d="M245.333 274.435C245.333 275.083 244.73 275.613 243.984 275.613C243.237 275.613 242.632 275.083 242.632 274.435C242.632 273.784 243.237 273.256 243.984 273.256C244.73 273.256 245.333 273.784 245.333 274.435Z" fill="#593639"/>
<path d="M207.402 278.835C207.402 279.451 205.829 279.947 203.89 279.947C201.95 279.947 200.378 279.45 200.378 278.835C200.378 278.22 201.95 277.724 203.89 277.724C205.83 277.724 207.402 278.221 207.402 278.835Z" fill="#593639"/>
<path d="M220.07 283.258C220.07 283.537 219.465 283.766 218.719 283.766C217.973 283.766 217.368 283.537 217.368 283.258C217.368 282.978 217.973 282.75 218.719 282.75C219.465 282.75 220.07 282.977 220.07 283.258Z" fill="#593639"/>
<path d="M219.563 276.859C219.563 277.507 218.959 278.036 218.213 278.036C217.466 278.036 216.861 277.506 216.861 276.859C216.861 276.208 217.466 275.679 218.213 275.679C218.959 275.679 219.563 276.208 219.563 276.859Z" fill="#593639"/>
<path d="M224.2 276.08C224.2 276.946 223.597 277.657 222.851 277.657C222.105 277.657 221.499 276.946 221.499 276.08C221.499 275.207 222.104 274.501 222.851 274.501C223.597 274.502 224.2 275.207 224.2 276.08Z" fill="#593639"/>
<path d="M246.182 278.478C246.182 279.128 245.578 279.656 244.831 279.656C244.085 279.656 243.48 279.128 243.48 278.478C243.48 277.828 244.085 277.301 244.831 277.301C245.579 277.301 246.182 277.828 246.182 278.478Z" fill="#593639"/>
<path d="M286.89 283.258C286.89 283.907 286.288 284.434 285.54 284.434C284.794 284.434 284.189 283.906 284.189 283.258C284.189 282.609 284.794 282.081 285.54 282.081C286.288 282.081 286.89 282.608 286.89 283.258Z" fill="#593639"/>
<path d="M269.4 279.654C269.4 280.306 268.795 280.833 268.048 280.833C267.302 280.833 266.697 280.305 266.697 279.654C266.697 279.005 267.302 278.477 268.048 278.477C268.795 278.477 269.4 279.005 269.4 279.654Z" fill="#593639"/>
<path d="M259.607 284.067C259.607 284.719 259.002 285.245 258.255 285.245C257.509 285.245 256.904 284.718 256.904 284.067C256.904 283.418 257.509 282.89 258.255 282.89C259.002 282.891 259.607 283.419 259.607 284.067Z" fill="#593639"/>
<path d="M281.729 279.942C281.729 280.594 281.123 281.121 280.376 281.121C279.63 281.121 279.025 280.593 279.025 279.942C279.025 279.293 279.63 278.764 280.376 278.764C281.123 278.764 281.729 279.293 281.729 279.942Z" fill="#593639"/>
<path d="M241.28 282.889C241.28 283.539 240.675 284.069 239.929 284.069C239.183 284.069 238.578 283.538 238.578 282.889C238.578 282.238 239.183 281.712 239.929 281.712C240.675 281.712 241.28 282.238 241.28 282.889Z" fill="#593639"/>
<path d="M33.4309 4.35352C19.7247 4.35352 7.33972 18.4486 7.33972 32.1267V323.065C7.33972 336.742 20.7425 350.498 34.45 350.498H157.998C171.706 350.498 185.448 337.082 185.448 323.401V31.7882C185.448 18.1094 173.064 4.35352 159.356 4.35352H33.4309Z" fill="#878282"/>
<path d="M7.33979 71.415H0V86.3184H7.33979V71.415Z" fill="#141C28"/>
<path d="M192.788 103.929H185.449V134.411H192.788V103.929Z" fill="#141C28"/>
<path d="M7.34003 93.769H0.000244141V115.445H7.34003V93.769Z" fill="#141C28"/>
<path d="M7.33979 122.896H0V144.572H7.33979V122.896Z" fill="#141C28"/>
<path d="M158.553 354.96H34.2358C16.7841 354.96 2.58691 340.794 2.58691 323.38V31.5811C2.58691 14.1671 16.7841 0 34.2358 0H158.553C176.002 0 190.201 14.1671 190.201 31.5811V323.38C190.201 340.794 176.002 354.96 158.553 354.96ZM34.2358 6.77443C20.5286 6.77443 9.37619 17.9027 9.37619 31.5811V323.38C9.37619 337.058 20.5286 348.186 34.2358 348.186H158.553C172.26 348.186 183.412 337.058 183.412 323.38V31.5811C183.412 17.9027 172.26 6.77443 158.553 6.77443H34.2358Z" fill="#141C28"/>
<path d="M117.791 70.4033C109.589 75.0126 99.8533 82.195 103.272 92.4933C101.665 97.1422 99.4949 103.778 97.2177 111.778C96.5781 105.05 89.9972 98.5291 84.0303 93.5894C77.9122 100.648 82.8181 111.782 90.0821 116.813C91.4237 117.616 93.0676 118.473 95.1033 119.336C95.1298 119.301 95.1485 119.267 95.1734 119.229C91.5437 133.022 87.9872 149.729 86.292 166.886C86.1845 167.511 86.1221 168.147 86.1112 168.798C85.3376 177.357 85.0392 186.007 85.4428 194.444C82.5493 181.816 79.2491 169.85 76.0035 159.178C77.3061 158.73 78.3579 158.057 79.2055 157.266C83.8807 150.68 85.287 142.756 82.487 135.452C77.261 138.206 73.5074 144.146 73.1342 150.021C68.8033 136.58 64.83 125.899 62.3767 119.598C63.0608 118.67 63.5189 117.706 63.7884 116.743C64.3579 108.691 61.4372 101.192 55.2435 96.4005C50.8028 103.811 52.6009 115.42 60.4774 119.399C62.4134 124.346 65.4588 132.425 68.9264 142.679C65.2586 136.929 55.1937 132.509 47.1856 136.561C52.3641 143.074 60.2249 150.634 70.2648 146.692C76.0097 164.102 86.8685 213.966 87.0804 214.558C82.9389 210.344 75.8282 208.024 69.6183 206.536C67.5631 215.574 76.6798 223.316 85.0899 224.551C86.3419 224.655 87.8034 224.679 89.4815 224.612C90.005 228.08 90.4631 231.561 90.8683 235.041H92.5885C91.4471 225.295 89.8524 215.554 87.9444 206.061C88.6775 206.001 89.3475 205.834 89.9575 205.584C95.0838 202.149 98.2383 196.875 98.225 190.902C93.4376 191.496 88.8559 195.134 87.2416 199.626C86.5101 191.062 86.5709 182.2 87.1879 173.368C88.9572 173.018 90.439 172.603 91.6668 172.161C98.8156 168.996 105.149 159.343 101.336 151.041C96.6895 153.649 91.5515 157.084 88.5894 161.446C88.9688 157.676 90.728 146.378 90.4841 147.133C94.6537 123.445 101.239 102.742 104.802 92.491C106.071 92.1963 107.166 91.8729 108.12 91.5293C115.272 88.3622 121.603 78.7076 117.791 70.4033Z" fill="#85B719"/>
<path d="M70.7861 89.0547C80.5183 93.6165 92.0065 100.571 87.4879 109.668C89.2541 113.932 91.624 120.014 94.0734 127.329C95.0994 121.306 103.295 115.769 110.689 111.625C117.813 118.286 111.465 128.059 102.501 132.22C100.852 132.875 98.8336 133.563 96.3421 134.237C96.3117 134.203 96.2907 134.173 96.2611 134.138C100.125 146.735 103.79 161.95 105.189 177.476C105.296 178.042 105.347 178.618 105.336 179.206C105.947 186.947 105.981 194.746 105.176 202.32C109.147 191.101 113.585 180.499 117.908 171.058C116.353 170.588 115.107 169.931 114.113 169.175C108.715 163.012 107.315 155.81 110.973 149.378C117.181 152.12 121.491 157.657 121.72 162.961C127.457 151.083 132.661 141.672 135.861 136.124C135.07 135.255 134.553 134.365 134.264 133.485C133.879 126.209 137.69 119.608 145.352 115.607C150.435 122.5 147.826 132.858 138.164 136.042C135.639 140.395 131.654 147.512 127.078 156.566C131.726 151.577 144.048 148.105 153.567 152.156C147.068 157.758 137.288 164.164 125.31 160.11C117.714 175.488 102.717 219.816 102.438 220.339C107.6 216.755 116.275 215.025 123.832 214C125.973 222.237 114.669 228.745 104.466 229.433C102.95 229.464 101.182 229.411 99.1584 229.264C98.3957 232.36 97.7101 235.469 97.09 238.58L95.0122 238.493C96.7581 229.781 99.0533 221.095 101.715 212.648C100.833 212.559 100.03 212.371 99.3018 212.116C93.2406 208.767 89.6288 203.861 89.8711 198.485C95.6308 199.262 101.027 202.768 102.808 206.891C104.015 199.222 104.275 191.244 103.862 183.264C101.739 182.859 99.9656 182.411 98.4993 181.952C89.9825 178.74 82.6982 169.735 87.618 162.457C93.1308 165.036 99.2068 168.387 102.621 172.463C102.304 169.051 100.607 158.795 100.873 159.487C96.7308 137.959 89.5587 118.993 85.6423 109.588C84.1216 109.259 82.8096 108.913 81.6706 108.556C73.1514 105.344 65.8686 96.3359 70.7861 89.0547Z" fill="#85B719"/>
<path d="M134.005 344.703C133.689 346.369 132.234 347.574 130.539 347.574H57.4803C55.7419 347.574 54.2626 346.308 53.9946 344.59L40.137 255.792H150.862L134.005 344.703Z" fill="#EF9D6B"/>
<g filter="url(#filter1_d_2_3001)">
<path d="M156.554 246.695H33.5124C31.564 246.695 29.9845 248.274 29.9845 250.223V258.878C29.9845 260.826 31.564 262.405 33.5124 262.405H156.554C158.502 262.405 160.082 260.826 160.082 258.878V250.223C160.082 248.274 158.502 246.695 156.554 246.695Z" fill="#EF9D6B"/>
</g>
<path d="M153.446 246.696C150.008 238.427 139.203 233.862 126.386 233.862C123.048 233.862 119.861 233.947 116.89 234.591C110.143 232.702 101.332 231.403 91.6591 231.403C82.7691 231.403 74.6075 232.311 68.1038 233.934C65.9154 233.573 63.6242 233.896 61.2441 233.896C48.849 233.896 38.5022 238.427 35.8564 246.696H153.446Z" fill="#372626"/>
<path d="M140.403 240.477C140.403 240.834 139.488 241.124 138.361 241.124C137.233 241.124 136.318 240.834 136.318 240.477C136.318 240.119 137.233 239.83 138.361 239.83C139.488 239.83 140.403 240.119 140.403 240.477Z" fill="#593639"/>
<path d="M137.779 244.431C137.779 244.788 136.864 245.077 135.737 245.077C134.609 245.077 133.694 244.788 133.694 244.431C133.694 244.074 134.609 243.785 135.737 243.785C136.864 243.784 137.779 244.074 137.779 244.431Z" fill="#593639"/>
<path d="M51.5687 239.325C51.5687 239.683 50.6541 239.972 49.526 239.972C48.3979 239.972 47.4833 239.683 47.4833 239.325C47.4833 238.968 48.3979 238.68 49.526 238.68C50.6541 238.68 51.5687 238.968 51.5687 239.325Z" fill="#593639"/>
<path d="M142.812 243.784C142.812 244.141 141.897 244.431 140.769 244.431C139.641 244.431 138.727 244.141 138.727 243.784C138.727 243.428 139.641 243.138 140.769 243.138C141.897 243.138 142.812 243.428 142.812 243.784Z" fill="#593639"/>
<path d="M137.46 241.99C137.46 242.153 137.108 242.286 136.674 242.286C136.239 242.286 135.886 242.153 135.886 241.99C135.886 241.827 136.239 241.694 136.674 241.694C137.107 241.694 137.46 241.827 137.46 241.99Z" fill="#593639"/>
<path d="M137.884 238.309C137.884 238.471 137.532 238.604 137.097 238.604C136.662 238.604 136.311 238.471 136.311 238.309C136.311 238.144 136.662 238.012 137.097 238.012C137.531 238.012 137.884 238.145 137.884 238.309Z" fill="#593639"/>
<path d="M63.2556 239.616C63.2556 239.779 62.9023 239.912 62.4687 239.912C62.0343 239.912 61.6818 239.779 61.6818 239.616C61.6818 239.452 62.0343 239.32 62.4687 239.32C62.9023 239.32 63.2556 239.452 63.2556 239.616Z" fill="#593639"/>
<path d="M50.3128 245.155C50.3128 245.318 49.9611 245.451 49.5267 245.451C49.0923 245.451 48.7398 245.318 48.7398 245.155C48.7398 244.992 49.0923 244.859 49.5267 244.859C49.9611 244.859 50.3128 244.992 50.3128 245.155Z" fill="#593639"/>
<path d="M53.9105 243.077C53.9105 243.24 53.558 243.373 53.1244 243.373C52.69 243.373 52.3375 243.24 52.3375 243.077C52.3375 242.913 52.69 242.781 53.1244 242.781C53.5588 242.781 53.9105 242.913 53.9105 243.077Z" fill="#593639"/>
<path d="M143.599 241.694C143.599 242.072 143.247 242.379 142.812 242.379C142.378 242.379 142.026 242.072 142.026 241.694C142.026 241.316 142.378 241.009 142.812 241.009C143.247 241.009 143.599 241.316 143.599 241.694Z" fill="#593639"/>
<path d="M135.033 239.829C135.033 240.207 134.682 240.515 134.246 240.515C133.813 240.515 133.46 240.207 133.46 239.829C133.46 239.452 133.813 239.145 134.246 239.145C134.682 239.145 135.033 239.451 135.033 239.829Z" fill="#593639"/>
<path d="M134.599 241.695C134.599 241.865 134.441 242.004 134.247 242.004C134.053 242.004 133.895 241.865 133.895 241.695C133.895 241.526 134.053 241.388 134.247 241.388C134.441 241.388 134.599 241.526 134.599 241.695Z" fill="#593639"/>
<path d="M127.408 236.246C127.408 236.416 127.251 236.554 127.057 236.554C126.863 236.554 126.706 236.416 126.706 236.246C126.706 236.076 126.863 235.938 127.057 235.938C127.251 235.939 127.408 236.076 127.408 236.246Z" fill="#593639"/>
<path d="M116.617 241.123C116.617 241.486 116.458 241.784 116.264 241.784C116.07 241.784 115.913 241.486 115.913 241.123C115.913 240.757 116.07 240.461 116.264 240.461C116.458 240.461 116.617 240.757 116.617 241.123Z" fill="#593639"/>
<path d="M51.0155 241.201C51.0155 241.37 50.8581 241.509 50.6633 241.509C50.4693 241.509 50.3112 241.37 50.3112 241.201C50.3112 241.031 50.4693 240.894 50.6633 240.894C50.8581 240.894 51.0155 241.031 51.0155 241.201Z" fill="#593639"/>
<path d="M41.8921 244.849C41.8921 245.018 41.7339 245.156 41.5399 245.156C41.3459 245.156 41.1877 245.018 41.1877 244.849C41.1877 244.678 41.3459 244.54 41.5399 244.54C41.7339 244.54 41.8921 244.678 41.8921 244.849Z" fill="#593639"/>
<path d="M54.6864 238.681C54.6864 238.85 54.5283 238.989 54.3343 238.989C54.1403 238.989 53.9821 238.85 53.9821 238.681C53.9821 238.51 54.1403 238.373 54.3343 238.373C54.5283 238.373 54.6864 238.51 54.6864 238.681Z" fill="#593639"/>
<path d="M134.599 242.971C134.599 243.141 134.441 243.279 134.247 243.279C134.053 243.279 133.895 243.141 133.895 242.971C133.895 242.802 134.053 242.664 134.247 242.664C134.441 242.663 134.599 242.802 134.599 242.971Z" fill="#593639"/>
<path d="M145.913 245.614C145.913 245.785 145.754 245.923 145.56 245.923C145.366 245.923 145.208 245.785 145.208 245.614C145.208 245.445 145.366 245.307 145.56 245.307C145.754 245.307 145.913 245.445 145.913 245.614Z" fill="#593639"/>
<path d="M139.707 245.614C139.707 245.785 139.55 245.923 139.356 245.923C139.162 245.923 139.004 245.785 139.004 245.614C139.004 245.445 139.162 245.307 139.356 245.307C139.55 245.307 139.707 245.445 139.707 245.614Z" fill="#593639"/>
<path d="M56.0544 245.154C56.0544 245.324 55.8971 245.462 55.7023 245.462C55.5083 245.462 55.3501 245.324 55.3501 245.154C55.3501 244.985 55.5083 244.847 55.7023 244.847C55.8971 244.847 56.0544 244.985 56.0544 245.154Z" fill="#593639"/>
<path d="M140.755 241.978C140.755 242.148 140.597 242.286 140.403 242.286C140.208 242.286 140.05 242.148 140.05 241.978C140.05 241.808 140.208 241.67 140.403 241.67C140.597 241.671 140.755 241.808 140.755 241.978Z" fill="#593639"/>
<path d="M142.027 239.589C142.027 239.758 141.869 239.897 141.674 239.897C141.48 239.897 141.322 239.758 141.322 239.589C141.322 239.419 141.48 239.281 141.674 239.281C141.869 239.281 142.027 239.419 142.027 239.589Z" fill="#593639"/>
<path d="M146.698 241.389C146.698 241.558 146.54 241.697 146.345 241.697C146.151 241.697 145.994 241.558 145.994 241.389C145.994 241.218 146.151 241.081 146.345 241.081C146.54 241.082 146.698 241.219 146.698 241.389Z" fill="#593639"/>
<path d="M137.509 243.277C137.509 243.446 137.63 243.583 137.779 243.583C137.928 243.583 138.049 243.446 138.049 243.277C138.049 243.107 137.929 242.969 137.779 242.969C137.63 242.97 137.509 243.107 137.509 243.277Z" fill="#593639"/>
<path d="M49.0563 243.196C49.0563 243.573 48.7038 243.881 48.2694 243.881C47.8343 243.881 47.4833 243.573 47.4833 243.196C47.4833 242.818 47.835 242.511 48.2694 242.511C48.7046 242.511 49.0563 242.817 49.0563 243.196Z" fill="#593639"/>
<path d="M50.3128 243.045C50.3128 243.422 49.9611 243.731 49.5267 243.731C49.0923 243.731 48.7398 243.422 48.7398 243.045C48.7398 242.667 49.0923 242.36 49.5267 242.36C49.9611 242.36 50.3128 242.667 50.3128 243.045Z" fill="#593639"/>
<path d="M65.8144 235.979C65.8144 236.356 65.4627 236.664 65.0291 236.664C64.5939 236.664 64.2414 236.356 64.2414 235.979C64.2414 235.6 64.5939 235.293 65.0291 235.293C65.4627 235.294 65.8144 235.6 65.8144 235.979Z" fill="#593639"/>
<path d="M57.2763 242.755C57.2763 243.133 56.9245 243.44 56.4894 243.44C56.055 243.44 55.7025 243.133 55.7025 242.755C55.7025 242.377 56.055 242.07 56.4894 242.07C56.9245 242.07 57.2763 242.377 57.2763 242.755Z" fill="#593639"/>
<path d="M60.0062 244.539C60.0062 244.917 59.6545 245.225 59.2193 245.225C58.7849 245.225 58.4324 244.917 58.4324 244.539C58.4324 244.162 58.7849 243.854 59.2193 243.854C59.6537 243.854 60.0062 244.162 60.0062 244.539Z" fill="#593639"/>
<path d="M145.995 242.97C145.995 243.348 145.644 243.655 145.208 243.655C144.773 243.655 144.421 243.349 144.421 242.97C144.421 242.592 144.773 242.285 145.208 242.285C145.643 242.285 145.995 242.591 145.995 242.97Z" fill="#593639"/>
<path d="M53.6394 244.927C53.6394 245.305 53.2869 245.613 52.8533 245.613C52.4189 245.613 52.0665 245.306 52.0665 244.927C52.0665 244.549 52.4189 244.243 52.8533 244.243C53.2869 244.243 53.6394 244.549 53.6394 244.927Z" fill="#593639"/>
<path d="M103.889 237.57C103.889 238.103 102.525 238.535 100.842 238.535C99.1583 238.535 97.7941 238.102 97.7941 237.57C97.7941 237.038 99.1583 236.606 100.842 236.606C102.525 236.606 103.889 237.038 103.889 237.57Z" fill="#593639"/>
<path d="M62.8559 237.4C62.8559 237.933 61.4917 238.365 59.8081 238.365C58.1245 238.365 56.7604 237.932 56.7604 237.4C56.7604 236.867 58.1245 236.437 59.8081 236.437C61.4909 236.436 62.8559 236.867 62.8559 237.4Z" fill="#593639"/>
<path d="M49.8619 240.269C49.8619 240.801 48.4977 241.233 46.8141 241.233C45.1306 241.233 43.7664 240.8 43.7664 240.269C43.7664 239.735 45.1306 239.305 46.8141 239.305C48.4977 239.305 49.8619 239.735 49.8619 240.269Z" fill="#593639"/>
<path d="M99.9748 243.471C99.9748 244.003 98.6099 244.435 96.9271 244.435C95.2435 244.435 93.8794 244.003 93.8794 243.471C93.8794 242.938 95.2443 242.507 96.9271 242.507C98.6099 242.507 99.9748 242.938 99.9748 243.471Z" fill="#593639"/>
<path d="M81.9932 241.542C81.9932 242.076 80.6282 242.507 78.9454 242.507C77.2619 242.507 75.8977 242.075 75.8977 241.542C75.8977 241.01 77.2619 240.578 78.9454 240.578C80.6282 240.577 81.9932 241.01 81.9932 241.542Z" fill="#593639"/>
<path d="M84.743 235.738C84.743 236.272 83.3781 236.703 81.6961 236.703C80.0133 236.703 78.6491 236.272 78.6491 235.738C78.6491 235.204 80.0133 234.774 81.6961 234.774C83.3781 234.774 84.743 235.204 84.743 235.738Z" fill="#593639"/>
<path d="M107.484 242.508C107.484 243.041 106.119 243.472 104.436 243.472C102.753 243.472 101.388 243.04 101.388 242.508C101.388 241.976 102.753 241.543 104.436 241.543C106.119 241.543 107.484 241.976 107.484 242.508Z" fill="#593639"/>
<path d="M124.804 238.366C124.804 238.899 123.44 239.33 121.757 239.33C120.074 239.33 118.709 238.899 118.709 238.366C118.709 237.834 120.074 237.401 121.757 237.401C123.44 237.401 124.804 237.834 124.804 238.366Z" fill="#593639"/>
<path d="M99.4956 239.829C99.4956 240.072 98.9705 240.27 98.3239 240.27C97.6757 240.27 97.1498 240.072 97.1498 239.829C97.1498 239.586 97.6757 239.39 98.3239 239.39C98.9705 239.389 99.4956 239.586 99.4956 239.829Z" fill="#593639"/>
<path d="M100.127 234.335C100.127 234.576 99.6037 234.775 98.9555 234.775C98.3066 234.775 97.783 234.576 97.783 234.335C97.783 234.09 98.3066 233.895 98.9555 233.895C99.6037 233.895 100.127 234.091 100.127 234.335Z" fill="#593639"/>
<path d="M89.7395 234.774C89.7395 235.018 89.2144 235.215 88.567 235.215C87.9196 235.215 87.3945 235.018 87.3945 234.774C87.3945 234.532 87.9196 234.335 88.567 234.335C89.2144 234.334 89.7395 234.531 89.7395 234.774Z" fill="#593639"/>
<path d="M79.8202 238.807C79.8202 239.05 79.2952 239.247 78.6485 239.247C77.9996 239.247 77.4737 239.05 77.4737 238.807C77.4737 238.563 77.9988 238.366 78.6485 238.366C79.2952 238.366 79.8202 238.563 79.8202 238.807Z" fill="#593639"/>
<path d="M62.8559 242.753C62.8559 242.996 62.3308 243.194 61.6841 243.194C61.0352 243.194 60.5101 242.996 60.5101 242.753C60.5101 242.51 61.0352 242.312 61.6841 242.312C62.33 242.312 62.8559 242.51 62.8559 242.753Z" fill="#593639"/>
<path d="M73.5354 242.507C73.5354 242.75 73.0103 242.947 72.3621 242.947C71.7147 242.947 71.1896 242.75 71.1896 242.507C71.1896 242.265 71.7147 242.066 72.3621 242.066C73.0103 242.066 73.5354 242.264 73.5354 242.507Z" fill="#593639"/>
<path d="M82.8679 244.435C82.8679 244.679 82.3428 244.876 81.6962 244.876C81.0488 244.876 80.5237 244.679 80.5237 244.435C80.5237 244.191 81.0488 243.996 81.6962 243.996C82.342 243.996 82.8679 244.192 82.8679 244.435Z" fill="#593639"/>
<path d="M91.7883 242.314C91.7883 242.557 91.2632 242.755 90.6158 242.755C89.9684 242.755 89.4433 242.557 89.4433 242.314C89.4433 242.071 89.9684 241.874 90.6158 241.874C91.2632 241.874 91.7883 242.071 91.7883 242.314Z" fill="#593639"/>
<path d="M108.656 239.388C108.656 239.95 108.131 240.41 107.483 240.41C106.836 240.41 106.311 239.95 106.311 239.388C106.311 238.822 106.836 238.365 107.483 238.365C108.131 238.366 108.656 238.823 108.656 239.388Z" fill="#593639"/>
<path d="M131.135 239.845C131.135 240.408 130.61 240.867 129.964 240.867C129.316 240.867 128.791 240.407 128.791 239.845C128.791 239.279 129.316 238.822 129.964 238.822C130.611 238.823 131.135 239.279 131.135 239.845Z" fill="#593639"/>
<path d="M95.8762 236.606C95.8762 237.169 95.3519 237.629 94.7037 237.629C94.0563 237.629 93.5312 237.169 93.5312 236.606C93.5312 236.041 94.0563 235.584 94.7037 235.584C95.3519 235.585 95.8762 236.041 95.8762 236.606Z" fill="#593639"/>
<path d="M95.2288 239.388C95.2288 239.64 94.9935 239.845 94.7037 239.845C94.4131 239.845 94.1785 239.64 94.1785 239.388C94.1785 239.135 94.4131 238.93 94.7037 238.93C94.9935 238.93 95.2288 239.135 95.2288 239.388Z" fill="#593639"/>
<path d="M113.283 235.978C113.283 236.23 113.047 236.436 112.757 236.436C112.466 236.436 112.231 236.23 112.231 235.978C112.231 235.726 112.466 235.521 112.757 235.521C113.048 235.521 113.283 235.726 113.283 235.978Z" fill="#593639"/>
<path d="M129.965 243.075C129.965 243.327 129.728 243.533 129.438 243.533C129.147 243.533 128.912 243.327 128.912 243.075C128.912 242.822 129.147 242.617 129.438 242.617C129.729 242.617 129.965 242.822 129.965 243.075Z" fill="#593639"/>
<path d="M114.334 244.454C114.334 244.706 114.097 244.912 113.807 244.912C113.516 244.912 113.282 244.706 113.282 244.454C113.282 244.201 113.516 243.996 113.807 243.996C114.097 243.996 114.334 244.201 114.334 244.454Z" fill="#593639"/>
<path d="M131.014 236.894C131.014 237.146 130.778 237.352 130.489 237.352C130.198 237.352 129.964 237.146 129.964 236.894C129.964 236.642 130.198 236.437 130.489 236.437C130.778 236.437 131.014 236.642 131.014 236.894Z" fill="#593639"/>
<path d="M125.33 240.519C125.33 240.771 125.095 240.978 124.805 240.978C124.514 240.978 124.28 240.771 124.28 240.519C124.28 240.267 124.514 240.062 124.805 240.062C125.095 240.062 125.33 240.267 125.33 240.519Z" fill="#593639"/>
<path d="M121.109 244.848C121.109 245.099 120.874 245.305 120.584 245.305C120.293 245.305 120.059 245.099 120.059 244.848C120.059 244.595 120.293 244.39 120.584 244.39C120.874 244.39 121.109 244.594 121.109 244.848Z" fill="#593639"/>
<path d="M119.236 241.387C119.236 241.638 118.999 241.844 118.71 241.844C118.419 241.844 118.184 241.638 118.184 241.387C118.184 241.134 118.419 240.929 118.71 240.929C118.999 240.929 119.236 241.134 119.236 241.387Z" fill="#593639"/>
<path d="M122.932 235.788C122.932 236.04 122.695 236.246 122.405 236.246C122.115 236.246 121.879 236.04 121.879 235.788C121.879 235.535 122.115 235.33 122.405 235.33C122.695 235.33 122.932 235.535 122.932 235.788Z" fill="#593639"/>
<path d="M135.125 235.978C135.125 236.23 134.889 236.436 134.599 236.436C134.308 236.436 134.073 236.23 134.073 235.978C134.073 235.726 134.308 235.521 134.599 235.521C134.889 235.521 135.125 235.726 135.125 235.978Z" fill="#593639"/>
<path d="M131.539 244.893C131.539 245.145 131.303 245.351 131.014 245.351C130.724 245.351 130.488 245.145 130.488 244.893C130.488 244.641 130.724 244.436 131.014 244.436C131.303 244.436 131.539 244.641 131.539 244.893Z" fill="#593639"/>
<path d="M83.9198 238.535C83.9198 238.787 83.6835 238.994 83.3934 238.994C83.1033 238.994 82.8677 238.787 82.8677 238.535C82.8677 238.283 83.1033 238.078 83.3934 238.078C83.6835 238.078 83.9198 238.283 83.9198 238.535Z" fill="#593639"/>
<path d="M72.3639 234.335C72.3639 234.587 72.1276 234.794 71.8375 234.794C71.5474 234.794 71.3118 234.587 71.3118 234.335C71.3118 234.082 71.5474 233.877 71.8375 233.877C72.1276 233.877 72.3639 234.082 72.3639 234.335Z" fill="#593639"/>
<path d="M55.3863 236.436C55.3863 236.688 55.1492 236.894 54.8599 236.894C54.5705 236.894 54.3342 236.688 54.3342 236.436C54.3342 236.184 54.5705 235.979 54.8599 235.979C55.1492 235.979 55.3863 236.184 55.3863 236.436Z" fill="#593639"/>
<path d="M41.189 242.206C41.189 242.457 40.9527 242.664 40.6626 242.664C40.3725 242.664 40.137 242.457 40.137 242.206C40.137 241.953 40.3725 241.748 40.6626 241.748C40.9527 241.748 41.189 241.953 41.189 242.206Z" fill="#593639"/>
<path d="M46.1754 243.995C46.1754 244.247 45.9391 244.453 45.649 244.453C45.3589 244.453 45.1234 244.247 45.1234 243.995C45.1234 243.742 45.3589 243.537 45.649 243.537C45.9391 243.537 46.1754 243.742 46.1754 243.995Z" fill="#593639"/>
<path d="M51.8377 236.894C51.8377 237.146 51.6015 237.352 51.3113 237.352C51.0212 237.352 50.7857 237.146 50.7857 236.894C50.7857 236.642 51.0212 236.437 51.3113 236.437C51.6015 236.437 51.8377 236.642 51.8377 236.894Z" fill="#593639"/>
<path d="M66.6416 240.728C66.6416 240.98 66.4053 241.186 66.1152 241.186C65.8251 241.186 65.5896 240.98 65.5896 240.728C65.5896 240.476 65.8251 240.271 66.1152 240.271C66.4046 240.271 66.6416 240.476 66.6416 240.728Z" fill="#593639"/>
<path d="M65.0273 244.417C65.0273 244.669 64.791 244.874 64.5009 244.874C64.21 244.874 63.9753 244.669 63.9753 244.417C63.9753 244.164 64.2108 243.959 64.5009 243.959C64.791 243.959 65.0273 244.164 65.0273 244.417Z" fill="#593639"/>
<path d="M75.8992 244.893C75.8992 245.145 75.6629 245.351 75.3728 245.351C75.0827 245.351 74.8472 245.145 74.8472 244.893C74.8472 244.641 75.0827 244.436 75.3728 244.436C75.6621 244.436 75.8992 244.641 75.8992 244.893Z" fill="#593639"/>
<path d="M109.708 236.436C109.708 236.688 109.471 236.894 109.182 236.894C108.892 236.894 108.655 236.688 108.655 236.436C108.655 236.184 108.892 235.979 109.182 235.979C109.472 235.979 109.708 236.184 109.708 236.436Z" fill="#593639"/>
<path d="M116.265 238.864C116.265 239.116 116.029 239.322 115.739 239.322C115.45 239.322 115.213 239.116 115.213 238.864C115.213 238.611 115.45 238.406 115.739 238.406C116.029 238.407 116.265 238.611 116.265 238.864Z" fill="#593639"/>
<path d="M116.79 244.912C117.081 244.912 117.316 244.707 117.316 244.454C117.316 244.201 117.081 243.996 116.79 243.996C116.499 243.996 116.263 244.201 116.263 244.454C116.263 244.707 116.499 244.912 116.79 244.912Z" fill="#593639"/>
<path d="M75.8982 237.569C75.8982 237.822 75.6621 238.027 75.373 238.027C75.0824 238.027 74.8479 237.822 74.8479 237.569C74.8479 237.317 75.0824 237.111 75.373 237.111C75.6621 237.111 75.8982 237.317 75.8982 237.569Z" fill="#593639"/>
<path d="M74.5858 240.269C74.5858 240.521 74.3505 240.727 74.0607 240.727C73.7709 240.727 73.5364 240.521 73.5364 240.269C73.5364 240.017 73.7709 239.812 74.0607 239.812C74.3498 239.812 74.5858 240.017 74.5858 240.269Z" fill="#593639"/>
<path d="M69.5092 241.545C69.5092 241.798 69.2739 242.004 68.984 242.004C68.6942 242.004 68.4597 241.798 68.4597 241.545C68.4597 241.293 68.6942 241.088 68.984 241.088C69.2739 241.088 69.5092 241.292 69.5092 241.545Z" fill="#593639"/>
<path d="M93.1348 233.436C93.1348 233.687 92.9002 233.894 92.6096 233.894C92.3198 233.894 92.0845 233.687 92.0845 233.436C92.0845 233.184 92.3198 232.978 92.6096 232.978C92.8994 232.978 93.1348 233.184 93.1348 233.436Z" fill="#593639"/>
<path d="M95.2288 241.291C95.2288 241.545 94.9935 241.75 94.7037 241.75C94.4131 241.75 94.1785 241.545 94.1785 241.291C94.1785 241.04 94.4131 240.833 94.7037 240.833C94.9935 240.833 95.2288 241.039 95.2288 241.291Z" fill="#593639"/>
<path d="M91.4391 244.434C91.4391 244.687 91.2029 244.892 90.9135 244.892C90.6234 244.892 90.3871 244.687 90.3871 244.434C90.3871 244.183 90.6234 243.977 90.9135 243.977C91.2029 243.977 91.4391 244.183 91.4391 244.434Z" fill="#593639"/>
<path d="M104.414 239.811C104.414 240.062 104.179 240.269 103.889 240.269C103.6 240.269 103.364 240.062 103.364 239.811C103.364 239.559 103.6 239.354 103.889 239.354C104.179 239.354 104.414 239.559 104.414 239.811Z" fill="#593639"/>
<path d="M109.706 243.472C109.706 243.723 109.471 243.929 109.182 243.929C108.892 243.929 108.656 243.723 108.656 243.472C108.656 243.219 108.892 243.014 109.182 243.014C109.471 243.014 109.706 243.219 109.706 243.472Z" fill="#593639"/>
<path d="M106.312 236.245C106.312 236.497 106.076 236.703 105.785 236.703C105.496 236.703 105.26 236.497 105.26 236.245C105.26 235.992 105.496 235.787 105.785 235.787C106.076 235.787 106.312 235.992 106.312 236.245Z" fill="#593639"/>
<path d="M99.5728 241.748C99.5728 242.001 99.7536 242.206 99.9756 242.206C100.198 242.206 100.378 242.001 100.378 241.748C100.378 241.496 100.198 241.289 99.9756 241.289C99.7536 241.29 99.5728 241.496 99.5728 241.748Z" fill="#593639"/>
<path d="M86.6582 239.828C86.6582 240.393 86.1331 240.851 85.4857 240.851C84.8375 240.851 84.3132 240.392 84.3132 239.828C84.3132 239.265 84.8375 238.808 85.4857 238.808C86.1331 238.807 86.6582 239.265 86.6582 239.828Z" fill="#593639"/>
<path d="M87.8307 239.557C87.8307 240.121 87.3056 240.58 86.6582 240.58C86.0108 240.58 85.4857 240.12 85.4857 239.557C85.4857 238.994 86.0108 238.535 86.6582 238.535C87.3056 238.536 87.8307 238.994 87.8307 239.557Z" fill="#593639"/>
<path d="M117.963 238.077C117.963 238.642 117.437 239.099 116.79 239.099C116.143 239.099 115.618 238.641 115.618 238.077C115.618 237.514 116.143 237.056 116.79 237.056C117.437 237.056 117.963 237.514 117.963 238.077Z" fill="#593639"/>
<path d="M91.3474 236.762C91.3474 237.324 90.8239 237.785 90.1765 237.785C89.5283 237.785 89.0032 237.324 89.0032 236.762C89.0032 236.197 89.5283 235.739 90.1765 235.739C90.8239 235.739 91.3474 236.197 91.3474 236.762Z" fill="#593639"/>
<path d="M58.4321 240.579C58.4321 241.113 57.0672 241.544 55.3852 241.544C53.7016 241.544 52.3375 241.113 52.3375 240.579C52.3375 240.046 53.7016 239.615 55.3852 239.615C57.068 239.615 58.4321 240.047 58.4321 240.579Z" fill="#593639"/>
<path d="M69.4258 244.417C69.4258 244.659 68.9007 244.857 68.2533 244.857C67.6058 244.857 67.0807 244.659 67.0807 244.417C67.0807 244.174 67.6058 243.977 68.2533 243.977C68.9007 243.977 69.4258 244.173 69.4258 244.417Z" fill="#593639"/>
<path d="M68.9848 238.866C68.9848 239.428 68.4613 239.887 67.8139 239.887C67.1657 239.887 66.6406 239.427 66.6406 238.866C66.6406 238.3 67.1657 237.842 67.8139 237.842C68.4613 237.842 68.9848 238.3 68.9848 238.866Z" fill="#593639"/>
<path d="M73.0097 238.189C73.0097 238.941 72.4861 239.557 71.8387 239.557C71.1913 239.557 70.6655 238.941 70.6655 238.189C70.6655 237.432 71.1905 236.819 71.8387 236.819C72.4861 236.82 73.0097 237.432 73.0097 238.189Z" fill="#593639"/>
<path d="M92.0838 240.27C92.0838 240.833 91.5602 241.291 90.912 241.291C90.2646 241.291 89.7395 240.833 89.7395 240.27C89.7395 239.705 90.2646 239.248 90.912 239.248C91.561 239.248 92.0838 239.705 92.0838 240.27Z" fill="#593639"/>
<path d="M127.408 244.418C127.408 244.982 126.886 245.439 126.237 245.439C125.589 245.439 125.064 244.981 125.064 244.418C125.064 243.855 125.589 243.396 126.237 243.396C126.886 243.396 127.408 243.854 127.408 244.418Z" fill="#593639"/>
<path d="M112.231 241.292C112.231 241.857 111.706 242.315 111.058 242.315C110.41 242.315 109.885 241.856 109.885 241.292C109.885 240.728 110.41 240.271 111.058 240.271C111.706 240.271 112.231 240.728 112.231 241.292Z" fill="#593639"/>
<path d="M103.734 245.12C103.734 245.685 103.209 246.142 102.561 246.142C101.913 246.142 101.388 245.685 101.388 245.12C101.388 244.557 101.913 244.099 102.561 244.099C103.209 244.099 103.734 244.557 103.734 245.12Z" fill="#593639"/>
<path d="M122.93 241.542C122.93 242.107 122.404 242.565 121.756 242.565C121.109 242.565 120.583 242.106 120.583 241.542C120.583 240.978 121.109 240.52 121.756 240.52C122.404 240.52 122.93 240.978 122.93 241.542Z" fill="#593639"/>
<path d="M87.8307 244.099C87.8307 244.663 87.3056 245.123 86.6582 245.123C86.0108 245.123 85.4857 244.662 85.4857 244.099C85.4857 243.534 86.0108 243.078 86.6582 243.078C87.3056 243.077 87.8307 243.534 87.8307 244.099Z" fill="#593639"/>
<g filter="url(#filter2_b_2_3001)">
<path d="M33.4309 4.35254C19.7247 4.35254 7.33972 18.4476 7.33972 32.1258V323.064C7.33972 336.741 20.7425 350.497 34.45 350.497H157.998C171.706 350.497 185.448 337.081 185.448 323.4V31.7872C185.448 18.1084 173.064 4.35254 159.356 4.35254H33.4309Z" fill="black" fill-opacity="0.1"/>
</g>
<path d="M135.13 212.259C135.13 214.765 133.087 216.803 130.576 216.803H124.414C123.65 216.803 123.031 217.422 123.031 218.186C123.031 218.95 123.65 219.57 124.414 219.57H130.576C134.616 219.57 137.903 216.29 137.903 212.258V206.116C137.903 205.35 137.282 204.729 136.516 204.729C135.751 204.729 135.13 205.35 135.13 206.116V212.259Z" fill="white"/>
<path d="M130.576 139.187C133.087 139.187 135.13 141.226 135.13 143.732V149.874C135.13 150.64 135.751 151.261 136.516 151.261C137.282 151.261 137.903 150.64 137.903 149.874V143.732C137.903 139.701 134.616 136.421 130.576 136.421H124.414C123.65 136.421 123.031 137.04 123.031 137.804C123.031 138.568 123.65 139.187 124.414 139.187L130.576 139.187Z" fill="white"/>
<path d="M61.9026 216.802C59.3913 216.802 57.3481 214.764 57.3481 212.258V206.115C57.3481 205.35 56.7274 204.729 55.9618 204.729C55.1961 204.729 54.5754 205.35 54.5754 206.115V212.258C54.5754 216.289 57.8625 219.569 61.9026 219.569H68.0647C68.8287 219.569 69.448 218.95 69.448 218.186C69.448 217.422 68.8287 216.803 68.0648 216.803L61.9026 216.802Z" fill="white"/>
<path d="M57.3481 143.731C57.3481 141.225 59.3913 139.187 61.9026 139.187H68.0649C68.8288 139.187 69.448 138.568 69.448 137.804C69.448 137.04 68.8288 136.421 68.0649 136.421H61.9026C57.8625 136.421 54.5754 139.701 54.5754 143.732V149.874C54.5754 150.64 55.1961 151.261 55.9618 151.261C56.7274 151.261 57.3481 150.64 57.3481 149.874V143.731Z" fill="white"/>
<path d="M99.6726 246.674C99.6726 245.139 98.4258 243.896 96.8892 243.896C95.3516 243.896 94.1051 245.139 94.1051 246.674C94.1051 248.208 95.3519 249.451 96.8892 249.451C98.4258 249.452 99.6726 248.208 99.6726 246.674Z" fill="white"/>
<path d="M97.3714 246.193L96.4055 247.157L108.031 264.763H164.126V263.401H108.597L97.3714 246.193Z" fill="white"/>
<path opacity="0.6" d="M164.126 268.014H109.494V292.545H164.126V268.014Z" fill="white"/>
<path d="M151.607 285.844H122.697V287.888H151.607V285.844Z" fill="white"/>
<path d="M151.607 281.764H122.697V283.808H151.607V281.764Z" fill="white"/>
<path d="M151.607 277.683H122.697V279.727H151.607V277.683Z" fill="white"/>
<path d="M151.607 273.601H122.697V275.645H151.607V273.601Z" fill="white"/>
</g>
<defs>
<filter id="filter0_d_2_3001" x="172.854" y="285.883" width="153.452" height="21.6329" filterUnits="userSpaceOnUse" color-interpolation-filters="sRGB">
<feFlood flood-opacity="0" result="BackgroundImageFix"/>
<feColorMatrix in="SourceAlpha" type="matrix" values="0 0 0 0 0 0 0 0 0 0 0 0 0 0 0 0 0 0 127 0" result="hardAlpha"/>
<feOffset dy="1.76395"/>
<feGaussianBlur stdDeviation="0.881975"/>
<feComposite in2="hardAlpha" operator="out"/>
<feColorMatrix type="matrix" values="0 0 0 0 0 0 0 0 0 0 0 0 0 0 0 0 0 0 0.05 0"/>
<feBlend mode="normal" in2="BackgroundImageFix" result="effect1_dropShadow_2_3001"/>
<feBlend mode="normal" in="SourceGraphic" in2="effect1_dropShadow_2_3001" result="shape"/>
</filter>
<filter id="filter1_d_2_3001" x="28.2205" y="246.695" width="133.625" height="19.2383" filterUnits="userSpaceOnUse" color-interpolation-filters="sRGB">
<feFlood flood-opacity="0" result="BackgroundImageFix"/>
<feColorMatrix in="SourceAlpha" type="matrix" values="0 0 0 0 0 0 0 0 0 0 0 0 0 0 0 0 0 0 127 0" result="hardAlpha"/>
<feOffset dy="1.76395"/>
<feGaussianBlur stdDeviation="0.881975"/>
<feComposite in2="hardAlpha" operator="out"/>
<feColorMatrix type="matrix" values="0 0 0 0 0 0 0 0 0 0 0 0 0 0 0 0 0 0 0.05 0"/>
<feBlend mode="normal" in2="BackgroundImageFix" result="effect1_dropShadow_2_3001"/>
<feBlend mode="normal" in="SourceGraphic" in2="effect1_dropShadow_2_3001" result="shape"/>
</filter>
<filter id="filter2_b_2_3001" x="1.0905" y="-1.89668" width="190.607" height="358.643" filterUnits="userSpaceOnUse" color-interpolation-filters="sRGB">
<feFlood flood-opacity="0" result="BackgroundImageFix"/>
<feGaussianBlur in="BackgroundImage" stdDeviation="3.12461"/>
<feComposite in2="SourceAlpha" operator="in" result="effect1_backgroundBlur_2_3001"/>
<feBlend mode="normal" in="SourceGraphic" in2="effect1_backgroundBlur_2_3001" result="shape"/>
</filter>
<clipPath id="clip0_2_3001">
<rect width="339" height="411.001" fill="white"/>
</clipPath>
</defs>
</svg>
