<svg width="309" height="367" viewBox="0 0 309 367" fill="none" xmlns="http://www.w3.org/2000/svg">
<g clip-path="url(#clip0_2_7798)">
<path d="M196.322 359.409C199.911 352.985 207.961 354.57 214.023 356.566C211.611 362.274 203.881 363.524 199.023 361.395C198.415 361.075 197.05 359.91 196.322 359.409Z" fill="#85B719"/>
<path d="M282.471 157.889C281.204 150.64 288.451 146.792 294.413 144.517C296.143 150.468 290.933 156.313 285.82 157.725C285.146 157.861 283.352 157.818 282.471 157.889Z" fill="#85B719"/>
<path d="M292.12 328.239C298.294 324.234 304.673 329.395 309.101 333.99C304.303 337.912 296.884 335.408 293.582 331.256C293.193 330.689 292.531 329.022 292.12 328.239Z" fill="#85B719"/>
<path d="M289.519 14.9887C287.476 7.91885 294.264 3.3101 299.946 0.404452C302.309 6.13338 297.761 12.5079 292.83 14.4642C292.175 14.6717 290.387 14.8227 289.519 14.9887Z" fill="#85B719"/>
<path d="M12.7131 25.164C5.61978 23.204 5.24636 15.0076 5.74463 8.64574C11.8627 9.63152 14.9138 16.8429 13.9995 22.0682C13.8332 22.7353 13.026 24.3377 12.7131 25.164Z" fill="#85B719"/>
<path d="M5.52296 121.834C1.82834 115.469 7.29822 109.354 12.1067 105.158C15.7866 110.145 12.9187 117.431 8.60848 120.523C8.0229 120.883 6.3248 121.463 5.52296 121.834Z" fill="#85B719"/>
<path d="M48.5951 333.464C42.1179 336.957 36.1768 331.298 32.1346 326.361C37.2336 322.839 44.4262 325.934 47.3818 330.339C47.7233 330.936 48.2493 332.651 48.5951 333.464Z" fill="#85B719"/>
</g>
<g clip-path="url(#clip1_2_7798)">
<path d="M267.426 309.676C267.426 313.337 230.535 316.305 198.019 316.305C165.504 316.305 149.677 313.337 149.677 309.676C149.677 306.015 165.504 303.047 198.019 303.047C230.535 303.047 267.426 306.015 267.426 309.676Z" fill="#E0E0E0" fill-opacity="0.4"/>
<path d="M225.405 98.0103C219.119 101.542 211.658 107.046 214.278 114.938C213.046 118.501 211.384 123.586 209.639 129.717C209.149 124.561 204.105 119.564 199.533 115.778C194.845 121.187 198.604 129.72 204.171 133.575C205.199 134.19 206.458 134.847 208.018 135.508C208.039 135.481 208.053 135.455 208.072 135.426C205.291 145.996 202.565 158.799 201.266 171.947C201.184 172.426 201.136 172.913 201.128 173.412C200.535 179.971 200.306 186.6 200.615 193.065C198.398 183.388 195.869 174.218 193.382 166.04C194.38 165.696 195.186 165.181 195.836 164.575C199.418 159.527 200.496 153.455 198.35 147.858C194.345 149.969 191.469 154.521 191.183 159.022C187.864 148.723 184.819 140.538 182.939 135.709C183.464 134.998 183.815 134.259 184.021 133.521C184.458 127.351 182.219 121.604 177.473 117.932C174.07 123.611 175.448 132.507 181.484 135.557C182.968 139.347 185.301 145.538 187.959 153.397C185.148 148.99 177.435 145.603 171.298 148.708C175.267 153.699 181.29 159.492 188.984 156.471C193.387 169.814 201.708 208.025 201.87 208.478C198.697 205.249 193.248 203.472 188.489 202.331C186.914 209.257 193.9 215.19 200.345 216.136C201.304 216.216 202.424 216.235 203.71 216.183C204.111 218.84 204.463 221.508 204.773 224.175H206.091C205.217 216.707 203.994 209.242 202.532 201.967C203.094 201.922 203.608 201.793 204.075 201.602C208.003 198.969 210.421 194.928 210.411 190.35C206.742 190.806 203.231 193.594 201.994 197.036C201.433 190.473 201.48 183.682 201.953 176.914C203.309 176.646 204.444 176.328 205.385 175.989C210.863 173.564 215.717 166.166 212.794 159.805C209.234 161.803 205.297 164.435 203.027 167.778C203.317 164.889 204.665 156.231 204.479 156.81C207.674 138.657 212.72 122.792 215.451 114.936C216.423 114.711 217.263 114.463 217.993 114.199C223.474 111.772 228.326 104.374 225.405 98.0103Z" fill="#85B719"/>
<path d="M189.384 112.303C196.842 115.799 205.645 121.128 202.183 128.099C203.536 131.367 205.352 136.028 207.229 141.634C208.015 137.018 214.296 132.775 219.962 129.599C225.421 134.704 220.556 142.193 213.688 145.382C212.424 145.883 210.877 146.41 208.968 146.927C208.944 146.901 208.928 146.878 208.906 146.851C211.866 156.505 214.675 168.164 215.747 180.062C215.829 180.496 215.869 180.937 215.86 181.388C216.328 187.32 216.354 193.296 215.737 199.1C218.78 190.503 222.181 182.379 225.494 175.144C224.302 174.784 223.348 174.28 222.586 173.701C218.449 168.978 217.376 163.459 220.18 158.53C224.937 160.631 228.239 164.874 228.416 168.939C232.812 159.837 236.799 152.625 239.252 148.373C238.645 147.707 238.249 147.025 238.028 146.351C237.733 140.775 240.653 135.716 246.525 132.651C250.42 137.933 248.421 145.87 241.016 148.31C239.081 151.646 236.028 157.1 232.521 164.038C236.083 160.215 245.526 157.554 252.82 160.659C247.84 164.952 240.345 169.861 231.167 166.754C225.346 178.539 213.853 212.508 213.639 212.909C217.595 210.162 224.242 208.837 230.033 208.051C231.674 214.364 223.012 219.35 215.193 219.878C214.032 219.902 212.677 219.861 211.126 219.748C210.541 222.121 210.016 224.503 209.541 226.887L207.949 226.82C209.287 220.145 211.045 213.488 213.085 207.015C212.41 206.947 211.794 206.803 211.236 206.607C206.591 204.041 203.823 200.281 204.009 196.162C208.423 196.757 212.558 199.444 213.922 202.603C214.848 196.726 215.047 190.613 214.731 184.497C213.103 184.187 211.744 183.844 210.621 183.492C204.094 181.031 198.512 174.13 202.282 168.552C206.507 170.529 211.163 173.097 213.78 176.221C213.537 173.606 212.236 165.746 212.44 166.277C209.266 149.779 203.77 135.246 200.768 128.038C199.603 127.786 198.598 127.521 197.725 127.247C191.196 124.786 185.615 117.883 189.384 112.303Z" fill="#85B719"/>
<path d="M237.774 308.502C237.564 309.61 236.596 310.411 235.469 310.411H178.881C177.725 310.411 176.741 309.569 176.563 308.427L165.896 240.077H250.747L237.774 308.502Z" fill="#EF9D6B"/>
<g filter="url(#filter0_d_2_7798)">
<path d="M255.467 233.108H160.463C159.167 233.108 158.117 234.158 158.117 235.454V242.801C158.117 244.097 159.167 245.147 160.463 245.147H255.467C256.762 245.147 257.813 244.097 257.813 242.801V235.454C257.813 234.158 256.762 233.108 255.467 233.108Z" fill="#EF9D6B"/>
</g>
<path d="M252.727 233.107C250.093 226.771 241.813 223.273 231.991 223.273C229.433 223.273 226.99 223.338 224.714 223.832C219.543 222.384 212.792 221.389 205.379 221.389C198.566 221.389 192.312 222.084 187.328 223.328C185.651 223.051 183.895 223.299 182.071 223.299C172.573 223.299 164.644 226.771 162.616 233.107H252.727Z" fill="#372626"/>
<path d="M242.733 228.343C242.733 228.616 242.031 228.838 241.167 228.838C240.303 228.838 239.602 228.616 239.602 228.343C239.602 228.069 240.303 227.847 241.167 227.847C242.031 227.847 242.733 228.069 242.733 228.343Z" fill="#593639"/>
<path d="M240.722 231.373C240.722 231.646 240.021 231.868 239.157 231.868C238.292 231.868 237.592 231.646 237.592 231.373C237.592 231.1 238.292 230.878 239.157 230.878C240.021 230.877 240.722 231.099 240.722 231.373Z" fill="#593639"/>
<path d="M174.657 227.46C174.657 227.734 173.956 227.955 173.092 227.955C172.227 227.955 171.526 227.734 171.526 227.46C171.526 227.186 172.227 226.965 173.092 226.965C173.956 226.965 174.657 227.186 174.657 227.46Z" fill="#593639"/>
<path d="M244.578 230.878C244.578 231.151 243.878 231.373 243.013 231.373C242.149 231.373 241.448 231.151 241.448 230.878C241.448 230.605 242.149 230.382 243.013 230.382C243.878 230.382 244.578 230.605 244.578 230.878Z" fill="#593639"/>
<path d="M240.476 229.502C240.476 229.627 240.207 229.729 239.874 229.729C239.541 229.729 239.271 229.627 239.271 229.502C239.271 229.377 239.541 229.275 239.874 229.275C240.206 229.275 240.476 229.377 240.476 229.502Z" fill="#593639"/>
<path d="M240.801 226.68C240.801 226.804 240.531 226.906 240.198 226.906C239.865 226.906 239.597 226.804 239.597 226.68C239.597 226.554 239.865 226.453 240.198 226.453C240.531 226.453 240.801 226.555 240.801 226.68Z" fill="#593639"/>
<path d="M183.612 227.682C183.612 227.807 183.341 227.909 183.009 227.909C182.677 227.909 182.407 227.807 182.407 227.682C182.407 227.556 182.677 227.456 183.009 227.456C183.341 227.456 183.612 227.556 183.612 227.682Z" fill="#593639"/>
<path d="M173.694 231.925C173.694 232.05 173.424 232.152 173.092 232.152C172.759 232.152 172.489 232.05 172.489 231.925C172.489 231.8 172.759 231.699 173.092 231.699C173.424 231.699 173.694 231.8 173.694 231.925Z" fill="#593639"/>
<path d="M176.45 230.334C176.45 230.46 176.181 230.561 175.849 230.561C175.516 230.561 175.246 230.46 175.246 230.334C175.246 230.209 175.516 230.108 175.849 230.108C176.181 230.108 176.45 230.209 176.45 230.334Z" fill="#593639"/>
<path d="M245.181 229.274C245.181 229.563 244.911 229.799 244.578 229.799C244.246 229.799 243.976 229.563 243.976 229.274C243.976 228.984 244.246 228.749 244.578 228.749C244.911 228.749 245.181 228.984 245.181 229.274Z" fill="#593639"/>
<path d="M238.616 227.846C238.616 228.136 238.347 228.372 238.014 228.372C237.682 228.372 237.411 228.136 237.411 227.846C237.411 227.557 237.682 227.321 238.014 227.321C238.347 227.321 238.616 227.556 238.616 227.846Z" fill="#593639"/>
<path d="M238.284 229.275C238.284 229.406 238.163 229.512 238.015 229.512C237.866 229.512 237.745 229.406 237.745 229.275C237.745 229.145 237.866 229.04 238.015 229.04C238.163 229.04 238.284 229.145 238.284 229.275Z" fill="#593639"/>
<path d="M232.774 225.1C232.774 225.23 232.654 225.336 232.505 225.336C232.356 225.336 232.236 225.23 232.236 225.1C232.236 224.97 232.356 224.864 232.505 224.864C232.654 224.865 232.774 224.97 232.774 225.1Z" fill="#593639"/>
<path d="M224.504 228.838C224.504 229.116 224.383 229.344 224.235 229.344C224.086 229.344 223.965 229.116 223.965 228.838C223.965 228.557 224.086 228.33 224.235 228.33C224.383 228.33 224.504 228.557 224.504 228.838Z" fill="#593639"/>
<path d="M174.233 228.896C174.233 229.027 174.113 229.133 173.963 229.133C173.815 229.133 173.693 229.027 173.693 228.896C173.693 228.766 173.815 228.661 173.963 228.661C174.113 228.661 174.233 228.767 174.233 228.896Z" fill="#593639"/>
<path d="M167.242 231.692C167.242 231.821 167.12 231.927 166.972 231.927C166.823 231.927 166.702 231.821 166.702 231.692C166.702 231.561 166.823 231.455 166.972 231.455C167.12 231.455 167.242 231.561 167.242 231.692Z" fill="#593639"/>
<path d="M177.046 226.965C177.046 227.095 176.925 227.201 176.777 227.201C176.628 227.201 176.507 227.095 176.507 226.965C176.507 226.835 176.628 226.729 176.777 226.729C176.925 226.729 177.046 226.835 177.046 226.965Z" fill="#593639"/>
<path d="M238.284 230.253C238.284 230.383 238.163 230.489 238.015 230.489C237.866 230.489 237.745 230.383 237.745 230.253C237.745 230.124 237.866 230.018 238.015 230.018C238.163 230.017 238.284 230.124 238.284 230.253Z" fill="#593639"/>
<path d="M246.954 232.279C246.954 232.41 246.833 232.515 246.684 232.515C246.535 232.515 246.414 232.41 246.414 232.279C246.414 232.149 246.535 232.043 246.684 232.043C246.833 232.043 246.954 232.149 246.954 232.279Z" fill="#593639"/>
<path d="M242.199 232.279C242.199 232.41 242.078 232.515 241.929 232.515C241.781 232.515 241.66 232.41 241.66 232.279C241.66 232.149 241.781 232.043 241.929 232.043C242.078 232.043 242.199 232.149 242.199 232.279Z" fill="#593639"/>
<path d="M178.095 231.926C178.095 232.057 177.974 232.163 177.825 232.163C177.676 232.163 177.555 232.057 177.555 231.926C177.555 231.797 177.676 231.691 177.825 231.691C177.974 231.692 178.095 231.797 178.095 231.926Z" fill="#593639"/>
<path d="M243.003 229.493C243.003 229.623 242.881 229.729 242.733 229.729C242.583 229.729 242.462 229.623 242.462 229.493C242.462 229.363 242.583 229.257 242.733 229.257C242.881 229.257 243.003 229.363 243.003 229.493Z" fill="#593639"/>
<path d="M243.977 227.661C243.977 227.791 243.856 227.897 243.706 227.897C243.558 227.897 243.437 227.791 243.437 227.661C243.437 227.531 243.558 227.425 243.706 227.425C243.856 227.425 243.977 227.531 243.977 227.661Z" fill="#593639"/>
<path d="M247.557 229.04C247.557 229.17 247.435 229.276 247.286 229.276C247.137 229.276 247.017 229.17 247.017 229.04C247.017 228.909 247.137 228.804 247.286 228.804C247.435 228.805 247.557 228.91 247.557 229.04Z" fill="#593639"/>
<path d="M240.515 230.489C240.515 230.619 240.608 230.724 240.722 230.724C240.836 230.724 240.928 230.618 240.928 230.489C240.928 230.359 240.836 230.253 240.722 230.253C240.608 230.254 240.515 230.359 240.515 230.489Z" fill="#593639"/>
<path d="M172.731 230.425C172.731 230.714 172.461 230.951 172.128 230.951C171.795 230.951 171.526 230.714 171.526 230.425C171.526 230.136 171.796 229.9 172.128 229.9C172.461 229.9 172.731 230.135 172.731 230.425Z" fill="#593639"/>
<path d="M173.694 230.311C173.694 230.6 173.424 230.836 173.092 230.836C172.759 230.836 172.489 230.6 172.489 230.311C172.489 230.021 172.759 229.786 173.092 229.786C173.424 229.786 173.694 230.021 173.694 230.311Z" fill="#593639"/>
<path d="M185.572 224.895C185.572 225.184 185.303 225.42 184.971 225.42C184.638 225.42 184.368 225.184 184.368 224.895C184.368 224.604 184.638 224.369 184.971 224.369C185.303 224.37 185.572 224.604 185.572 224.895Z" fill="#593639"/>
<path d="M179.03 230.087C179.03 230.376 178.761 230.612 178.427 230.612C178.095 230.612 177.825 230.376 177.825 230.087C177.825 229.797 178.095 229.562 178.427 229.562C178.761 229.562 179.03 229.797 179.03 230.087Z" fill="#593639"/>
<path d="M181.122 231.455C181.122 231.745 180.852 231.981 180.519 231.981C180.187 231.981 179.917 231.745 179.917 231.455C179.917 231.167 180.187 230.931 180.519 230.931C180.852 230.931 181.122 231.167 181.122 231.455Z" fill="#593639"/>
<path d="M247.017 230.252C247.017 230.542 246.748 230.777 246.414 230.777C246.081 230.777 245.811 230.543 245.811 230.252C245.811 229.963 246.081 229.728 246.414 229.728C246.747 229.728 247.017 229.962 247.017 230.252Z" fill="#593639"/>
<path d="M176.243 231.752C176.243 232.042 175.973 232.278 175.641 232.278C175.308 232.278 175.038 232.042 175.038 231.752C175.038 231.463 175.308 231.228 175.641 231.228C175.973 231.228 176.243 231.463 176.243 231.752Z" fill="#593639"/>
<path d="M214.751 226.114C214.751 226.522 213.706 226.854 212.416 226.854C211.126 226.854 210.081 226.522 210.081 226.114C210.081 225.706 211.126 225.375 212.416 225.375C213.706 225.375 214.751 225.706 214.751 226.114Z" fill="#593639"/>
<path d="M183.307 225.984C183.307 226.392 182.261 226.724 180.971 226.724C179.681 226.724 178.635 226.392 178.635 225.984C178.635 225.576 179.681 225.246 180.971 225.246C182.261 225.245 183.307 225.576 183.307 225.984Z" fill="#593639"/>
<path d="M173.349 228.182C173.349 228.59 172.304 228.921 171.013 228.921C169.723 228.921 168.678 228.59 168.678 228.182C168.678 227.773 169.723 227.443 171.013 227.443C172.304 227.443 173.349 227.773 173.349 228.182Z" fill="#593639"/>
<path d="M211.752 230.637C211.752 231.045 210.706 231.375 209.416 231.375C208.126 231.375 207.08 231.044 207.08 230.637C207.08 230.228 208.126 229.898 209.416 229.898C210.706 229.898 211.752 230.229 211.752 230.637Z" fill="#593639"/>
<path d="M197.972 229.159C197.972 229.568 196.926 229.898 195.636 229.898C194.346 229.898 193.301 229.568 193.301 229.159C193.301 228.751 194.346 228.42 195.636 228.42C196.926 228.42 197.972 228.751 197.972 229.159Z" fill="#593639"/>
<path d="M200.079 224.711C200.079 225.121 199.033 225.451 197.744 225.451C196.455 225.451 195.41 225.12 195.41 224.711C195.41 224.302 196.455 223.973 197.744 223.973C199.033 223.973 200.079 224.302 200.079 224.711Z" fill="#593639"/>
<path d="M217.506 229.898C217.506 230.307 216.46 230.637 215.17 230.637C213.881 230.637 212.835 230.306 212.835 229.898C212.835 229.491 213.881 229.159 215.17 229.159C216.46 229.159 217.506 229.491 217.506 229.898Z" fill="#593639"/>
<path d="M230.779 226.725C230.779 227.133 229.734 227.463 228.444 227.463C227.154 227.463 226.108 227.133 226.108 226.725C226.108 226.317 227.154 225.985 228.444 225.985C229.734 225.985 230.779 226.317 230.779 226.725Z" fill="#593639"/>
<path d="M211.384 227.844C211.384 228.031 210.982 228.182 210.486 228.182C209.99 228.182 209.587 228.031 209.587 227.844C209.587 227.659 209.99 227.508 210.486 227.508C210.982 227.507 211.384 227.658 211.384 227.844Z" fill="#593639"/>
<path d="M211.869 223.635C211.869 223.819 211.467 223.971 210.971 223.971C210.473 223.971 210.072 223.819 210.072 223.635C210.072 223.447 210.473 223.297 210.971 223.297C211.467 223.297 211.869 223.448 211.869 223.635Z" fill="#593639"/>
<path d="M203.908 223.972C203.908 224.159 203.506 224.31 203.009 224.31C202.513 224.31 202.111 224.159 202.111 223.972C202.111 223.786 202.513 223.636 203.009 223.636C203.506 223.635 203.908 223.786 203.908 223.972Z" fill="#593639"/>
<path d="M196.307 227.062C196.307 227.248 195.904 227.399 195.409 227.399C194.912 227.399 194.509 227.248 194.509 227.062C194.509 226.875 194.911 226.724 195.409 226.724C195.904 226.724 196.307 226.875 196.307 227.062Z" fill="#593639"/>
<path d="M183.306 230.088C183.306 230.274 182.904 230.426 182.409 230.426C181.911 230.426 181.509 230.274 181.509 230.088C181.509 229.901 181.911 229.75 182.409 229.75C182.903 229.75 183.306 229.901 183.306 230.088Z" fill="#593639"/>
<path d="M191.491 229.897C191.491 230.083 191.088 230.234 190.592 230.234C190.096 230.234 189.693 230.083 189.693 229.897C189.693 229.711 190.096 229.559 190.592 229.559C191.088 229.559 191.491 229.71 191.491 229.897Z" fill="#593639"/>
<path d="M198.642 231.375C198.642 231.562 198.24 231.713 197.744 231.713C197.248 231.713 196.846 231.562 196.846 231.375C196.846 231.188 197.248 231.039 197.744 231.039C198.239 231.039 198.642 231.189 198.642 231.375Z" fill="#593639"/>
<path d="M205.478 229.749C205.478 229.935 205.076 230.087 204.58 230.087C204.083 230.087 203.681 229.935 203.681 229.749C203.681 229.563 204.083 229.412 204.58 229.412C205.076 229.412 205.478 229.562 205.478 229.749Z" fill="#593639"/>
<path d="M218.404 227.508C218.404 227.938 218.002 228.29 217.506 228.29C217.009 228.29 216.607 227.938 216.607 227.508C216.607 227.074 217.009 226.724 217.506 226.724C218.002 226.724 218.404 227.075 218.404 227.508Z" fill="#593639"/>
<path d="M235.631 227.858C235.631 228.29 235.228 228.641 234.733 228.641C234.237 228.641 233.834 228.289 233.834 227.858C233.834 227.425 234.237 227.075 234.733 227.075C235.229 227.075 235.631 227.425 235.631 227.858Z" fill="#593639"/>
<path d="M208.611 225.376C208.611 225.807 208.209 226.16 207.712 226.16C207.216 226.16 206.814 225.807 206.814 225.376C206.814 224.943 207.216 224.593 207.712 224.593C208.209 224.593 208.611 224.943 208.611 225.376Z" fill="#593639"/>
<path d="M208.115 227.507C208.115 227.7 207.935 227.857 207.713 227.857C207.49 227.857 207.31 227.7 207.31 227.507C207.31 227.313 207.49 227.156 207.713 227.156C207.935 227.156 208.115 227.313 208.115 227.507Z" fill="#593639"/>
<path d="M221.95 224.894C221.95 225.087 221.769 225.245 221.547 225.245C221.324 225.245 221.143 225.087 221.143 224.894C221.143 224.701 221.324 224.543 221.547 224.543C221.77 224.544 221.95 224.701 221.95 224.894Z" fill="#593639"/>
<path d="M234.733 230.334C234.733 230.527 234.552 230.685 234.33 230.685C234.107 230.685 233.927 230.527 233.927 230.334C233.927 230.141 234.107 229.983 234.33 229.983C234.553 229.983 234.733 230.141 234.733 230.334Z" fill="#593639"/>
<path d="M222.755 231.389C222.755 231.582 222.574 231.74 222.352 231.74C222.129 231.74 221.949 231.582 221.949 231.389C221.949 231.196 222.129 231.039 222.352 231.039C222.574 231.039 222.755 231.196 222.755 231.389Z" fill="#593639"/>
<path d="M235.538 225.596C235.538 225.79 235.357 225.947 235.135 225.947C234.912 225.947 234.733 225.79 234.733 225.596C234.733 225.403 234.912 225.246 235.135 225.246C235.357 225.246 235.538 225.403 235.538 225.596Z" fill="#593639"/>
<path d="M231.182 228.375C231.182 228.568 231.002 228.726 230.779 228.726C230.556 228.726 230.377 228.568 230.377 228.375C230.377 228.181 230.556 228.024 230.779 228.024C231.002 228.024 231.182 228.181 231.182 228.375Z" fill="#593639"/>
<path d="M227.948 231.692C227.948 231.885 227.767 232.043 227.545 232.043C227.322 232.043 227.142 231.885 227.142 231.692C227.142 231.498 227.322 231.341 227.545 231.341C227.767 231.341 227.948 231.497 227.948 231.692Z" fill="#593639"/>
<path d="M226.511 229.039C226.511 229.232 226.33 229.39 226.108 229.39C225.885 229.39 225.705 229.232 225.705 229.039C225.705 228.846 225.885 228.688 226.108 228.688C226.33 228.689 226.511 228.846 226.511 229.039Z" fill="#593639"/>
<path d="M229.344 224.749C229.344 224.942 229.162 225.1 228.94 225.1C228.718 225.1 228.537 224.942 228.537 224.749C228.537 224.555 228.718 224.398 228.94 224.398C229.162 224.398 229.344 224.555 229.344 224.749Z" fill="#593639"/>
<path d="M238.688 224.894C238.688 225.087 238.507 225.245 238.285 225.245C238.062 225.245 237.882 225.087 237.882 224.894C237.882 224.701 238.062 224.543 238.285 224.543C238.507 224.544 238.688 224.701 238.688 224.894Z" fill="#593639"/>
<path d="M235.94 231.726C235.94 231.919 235.76 232.077 235.538 232.077C235.315 232.077 235.135 231.919 235.135 231.726C235.135 231.532 235.315 231.375 235.538 231.375C235.76 231.375 235.94 231.532 235.94 231.726Z" fill="#593639"/>
<path d="M199.449 226.854C199.449 227.047 199.267 227.205 199.045 227.205C198.823 227.205 198.642 227.047 198.642 226.854C198.642 226.661 198.823 226.503 199.045 226.503C199.267 226.503 199.449 226.66 199.449 226.854Z" fill="#593639"/>
<path d="M190.593 223.635C190.593 223.828 190.412 223.987 190.189 223.987C189.967 223.987 189.787 223.828 189.787 223.635C189.787 223.441 189.967 223.284 190.189 223.284C190.412 223.284 190.593 223.441 190.593 223.635Z" fill="#593639"/>
<path d="M177.583 225.246C177.583 225.439 177.401 225.596 177.179 225.596C176.958 225.596 176.776 225.439 176.776 225.246C176.776 225.052 176.958 224.895 177.179 224.895C177.401 224.895 177.583 225.052 177.583 225.246Z" fill="#593639"/>
<path d="M166.703 229.668C166.703 229.861 166.522 230.019 166.299 230.019C166.077 230.019 165.896 229.861 165.896 229.668C165.896 229.475 166.077 229.317 166.299 229.317C166.522 229.317 166.703 229.475 166.703 229.668Z" fill="#593639"/>
<path d="M170.524 231.038C170.524 231.231 170.343 231.389 170.121 231.389C169.899 231.389 169.718 231.231 169.718 231.038C169.718 230.845 169.899 230.688 170.121 230.688C170.343 230.688 170.524 230.845 170.524 231.038Z" fill="#593639"/>
<path d="M174.863 225.596C174.863 225.79 174.682 225.947 174.46 225.947C174.237 225.947 174.057 225.79 174.057 225.596C174.057 225.403 174.237 225.246 174.46 225.246C174.682 225.246 174.863 225.403 174.863 225.596Z" fill="#593639"/>
<path d="M186.208 228.533C186.208 228.726 186.027 228.884 185.804 228.884C185.582 228.884 185.401 228.726 185.401 228.533C185.401 228.339 185.582 228.182 185.804 228.182C186.026 228.182 186.208 228.339 186.208 228.533Z" fill="#593639"/>
<path d="M184.971 231.362C184.971 231.555 184.79 231.712 184.568 231.712C184.345 231.712 184.165 231.555 184.165 231.362C184.165 231.168 184.345 231.011 184.568 231.011C184.79 231.011 184.971 231.168 184.971 231.362Z" fill="#593639"/>
<path d="M193.302 231.726C193.302 231.919 193.121 232.077 192.899 232.077C192.677 232.077 192.496 231.919 192.496 231.726C192.496 231.532 192.677 231.375 192.899 231.375C193.121 231.375 193.302 231.532 193.302 231.726Z" fill="#593639"/>
<path d="M219.21 225.246C219.21 225.439 219.029 225.596 218.807 225.596C218.585 225.596 218.403 225.439 218.403 225.246C218.403 225.052 218.585 224.895 218.807 224.895C219.029 224.895 219.21 225.052 219.21 225.246Z" fill="#593639"/>
<path d="M224.236 227.106C224.236 227.299 224.055 227.457 223.832 227.457C223.611 227.457 223.429 227.299 223.429 227.106C223.429 226.912 223.611 226.755 223.832 226.755C224.055 226.755 224.236 226.912 224.236 227.106Z" fill="#593639"/>
<path d="M224.637 231.74C224.86 231.74 225.041 231.583 225.041 231.389C225.041 231.196 224.86 231.039 224.637 231.039C224.415 231.039 224.234 231.196 224.234 231.389C224.234 231.583 224.415 231.74 224.637 231.74Z" fill="#593639"/>
<path d="M193.302 226.115C193.302 226.308 193.121 226.465 192.899 226.465C192.676 226.465 192.497 226.308 192.497 226.115C192.497 225.922 192.676 225.764 192.899 225.764C193.121 225.764 193.302 225.922 193.302 226.115Z" fill="#593639"/>
<path d="M192.296 228.183C192.296 228.376 192.116 228.534 191.893 228.534C191.671 228.534 191.491 228.376 191.491 228.183C191.491 227.989 191.671 227.832 191.893 227.832C192.115 227.832 192.296 227.989 192.296 228.183Z" fill="#593639"/>
<path d="M188.406 229.161C188.406 229.354 188.225 229.512 188.003 229.512C187.781 229.512 187.601 229.354 187.601 229.161C187.601 228.968 187.781 228.811 188.003 228.811C188.225 228.811 188.406 228.967 188.406 229.161Z" fill="#593639"/>
<path d="M206.511 222.947C206.511 223.139 206.331 223.298 206.108 223.298C205.886 223.298 205.705 223.139 205.705 222.947C205.705 222.753 205.886 222.595 206.108 222.595C206.33 222.595 206.511 222.753 206.511 222.947Z" fill="#593639"/>
<path d="M208.115 228.965C208.115 229.16 207.935 229.317 207.713 229.317C207.49 229.317 207.31 229.16 207.31 228.965C207.31 228.773 207.49 228.614 207.713 228.614C207.935 228.614 208.115 228.772 208.115 228.965Z" fill="#593639"/>
<path d="M205.21 231.375C205.21 231.569 205.029 231.726 204.807 231.726C204.585 231.726 204.404 231.569 204.404 231.375C204.404 231.182 204.585 231.024 204.807 231.024C205.029 231.024 205.21 231.182 205.21 231.375Z" fill="#593639"/>
<path d="M215.154 227.831C215.154 228.024 214.974 228.182 214.751 228.182C214.53 228.182 214.349 228.024 214.349 227.831C214.349 227.638 214.53 227.48 214.751 227.48C214.974 227.48 215.154 227.638 215.154 227.831Z" fill="#593639"/>
<path d="M219.21 230.637C219.21 230.83 219.029 230.987 218.807 230.987C218.585 230.987 218.404 230.83 218.404 230.637C218.404 230.443 218.585 230.286 218.807 230.286C219.029 230.286 219.21 230.443 219.21 230.637Z" fill="#593639"/>
<path d="M216.608 225.099C216.608 225.292 216.427 225.45 216.205 225.45C215.983 225.45 215.802 225.292 215.802 225.099C215.802 224.906 215.983 224.749 216.205 224.749C216.427 224.749 216.608 224.906 216.608 225.099Z" fill="#593639"/>
<path d="M211.444 229.316C211.444 229.511 211.582 229.667 211.752 229.667C211.922 229.667 212.06 229.511 212.06 229.316C212.06 229.123 211.923 228.965 211.752 228.965C211.582 228.965 211.444 229.123 211.444 229.316Z" fill="#593639"/>
<path d="M201.547 227.845C201.547 228.277 201.145 228.628 200.648 228.628C200.152 228.628 199.75 228.277 199.75 227.845C199.75 227.413 200.152 227.063 200.648 227.063C201.145 227.062 201.547 227.413 201.547 227.845Z" fill="#593639"/>
<path d="M202.445 227.636C202.445 228.068 202.043 228.42 201.547 228.42C201.051 228.42 200.648 228.068 200.648 227.636C200.648 227.205 201.051 226.853 201.547 226.853C202.043 226.854 202.445 227.205 202.445 227.636Z" fill="#593639"/>
<path d="M225.536 226.502C225.536 226.935 225.134 227.285 224.638 227.285C224.141 227.285 223.739 226.934 223.739 226.502C223.739 226.07 224.141 225.719 224.638 225.719C225.134 225.719 225.536 226.07 225.536 226.502Z" fill="#593639"/>
<path d="M205.14 225.495C205.14 225.926 204.739 226.278 204.243 226.278C203.746 226.278 203.344 225.926 203.344 225.495C203.344 225.062 203.746 224.711 204.243 224.711C204.739 224.711 205.14 225.062 205.14 225.495Z" fill="#593639"/>
<path d="M179.917 228.421C179.917 228.83 178.871 229.16 177.582 229.16C176.292 229.16 175.246 228.83 175.246 228.421C175.246 228.012 176.292 227.682 177.582 227.682C178.871 227.682 179.917 228.013 179.917 228.421Z" fill="#593639"/>
<path d="M188.341 231.362C188.341 231.547 187.939 231.699 187.443 231.699C186.946 231.699 186.544 231.547 186.544 231.362C186.544 231.176 186.946 231.024 187.443 231.024C187.939 231.024 188.341 231.175 188.341 231.362Z" fill="#593639"/>
<path d="M188.003 227.106C188.003 227.537 187.602 227.889 187.106 227.889C186.609 227.889 186.207 227.536 186.207 227.106C186.207 226.673 186.609 226.322 187.106 226.322C187.602 226.322 188.003 226.673 188.003 227.106Z" fill="#593639"/>
<path d="M191.087 226.589C191.087 227.165 190.686 227.637 190.19 227.637C189.694 227.637 189.291 227.165 189.291 226.589C189.291 226.008 189.693 225.539 190.19 225.539C190.686 225.54 191.087 226.008 191.087 226.589Z" fill="#593639"/>
<path d="M205.704 228.183C205.704 228.615 205.303 228.966 204.806 228.966C204.31 228.966 203.908 228.615 203.908 228.183C203.908 227.751 204.31 227.4 204.806 227.4C205.304 227.4 205.704 227.751 205.704 228.183Z" fill="#593639"/>
<path d="M232.775 231.362C232.775 231.794 232.374 232.144 231.877 232.144C231.381 232.144 230.978 231.793 230.978 231.362C230.978 230.931 231.381 230.579 231.877 230.579C232.374 230.579 232.775 230.93 232.775 231.362Z" fill="#593639"/>
<path d="M221.144 228.965C221.144 229.398 220.742 229.749 220.245 229.749C219.749 229.749 219.346 229.397 219.346 228.965C219.346 228.533 219.749 228.182 220.245 228.182C220.742 228.182 221.144 228.533 221.144 228.965Z" fill="#593639"/>
<path d="M214.632 231.9C214.632 232.333 214.23 232.683 213.733 232.683C213.237 232.683 212.835 232.333 212.835 231.9C212.835 231.468 213.237 231.117 213.733 231.117C214.23 231.118 214.632 231.469 214.632 231.9Z" fill="#593639"/>
<path d="M229.343 229.156C229.343 229.59 228.94 229.94 228.443 229.94C227.947 229.94 227.544 229.589 227.544 229.156C227.544 228.725 227.947 228.373 228.443 228.373C228.94 228.373 229.343 228.725 229.343 229.156Z" fill="#593639"/>
<path d="M202.445 231.116C202.445 231.549 202.043 231.901 201.547 231.901C201.051 231.901 200.648 231.548 200.648 231.116C200.648 230.684 201.051 230.334 201.547 230.334C202.043 230.333 202.445 230.684 202.445 231.116Z" fill="#593639"/>
<path d="M64.2308 45.8945C55.1166 45.8945 46.8809 55.2674 46.8809 64.363V257.829C46.8809 266.924 55.7934 276.072 64.9085 276.072H147.065C156.18 276.072 165.319 267.151 165.319 258.053V64.1379C165.319 55.0419 157.083 45.8945 147.968 45.8945H64.2308Z" fill="#878282"/>
<path d="M46.8808 90.4883H42V100.399H46.8808V90.4883Z" fill="#141C28"/>
<path d="M170.199 112.11H165.319V132.38H170.199V112.11Z" fill="#141C28"/>
<path d="M46.881 105.354H42.0002V119.768H46.881V105.354Z" fill="#141C28"/>
<path d="M46.8808 124.722H42V139.136H46.8808V124.722Z" fill="#141C28"/>
<path d="M147.434 279.04H64.7659C53.161 279.04 43.7202 269.62 43.7202 258.04V64.0011C43.7202 52.4213 53.161 43.0005 64.7659 43.0005H147.434C159.037 43.0005 168.478 52.4213 168.478 64.0011V258.04C168.479 269.62 159.037 279.04 147.434 279.04ZM64.7659 47.5053C55.651 47.5053 48.2349 54.9053 48.2349 64.0011V258.04C48.2349 267.135 55.651 274.535 64.7659 274.535H147.434C156.548 274.535 163.964 267.135 163.964 258.04V64.0011C163.964 54.9053 156.549 47.5053 147.434 47.5053H64.7659Z" fill="#141C28"/>
<path d="M120.328 89.8159C114.874 92.8809 108.4 97.6571 110.673 104.505C109.604 107.597 108.162 112.009 106.647 117.329C106.222 112.855 101.846 108.519 97.8781 105.234C93.8097 109.928 97.072 117.332 101.902 120.677C102.795 121.211 103.888 121.781 105.241 122.355C105.259 122.331 105.271 122.309 105.288 122.284C102.874 131.456 100.509 142.565 99.382 153.975C99.3106 154.39 99.2691 154.813 99.2619 155.246C98.7474 160.938 98.549 166.69 98.8173 172.3C96.8933 163.903 94.6988 155.945 92.5405 148.849C93.4067 148.551 94.1061 148.104 94.6697 147.577C97.7786 143.198 98.7138 137.928 96.8518 133.072C93.3767 134.903 90.8806 138.853 90.6325 142.759C87.7526 133.822 85.1104 126.719 83.479 122.529C83.9339 121.912 84.2385 121.271 84.4178 120.631C84.7965 115.276 82.8542 110.289 78.7356 107.103C75.7827 112.031 76.9784 119.751 82.216 122.397C83.5034 125.686 85.5285 131.059 87.8344 137.878C85.3954 134.054 78.7025 131.114 73.3773 133.809C76.8209 138.14 82.0481 143.167 88.7244 140.546C92.5446 152.123 99.7654 185.281 99.9063 185.675C97.1523 182.873 92.4239 181.33 88.2945 180.34C86.9278 186.35 92.9902 191.499 98.5827 192.32C99.4152 192.39 100.387 192.406 101.503 192.361C101.851 194.667 102.156 196.982 102.425 199.296H103.569C102.81 192.815 101.75 186.338 100.481 180.025C100.968 179.985 101.414 179.874 101.82 179.708C105.228 177.423 107.326 173.916 107.317 169.944C104.134 170.339 101.087 172.759 100.014 175.746C99.5271 170.051 99.5675 164.158 99.9778 158.285C101.154 158.052 102.14 157.776 102.956 157.482C107.71 155.378 111.922 148.959 109.386 143.438C106.296 145.172 102.879 147.456 100.91 150.357C101.162 147.85 102.332 140.337 102.17 140.839C104.942 125.087 109.322 111.32 111.691 104.504C112.535 104.308 113.263 104.093 113.897 103.864C118.653 101.758 122.863 95.338 120.328 89.8159Z" fill="#85B719"/>
<path d="M89.0709 102.218C95.5425 105.252 103.182 109.876 100.177 115.925C101.352 118.761 102.928 122.805 104.556 127.67C105.239 123.665 110.688 119.983 115.606 117.227C120.342 121.656 116.121 128.155 110.161 130.922C109.064 131.357 107.722 131.815 106.065 132.263C106.045 132.241 106.031 132.221 106.011 132.197C108.58 140.574 111.018 150.692 111.948 161.016C112.019 161.393 112.053 161.776 112.046 162.166C112.452 167.314 112.474 172.5 111.939 177.536C114.58 170.076 117.531 163.027 120.406 156.748C119.371 156.436 118.543 155.999 117.882 155.496C114.292 151.398 113.361 146.609 115.794 142.332C119.922 144.155 122.788 147.837 122.941 151.364C126.756 143.466 130.216 137.207 132.344 133.518C131.818 132.94 131.474 132.348 131.282 131.763C131.026 126.925 133.56 122.535 138.655 119.875C142.036 124.459 140.301 131.346 133.875 133.464C132.196 136.358 129.546 141.091 126.504 147.112C129.594 143.794 137.788 141.485 144.118 144.179C139.796 147.904 133.293 152.164 125.328 149.468C120.277 159.694 110.304 189.171 110.119 189.519C113.551 187.136 119.32 185.986 124.345 185.304C125.768 190.781 118.252 195.109 111.467 195.566C110.459 195.587 109.284 195.552 107.938 195.454C107.431 197.513 106.975 199.58 106.562 201.649L105.181 201.591C106.342 195.798 107.868 190.022 109.638 184.405C109.052 184.345 108.517 184.221 108.033 184.051C104.003 181.824 101.601 178.562 101.762 174.987C105.592 175.503 109.181 177.835 110.364 180.576C111.167 175.476 111.34 170.171 111.066 164.865C109.654 164.596 108.474 164.298 107.499 163.993C101.836 161.857 96.9921 155.869 100.264 151.029C103.929 152.744 107.97 154.972 110.241 157.683C110.03 155.414 108.901 148.594 109.078 149.054C106.323 134.738 101.554 122.127 98.9498 115.873C97.9386 115.654 97.0662 115.423 96.3087 115.186C90.6437 113.051 85.8009 107.06 89.0709 102.218Z" fill="#85B719"/>
<path d="M131.11 272.219C130.9 273.326 129.932 274.128 128.805 274.128H80.2229C79.0669 274.128 78.0833 273.286 77.905 272.144L68.6901 213.095H142.319L131.11 272.219Z" fill="#EF9D6B"/>
<g filter="url(#filter1_d_2_7798)">
<path d="M146.105 207.045H64.285C62.9894 207.045 61.9391 208.096 61.9391 209.391V215.147C61.9391 216.442 62.9894 217.493 64.2851 217.493H146.105C147.4 217.493 148.451 216.442 148.451 215.147V209.391C148.451 208.096 147.4 207.045 146.105 207.045Z" fill="#EF9D6B"/>
</g>
<path d="M144.038 207.046C141.752 201.548 134.567 198.513 126.044 198.513C123.824 198.513 121.705 198.569 119.729 198.997C115.242 197.741 109.384 196.877 102.951 196.877C97.0397 196.877 91.6125 197.481 87.2877 198.56C85.8324 198.32 84.3088 198.535 82.7261 198.535C74.4837 198.535 67.6033 201.548 65.844 207.046H144.038Z" fill="#372626"/>
<path d="M135.365 202.911C135.365 203.148 134.756 203.341 134.007 203.341C133.256 203.341 132.648 203.148 132.648 202.911C132.648 202.673 133.256 202.481 134.007 202.481C134.756 202.481 135.365 202.673 135.365 202.911Z" fill="#593639"/>
<path d="M133.62 205.541C133.62 205.778 133.011 205.971 132.262 205.971C131.512 205.971 130.903 205.778 130.903 205.541C130.903 205.304 131.512 205.111 132.262 205.111C133.011 205.111 133.62 205.303 133.62 205.541Z" fill="#593639"/>
<path d="M76.2922 202.145C76.2922 202.383 75.684 202.576 74.9338 202.576C74.1837 202.576 73.5754 202.383 73.5754 202.145C73.5754 201.908 74.1837 201.716 74.9338 201.716C75.684 201.716 76.2922 201.908 76.2922 202.145Z" fill="#593639"/>
<path d="M136.966 205.11C136.966 205.348 136.358 205.54 135.608 205.54C134.858 205.54 134.25 205.348 134.25 205.11C134.25 204.873 134.858 204.68 135.608 204.68C136.358 204.68 136.966 204.873 136.966 205.11Z" fill="#593639"/>
<path d="M133.407 203.917C133.407 204.025 133.174 204.114 132.885 204.114C132.595 204.114 132.361 204.025 132.361 203.917C132.361 203.808 132.595 203.72 132.885 203.72C133.173 203.72 133.407 203.808 133.407 203.917Z" fill="#593639"/>
<path d="M133.689 201.469C133.689 201.577 133.456 201.665 133.166 201.665C132.877 201.665 132.643 201.577 132.643 201.469C132.643 201.36 132.877 201.271 133.166 201.271C133.455 201.272 133.689 201.36 133.689 201.469Z" fill="#593639"/>
<path d="M84.0634 202.338C84.0634 202.447 83.8284 202.535 83.5401 202.535C83.2512 202.535 83.0168 202.447 83.0168 202.338C83.0168 202.23 83.2512 202.142 83.5401 202.142C83.8284 202.142 84.0634 202.23 84.0634 202.338Z" fill="#593639"/>
<path d="M75.4569 206.022C75.4569 206.13 75.223 206.219 74.9341 206.219C74.6453 206.219 74.4109 206.13 74.4109 206.022C74.4109 205.913 74.6453 205.825 74.9341 205.825C75.223 205.825 75.4569 205.913 75.4569 206.022Z" fill="#593639"/>
<path d="M77.8492 204.64C77.8492 204.749 77.6148 204.837 77.3265 204.837C77.0376 204.837 76.8032 204.749 76.8032 204.64C76.8032 204.531 77.0376 204.444 77.3265 204.444C77.6154 204.444 77.8492 204.531 77.8492 204.64Z" fill="#593639"/>
<path d="M137.49 203.721C137.49 203.972 137.256 204.177 136.967 204.177C136.678 204.177 136.444 203.972 136.444 203.721C136.444 203.469 136.678 203.265 136.967 203.265C137.256 203.265 137.49 203.469 137.49 203.721Z" fill="#593639"/>
<path d="M131.794 202.48C131.794 202.732 131.561 202.936 131.271 202.936C130.982 202.936 130.747 202.732 130.747 202.48C130.747 202.229 130.982 202.025 131.271 202.025C131.561 202.025 131.794 202.229 131.794 202.48Z" fill="#593639"/>
<path d="M131.505 203.721C131.505 203.834 131.4 203.926 131.271 203.926C131.142 203.926 131.037 203.834 131.037 203.721C131.037 203.608 131.142 203.517 131.271 203.517C131.4 203.517 131.505 203.608 131.505 203.721Z" fill="#593639"/>
<path d="M126.723 200.098C126.723 200.211 126.619 200.302 126.49 200.302C126.361 200.302 126.256 200.211 126.256 200.098C126.256 199.985 126.361 199.893 126.49 199.893C126.619 199.894 126.723 199.985 126.723 200.098Z" fill="#593639"/>
<path d="M119.547 203.341C119.547 203.582 119.442 203.78 119.313 203.78C119.184 203.78 119.079 203.582 119.079 203.341C119.079 203.097 119.184 202.9 119.313 202.9C119.442 202.9 119.547 203.097 119.547 203.341Z" fill="#593639"/>
<path d="M75.9241 203.392C75.9241 203.505 75.8194 203.597 75.6899 203.597C75.5609 203.597 75.4557 203.505 75.4557 203.392C75.4557 203.279 75.5609 203.188 75.6899 203.188C75.8194 203.188 75.9241 203.28 75.9241 203.392Z" fill="#593639"/>
<path d="M69.8573 205.818C69.8573 205.931 69.7521 206.023 69.6231 206.023C69.4941 206.023 69.3889 205.931 69.3889 205.818C69.3889 205.705 69.4941 205.613 69.6231 205.613C69.7521 205.613 69.8573 205.705 69.8573 205.818Z" fill="#593639"/>
<path d="M78.3651 201.716C78.3651 201.829 78.2599 201.921 78.1309 201.921C78.0019 201.921 77.8967 201.829 77.8967 201.716C77.8967 201.603 78.0019 201.512 78.1309 201.512C78.2599 201.512 78.3651 201.603 78.3651 201.716Z" fill="#593639"/>
<path d="M131.505 204.57C131.505 204.683 131.4 204.775 131.271 204.775C131.142 204.775 131.037 204.683 131.037 204.57C131.037 204.457 131.142 204.366 131.271 204.366C131.4 204.365 131.505 204.457 131.505 204.57Z" fill="#593639"/>
<path d="M139.028 206.327C139.028 206.441 138.923 206.532 138.794 206.532C138.665 206.532 138.56 206.441 138.56 206.327C138.56 206.215 138.665 206.123 138.794 206.123C138.923 206.123 139.028 206.215 139.028 206.327Z" fill="#593639"/>
<path d="M134.902 206.327C134.902 206.441 134.797 206.532 134.668 206.532C134.539 206.532 134.434 206.441 134.434 206.327C134.434 206.215 134.539 206.123 134.668 206.123C134.797 206.123 134.902 206.215 134.902 206.327Z" fill="#593639"/>
<path d="M79.275 206.021C79.275 206.134 79.1704 206.226 79.0408 206.226C78.9118 206.226 78.8066 206.134 78.8066 206.021C78.8066 205.909 78.9118 205.817 79.0408 205.817C79.1704 205.817 79.275 205.909 79.275 206.021Z" fill="#593639"/>
<path d="M135.599 203.91C135.599 204.022 135.494 204.114 135.365 204.114C135.235 204.114 135.13 204.022 135.13 203.91C135.13 203.796 135.235 203.705 135.365 203.705C135.494 203.705 135.599 203.796 135.599 203.91Z" fill="#593639"/>
<path d="M136.445 202.32C136.445 202.433 136.339 202.525 136.21 202.525C136.081 202.525 135.976 202.433 135.976 202.32C135.976 202.207 136.081 202.116 136.21 202.116C136.339 202.116 136.445 202.207 136.445 202.32Z" fill="#593639"/>
<path d="M139.551 203.518C139.551 203.63 139.445 203.722 139.316 203.722C139.187 203.722 139.082 203.63 139.082 203.518C139.082 203.404 139.187 203.313 139.316 203.313C139.445 203.314 139.551 203.405 139.551 203.518Z" fill="#593639"/>
<path d="M133.44 204.773C133.44 204.886 133.521 204.977 133.62 204.977C133.719 204.977 133.799 204.885 133.799 204.773C133.799 204.66 133.719 204.568 133.62 204.568C133.521 204.569 133.44 204.66 133.44 204.773Z" fill="#593639"/>
<path d="M74.6215 204.719C74.6215 204.97 74.3871 205.175 74.0982 205.175C73.8088 205.175 73.5754 204.97 73.5754 204.719C73.5754 204.468 73.8094 204.264 74.0982 204.264C74.3876 204.264 74.6215 204.467 74.6215 204.719Z" fill="#593639"/>
<path d="M75.4569 204.619C75.4569 204.87 75.223 205.075 74.9341 205.075C74.6453 205.075 74.4109 204.87 74.4109 204.619C74.4109 204.368 74.6453 204.164 74.9341 204.164C75.223 204.164 75.4569 204.368 75.4569 204.619Z" fill="#593639"/>
<path d="M85.765 199.92C85.765 200.171 85.5311 200.376 85.2428 200.376C84.9534 200.376 84.719 200.171 84.719 199.92C84.719 199.668 84.9534 199.464 85.2428 199.464C85.5311 199.464 85.765 199.668 85.765 199.92Z" fill="#593639"/>
<path d="M80.0874 204.426C80.0874 204.677 79.8535 204.882 79.5641 204.882C79.2753 204.882 79.0409 204.677 79.0409 204.426C79.0409 204.175 79.2753 203.971 79.5641 203.971C79.8535 203.971 80.0874 204.175 80.0874 204.426Z" fill="#593639"/>
<path d="M81.9028 205.613C81.9028 205.864 81.669 206.069 81.3796 206.069C81.0907 206.069 80.8563 205.864 80.8563 205.613C80.8563 205.362 81.0907 205.157 81.3796 205.157C81.6685 205.157 81.9028 205.362 81.9028 205.613Z" fill="#593639"/>
<path d="M139.083 204.569C139.083 204.82 138.85 205.025 138.56 205.025C138.271 205.025 138.036 204.821 138.036 204.569C138.036 204.318 138.271 204.114 138.56 204.114C138.849 204.114 139.083 204.317 139.083 204.569Z" fill="#593639"/>
<path d="M77.669 205.871C77.669 206.122 77.4346 206.327 77.1463 206.327C76.8574 206.327 76.623 206.123 76.623 205.871C76.623 205.62 76.8574 205.416 77.1463 205.416C77.4346 205.416 77.669 205.62 77.669 205.871Z" fill="#593639"/>
<path d="M111.083 200.978C111.083 201.333 110.176 201.62 109.057 201.62C107.938 201.62 107.031 201.332 107.031 200.978C107.031 200.624 107.938 200.337 109.057 200.337C110.176 200.337 111.083 200.624 111.083 200.978Z" fill="#593639"/>
<path d="M83.7977 200.866C83.7977 201.22 82.8906 201.507 81.771 201.507C80.6515 201.507 79.7444 201.219 79.7444 200.866C79.7444 200.511 80.6515 200.225 81.771 200.225C82.8901 200.224 83.7977 200.511 83.7977 200.866Z" fill="#593639"/>
<path d="M75.157 202.772C75.157 203.126 74.2499 203.414 73.1303 203.414C72.0108 203.414 71.1036 203.126 71.1036 202.772C71.1036 202.418 72.0108 202.131 73.1303 202.131C74.2499 202.131 75.157 202.418 75.157 202.772Z" fill="#593639"/>
<path d="M108.481 204.902C108.481 205.256 107.573 205.543 106.454 205.543C105.335 205.543 104.428 205.255 104.428 204.902C104.428 204.547 105.335 204.261 106.454 204.261C107.573 204.261 108.481 204.548 108.481 204.902Z" fill="#593639"/>
<path d="M96.5237 203.62C96.5237 203.975 95.616 204.261 94.497 204.261C93.3775 204.261 92.4703 203.974 92.4703 203.62C92.4703 203.265 93.3775 202.979 94.497 202.979C95.616 202.978 96.5237 203.265 96.5237 203.62Z" fill="#593639"/>
<path d="M98.352 199.76C98.352 200.115 97.4443 200.401 96.3258 200.401C95.2068 200.401 94.2997 200.114 94.2997 199.76C94.2997 199.405 95.2068 199.119 96.3258 199.119C97.4443 199.119 98.352 199.405 98.352 199.76Z" fill="#593639"/>
<path d="M113.474 204.262C113.474 204.617 112.567 204.903 111.447 204.903C110.328 204.903 109.421 204.616 109.421 204.262C109.421 203.909 110.328 203.621 111.447 203.621C112.567 203.621 113.474 203.909 113.474 204.262Z" fill="#593639"/>
<path d="M124.992 201.507C124.992 201.862 124.085 202.148 122.965 202.148C121.846 202.148 120.939 201.861 120.939 201.507C120.939 201.153 121.846 200.866 122.965 200.866C124.085 200.866 124.992 201.153 124.992 201.507Z" fill="#593639"/>
<path d="M108.162 202.48C108.162 202.642 107.813 202.773 107.383 202.773C106.952 202.773 106.602 202.642 106.602 202.48C106.602 202.319 106.952 202.188 107.383 202.188C107.813 202.187 108.162 202.318 108.162 202.48Z" fill="#593639"/>
<path d="M108.582 198.827C108.582 198.988 108.234 199.119 107.803 199.119C107.371 199.119 107.023 198.988 107.023 198.827C107.023 198.664 107.371 198.534 107.803 198.534C108.234 198.534 108.582 198.665 108.582 198.827Z" fill="#593639"/>
<path d="M101.675 199.119C101.675 199.281 101.325 199.412 100.895 199.412C100.464 199.412 100.115 199.281 100.115 199.119C100.115 198.957 100.464 198.827 100.895 198.827C101.325 198.826 101.675 198.957 101.675 199.119Z" fill="#593639"/>
<path d="M95.0786 201.801C95.0786 201.962 94.7294 202.094 94.2994 202.094C93.8679 202.094 93.5182 201.962 93.5182 201.801C93.5182 201.639 93.8674 201.508 94.2994 201.508C94.7294 201.508 95.0786 201.639 95.0786 201.801Z" fill="#593639"/>
<path d="M83.7977 204.424C83.7977 204.586 83.4485 204.718 83.0185 204.718C82.587 204.718 82.2378 204.586 82.2378 204.424C82.2378 204.263 82.587 204.131 83.0185 204.131C83.448 204.131 83.7977 204.263 83.7977 204.424Z" fill="#593639"/>
<path d="M90.8992 204.261C90.8992 204.423 90.5501 204.554 90.119 204.554C89.6885 204.554 89.3394 204.423 89.3394 204.261C89.3394 204.1 89.6885 203.968 90.119 203.968C90.5501 203.968 90.8992 204.1 90.8992 204.261Z" fill="#593639"/>
<path d="M97.1052 205.544C97.1052 205.705 96.7561 205.837 96.3261 205.837C95.8956 205.837 95.5464 205.705 95.5464 205.544C95.5464 205.381 95.8956 205.251 96.3261 205.251C96.7555 205.251 97.1052 205.382 97.1052 205.544Z" fill="#593639"/>
<path d="M103.037 204.133C103.037 204.294 102.688 204.426 102.257 204.426C101.827 204.426 101.478 204.294 101.478 204.133C101.478 203.972 101.827 203.84 102.257 203.84C102.688 203.84 103.037 203.971 103.037 204.133Z" fill="#593639"/>
<path d="M114.253 202.187C114.253 202.561 113.904 202.866 113.474 202.866C113.043 202.866 112.694 202.56 112.694 202.187C112.694 201.811 113.043 201.507 113.474 201.507C113.904 201.507 114.253 201.811 114.253 202.187Z" fill="#593639"/>
<path d="M129.202 202.49C129.202 202.865 128.853 203.17 128.423 203.17C127.992 203.17 127.643 202.865 127.643 202.49C127.643 202.115 127.992 201.811 128.423 201.811C128.853 201.811 129.202 202.115 129.202 202.49Z" fill="#593639"/>
<path d="M105.755 200.337C105.755 200.712 105.407 201.017 104.976 201.017C104.545 201.017 104.196 200.712 104.196 200.337C104.196 199.962 104.545 199.658 104.976 199.658C105.407 199.658 105.755 199.962 105.755 200.337Z" fill="#593639"/>
<path d="M105.325 202.187C105.325 202.355 105.168 202.491 104.976 202.491C104.782 202.491 104.626 202.355 104.626 202.187C104.626 202.019 104.782 201.882 104.976 201.882C105.168 201.882 105.325 202.019 105.325 202.187Z" fill="#593639"/>
<path d="M117.33 199.919C117.33 200.087 117.174 200.224 116.981 200.224C116.787 200.224 116.631 200.087 116.631 199.919C116.631 199.751 116.787 199.615 116.981 199.615C117.174 199.615 117.33 199.751 117.33 199.919Z" fill="#593639"/>
<path d="M128.423 204.639C128.423 204.806 128.266 204.943 128.073 204.943C127.88 204.943 127.724 204.806 127.724 204.639C127.724 204.471 127.88 204.334 128.073 204.334C128.267 204.334 128.423 204.471 128.423 204.639Z" fill="#593639"/>
<path d="M118.029 205.556C118.029 205.723 117.872 205.86 117.679 205.86C117.486 205.86 117.329 205.723 117.329 205.556C117.329 205.388 117.486 205.251 117.679 205.251C117.872 205.251 118.029 205.388 118.029 205.556Z" fill="#593639"/>
<path d="M129.121 200.529C129.121 200.697 128.964 200.834 128.772 200.834C128.579 200.834 128.423 200.697 128.423 200.529C128.423 200.361 128.579 200.225 128.772 200.225C128.964 200.225 129.121 200.361 129.121 200.529Z" fill="#593639"/>
<path d="M125.341 202.939C125.341 203.107 125.185 203.244 124.992 203.244C124.799 203.244 124.643 203.107 124.643 202.939C124.643 202.771 124.799 202.635 124.992 202.635C125.185 202.635 125.341 202.771 125.341 202.939Z" fill="#593639"/>
<path d="M122.534 205.818C122.534 205.985 122.378 206.122 122.185 206.122C121.992 206.122 121.836 205.985 121.836 205.818C121.836 205.65 121.992 205.513 122.185 205.513C122.378 205.513 122.534 205.649 122.534 205.818Z" fill="#593639"/>
<path d="M121.289 203.516C121.289 203.683 121.132 203.82 120.939 203.82C120.746 203.82 120.589 203.683 120.589 203.516C120.589 203.348 120.746 203.211 120.939 203.211C121.132 203.212 121.289 203.348 121.289 203.516Z" fill="#593639"/>
<path d="M123.746 199.793C123.746 199.96 123.589 200.097 123.396 200.097C123.203 200.097 123.047 199.96 123.047 199.793C123.047 199.625 123.203 199.488 123.396 199.488C123.589 199.488 123.746 199.625 123.746 199.793Z" fill="#593639"/>
<path d="M131.855 199.919C131.855 200.087 131.698 200.224 131.505 200.224C131.311 200.224 131.155 200.087 131.155 199.919C131.155 199.751 131.311 199.615 131.505 199.615C131.698 199.615 131.855 199.751 131.855 199.919Z" fill="#593639"/>
<path d="M129.47 205.848C129.47 206.016 129.314 206.153 129.121 206.153C128.928 206.153 128.772 206.016 128.772 205.848C128.772 205.68 128.928 205.544 129.121 205.544C129.314 205.544 129.47 205.68 129.47 205.848Z" fill="#593639"/>
<path d="M97.8047 201.62C97.8047 201.787 97.6476 201.925 97.4546 201.925C97.2617 201.925 97.1051 201.787 97.1051 201.62C97.1051 201.452 97.2617 201.316 97.4546 201.316C97.6476 201.316 97.8047 201.452 97.8047 201.62Z" fill="#593639"/>
<path d="M90.1203 198.826C90.1203 198.994 89.9631 199.131 89.7702 199.131C89.5773 199.131 89.4207 198.994 89.4207 198.826C89.4207 198.658 89.5773 198.522 89.7702 198.522C89.9631 198.522 90.1203 198.658 90.1203 198.826Z" fill="#593639"/>
<path d="M78.8308 200.224C78.8308 200.392 78.6732 200.528 78.4808 200.528C78.2884 200.528 78.1312 200.392 78.1312 200.224C78.1312 200.056 78.2884 199.92 78.4808 199.92C78.6732 199.92 78.8308 200.056 78.8308 200.224Z" fill="#593639"/>
<path d="M69.3896 204.061C69.3896 204.228 69.2325 204.365 69.0396 204.365C68.8467 204.365 68.6901 204.228 68.6901 204.061C68.6901 203.893 68.8467 203.756 69.0396 203.756C69.2325 203.756 69.3896 203.893 69.3896 204.061Z" fill="#593639"/>
<path d="M72.7057 205.251C72.7057 205.418 72.5486 205.555 72.3556 205.555C72.1627 205.555 72.0061 205.418 72.0061 205.251C72.0061 205.083 72.1627 204.946 72.3556 204.946C72.5486 204.946 72.7057 205.083 72.7057 205.251Z" fill="#593639"/>
<path d="M76.4711 200.529C76.4711 200.697 76.3139 200.834 76.121 200.834C75.9281 200.834 75.7715 200.697 75.7715 200.529C75.7715 200.361 75.9281 200.225 76.121 200.225C76.3139 200.225 76.4711 200.361 76.4711 200.529Z" fill="#593639"/>
<path d="M86.3151 203.078C86.3151 203.246 86.1579 203.383 85.965 203.383C85.7721 203.383 85.6155 203.246 85.6155 203.078C85.6155 202.91 85.7721 202.774 85.965 202.774C86.1574 202.774 86.3151 202.91 86.3151 203.078Z" fill="#593639"/>
<path d="M85.2416 205.531C85.2416 205.699 85.0844 205.835 84.8915 205.835C84.6981 205.835 84.542 205.699 84.542 205.531C84.542 205.363 84.6986 205.227 84.8915 205.227C85.0844 205.227 85.2416 205.363 85.2416 205.531Z" fill="#593639"/>
<path d="M92.4711 205.848C92.4711 206.016 92.3139 206.153 92.121 206.153C91.9281 206.153 91.7715 206.016 91.7715 205.848C91.7715 205.68 91.9281 205.544 92.121 205.544C92.3134 205.544 92.4711 205.68 92.4711 205.848Z" fill="#593639"/>
<path d="M114.953 200.224C114.953 200.392 114.795 200.528 114.603 200.528C114.41 200.528 114.253 200.392 114.253 200.224C114.253 200.056 114.41 199.92 114.603 199.92C114.796 199.92 114.953 200.056 114.953 200.224Z" fill="#593639"/>
<path d="M119.314 201.839C119.314 202.006 119.156 202.143 118.964 202.143C118.771 202.143 118.614 202.006 118.614 201.839C118.614 201.671 118.771 201.534 118.964 201.534C119.156 201.535 119.314 201.671 119.314 201.839Z" fill="#593639"/>
<path d="M119.663 205.86C119.856 205.86 120.013 205.724 120.013 205.556C120.013 205.388 119.856 205.251 119.663 205.251C119.469 205.251 119.312 205.388 119.312 205.556C119.312 205.724 119.469 205.86 119.663 205.86Z" fill="#593639"/>
<path d="M92.4706 200.978C92.4706 201.146 92.3136 201.282 92.1214 201.282C91.9282 201.282 91.7722 201.146 91.7722 200.978C91.7722 200.81 91.9282 200.673 92.1214 200.673C92.3136 200.673 92.4706 200.81 92.4706 200.978Z" fill="#593639"/>
<path d="M91.5978 202.773C91.5978 202.941 91.4413 203.078 91.2486 203.078C91.0558 203.078 90.8999 202.941 90.8999 202.773C90.8999 202.605 91.0558 202.469 91.2486 202.469C91.4408 202.469 91.5978 202.605 91.5978 202.773Z" fill="#593639"/>
<path d="M88.2222 203.621C88.2222 203.789 88.0657 203.926 87.873 203.926C87.6802 203.926 87.5243 203.789 87.5243 203.621C87.5243 203.454 87.6802 203.317 87.873 203.317C88.0657 203.317 88.2222 203.453 88.2222 203.621Z" fill="#593639"/>
<path d="M103.933 198.229C103.933 198.396 103.777 198.534 103.583 198.534C103.391 198.534 103.234 198.396 103.234 198.229C103.234 198.061 103.391 197.924 103.583 197.924C103.776 197.924 103.933 198.061 103.933 198.229Z" fill="#593639"/>
<path d="M105.325 203.452C105.325 203.621 105.168 203.757 104.976 203.757C104.782 203.757 104.626 203.621 104.626 203.452C104.626 203.285 104.782 203.148 104.976 203.148C105.168 203.148 105.325 203.285 105.325 203.452Z" fill="#593639"/>
<path d="M102.805 205.543C102.805 205.711 102.648 205.848 102.455 205.848C102.263 205.848 102.105 205.711 102.105 205.543C102.105 205.376 102.263 205.239 102.455 205.239C102.648 205.239 102.805 205.376 102.805 205.543Z" fill="#593639"/>
<path d="M111.433 202.469C111.433 202.636 111.277 202.774 111.084 202.774C110.892 202.774 110.735 202.636 110.735 202.469C110.735 202.301 110.892 202.165 111.084 202.165C111.277 202.165 111.433 202.301 111.433 202.469Z" fill="#593639"/>
<path d="M114.952 204.903C114.952 205.07 114.796 205.207 114.603 205.207C114.411 205.207 114.254 205.07 114.254 204.903C114.254 204.735 114.411 204.598 114.603 204.598C114.796 204.598 114.952 204.735 114.952 204.903Z" fill="#593639"/>
<path d="M112.695 200.097C112.695 200.265 112.538 200.402 112.345 200.402C112.152 200.402 111.995 200.265 111.995 200.097C111.995 199.929 112.152 199.793 112.345 199.793C112.538 199.793 112.695 199.929 112.695 200.097Z" fill="#593639"/>
<path d="M108.214 203.756C108.214 203.925 108.334 204.061 108.481 204.061C108.629 204.061 108.749 203.925 108.749 203.756C108.749 203.589 108.63 203.451 108.481 203.451C108.334 203.452 108.214 203.589 108.214 203.756Z" fill="#593639"/>
<path d="M99.6257 202.48C99.6257 202.855 99.2765 203.16 98.846 203.16C98.4149 203.16 98.0663 202.855 98.0663 202.48C98.0663 202.105 98.4149 201.801 98.846 201.801C99.2765 201.801 99.6257 202.105 99.6257 202.48Z" fill="#593639"/>
<path d="M100.405 202.299C100.405 202.674 100.056 202.979 99.6256 202.979C99.1951 202.979 98.8459 202.674 98.8459 202.299C98.8459 201.925 99.1951 201.62 99.6256 201.62C100.056 201.62 100.405 201.925 100.405 202.299Z" fill="#593639"/>
<path d="M120.442 201.316C120.442 201.691 120.093 201.995 119.663 201.995C119.232 201.995 118.883 201.69 118.883 201.316C118.883 200.941 119.232 200.636 119.663 200.636C120.093 200.636 120.442 200.941 120.442 201.316Z" fill="#593639"/>
<path d="M102.744 200.441C102.744 200.815 102.396 201.121 101.965 201.121C101.534 201.121 101.185 200.815 101.185 200.441C101.185 200.065 101.534 199.761 101.965 199.761C102.396 199.761 102.744 200.065 102.744 200.441Z" fill="#593639"/>
<path d="M80.856 202.979C80.856 203.334 79.9484 203.62 78.8299 203.62C77.7103 203.62 76.8032 203.334 76.8032 202.979C76.8032 202.624 77.7103 202.338 78.8299 202.338C79.9489 202.338 80.856 202.625 80.856 202.979Z" fill="#593639"/>
<path d="M88.1664 205.531C88.1664 205.693 87.8173 205.824 87.3867 205.824C86.9562 205.824 86.6071 205.693 86.6071 205.531C86.6071 205.37 86.9562 205.239 87.3867 205.239C87.8173 205.239 88.1664 205.37 88.1664 205.531Z" fill="#593639"/>
<path d="M87.8734 201.84C87.8734 202.213 87.5253 202.519 87.0948 202.519C86.6637 202.519 86.3146 202.213 86.3146 201.84C86.3146 201.464 86.6637 201.159 87.0948 201.159C87.5253 201.159 87.8734 201.464 87.8734 201.84Z" fill="#593639"/>
<path d="M90.5498 201.39C90.5498 201.89 90.2017 202.3 89.7712 202.3C89.3407 202.3 88.991 201.89 88.991 201.39C88.991 200.886 89.3401 200.479 89.7712 200.479C90.2017 200.48 90.5498 200.886 90.5498 201.39Z" fill="#593639"/>
<path d="M103.234 202.773C103.234 203.148 102.885 203.452 102.454 203.452C102.024 203.452 101.675 203.148 101.675 202.773C101.675 202.398 102.024 202.094 102.454 202.094C102.886 202.094 103.234 202.398 103.234 202.773Z" fill="#593639"/>
<path d="M126.723 205.532C126.723 205.907 126.376 206.211 125.944 206.211C125.514 206.211 125.165 205.906 125.165 205.532C125.165 205.158 125.514 204.853 125.944 204.853C126.376 204.853 126.723 205.157 126.723 205.532Z" fill="#593639"/>
<path d="M116.631 203.453C116.631 203.829 116.282 204.134 115.851 204.134C115.42 204.134 115.071 203.829 115.071 203.453C115.071 203.078 115.42 202.774 115.851 202.774C116.282 202.774 116.631 203.078 116.631 203.453Z" fill="#593639"/>
<path d="M110.981 205.999C110.981 206.374 110.631 206.678 110.2 206.678C109.77 206.678 109.421 206.374 109.421 205.999C109.421 205.624 109.77 205.319 110.2 205.319C110.631 205.32 110.981 205.624 110.981 205.999Z" fill="#593639"/>
<path d="M123.746 203.619C123.746 203.995 123.396 204.3 122.965 204.3C122.534 204.3 122.185 203.995 122.185 203.619C122.185 203.244 122.534 202.939 122.965 202.939C123.396 202.939 123.746 203.244 123.746 203.619Z" fill="#593639"/>
<path d="M100.405 205.32C100.405 205.695 100.056 206.001 99.6256 206.001C99.1951 206.001 98.8459 205.695 98.8459 205.32C98.8459 204.945 99.1951 204.641 99.6256 204.641C100.056 204.641 100.405 204.945 100.405 205.32Z" fill="#593639"/>
<g filter="url(#filter2_b_2_7798)">
<path d="M64.2308 45.8945C55.1166 45.8945 46.8809 55.2674 46.8809 64.363V257.829C46.8809 266.924 55.7934 276.072 64.9085 276.072H147.065C156.18 276.072 165.319 267.151 165.319 258.053V64.1379C165.319 55.0419 157.083 45.8945 147.968 45.8945H64.2308Z" fill="black" fill-opacity="0.1"/>
</g>
<path d="M131.858 184.146C131.858 185.813 130.5 187.168 128.83 187.168H124.732C124.224 187.168 123.812 187.58 123.812 188.088C123.812 188.596 124.224 189.008 124.732 189.008H128.83C131.516 189.008 133.702 186.827 133.702 184.146V180.062C133.702 179.552 133.289 179.14 132.78 179.14C132.271 179.14 131.858 179.552 131.858 180.062V184.146Z" fill="white"/>
<path d="M128.83 135.555C130.5 135.555 131.858 136.911 131.858 138.577V142.662C131.858 143.171 132.271 143.584 132.78 143.584C133.289 143.584 133.702 143.171 133.702 142.662V138.577C133.702 135.897 131.516 133.716 128.83 133.716H124.732C124.224 133.716 123.812 134.128 123.812 134.636C123.812 135.143 124.224 135.555 124.732 135.555L128.83 135.555Z" fill="white"/>
<path d="M83.1636 187.168C81.4937 187.168 80.135 185.812 80.135 184.146V180.062C80.135 179.552 79.7223 179.14 79.2131 179.14C78.704 179.14 78.2913 179.552 78.2913 180.062V184.146C78.2913 186.827 80.4771 189.008 83.1636 189.008H87.2613C87.7693 189.008 88.1811 188.596 88.1811 188.088C88.1811 187.58 87.7693 187.168 87.2613 187.168L83.1636 187.168Z" fill="white"/>
<path d="M80.1351 138.577C80.1351 136.911 81.4938 135.555 83.1637 135.555H87.2615C87.7695 135.555 88.1812 135.143 88.1812 134.636C88.1812 134.128 87.7695 133.716 87.2615 133.716H83.1637C80.4772 133.716 78.2914 135.897 78.2914 138.577V142.662C78.2914 143.171 78.7041 143.584 79.2133 143.584C79.7224 143.584 80.1351 143.171 80.1351 142.662V138.577Z" fill="white"/>
<path d="M108.28 207.032C108.28 206.011 107.451 205.185 106.429 205.185C105.407 205.185 104.578 206.011 104.578 207.032C104.578 208.051 105.407 208.878 106.429 208.878C107.451 208.879 108.28 208.051 108.28 207.032Z" fill="white"/>
<path d="M106.75 206.712L106.107 207.353L113.838 219.06H151.14V218.154H114.214L106.75 206.712Z" fill="white"/>
<path opacity="0.6" d="M151.14 221.221H114.811V237.534H151.14V221.221Z" fill="white"/>
<path d="M142.815 233.079H123.591V234.438H142.815V233.079Z" fill="white"/>
<path d="M142.815 230.366H123.591V231.725H142.815V230.366Z" fill="white"/>
<path d="M142.815 227.652H123.591V229.011H142.815V227.652Z" fill="white"/>
<path d="M142.815 224.938H123.591V226.297H142.815V224.938Z" fill="white"/>
</g>
<defs>
<filter id="filter0_d_2_7798" x="156.944" y="233.108" width="102.042" height="14.385" filterUnits="userSpaceOnUse" color-interpolation-filters="sRGB">
<feFlood flood-opacity="0" result="BackgroundImageFix"/>
<feColorMatrix in="SourceAlpha" type="matrix" values="0 0 0 0 0 0 0 0 0 0 0 0 0 0 0 0 0 0 127 0" result="hardAlpha"/>
<feOffset dy="1.17298"/>
<feGaussianBlur stdDeviation="0.58649"/>
<feComposite in2="hardAlpha" operator="out"/>
<feColorMatrix type="matrix" values="0 0 0 0 0 0 0 0 0 0 0 0 0 0 0 0 0 0 0.05 0"/>
<feBlend mode="normal" in2="BackgroundImageFix" result="effect1_dropShadow_2_7798"/>
<feBlend mode="normal" in="SourceGraphic" in2="effect1_dropShadow_2_7798" result="shape"/>
</filter>
<filter id="filter1_d_2_7798" x="60.7661" y="207.045" width="88.8574" height="12.7932" filterUnits="userSpaceOnUse" color-interpolation-filters="sRGB">
<feFlood flood-opacity="0" result="BackgroundImageFix"/>
<feColorMatrix in="SourceAlpha" type="matrix" values="0 0 0 0 0 0 0 0 0 0 0 0 0 0 0 0 0 0 127 0" result="hardAlpha"/>
<feOffset dy="1.17298"/>
<feGaussianBlur stdDeviation="0.58649"/>
<feComposite in2="hardAlpha" operator="out"/>
<feColorMatrix type="matrix" values="0 0 0 0 0 0 0 0 0 0 0 0 0 0 0 0 0 0 0.05 0"/>
<feBlend mode="normal" in2="BackgroundImageFix" result="effect1_dropShadow_2_7798"/>
<feBlend mode="normal" in="SourceGraphic" in2="effect1_dropShadow_2_7798" result="shape"/>
</filter>
<filter id="filter2_b_2_7798" x="42.7253" y="41.739" width="126.749" height="238.488" filterUnits="userSpaceOnUse" color-interpolation-filters="sRGB">
<feFlood flood-opacity="0" result="BackgroundImageFix"/>
<feGaussianBlur in="BackgroundImage" stdDeviation="2.07779"/>
<feComposite in2="SourceAlpha" operator="in" result="effect1_backgroundBlur_2_7798"/>
<feBlend mode="normal" in="SourceGraphic" in2="effect1_backgroundBlur_2_7798" result="shape"/>
</filter>
<clipPath id="clip0_2_7798">
<rect width="309" height="367" fill="white"/>
</clipPath>
<clipPath id="clip1_2_7798">
<rect width="225" height="273" fill="white" transform="translate(42 43)"/>
</clipPath>
</defs>
</svg>
