<svg width="885" height="474" viewBox="0 0 885 474" fill="none" xmlns="http://www.w3.org/2000/svg">
<path d="M442.5 443C686.886 443 885 434.941 885 425C885 415.059 686.886 407 442.5 407C198.114 407 0 415.059 0 425C0 434.941 198.114 443 442.5 443Z" fill="#E0E0E0" fill-opacity="0.4"/>
<path d="M667.97 382.117C667.97 382.117 691.495 404.515 709.33 391.738C728.425 378.058 715.013 347.518 685.838 320.002C650.814 286.969 688.465 236.306 741.069 285.919C791.931 333.89 776.923 393.829 727.918 417.676C676.289 442.8 642.575 389.61 642.575 389.61L667.97 382.117Z" fill="#454343"/>
<path d="M499.822 412.633H432.651C434.034 395.603 453.488 395.544 453.488 395.544C453.488 395.544 438.873 377.684 439.742 352.248C439.782 350.883 439.88 349.499 440.018 348.094C442.053 327.702 458.663 319.078 471.144 315.953C478.61 314.054 484.594 314.133 485.108 314.826L493.067 367.793L499.822 412.633Z" fill="#454343"/>
<path d="M682.335 349.064C682.374 354.879 681.624 361.268 680.063 368.586C679.866 369.535 679.649 370.524 679.412 371.513C678.128 377.012 676.351 381.6 674.159 385.418C671.828 389.532 669.023 392.756 665.903 395.366C656.758 402.902 644.77 404.86 633.098 406.403C633.078 406.403 633.078 406.423 633.058 406.423C631.419 406.641 629.799 406.838 628.18 407.056C627.271 407.174 626.363 407.313 625.474 407.431C622.353 407.867 619.332 408.381 616.428 409.033C605.013 411.625 596.54 412.633 596.54 412.633H468.874C468.874 412.633 468.419 401.893 468.419 385.22C468.419 367.063 468.932 341.885 471.145 315.954C473.851 284.051 479.783 225.27 489.737 202.781C544.267 198.133 562.271 195.794 577.182 196.605C577.182 196.605 625.098 257.943 648.522 286.029C663.019 303.395 673.052 315.44 678.227 328.099C680.913 334.645 682.295 341.37 682.335 349.064Z" fill="#454343"/>
<path d="M616.426 409.033C605.01 411.625 596.537 412.633 596.537 412.633H498.004C466.245 287.712 579.469 306.039 612.827 358.769C625.743 379.201 625.669 389.67 616.426 409.033Z" fill="#B4A599"/>
<path d="M665.902 395.365C668.055 400.606 668.331 405.116 668.075 408.222C667.878 410.714 665.744 412.632 663.236 412.632H593.438C593.3 409.665 593.735 407.134 594.584 405.018C599.285 392.933 616.922 393.269 616.922 393.269C616.902 393.269 616.883 393.25 616.863 393.25C616.093 392.933 609.141 389.967 603.018 383.123V383.103C597.962 377.506 593.479 369.278 593.459 357.806C593.401 330.452 608.667 317.062 626.581 315.104C634.994 314.194 642.025 314.649 647.891 316.172C683.362 325.409 675.383 373.768 665.054 393.487C665.369 394.119 665.645 394.752 665.902 395.365Z" fill="#454343"/>
<path d="M585.558 310.218C585.558 310.218 577.638 415.085 574.715 417.142C573.273 418.152 566.973 419.14 560.534 419.18C553.997 419.279 547.322 418.389 545.406 415.679C539.323 407.055 552.477 399.065 552.477 399.065L551.588 381.481L550.917 368.17L550.423 358.716L549.692 344.198L549.238 335L548.546 321.67L547.914 309.11C553.938 298.449 563.083 303.018 569.837 303.631C578.487 304.402 585.558 310.218 585.558 310.218Z" fill="#454343"/>
<path d="M537.703 417.063C536.32 418.032 530.889 418.684 525.181 418.764C518.802 418.863 512.067 418.269 510.29 416.647C502.488 409.507 515.563 399.063 515.563 399.063L511.988 382.212L509.183 368.9L507.07 358.932L504.226 345.462H504.206L502.191 335.929L499.248 321.985L498.004 316.13C503.969 305.548 511.593 303.056 518.308 303.61C527.037 304.322 534.226 310.216 534.226 310.216C534.226 310.216 540.627 415.006 537.703 417.063Z" fill="#454343"/>
<path d="M555.365 84.8275C555.365 84.8275 574.53 56.8812 598.254 44.5601C602.28 42.4692 606.889 44.8723 607.673 49.3407C609.933 62.2289 612.17 88.8948 600.093 117.51C600.093 117.51 574.662 90.1722 555.365 84.8275Z" fill="#454343"/>
<path d="M567.031 93.7303C567.031 93.7303 576.904 73.3542 595.777 64.5637C595.777 64.5637 599.302 89.7744 587.3 112.191L567.031 93.7303Z" fill="#EBC0CD"/>
<path d="M509.568 84.8275C509.568 84.8275 490.404 56.8812 466.679 44.5601C462.653 42.4692 458.044 44.8723 457.26 49.3407C455 62.2289 452.763 88.8948 464.841 117.51C464.841 117.51 490.271 90.1722 509.568 84.8275Z" fill="#454343"/>
<path d="M497.902 93.7303C497.902 93.7303 488.029 73.3542 469.156 64.5637C469.156 64.5637 465.631 89.7744 477.634 112.191L497.902 93.7303Z" fill="#EBC0CD"/>
<path d="M525.58 73.827C481.095 76.2754 450.883 99.204 436.153 170.542C435.736 172.562 436.127 174.683 437.406 176.301C444.569 185.366 472.589 215.148 530.314 213.283C587.088 211.448 617.268 183.898 625.699 174.834C627.345 173.064 627.868 170.657 627.187 168.338C621.855 150.164 594.394 70.0389 525.58 73.827Z" fill="#454343"/>
<path d="M532.404 202.131C554.224 202.131 571.914 190.324 571.914 175.759C571.914 161.194 554.224 149.387 532.404 149.387C510.583 149.387 492.893 161.194 492.893 175.759C492.893 190.324 510.583 202.131 532.404 202.131Z" fill="#B4A599"/>
<path d="M388.132 323.106C383.44 285.927 447.929 203.993 468.732 193.162C482.294 186.101 501.202 178.344 516.468 174.096C529.625 184.308 516.468 174.096 531.894 184.761C556.581 178.406 547.832 173.636 556.581 178.406C573.737 187.758 594.402 205.08 603.659 226.185C603.659 226.185 551.882 212.84 544.673 212.84C537.464 212.84 486.928 227.263 477.775 233.02C447.052 252.342 401.7 326.036 401.7 326.036C401.7 326.036 388.426 325.431 388.132 323.106Z" fill="#50AA75"/>
<path d="M470.299 210.586C465.485 212.784 408.283 267.165 395.189 325.463C398.487 325.888 401.699 326.037 401.699 326.037C401.699 326.037 447.052 252.342 477.774 233.02C486.927 227.264 537.464 212.84 544.673 212.84C551.882 212.84 603.658 226.186 603.658 226.186C603.658 226.186 553.196 188.61 543.135 189.05C533.075 189.489 475.113 208.389 470.299 210.586Z" fill="#2A6B52"/>
<path d="M383.325 336.387C383.325 336.387 369.281 235.891 383.325 145.998C395.185 70.0881 434.596 0 434.596 0C434.596 0 451.208 103.132 436.847 178.266C424.135 244.768 391.518 336.387 391.518 336.387H383.325Z" fill="#50AA75"/>
<path d="M391.518 336.388C391.518 336.388 424.135 244.769 436.846 178.267C451.207 103.132 434.596 0.000244141 434.596 0.000244141C434.596 0.000244141 393.643 264.942 387.554 336.388H391.518Z" fill="#2A6B52"/>
<path d="M358.076 334.21C358.076 334.21 335.44 272.679 323.591 178.27C313.102 94.7021 323.591 26.3752 323.591 26.3752C323.591 26.3752 406.147 176.244 383.325 336.39L358.076 334.21Z" fill="#50AA75"/>
<path d="M382.922 336.345C405.745 176.199 323.188 26.3291 323.188 26.3291C323.188 26.3291 366.075 272.918 369.79 335.211L382.922 336.345Z" fill="#2A6B52"/>
<path d="M318.355 410.645C318.355 410.645 206.271 353.793 133.414 366.657C133.414 366.657 231.099 424.75 311.884 424.341L318.355 410.645Z" fill="#50AA75"/>
<path d="M318.355 410.645C318.355 410.645 206.271 353.793 133.414 366.657C133.414 366.657 264.418 406.057 313.632 420.64L318.355 410.645Z" fill="#2A6B52"/>
<path d="M531.9 161.966L509.879 171.13C510.491 173.009 512.209 175.857 514.895 177.795C517.028 179.338 519.754 180.287 522.973 179.733C523.328 179.674 523.703 179.595 524.098 179.476C530.305 177.752 531.655 171.938 531.899 168.519C532.144 171.938 533.494 177.752 539.701 179.476C540.096 179.595 540.472 179.674 540.826 179.733C544.046 180.287 546.772 179.338 548.904 177.795C551.59 175.857 553.309 173.008 553.921 171.13L531.9 161.966Z" fill="#B4A599"/>
<path d="M522.973 179.734L518.292 186.023L514.895 177.796C517.028 179.339 519.754 180.288 522.973 179.734Z" fill="#D7E4F7"/>
<path d="M540.827 179.734L545.508 186.023L548.905 177.796C546.772 179.339 544.046 180.288 540.827 179.734Z" fill="#D7E4F7"/>
<path d="M521.158 180.615C518.794 180.615 516.513 179.858 514.472 178.382C511.586 176.299 509.824 173.295 509.192 171.355C509.067 170.975 509.275 170.566 509.654 170.443C510.036 170.315 510.441 170.526 510.566 170.907C511.174 172.777 512.881 175.451 515.318 177.209C517.623 178.877 520.158 179.485 522.851 179.021C523.191 178.965 523.541 178.874 523.919 178.777C530.161 177.169 531.074 170.164 531.181 167.262C531.149 166.44 531.178 165.926 531.18 165.902C531.205 165.522 531.519 165.226 531.9 165.225H531.901C532.281 165.225 532.596 165.52 532.622 165.9C532.624 165.924 532.654 166.439 532.624 167.261C532.738 170.158 533.669 177.148 539.885 178.778C540.262 178.876 540.611 178.965 540.947 179.02C543.649 179.487 546.181 178.875 548.483 177.209C550.92 175.451 552.626 172.777 553.236 170.907C553.359 170.528 553.763 170.316 554.147 170.443C554.526 170.566 554.734 170.975 554.61 171.355C553.978 173.295 552.215 176.3 549.329 178.382C546.738 180.256 543.754 180.971 540.707 180.447C540.334 180.385 539.942 180.288 539.52 180.177C534.92 178.971 532.842 175.308 531.909 171.994C530.984 175.315 528.905 178.986 524.28 180.178C523.86 180.287 523.468 180.386 523.093 180.448C522.444 180.56 521.797 180.615 521.158 180.615Z" fill="#2D3136"/>
<path d="M531.949 167.972C531.949 167.972 523.482 162.24 522.798 159.009C522.035 155.406 524.671 153.643 532.466 153.614C540.442 153.585 542.135 156.062 542.135 158.15C542.135 161.928 531.949 167.972 531.949 167.972Z" fill="#2D3136"/>
<path d="M411.042 426.067C410.863 427.011 410.038 427.695 409.076 427.695H340.831C339.846 427.695 339.007 426.977 338.855 426.003L326.134 344.289H426.508L411.042 426.067Z" fill="#EF9D6B"/>
<g filter="url(#filter0_d_2_2242)">
<path d="M432.866 336.021H318.931C317.827 336.021 316.931 336.917 316.931 338.021V348.298C316.931 349.403 317.827 350.298 318.931 350.298H432.866C433.971 350.298 434.866 349.403 434.866 348.298V338.021C434.866 336.917 433.971 336.021 432.866 336.021Z" fill="#EF9D6B"/>
</g>
<path d="M428.851 336.022C425.734 328.508 415.939 324.36 404.321 324.36C401.295 324.36 398.405 324.437 395.713 325.022C389.596 323.305 381.609 322.125 372.84 322.125C364.781 322.125 357.383 322.95 351.487 324.425C349.503 324.097 347.426 324.39 345.269 324.39C334.032 324.39 324.653 328.508 322.254 336.022H428.851Z" fill="#372626"/>
<path d="M417.028 330.37C417.028 330.694 416.198 330.957 415.176 330.957C414.153 330.957 413.324 330.694 413.324 330.37C413.324 330.045 414.153 329.782 415.176 329.782C416.198 329.782 417.028 330.045 417.028 330.37Z" fill="#593639"/>
<path d="M414.649 333.963C414.649 334.287 413.819 334.55 412.798 334.55C411.775 334.55 410.946 334.287 410.946 333.963C410.946 333.639 411.775 333.377 412.798 333.377C413.819 333.376 414.649 333.639 414.649 333.963Z" fill="#593639"/>
<path d="M336.498 329.323C336.498 329.648 335.669 329.91 334.646 329.91C333.623 329.91 332.794 329.648 332.794 329.323C332.794 328.999 333.623 328.737 334.646 328.737C335.669 328.737 336.498 328.999 336.498 329.323Z" fill="#593639"/>
<path d="M419.211 333.376C419.211 333.7 418.382 333.962 417.359 333.962C416.337 333.962 415.508 333.7 415.508 333.376C415.508 333.051 416.337 332.788 417.359 332.788C418.382 332.788 419.211 333.051 419.211 333.376Z" fill="#593639"/>
<path d="M414.358 331.746C414.358 331.894 414.039 332.015 413.646 332.015C413.252 332.015 412.933 331.894 412.933 331.746C412.933 331.598 413.252 331.478 413.646 331.478C414.039 331.478 414.358 331.598 414.358 331.746Z" fill="#593639"/>
<path d="M414.742 328.401C414.742 328.548 414.423 328.669 414.029 328.669C413.635 328.669 413.317 328.548 413.317 328.401C413.317 328.252 413.635 328.131 414.029 328.131C414.423 328.132 414.742 328.252 414.742 328.401Z" fill="#593639"/>
<path d="M347.09 329.587C347.09 329.735 346.77 329.856 346.378 329.856C345.984 329.856 345.665 329.735 345.665 329.587C345.665 329.438 345.984 329.319 346.378 329.319C346.77 329.319 347.09 329.438 347.09 329.587Z" fill="#593639"/>
<path d="M335.358 334.621C335.358 334.77 335.039 334.891 334.646 334.891C334.253 334.891 333.933 334.77 333.933 334.621C333.933 334.473 334.253 334.353 334.646 334.353C335.039 334.353 335.358 334.473 335.358 334.621Z" fill="#593639"/>
<path d="M338.619 332.733C338.619 332.881 338.3 333.001 337.907 333.001C337.514 333.001 337.194 332.881 337.194 332.733C337.194 332.584 337.514 332.464 337.907 332.464C338.3 332.464 338.619 332.584 338.619 332.733Z" fill="#593639"/>
<path d="M419.923 331.477C419.923 331.819 419.603 332.099 419.21 332.099C418.817 332.099 418.498 331.819 418.498 331.477C418.498 331.133 418.817 330.854 419.21 330.854C419.603 330.854 419.923 331.133 419.923 331.477Z" fill="#593639"/>
<path d="M412.157 329.784C412.157 330.127 411.84 330.406 411.445 330.406C411.052 330.406 410.732 330.127 410.732 329.784C410.732 329.44 411.052 329.162 411.445 329.162C411.84 329.162 412.157 329.44 412.157 329.784Z" fill="#593639"/>
<path d="M411.766 331.479C411.766 331.633 411.622 331.759 411.446 331.759C411.27 331.759 411.127 331.633 411.127 331.479C411.127 331.324 411.27 331.199 411.446 331.199C411.622 331.199 411.766 331.324 411.766 331.479Z" fill="#593639"/>
<path d="M405.248 326.526C405.248 326.68 405.105 326.805 404.929 326.805C404.753 326.805 404.61 326.68 404.61 326.526C404.61 326.372 404.753 326.246 404.929 326.246C405.105 326.247 405.248 326.372 405.248 326.526Z" fill="#593639"/>
<path d="M395.465 330.958C395.465 331.288 395.322 331.559 395.146 331.559C394.97 331.559 394.827 331.288 394.827 330.958C394.827 330.626 394.97 330.357 395.146 330.357C395.322 330.357 395.465 330.626 395.465 330.958Z" fill="#593639"/>
<path d="M335.997 331.028C335.997 331.183 335.854 331.309 335.677 331.309C335.501 331.309 335.358 331.183 335.358 331.028C335.358 330.874 335.501 330.75 335.677 330.75C335.854 330.75 335.997 330.875 335.997 331.028Z" fill="#593639"/>
<path d="M327.726 334.342C327.726 334.496 327.583 334.621 327.407 334.621C327.231 334.621 327.087 334.496 327.087 334.342C327.087 334.187 327.231 334.062 327.407 334.062C327.583 334.062 327.726 334.187 327.726 334.342Z" fill="#593639"/>
<path d="M339.324 328.737C339.324 328.891 339.181 329.017 339.005 329.017C338.829 329.017 338.685 328.891 338.685 328.737C338.685 328.582 338.829 328.458 339.005 328.458C339.181 328.458 339.324 328.582 339.324 328.737Z" fill="#593639"/>
<path d="M411.766 332.638C411.766 332.792 411.622 332.917 411.446 332.917C411.27 332.917 411.127 332.792 411.127 332.638C411.127 332.484 411.27 332.359 411.446 332.359C411.622 332.358 411.766 332.484 411.766 332.638Z" fill="#593639"/>
<path d="M422.022 335.039C422.022 335.193 421.878 335.319 421.701 335.319C421.525 335.319 421.383 335.193 421.383 335.039C421.383 334.885 421.525 334.759 421.701 334.759C421.878 334.759 422.022 334.885 422.022 335.039Z" fill="#593639"/>
<path d="M416.396 335.039C416.396 335.193 416.254 335.319 416.078 335.319C415.902 335.319 415.759 335.193 415.759 335.039C415.759 334.885 415.902 334.759 416.078 334.759C416.254 334.759 416.396 334.885 416.396 335.039Z" fill="#593639"/>
<path d="M340.565 334.621C340.565 334.776 340.422 334.901 340.245 334.901C340.069 334.901 339.926 334.776 339.926 334.621C339.926 334.468 340.069 334.342 340.245 334.342C340.422 334.343 340.565 334.468 340.565 334.621Z" fill="#593639"/>
<path d="M417.347 331.735C417.347 331.888 417.204 332.014 417.028 332.014C416.851 332.014 416.708 331.888 416.708 331.735C416.708 331.58 416.851 331.455 417.028 331.455C417.204 331.455 417.347 331.58 417.347 331.735Z" fill="#593639"/>
<path d="M418.5 329.565C418.5 329.719 418.356 329.845 418.18 329.845C418.003 329.845 417.86 329.719 417.86 329.565C417.86 329.411 418.003 329.286 418.18 329.286C418.356 329.286 418.5 329.411 418.5 329.565Z" fill="#593639"/>
<path d="M422.735 331.198C422.735 331.352 422.591 331.478 422.414 331.478C422.238 331.478 422.096 331.352 422.096 331.198C422.096 331.044 422.238 330.919 422.414 330.919C422.591 330.92 422.735 331.044 422.735 331.198Z" fill="#593639"/>
<path d="M414.404 332.915C414.404 333.069 414.514 333.194 414.649 333.194C414.785 333.194 414.894 333.069 414.894 332.915C414.894 332.761 414.785 332.635 414.649 332.635C414.514 332.636 414.404 332.761 414.404 332.915Z" fill="#593639"/>
<path d="M334.219 332.842C334.219 333.184 333.9 333.464 333.506 333.464C333.112 333.464 332.794 333.184 332.794 332.842C332.794 332.498 333.113 332.219 333.506 332.219C333.9 332.219 334.219 332.498 334.219 332.842Z" fill="#593639"/>
<path d="M335.358 332.705C335.358 333.047 335.039 333.328 334.646 333.328C334.253 333.328 333.933 333.047 333.933 332.705C333.933 332.362 334.253 332.083 334.646 332.083C335.039 332.083 335.358 332.362 335.358 332.705Z" fill="#593639"/>
<path d="M349.41 326.282C349.41 326.625 349.091 326.905 348.699 326.905C348.305 326.905 347.985 326.625 347.985 326.282C347.985 325.938 348.305 325.659 348.699 325.659C349.091 325.66 349.41 325.938 349.41 326.282Z" fill="#593639"/>
<path d="M341.67 332.439C341.67 332.782 341.352 333.061 340.958 333.061C340.564 333.061 340.245 332.782 340.245 332.439C340.245 332.096 340.564 331.817 340.958 331.817C341.352 331.817 341.67 332.096 341.67 332.439Z" fill="#593639"/>
<path d="M344.145 334.062C344.145 334.405 343.826 334.685 343.432 334.685C343.039 334.685 342.719 334.405 342.719 334.062C342.719 333.719 343.039 333.44 343.432 333.44C343.825 333.44 344.145 333.719 344.145 334.062Z" fill="#593639"/>
<path d="M422.095 332.636C422.095 332.979 421.777 333.258 421.382 333.258C420.989 333.258 420.669 332.98 420.669 332.636C420.669 332.293 420.989 332.014 421.382 332.014C421.776 332.014 422.095 332.292 422.095 332.636Z" fill="#593639"/>
<path d="M338.373 334.417C338.373 334.76 338.054 335.039 337.661 335.039C337.268 335.039 336.949 334.76 336.949 334.417C336.949 334.073 337.268 333.795 337.661 333.795C338.054 333.795 338.373 334.073 338.373 334.417Z" fill="#593639"/>
<path d="M383.927 327.728C383.927 328.212 382.69 328.605 381.165 328.605C379.638 328.605 378.402 328.211 378.402 327.728C378.402 327.245 379.638 326.853 381.165 326.853C382.69 326.853 383.927 327.245 383.927 327.728Z" fill="#593639"/>
<path d="M346.73 327.574C346.73 328.058 345.493 328.45 343.967 328.45C342.441 328.45 341.204 328.057 341.204 327.574C341.204 327.09 342.441 326.698 343.967 326.698C345.492 326.698 346.73 327.09 346.73 327.574Z" fill="#593639"/>
<path d="M334.95 330.182C334.95 330.665 333.714 331.058 332.188 331.058C330.661 331.058 329.425 330.665 329.425 330.182C329.425 329.697 330.661 329.306 332.188 329.306C333.714 329.306 334.95 329.697 334.95 330.182Z" fill="#593639"/>
<path d="M380.379 333.092C380.379 333.575 379.141 333.967 377.616 333.967C376.09 333.967 374.853 333.575 374.853 333.092C374.853 332.607 376.09 332.216 377.616 332.216C379.141 332.216 380.379 332.608 380.379 333.092Z" fill="#593639"/>
<path d="M364.078 331.338C364.078 331.823 362.84 332.214 361.315 332.214C359.789 332.214 358.552 331.822 358.552 331.338C358.552 330.854 359.789 330.462 361.315 330.462C362.84 330.462 364.078 330.854 364.078 331.338Z" fill="#593639"/>
<path d="M366.571 326.065C366.571 326.55 365.333 326.941 363.809 326.941C362.283 326.941 361.047 326.549 361.047 326.065C361.047 325.58 362.283 325.189 363.809 325.189C365.333 325.189 366.571 325.58 366.571 326.065Z" fill="#593639"/>
<path d="M387.185 332.215C387.185 332.7 385.949 333.091 384.422 333.091C382.897 333.091 381.66 332.699 381.66 332.215C381.66 331.732 382.897 331.339 384.422 331.339C385.949 331.339 387.185 331.732 387.185 332.215Z" fill="#593639"/>
<path d="M402.887 328.452C402.887 328.936 401.651 329.327 400.125 329.327C398.599 329.327 397.362 328.935 397.362 328.452C397.362 327.968 398.599 327.575 400.125 327.575C401.651 327.575 402.887 327.968 402.887 328.452Z" fill="#593639"/>
<path d="M379.944 329.781C379.944 330.002 379.468 330.182 378.882 330.182C378.294 330.182 377.818 330.002 377.818 329.781C377.818 329.561 378.294 329.382 378.882 329.382C379.468 329.382 379.944 329.56 379.944 329.781Z" fill="#593639"/>
<path d="M380.517 324.789C380.517 325.008 380.042 325.188 379.454 325.188C378.866 325.188 378.392 325.008 378.392 324.789C378.392 324.567 378.866 324.389 379.454 324.389C380.042 324.389 380.517 324.568 380.517 324.789Z" fill="#593639"/>
<path d="M371.1 325.188C371.1 325.409 370.624 325.588 370.037 325.588C369.45 325.588 368.974 325.409 368.974 325.188C368.974 324.967 369.45 324.789 370.037 324.789C370.624 324.788 371.1 324.967 371.1 325.188Z" fill="#593639"/>
<path d="M362.108 328.852C362.108 329.072 361.632 329.251 361.046 329.251C360.458 329.251 359.981 329.072 359.981 328.852C359.981 328.63 360.457 328.451 361.046 328.451C361.632 328.451 362.108 328.63 362.108 328.852Z" fill="#593639"/>
<path d="M346.73 332.442C346.73 332.662 346.254 332.842 345.668 332.842C345.079 332.842 344.603 332.662 344.603 332.442C344.603 332.221 345.079 332.042 345.668 332.042C346.253 332.042 346.73 332.221 346.73 332.442Z" fill="#593639"/>
<path d="M356.411 332.217C356.411 332.437 355.935 332.616 355.347 332.616C354.76 332.616 354.284 332.437 354.284 332.217C354.284 331.996 354.76 331.816 355.347 331.816C355.935 331.816 356.411 331.996 356.411 332.217Z" fill="#593639"/>
<path d="M364.871 333.969C364.871 334.19 364.395 334.369 363.809 334.369C363.222 334.369 362.746 334.19 362.746 333.969C362.746 333.747 363.222 333.57 363.809 333.57C364.394 333.57 364.871 333.748 364.871 333.969Z" fill="#593639"/>
<path d="M372.958 332.04C372.958 332.261 372.482 332.441 371.895 332.441C371.308 332.441 370.832 332.261 370.832 332.04C370.832 331.82 371.308 331.641 371.895 331.641C372.482 331.641 372.958 331.819 372.958 332.04Z" fill="#593639"/>
<path d="M388.248 329.381C388.248 329.892 387.772 330.309 387.185 330.309C386.599 330.309 386.123 329.891 386.123 329.381C386.123 328.867 386.599 328.451 387.185 328.451C387.772 328.452 388.248 328.867 388.248 329.381Z" fill="#593639"/>
<path d="M408.626 329.798C408.626 330.31 408.15 330.727 407.564 330.727C406.977 330.727 406.501 330.31 406.501 329.798C406.501 329.285 406.977 328.869 407.564 328.869C408.151 328.87 408.626 329.285 408.626 329.798Z" fill="#593639"/>
<path d="M376.663 326.853C376.663 327.365 376.188 327.782 375.6 327.782C375.013 327.782 374.537 327.365 374.537 326.853C374.537 326.34 375.013 325.924 375.6 325.924C376.188 325.925 376.663 326.34 376.663 326.853Z" fill="#593639"/>
<path d="M376.077 329.38C376.077 329.609 375.864 329.796 375.601 329.796C375.337 329.796 375.124 329.609 375.124 329.38C375.124 329.15 375.337 328.964 375.601 328.964C375.864 328.964 376.077 329.15 376.077 329.38Z" fill="#593639"/>
<path d="M392.442 326.283C392.442 326.512 392.229 326.699 391.966 326.699C391.702 326.699 391.488 326.512 391.488 326.283C391.488 326.053 391.702 325.867 391.966 325.867C392.229 325.868 392.442 326.053 392.442 326.283Z" fill="#593639"/>
<path d="M407.565 332.731C407.565 332.96 407.35 333.147 407.087 333.147C406.824 333.147 406.611 332.96 406.611 332.731C406.611 332.502 406.824 332.315 407.087 332.315C407.351 332.315 407.565 332.502 407.565 332.731Z" fill="#593639"/>
<path d="M393.395 333.986C393.395 334.215 393.181 334.402 392.918 334.402C392.654 334.402 392.441 334.215 392.441 333.986C392.441 333.756 392.654 333.57 392.918 333.57C393.181 333.57 393.395 333.756 393.395 333.986Z" fill="#593639"/>
<path d="M408.517 327.114C408.517 327.343 408.303 327.53 408.04 327.53C407.777 327.53 407.564 327.343 407.564 327.114C407.564 326.885 407.777 326.698 408.04 326.698C408.303 326.698 408.517 326.885 408.517 327.114Z" fill="#593639"/>
<path d="M403.364 330.409C403.364 330.638 403.151 330.826 402.888 330.826C402.624 330.826 402.411 330.638 402.411 330.409C402.411 330.18 402.624 329.993 402.888 329.993C403.151 329.993 403.364 330.18 403.364 330.409Z" fill="#593639"/>
<path d="M399.537 334.342C399.537 334.571 399.324 334.758 399.061 334.758C398.797 334.758 398.584 334.571 398.584 334.342C398.584 334.113 398.797 333.926 399.061 333.926C399.324 333.926 399.537 334.112 399.537 334.342Z" fill="#593639"/>
<path d="M397.838 331.197C397.838 331.426 397.624 331.613 397.362 331.613C397.098 331.613 396.885 331.426 396.885 331.197C396.885 330.968 397.098 330.781 397.362 330.781C397.624 330.782 397.838 330.968 397.838 331.197Z" fill="#593639"/>
<path d="M401.189 326.11C401.189 326.338 400.975 326.526 400.712 326.526C400.449 326.526 400.235 326.338 400.235 326.11C400.235 325.88 400.449 325.694 400.712 325.694C400.975 325.694 401.189 325.88 401.189 326.11Z" fill="#593639"/>
<path d="M412.243 326.283C412.243 326.512 412.029 326.699 411.766 326.699C411.502 326.699 411.29 326.512 411.29 326.283C411.29 326.053 411.502 325.867 411.766 325.867C412.029 325.868 412.243 326.053 412.243 326.283Z" fill="#593639"/>
<path d="M408.993 334.385C408.993 334.614 408.779 334.801 408.516 334.801C408.253 334.801 408.04 334.614 408.04 334.385C408.04 334.155 408.253 333.969 408.516 333.969C408.779 333.969 408.993 334.155 408.993 334.385Z" fill="#593639"/>
<path d="M365.824 328.607C365.824 328.836 365.61 329.023 365.347 329.023C365.084 329.023 364.871 328.836 364.871 328.607C364.871 328.378 365.084 328.192 365.347 328.192C365.61 328.192 365.824 328.377 365.824 328.607Z" fill="#593639"/>
<path d="M355.349 324.79C355.349 325.018 355.135 325.206 354.872 325.206C354.609 325.206 354.395 325.018 354.395 324.79C354.395 324.56 354.609 324.374 354.872 324.374C355.135 324.374 355.349 324.56 355.349 324.79Z" fill="#593639"/>
<path d="M339.959 326.699C339.959 326.928 339.744 327.115 339.481 327.115C339.219 327.115 339.005 326.928 339.005 326.699C339.005 326.47 339.219 326.283 339.481 326.283C339.744 326.283 339.959 326.47 339.959 326.699Z" fill="#593639"/>
<path d="M327.088 331.941C327.088 332.169 326.874 332.357 326.611 332.357C326.348 332.357 326.134 332.169 326.134 331.941C326.134 331.712 326.348 331.525 326.611 331.525C326.874 331.525 327.088 331.712 327.088 331.941Z" fill="#593639"/>
<path d="M331.608 333.568C331.608 333.797 331.394 333.984 331.131 333.984C330.868 333.984 330.655 333.797 330.655 333.568C330.655 333.339 330.868 333.152 331.131 333.152C331.394 333.152 331.608 333.339 331.608 333.568Z" fill="#593639"/>
<path d="M336.742 327.114C336.742 327.343 336.528 327.53 336.265 327.53C336.002 327.53 335.788 327.343 335.788 327.114C335.788 326.885 336.002 326.698 336.265 326.698C336.528 326.698 336.742 326.885 336.742 327.114Z" fill="#593639"/>
<path d="M350.162 330.597C350.162 330.826 349.948 331.013 349.685 331.013C349.422 331.013 349.208 330.826 349.208 330.597C349.208 330.368 349.422 330.181 349.685 330.181C349.947 330.181 350.162 330.368 350.162 330.597Z" fill="#593639"/>
<path d="M348.698 333.95C348.698 334.178 348.484 334.365 348.221 334.365C347.957 334.365 347.745 334.178 347.745 333.95C347.745 333.72 347.958 333.534 348.221 333.534C348.484 333.534 348.698 333.72 348.698 333.95Z" fill="#593639"/>
<path d="M358.554 334.385C358.554 334.614 358.339 334.801 358.076 334.801C357.813 334.801 357.6 334.614 357.6 334.385C357.6 334.155 357.813 333.969 358.076 333.969C358.339 333.969 358.554 334.155 358.554 334.385Z" fill="#593639"/>
<path d="M389.201 326.699C389.201 326.928 388.987 327.115 388.724 327.115C388.461 327.115 388.247 326.928 388.247 326.699C388.247 326.47 388.461 326.283 388.724 326.283C388.987 326.283 389.201 326.47 389.201 326.699Z" fill="#593639"/>
<path d="M395.146 328.904C395.146 329.132 394.932 329.32 394.669 329.32C394.406 329.32 394.192 329.132 394.192 328.904C394.192 328.674 394.406 328.488 394.669 328.488C394.932 328.488 395.146 328.674 395.146 328.904Z" fill="#593639"/>
<path d="M395.621 334.402C395.885 334.402 396.098 334.216 396.098 333.986C396.098 333.756 395.885 333.57 395.621 333.57C395.358 333.57 395.144 333.756 395.144 333.986C395.144 334.216 395.358 334.402 395.621 334.402Z" fill="#593639"/>
<path d="M358.554 327.728C358.554 327.957 358.34 328.144 358.077 328.144C357.814 328.144 357.601 327.957 357.601 327.728C357.601 327.499 357.814 327.312 358.077 327.312C358.34 327.312 358.554 327.499 358.554 327.728Z" fill="#593639"/>
<path d="M357.364 330.18C357.364 330.408 357.15 330.595 356.887 330.595C356.624 330.595 356.411 330.408 356.411 330.18C356.411 329.95 356.624 329.764 356.887 329.764C357.15 329.764 357.364 329.95 357.364 330.18Z" fill="#593639"/>
<path d="M352.762 331.34C352.762 331.57 352.548 331.757 352.285 331.757C352.022 331.757 351.81 331.57 351.81 331.34C351.81 331.111 352.022 330.925 352.285 330.925C352.548 330.925 352.762 331.111 352.762 331.34Z" fill="#593639"/>
<path d="M374.179 323.971C374.179 324.199 373.966 324.387 373.702 324.387C373.439 324.387 373.226 324.199 373.226 323.971C373.226 323.742 373.439 323.555 373.702 323.555C373.965 323.555 374.179 323.742 374.179 323.971Z" fill="#593639"/>
<path d="M376.077 331.109C376.077 331.34 375.864 331.525 375.601 331.525C375.337 331.525 375.124 331.34 375.124 331.109C375.124 330.881 375.337 330.693 375.601 330.693C375.864 330.693 376.077 330.88 376.077 331.109Z" fill="#593639"/>
<path d="M372.64 333.968C372.64 334.198 372.426 334.384 372.164 334.384C371.901 334.384 371.687 334.198 371.687 333.968C371.687 333.739 371.901 333.552 372.164 333.552C372.426 333.552 372.64 333.739 372.64 333.968Z" fill="#593639"/>
<path d="M384.404 329.764C384.404 329.993 384.19 330.18 383.927 330.18C383.665 330.18 383.451 329.993 383.451 329.764C383.451 329.535 383.665 329.349 383.927 329.349C384.19 329.349 384.404 329.535 384.404 329.764Z" fill="#593639"/>
<path d="M389.201 333.091C389.201 333.32 388.987 333.507 388.725 333.507C388.462 333.507 388.248 333.32 388.248 333.091C388.248 332.862 388.462 332.675 388.725 332.675C388.987 332.675 389.201 332.862 389.201 333.091Z" fill="#593639"/>
<path d="M386.123 326.525C386.123 326.754 385.91 326.941 385.646 326.941C385.384 326.941 385.17 326.754 385.17 326.525C385.17 326.295 385.384 326.109 385.646 326.109C385.91 326.109 386.123 326.295 386.123 326.525Z" fill="#593639"/>
<path d="M380.014 331.527C380.014 331.757 380.178 331.943 380.379 331.943C380.581 331.943 380.744 331.757 380.744 331.527C380.744 331.298 380.581 331.11 380.379 331.11C380.178 331.111 380.014 331.298 380.014 331.527Z" fill="#593639"/>
<path d="M368.307 329.782C368.307 330.295 367.831 330.711 367.244 330.711C366.656 330.711 366.181 330.294 366.181 329.782C366.181 329.269 366.656 328.854 367.244 328.854C367.831 328.853 368.307 329.269 368.307 329.782Z" fill="#593639"/>
<path d="M369.37 329.535C369.37 330.047 368.894 330.464 368.307 330.464C367.72 330.464 367.244 330.046 367.244 329.535C367.244 329.023 367.72 328.606 368.307 328.606C368.894 328.606 369.37 329.023 369.37 329.535Z" fill="#593639"/>
<path d="M396.685 328.19C396.685 328.703 396.209 329.119 395.622 329.119C395.035 329.119 394.559 328.702 394.559 328.19C394.559 327.678 395.035 327.261 395.622 327.261C396.209 327.261 396.685 327.678 396.685 328.19Z" fill="#593639"/>
<path d="M372.557 326.996C372.557 327.507 372.083 327.925 371.496 327.925C370.908 327.925 370.432 327.507 370.432 326.996C370.432 326.483 370.908 326.066 371.496 326.066C372.083 326.066 372.557 326.483 372.557 326.996Z" fill="#593639"/>
<path d="M342.719 330.464C342.719 330.95 341.482 331.341 339.957 331.341C338.431 331.341 337.194 330.949 337.194 330.464C337.194 329.98 338.431 329.589 339.957 329.589C341.483 329.589 342.719 329.981 342.719 330.464Z" fill="#593639"/>
<path d="M352.685 333.952C352.685 334.172 352.209 334.352 351.622 334.352C351.035 334.352 350.559 334.172 350.559 333.952C350.559 333.732 351.035 333.552 351.622 333.552C352.209 333.552 352.685 333.731 352.685 333.952Z" fill="#593639"/>
<path d="M352.286 328.906C352.286 329.416 351.811 329.834 351.224 329.834C350.637 329.834 350.161 329.416 350.161 328.906C350.161 328.392 350.637 327.975 351.224 327.975C351.811 327.975 352.286 328.392 352.286 328.906Z" fill="#593639"/>
<path d="M355.934 328.291C355.934 328.974 355.46 329.534 354.873 329.534C354.286 329.534 353.809 328.974 353.809 328.291C353.809 327.603 354.285 327.046 354.873 327.046C355.46 327.047 355.934 327.603 355.934 328.291Z" fill="#593639"/>
<path d="M373.225 330.184C373.225 330.696 372.75 331.112 372.163 331.112C371.576 331.112 371.1 330.696 371.1 330.184C371.1 329.671 371.576 329.256 372.163 329.256C372.751 329.256 373.225 329.671 373.225 330.184Z" fill="#593639"/>
<path d="M405.247 333.952C405.247 334.464 404.773 334.88 404.185 334.88C403.598 334.88 403.122 334.464 403.122 333.952C403.122 333.441 403.598 333.024 404.185 333.024C404.773 333.024 405.247 333.44 405.247 333.952Z" fill="#593639"/>
<path d="M391.489 331.109C391.489 331.623 391.013 332.039 390.425 332.039C389.838 332.039 389.362 331.622 389.362 331.109C389.362 330.597 389.838 330.181 390.425 330.181C391.013 330.181 391.489 330.597 391.489 331.109Z" fill="#593639"/>
<path d="M383.786 334.589C383.786 335.102 383.31 335.518 382.723 335.518C382.136 335.518 381.66 335.102 381.66 334.589C381.66 334.077 382.136 333.66 382.723 333.66C383.31 333.661 383.786 334.077 383.786 334.589Z" fill="#593639"/>
<path d="M401.188 331.336C401.188 331.85 400.711 332.266 400.123 332.266C399.536 332.266 399.06 331.849 399.06 331.336C399.06 330.824 399.536 330.407 400.123 330.407C400.711 330.407 401.188 330.824 401.188 331.336Z" fill="#593639"/>
<path d="M369.37 333.662C369.37 334.174 368.894 334.592 368.307 334.592C367.72 334.592 367.244 334.174 367.244 333.662C367.244 333.149 367.72 332.734 368.307 332.734C368.894 332.733 369.37 333.149 369.37 333.662Z" fill="#593639"/>
<path d="M562.817 134.978C562.61 134.866 562.36 134.732 562.119 134.603C561.784 133.352 562.146 132.178 562.285 130.995C562.319 130.707 562.386 130.423 562.434 130.137C562.451 130.029 562.445 129.916 562.47 129.811C562.631 129.11 563.126 128.632 563.622 128.691C564.179 128.758 564.671 129.534 564.579 130.212C564.446 131.183 564.359 132.164 564.155 133.121C563.993 133.88 563.898 134.759 562.817 134.978Z" fill="#312C28"/>
<path d="M552.042 129.666C553.603 129.482 553.744 129.668 553.913 130.949C554.039 131.904 554.372 132.833 554.653 133.762C554.819 134.308 554.766 134.76 554.394 135.051C553.991 135.367 553.423 135.344 553.02 134.912C552.755 134.629 552.526 134.276 552.39 133.914C552.043 132.991 551.827 132.034 551.914 131.034C551.954 130.581 551.998 130.129 552.042 129.666Z" fill="#312C28"/>
<path d="M506.524 124.737C506.524 126.167 506.53 127.576 506.516 128.986C506.514 129.157 506.424 129.337 506.343 129.496C506.157 129.866 505.914 130.185 505.447 130.183C504.98 130.18 504.715 129.869 504.562 129.487C504.444 129.192 504.355 128.857 504.367 128.544C504.404 127.605 504.469 126.666 504.574 125.732C504.71 124.522 505.069 124.322 506.524 124.737Z" fill="#312C28"/>
<path d="M498.977 124.129C499.533 124.129 499.921 124.129 500.278 124.129C500.724 124.481 500.863 124.924 500.844 125.418C500.807 126.382 500.952 127.308 501.366 128.184C501.58 128.636 501.529 129.038 501.119 129.356C500.745 129.645 500.221 129.609 499.814 129.27C499.213 128.769 499.022 128.06 498.892 127.337C498.796 126.802 498.691 126.256 498.7 125.718C498.709 125.225 498.864 124.736 498.977 124.129Z" fill="#312C28"/>
<path d="M509.248 130.989C508.74 130.471 508.683 129.954 508.912 129.335C509.178 128.62 509.35 127.87 509.587 127.142C509.698 126.803 509.867 126.483 510.028 126.112C510.466 126.112 510.853 126.112 511.315 126.112C511.469 126.356 511.638 126.625 511.756 126.812C511.756 126.997 511.774 127.075 511.754 127.141C511.462 128.119 511.196 129.105 510.861 130.069C510.56 130.937 510.268 131.077 509.248 130.989Z" fill="#312C28"/>
<path d="M557.87 134.038C557.42 133.545 557.235 132.914 557.189 132.256C557.141 131.564 557.131 130.863 557.197 130.175C557.229 129.845 557.407 129.467 557.642 129.238C557.84 129.045 558.283 128.885 558.498 128.981C558.773 129.104 559.071 129.477 559.112 129.775C559.254 130.819 559.334 131.875 559.355 132.928C559.374 133.975 559.031 134.204 557.87 134.038Z" fill="#312C28"/>
<path d="M515.204 136.779C513.155 136.293 511.107 135.794 509.052 135.335C507.811 135.058 506.563 134.811 505.308 134.612C502.981 134.243 500.648 133.913 498.316 133.58C497.922 133.524 497.514 133.486 497.121 133.524C496.25 133.609 495.853 134.084 495.807 134.958C495.688 137.185 496.229 139.223 497.537 141.039C497.877 141.51 498.267 141.947 498.606 142.419C499.571 143.766 500.909 144.624 502.37 145.317C503.985 146.082 505.702 146.319 507.479 146.303C508.31 146.228 509.145 146.188 509.969 146.069C511.391 145.864 512.705 145.305 513.923 144.578C515.207 143.811 516.436 142.922 517.177 141.568C518.301 139.514 517.892 137.417 515.204 136.779ZM566.382 137.259C565.373 137.249 564.355 137.398 563.356 137.56C561.065 137.933 558.781 138.348 556.497 138.762C553.285 139.345 550.074 139.935 546.866 140.541C545.967 140.711 545.354 141.681 545.699 142.526C546.249 143.87 546.914 145.167 547.551 146.474C547.659 146.696 547.853 146.886 548.037 147.058C550.139 149.009 552.715 149.751 555.775 149.986C556.576 149.83 557.652 149.662 558.709 149.407C561.391 148.76 563.557 147.24 565.306 145.169C566.649 143.58 567.745 141.81 568.219 139.726C568.572 138.178 567.963 137.273 566.382 137.259Z" fill="white"/>
<path d="M559.876 143.39C559.876 142.838 559.926 142.213 559.866 141.6C559.758 140.497 559.475 139.442 558.673 138.614C558.602 138.542 558.53 138.476 558.457 138.411C557.804 138.529 557.151 138.645 556.498 138.763C555.792 138.892 555.087 139.026 554.38 139.154C554.216 139.414 554.088 139.704 554.02 140.033C553.782 141.166 553.642 142.344 553.656 143.501C553.673 144.911 553.714 146.34 554.219 147.702C554.64 148.837 555.465 149.497 556.55 149.844C557.18 149.73 557.89 149.6 558.601 149.432C558.739 149.28 558.843 149.099 558.9 148.894C559.391 147.114 560.144 145.374 559.876 143.39Z" fill="#312C28"/>
<path d="M507.352 144.707C508.666 142.844 509.352 140.753 509.484 138.486C509.578 137.45 509.31 136.521 508.744 135.671C508.617 135.481 508.477 135.321 508.327 135.182C507.586 135.024 506.841 134.88 506.094 134.75C505.332 134.936 504.68 135.3 504.208 136C503.154 137.566 502.443 139.276 502.093 141.126C501.916 142.057 501.884 143.003 502.067 143.952C502.194 144.615 502.516 145.144 502.935 145.538C503.714 145.847 504.514 146.049 505.332 146.161C505.646 146.084 505.96 145.97 506.263 145.77C506.68 145.494 507.063 145.116 507.352 144.707Z" fill="#312C28"/>
<path d="M536.286 90.5251C536.731 90.818 537.237 91.0527 537.61 91.4159C538.427 92.2102 538.467 93.2653 538.203 94.2473C537.321 97.5289 535.377 100.033 532.243 101.585C531.356 102.024 530.433 102.232 529.526 101.612C529.322 101.472 529.06 101.312 528.987 101.106C528.702 100.299 528.347 99.4616 528.632 98.5995C529.384 96.3304 530.341 94.1543 532.183 92.4962C532.744 91.9921 533.417 91.6063 534.052 91.1848C534.413 90.9449 534.801 90.7433 535.177 90.5251C535.547 90.5251 535.917 90.5251 536.286 90.5251Z" fill="#B4A599"/>
<path d="M513.168 110.196C511.259 109.552 510.424 108.05 509.993 106.284C509.612 104.719 509.702 103.11 509.747 101.516C509.77 100.723 510.047 99.9994 510.631 99.3987C511.126 98.8896 511.523 98.2808 512.056 97.8175C512.875 97.1063 513.845 96.8307 514.891 97.3515C515.212 97.5113 515.522 97.7627 515.738 98.0438C517.027 99.7256 517.179 101.677 517.017 103.671C516.902 105.083 516.485 106.436 515.954 107.75C515.461 108.971 514.776 110.007 513.168 110.196Z" fill="#B4A599"/>
<path d="M547.533 105.278C546.989 105.195 546.547 105.19 546.155 105.056C544.103 104.36 543.53 102.612 544.62 100.83C545.853 98.8158 547.842 97.8504 550.078 97.1984C551.245 96.8579 552.333 97.3002 553.06 98.047C553.814 98.821 554.189 99.8513 553.63 100.968C552.723 102.777 551.415 104.205 549.357 104.904C548.747 105.112 548.079 105.17 547.533 105.278Z" fill="#B4A599"/>
<path d="M534.257 111.16C534.101 111.752 533.998 112.453 533.737 113.073C532.863 115.155 531.507 116.738 529.452 117.45C528.261 117.863 527.211 117.202 526.939 115.962C526.887 115.723 526.867 115.442 526.931 115.213C527.51 113.156 528.264 111.18 529.857 109.797C530.472 109.263 531.249 108.911 531.998 108.609C532.625 108.356 533.746 109.065 533.971 109.765C534.102 110.175 534.148 110.616 534.257 111.16Z" fill="#B4A599"/>
<path d="M110.721 390.592C110.678 390.582 110.635 390.58 110.594 390.572C110.09 390.307 109.565 390.383 109.054 390.623C108.222 390.814 107.467 391.253 107.005 391.869C106.702 392.075 106.432 392.328 106.21 392.645C106.105 392.79 106.012 392.982 105.926 393.186C105.455 393.819 105.249 394.666 105.546 395.371C105.669 396.522 106.427 397.597 107.662 397.701C107.682 397.702 107.7 397.697 107.72 397.699C108.936 398.523 110.505 398.812 111.38 397.832C111.993 397.15 112.381 396.198 112.835 395.409C113.207 394.759 113.714 394.056 113.759 393.281C113.849 391.731 112.014 390.861 110.721 390.592ZM112.558 392.483C112.629 392.581 112.685 392.68 112.724 392.775C112.695 392.741 112.662 392.708 112.62 392.687C112.604 392.614 112.577 392.552 112.558 392.483ZM109.211 397.269C109.251 397.293 109.282 397.323 109.324 397.344C109.269 397.333 109.216 397.321 109.162 397.303C109.178 397.291 109.195 397.28 109.211 397.269ZM112.744 393.642C112.741 393.558 112.738 393.472 112.729 393.388C112.769 393.339 112.796 393.283 112.812 393.224C112.81 393.367 112.787 393.507 112.744 393.642Z" fill="#50AA75"/>
<path d="M85.0232 395.143C84.7094 393.841 83.1948 393.791 82.3921 394.464C82.1444 394.541 81.8983 394.636 81.652 394.779C80.8163 395.269 80.22 396.221 80.035 397.155C79.8765 397.962 80.2614 398.707 81.0739 398.967C83.3945 399.707 85.5599 397.374 85.0232 395.143Z" fill="#2A6B52"/>
<path d="M83.634 394.253C82.2499 394.126 80.7318 394.878 80.2381 396.209C80.1325 396.494 80.3042 396.938 80.5898 397.064C80.6492 397.091 80.7103 397.115 80.7715 397.142C80.778 397.143 80.783 397.142 80.7897 397.143C80.8855 397.334 81.0672 397.475 81.3249 397.459C82.7271 397.368 83.8818 396.438 84.2929 395.108C84.4332 394.656 84.0583 394.291 83.634 394.253Z" fill="#50AA75"/>
<path d="M157.759 399.217C157.085 398.604 155.915 398.316 155.101 398.877C153.393 400.052 152.101 402.012 150.904 403.684C149.736 405.317 149.385 406.951 150.77 408.59C153.258 411.528 157.762 412.574 161.374 411.374C162.369 411.461 163.378 411.168 164.255 410.318C168.995 405.713 160.41 401.621 157.759 399.217Z" fill="#2A6B52"/>
<path d="M158.414 400.417C157.473 399.383 156.508 398.679 155.096 399.437C154.242 399.896 153.567 400.761 152.891 401.425C152.277 402.03 151.314 402.686 151.144 403.579C151.018 404.235 151.279 404.73 151.746 404.988C151.725 405.2 151.766 405.433 151.931 405.573C153.452 406.847 156.031 407.487 157.917 407.975C159.22 408.312 161.376 409.024 162.557 408.001C165.56 405.409 159.742 401.872 158.414 400.417Z" fill="#50AA75"/>
<path d="M506.779 294.322C505.45 292.943 504.295 291.698 502.881 291.272C502.804 290.652 502.558 290.118 502.222 289.626C501.81 291.084 501.866 292.591 502.383 293.96C504.287 295.011 506.372 297.159 508.478 298.312C509.632 298.212 510.693 297.664 511.607 296.847C509.851 296.531 508.206 295.8 506.779 294.322Z" fill="#2A6B52"/>
<path d="M542.488 243.369C542.46 243.43 542.432 243.489 542.391 243.55C542.194 243.841 542.029 244.14 541.875 244.445C542.001 244.443 542.125 244.428 542.244 244.387C542.52 244.591 542.796 244.783 543.068 244.959C543.478 245.229 543.934 245.186 544.304 244.974C545.245 245.037 546.101 244.461 546.405 243.453C545.01 243.303 543.628 243.292 542.488 243.369Z" fill="#50AA75"/>
<path d="M584.434 256.645C585.06 256.681 585.716 256.574 586.345 256.302C586.732 256.134 587.067 255.909 587.384 255.66C586.892 253.807 585.995 251.966 584.802 250.292C584.142 249.786 583.453 249.262 582.929 249.092C580.817 248.408 578.622 248.676 578.222 251.249C577.854 253.636 579.588 255.572 581.568 256.683C582.45 256.701 583.336 256.793 584.204 256.957C584.29 256.862 584.373 256.76 584.434 256.645Z" fill="#50AA75"/>
<path d="M190.858 354.778C191.134 354.42 191.393 354.05 191.652 353.679C190.559 353.305 189.555 352.72 188.703 351.892C187.931 352.614 187.099 353.316 186.248 353.908C186.848 354.63 187.355 355.432 187.731 356.271C188.794 355.874 189.88 355.387 190.858 354.778Z" fill="#50AA75"/>
<path d="M187.283 354.337C187.888 353.99 188.412 353.581 188.773 353.121C189.341 353.854 190.07 354.373 190.894 354.725C191.48 353.966 192.016 353.168 192.52 352.348C192.36 352.272 192.2 352.196 192.052 352.102C190.952 351.772 189.87 351.293 188.813 350.714C188.771 350.691 188.748 350.659 188.716 350.632C187.814 350.993 186.959 351.967 185.672 352.677C185.545 352.747 185.405 352.814 185.26 352.879C185.874 353.44 186.425 354.082 186.893 354.777C187.033 354.643 187.168 354.5 187.283 354.337Z" fill="#2A6B52"/>
<path d="M189.29 351.248C189.308 351.136 189.165 351.01 189.073 351.122C188.631 351.654 188.369 352.882 188.703 353.509C188.762 353.617 188.941 353.593 188.969 353.475C189.052 353.128 188.976 352.758 189.018 352.402C189.068 352.004 189.227 351.637 189.29 351.248Z" fill="#50AA75"/>
<path d="M292.631 372.595C293.138 371.94 293.614 371.259 294.089 370.578C292.083 369.893 290.239 368.817 288.675 367.298C287.256 368.623 285.73 369.912 284.168 370.999C285.269 372.324 286.199 373.797 286.89 375.338C288.842 374.608 290.835 373.713 292.631 372.595Z" fill="#50AA75"/>
<path d="M286.067 371.787C287.179 371.149 288.14 370.399 288.804 369.554C289.846 370.899 291.184 371.853 292.697 372.499C293.772 371.105 294.757 369.64 295.681 368.135C295.387 367.996 295.095 367.856 294.823 367.683C292.804 367.078 290.817 366.199 288.876 365.135C288.799 365.092 288.758 365.035 288.698 364.984C287.043 365.646 285.472 367.435 283.11 368.739C282.878 368.867 282.62 368.99 282.354 369.11C283.481 370.14 284.493 371.318 285.352 372.594C285.609 372.347 285.855 372.086 286.067 371.787Z" fill="#2A6B52"/>
<path d="M289.752 366.116C289.785 365.91 289.523 365.68 289.354 365.886C288.543 366.862 288.061 369.116 288.675 370.267C288.782 370.466 289.111 370.422 289.164 370.204C289.316 369.568 289.175 368.889 289.253 368.235C289.344 367.505 289.636 366.831 289.752 366.116Z" fill="#50AA75"/>
<path d="M123.851 410.727C124.358 410.071 124.834 409.39 125.31 408.71C123.303 408.024 121.459 406.949 119.895 405.43C118.477 406.755 116.95 408.044 115.388 409.131C116.49 410.456 117.419 411.929 118.11 413.47C120.062 412.739 122.056 411.845 123.851 410.727Z" fill="#50AA75"/>
<path d="M117.287 409.919C118.399 409.282 119.36 408.532 120.024 407.687C121.066 409.032 122.404 409.985 123.917 410.631C124.993 409.237 125.977 407.772 126.902 406.268C126.608 406.128 126.315 405.988 126.043 405.816C124.025 405.211 122.037 404.331 120.097 403.268C120.019 403.225 119.978 403.167 119.918 403.116C118.263 403.779 116.693 405.568 114.331 406.871C114.098 407 113.84 407.123 113.574 407.243C114.701 408.272 115.713 409.451 116.572 410.727C116.83 410.48 117.076 410.219 117.287 409.919Z" fill="#2A6B52"/>
<path d="M120.972 404.247C121.005 404.042 120.743 403.812 120.574 404.017C119.763 404.994 119.281 407.248 119.895 408.399C120.002 408.598 120.331 408.553 120.384 408.336C120.536 407.7 120.396 407.021 120.473 406.367C120.564 405.637 120.857 404.963 120.972 404.247Z" fill="#50AA75"/>
<path d="M110.8 376.881C109.891 376.621 108.302 376.871 108.139 378.004C108.088 378.346 108.258 378.664 108.547 378.775C108.507 378.852 108.482 378.936 108.486 379.026C108.524 379.814 108.94 380.215 109.599 380.609C109.959 380.823 110.559 380.716 110.747 380.31C111.138 379.46 111.365 378.61 111.411 377.675C111.429 377.315 111.138 376.978 110.8 376.881Z" fill="#2A6B52"/>
<path d="M183.941 395.858C183.761 395.393 183.38 395.04 182.935 394.803C182.083 393.394 180.371 392.997 178.666 393.165C177.718 395.013 176.167 396.642 173.864 397.869C173.364 398.137 172.887 398.004 172.561 397.705C172.563 397.755 172.553 397.801 172.558 397.853C172.768 400.029 174.953 400.227 176.699 400.486C178.504 400.754 180.395 401.08 182.07 400.13C183.522 399.304 184.569 397.486 183.941 395.858Z" fill="#2A6B52"/>
<path d="M201.798 413.246C201.308 413.56 201.03 414.025 200.926 414.522C200.588 414.777 200.272 415.056 199.99 415.382C199.212 416.281 199.361 417.461 200.348 418.134C201.072 418.627 201.85 419.045 202.621 419.459C203.412 419.886 204.296 420.462 205.206 420.544C207.034 420.705 208.179 419.114 208.291 417.438C208.509 414.208 204.803 411.327 201.798 413.246Z" fill="#2A6B52"/>
<path d="M191.776 420.276C191.756 420.259 191.75 420.238 191.728 420.223C191.091 419.46 189.895 419.36 188.963 419.274C188.073 419.191 187.236 420.11 187.267 420.953C187.327 422.454 188.306 423.871 189.832 424.228C190.58 424.402 191.333 424.319 192.032 424.019C192.985 423.61 193.558 422.952 193.671 421.908C193.775 420.935 192.695 420.142 191.776 420.276Z" fill="#2A6B52"/>
<path d="M226.6 419.978C226.551 419.932 226.49 419.898 226.437 419.855C226.422 419.463 226.149 419.09 225.731 418.939C225.097 418.704 224.362 418.967 223.797 419.278C223.075 419.677 222.828 420.871 223.516 421.435C224.101 421.912 224.867 422.258 225.629 422.303C226.812 422.37 227.453 420.761 226.6 419.978Z" fill="#2A6B52"/>
<path d="M216.502 425.33C216.4 425.205 216.253 425.137 216.097 425.106C215.717 424.702 215.034 424.922 214.84 425.43C214.69 425.825 214.596 426.226 214.619 426.653C214.685 427.816 216.219 427.985 216.618 426.921C216.847 426.303 216.954 425.882 216.502 425.33Z" fill="#2A6B52"/>
<path d="M161.272 410.78C161.228 410.76 161.18 410.742 161.135 410.722C160.729 410.548 160.177 410.505 159.854 410.885C159.76 410.992 159.67 411.102 159.583 411.214C159.236 411.648 159.277 412.438 159.943 412.57C160.07 412.596 160.194 412.619 160.32 412.637C160.759 412.708 161.299 412.596 161.514 412.155C161.542 412.101 161.568 412.047 161.595 411.994C161.785 411.605 161.743 410.98 161.272 410.78Z" fill="#2A6B52"/>
<path d="M164.126 420.132C164.022 420.076 163.917 420.043 163.808 420.03C163.611 419.749 163.342 419.611 163.058 419.575C163.01 419.539 162.962 419.499 162.898 419.436C162.668 419.219 162.326 419.28 162.158 419.532C162.055 419.683 162.006 419.839 161.996 419.995C161.857 420.156 161.756 420.355 161.72 420.589C161.641 421.13 161.917 421.621 162.4 421.878C162.979 422.185 163.616 421.996 164.126 421.654C164.373 421.49 164.597 421.21 164.568 420.893C164.539 420.571 164.429 420.296 164.126 420.132Z" fill="#2A6B52"/>
<path d="M185.017 414.817C184.983 414.72 184.95 414.623 184.916 414.527C184.697 413.9 183.866 413.766 183.496 414.343C183.289 414.664 183.314 414.973 183.486 415.303C183.643 415.602 184.044 415.742 184.365 415.654C184.421 415.64 184.462 415.609 184.51 415.584C184.85 415.525 185.138 415.158 185.017 414.817Z" fill="#2A6B52"/>
<path d="M259.615 363.941C259.512 363.554 259.247 363.262 258.916 363.091C258.87 362.961 258.832 362.824 258.766 362.707C258.516 362.264 258.127 361.907 257.621 361.769C256.471 361.455 255.271 362.309 255.258 363.495C255.248 364.131 255.692 364.717 256.27 364.961C256.295 365.012 256.306 365.072 256.336 365.119C256.614 365.568 257.037 365.88 257.55 366.018C258.819 366.356 259.93 365.146 259.615 363.941Z" fill="#2A6B52"/>
<path d="M572.746 273.578C572.761 273.55 572.778 273.522 572.794 273.492C573.23 272.664 572.674 271.851 571.79 271.758C570.644 271.638 569.494 271.544 568.343 271.491C567.499 271.452 566.592 271.411 565.821 271.824C564.09 272.749 564.245 274.762 565.661 275.865C566.865 276.805 568.518 277.072 569.995 276.718C571.343 276.396 573.295 275.284 572.767 273.622C572.761 273.607 572.751 273.594 572.746 273.578Z" fill="#2A6B52"/>
<path d="M566.942 271.799C566.555 271.889 566.329 272.363 566.453 272.726C566.392 272.739 566.331 272.747 566.27 272.759C565.878 272.831 565.713 273.423 566.025 273.675C566.783 274.288 567.897 274.822 568.96 274.905C568.698 275.442 568.671 276.095 569.132 276.445C569.256 276.537 569.489 276.471 569.552 276.337C569.679 276.059 569.626 275.825 569.649 275.531C569.67 275.269 569.778 275.051 569.897 274.832C570.439 274.7 570.934 274.413 571.302 273.859C573.017 271.286 568.227 271.496 566.942 271.799Z" fill="#50AA75"/>
<path d="M257.322 362.823C256.772 362.823 256.574 363.457 256.899 363.837C256.927 363.871 256.959 363.907 256.988 363.943C257.144 364.124 257.502 364.124 257.656 363.943C257.685 363.907 257.715 363.871 257.746 363.837C258.07 363.457 257.874 362.823 257.322 362.823Z" fill="#50AA75"/>
<path d="M542.282 225.206C542.124 224.805 541.859 224.514 541.531 224.29C541.529 224.279 541.531 224.267 541.527 224.254C541.473 223.932 541.144 223.646 540.837 223.568C539.838 223.318 538.779 223.279 537.775 223.462C536.817 225.219 535.294 226.768 533.082 227.945C532.988 227.996 532.895 228.006 532.801 228.03C533.307 228.685 534.314 228.775 535.054 228.432C535.356 228.293 535.609 228.132 535.854 227.975C537.548 227.856 539.433 227.73 540.989 227.255C541.882 226.98 542.675 226.196 542.282 225.206Z" fill="#50AA75"/>
<path d="M190.854 420.191C190.491 419.844 190.014 419.61 189.503 419.619C189.181 419.624 188.963 419.73 188.762 419.877C188.567 419.923 188.387 420.044 188.261 420.214C187.042 421.858 188.552 423.653 190.063 424.352C190.63 424.614 191.186 424.295 191.244 423.681C191.361 422.44 191.906 421.199 190.854 420.191Z" fill="#50AA75"/>
<path d="M225.241 349.473C224.889 348.672 224.486 347.096 223.596 346.575C223.516 346.377 223.366 346.205 223.124 346.122C220.524 345.23 218.753 347.435 217.258 349.167C216.756 349.748 217.087 350.629 217.883 350.665C220.068 350.762 222.255 350.803 224.44 350.857C225.21 350.875 225.507 350.078 225.241 349.473Z" fill="#50AA75"/>
<path d="M325.238 411.624C325.942 412.89 327.613 413.597 329.009 413.086C330.279 412.62 330.796 411.129 329.807 410.095C329.481 409.757 329.159 409.42 328.836 409.081C328.183 408.4 326.93 408.382 326.282 409.081C325.605 409.811 325.587 410.884 326.282 411.609C326.606 411.948 326.93 412.287 327.253 412.626C327.519 411.629 327.785 410.633 328.05 409.635C327.909 409.688 327.594 409.717 328.068 409.668C327.719 409.704 328.408 409.773 328.078 409.663C328.149 409.693 328.218 409.722 328.288 409.75C328.122 409.652 328.147 409.676 328.359 409.831C328.104 409.607 328.535 410.138 328.355 409.819C327.9 408.999 326.692 408.664 325.886 409.178C325.048 409.714 324.749 410.748 325.238 411.624Z" fill="#2A6B52"/>
<path d="M516.529 251.227C517.226 253.858 521.531 253.851 522.072 251.121C522.358 249.684 521.438 248.364 520.037 247.974C518.833 247.637 517.355 248.063 516.773 249.23C516.356 250.069 516.517 251.205 517.421 251.678C518.235 252.104 519.444 251.931 519.89 251.035C520.032 250.754 519.59 251.336 519.803 251.129C519.7 251.247 519.573 251.328 519.426 251.373C519.256 251.435 519.234 251.445 519.362 251.405C519.652 251.313 518.886 251.443 519.216 251.433C519.51 251.423 518.823 251.369 519.035 251.412C519.398 251.489 518.772 251.282 518.924 251.359C519.18 251.486 518.865 251.313 518.797 251.249C518.884 251.346 518.873 251.327 518.76 251.192C518.651 251.08 518.582 250.947 518.552 250.792C518.585 250.92 518.585 250.896 518.552 250.713C518.516 250.56 518.522 250.408 518.577 250.253C518.57 250.279 518.564 250.305 518.555 250.333C518.608 250.129 518.712 249.957 518.864 249.812C518.672 250.011 519.193 249.592 519.018 249.705C518.777 249.861 519.115 249.671 519.188 249.641C518.901 249.756 519.176 249.649 519.338 249.635C519.175 249.649 518.925 249.567 519.485 249.676C519.305 249.641 519.173 249.52 519.607 249.751C519.351 249.615 519.936 250.06 519.725 249.843C519.789 249.921 519.852 250 519.916 250.078C520.03 250.389 520.061 250.455 520.011 250.276C519.769 249.371 518.711 248.732 517.789 249.028C516.85 249.329 516.272 250.257 516.529 251.227Z" fill="#2A6B52"/>
<path d="M123.964 418.678C123.953 418.541 123.891 418.431 123.806 418.352C123.811 418.227 123.814 418.107 123.817 418.002C123.83 417.308 123.221 416.75 122.539 416.736C119.443 416.679 116.18 418.3 114.885 421.198C114.303 422.499 114.28 424.092 115.289 425.199C115.788 425.741 116.454 426.063 117.108 426.072C117.207 426.136 117.311 426.2 117.418 426.254C117.769 426.432 118.292 426.598 118.814 426.656C118.938 426.708 119.059 426.757 119.176 426.795C119.217 426.821 119.26 426.849 119.301 426.876C121.15 428.101 122.314 427.03 123.023 425.276C123.082 425.184 123.132 425.079 123.16 424.954C123.165 424.931 123.168 424.904 123.173 424.881C123.488 423.975 123.696 422.935 123.824 421.945C123.893 421.728 123.919 421.506 123.9 421.284C124.005 420.195 124.014 419.234 123.964 418.678Z" fill="#2A6B52"/>
<path d="M533.487 272.125C533.183 271.527 532.554 271.355 531.933 271.536C531.893 271.548 531.852 271.569 531.811 271.582C530.805 271.418 529.855 272.464 530.126 273.404C530.101 274.209 530.527 274.923 531.333 275.219C532.147 275.517 533.033 275.127 533.466 274.405C533.887 273.702 533.849 272.842 533.487 272.125Z" fill="#2A6B52"/>
<path d="M568.606 226.727C568.568 226.462 568.287 226.24 568.046 226.173C566.654 225.781 565.093 226.562 564.666 227.955C564.212 229.438 565.282 231.038 566.769 231.363C567.317 231.483 567.783 231.171 567.906 230.665C567.991 230.607 568.068 230.536 568.107 230.446C568.639 229.237 568.787 228.034 568.606 226.727Z" fill="#2A6B52"/>
<path d="M144.46 387.613C143.88 387.277 143.226 387.336 142.716 387.756C142.636 387.82 142.58 387.905 142.539 387.999C141.84 388.147 141.637 389.089 142.28 389.495C142.986 389.941 143.855 390.054 144.658 389.827C145.02 389.727 145.306 389.377 145.297 388.997C145.284 388.41 144.97 387.909 144.46 387.613Z" fill="#2A6B52"/>
<path d="M498.722 242.644C498.347 242.294 497.862 242.372 497.563 242.692C497.194 242.48 496.656 242.564 496.537 243.079C496.347 243.915 497.013 244.759 497.91 244.622C498.769 244.491 499.452 243.327 498.722 242.644Z" fill="#50AA75"/>
<path d="M139.439 400.03C139.315 399.946 139.189 399.872 139.061 399.805C139.038 399.747 139.021 399.686 138.989 399.634C139.041 399.448 138.91 399.27 138.738 399.198C138.654 399.163 138.585 399.148 138.515 399.139C138.309 399.027 138.041 399.063 137.835 399.182C137.424 399.224 137.019 399.339 136.626 399.466C136.046 399.65 135.671 400.242 135.838 400.84C135.997 401.411 136.641 401.8 137.225 401.621C137.5 401.538 137.766 401.513 138.041 401.541C138.392 401.727 138.801 401.792 139.218 401.712C139.569 401.644 139.842 401.281 139.882 400.947C139.927 400.561 139.754 400.25 139.439 400.03Z" fill="#50AA75"/>
<path d="M198.421 399.75C198.299 398.797 197.718 398.016 196.784 397.715C196.053 397.481 195.486 398.318 195.684 398.91C195.171 399.21 194.811 399.754 194.852 400.38C194.921 401.475 196.11 402.266 197.167 402.018C198.144 401.789 198.532 400.643 198.421 399.75Z" fill="#50AA75"/>
<path d="M231.587 406.615C230.796 406.362 230.122 406.423 229.498 407.019C229.037 407.463 229.309 408.147 229.782 408.377C229.656 408.53 229.595 408.724 229.676 408.931C229.982 409.709 230.552 410.092 231.379 410.189C231.792 410.235 232.139 409.805 232.142 409.433C232.15 408.744 232.157 408.055 232.163 407.365C232.168 407.013 231.916 406.718 231.587 406.615Z" fill="#50AA75"/>
<path d="M314.943 415.463C315.257 415.282 315.553 415.065 315.82 414.815C317.468 413.273 317.746 410.914 317.959 408.8C318.017 408.224 317.382 407.608 316.808 407.659C314.337 407.882 312.107 409.082 310.683 411.126C309.613 412.666 308.65 415.586 311.185 416.252C311.534 416.344 311.819 416.236 312.018 416.042C312.776 416.167 313.559 416.058 314.282 415.776C314.728 416.626 315.263 417.415 315.924 418.002C316.173 418.222 316.551 417.946 316.39 417.645C315.977 416.885 315.386 416.216 314.943 415.463Z" fill="#50AA75"/>
<path d="M246.008 348.627C245.773 347.74 245.08 347.365 244.366 347.365C243.747 346.867 243.003 346.502 242.244 346.196C242.039 346.112 241.811 346.099 241.583 346.128C241.043 345.859 240.377 345.819 239.88 346.174C236.935 348.292 237.34 352.675 240.565 354.349C241.935 355.059 244.146 355.526 245.545 354.63C247.385 353.45 246.449 350.306 246.008 348.627Z" fill="#50AA75"/>
<path d="M160.757 410.071C160.5 410.254 160.348 410.441 160.181 410.674C160.039 410.873 159.796 411.092 159.619 411.286C159.213 411.735 159.837 412.356 160.29 411.949C160.485 411.773 160.702 411.529 160.901 411.389C161.135 411.222 161.322 411.077 161.509 410.816C161.823 410.38 161.197 409.755 160.757 410.071Z" fill="#50AA75"/>
<path d="M164.895 420.125C164.675 419.851 164.355 419.787 164.016 419.808C163.679 419.831 163.39 420.201 163.605 420.52C163.778 420.778 163.971 420.998 164.297 421.057C164.553 421.102 164.855 421.032 164.992 420.791C165.118 420.569 165.043 420.313 164.895 420.125Z" fill="#50AA75"/>
<path d="M144.876 388.701C144.475 388.629 144.097 388.622 143.692 388.629C143.125 388.634 143.124 389.493 143.692 389.5C144.098 389.505 144.475 389.5 144.876 389.427C145.239 389.363 145.241 388.765 144.876 388.701Z" fill="#50AA75"/>
<path d="M240.646 390.682C240.511 390.648 240.374 390.623 240.237 390.597C240.156 390.061 239.741 389.684 239.168 389.536C238.351 389.328 237.733 389.661 237.271 390.307C237.026 390.649 237.173 391.105 237.474 391.37C237.477 391.552 237.54 391.743 237.7 391.917C237.799 392.026 237.91 392.104 238.022 392.17C237.984 392.289 238.012 392.42 238.162 392.484C238.712 392.724 239.195 392.862 239.774 392.624C240.029 392.519 240.247 392.374 240.458 392.198C240.61 392.071 240.865 391.886 241.023 391.601C241.218 391.254 241.048 390.787 240.646 390.682Z" fill="#50AA75"/>
<defs>
<filter id="filter0_d_2_2242" x="315.931" y="336.021" width="119.935" height="16.2769" filterUnits="userSpaceOnUse" color-interpolation-filters="sRGB">
<feFlood flood-opacity="0" result="BackgroundImageFix"/>
<feColorMatrix in="SourceAlpha" type="matrix" values="0 0 0 0 0 0 0 0 0 0 0 0 0 0 0 0 0 0 127 0" result="hardAlpha"/>
<feOffset dy="1"/>
<feGaussianBlur stdDeviation="0.5"/>
<feComposite in2="hardAlpha" operator="out"/>
<feColorMatrix type="matrix" values="0 0 0 0 0 0 0 0 0 0 0 0 0 0 0 0 0 0 0.05 0"/>
<feBlend mode="normal" in2="BackgroundImageFix" result="effect1_dropShadow_2_2242"/>
<feBlend mode="normal" in="SourceGraphic" in2="effect1_dropShadow_2_2242" result="shape"/>
</filter>
</defs>
</svg>
