<svg width="375" height="239" viewBox="0 0 375 239" fill="none" xmlns="http://www.w3.org/2000/svg">
<g clip-path="url(#clip0_2_8972)">
<path d="M187.5 239.359C284.978 239.359 364 236.145 364 232.18C364 228.214 284.978 225 187.5 225C90.0217 225 11 228.214 11 232.18C11 236.145 90.0217 239.359 187.5 239.359Z" fill="#E0E0E0" fill-opacity="0.4"/>
<path d="M305.446 208.181C305.446 208.181 318.21 220.325 327.888 213.398C338.249 205.98 330.971 189.422 315.141 174.503C296.136 156.592 316.566 129.123 345.109 156.023C372.707 182.033 364.564 214.531 337.974 227.461C309.959 241.083 291.666 212.244 291.666 212.244L305.446 208.181Z" fill="#454343"/>
<path d="M214.207 224.727H177.76C178.51 215.494 189.066 215.462 189.066 215.462C189.066 215.462 181.136 205.778 181.607 191.987C181.629 191.247 181.682 190.496 181.757 189.735C182.861 178.678 191.874 174.003 198.646 172.308C202.697 171.279 205.944 171.322 206.223 171.697L210.542 200.416L214.207 224.727Z" fill="#454343"/>
<path d="M313.24 190.261C313.261 193.413 312.854 196.877 312.007 200.845C311.9 201.36 311.782 201.896 311.654 202.432C310.957 205.414 309.993 207.902 308.803 209.971C307.539 212.202 306.017 213.95 304.324 215.365C299.362 219.451 292.857 220.513 286.524 221.35C286.513 221.35 286.513 221.36 286.502 221.36C285.613 221.478 284.734 221.585 283.855 221.703C283.362 221.768 282.869 221.843 282.387 221.907C280.693 222.143 279.054 222.422 277.479 222.776C271.284 224.181 266.687 224.727 266.687 224.727H197.414C197.414 224.727 197.168 218.904 197.168 209.864C197.168 200.019 197.446 186.368 198.647 172.309C200.115 155.011 203.334 123.14 208.735 110.947C238.323 108.427 248.092 107.159 256.183 107.598C256.183 107.598 282.183 140.855 294.893 156.083C302.759 165.499 308.203 172.03 311.011 178.893C312.468 182.443 313.218 186.089 313.24 190.261Z" fill="#454343"/>
<path d="M277.477 222.775C271.283 224.18 266.685 224.727 266.685 224.727H213.22C195.988 156.995 257.424 166.932 275.524 195.522C282.533 206.6 282.492 212.277 277.477 222.775Z" fill="#B4A599"/>
<path d="M304.323 215.365C305.492 218.207 305.642 220.652 305.502 222.336C305.395 223.687 304.238 224.727 302.877 224.727H265.004C264.929 223.119 265.165 221.746 265.626 220.599C268.176 214.046 277.747 214.229 277.747 214.229C277.736 214.229 277.725 214.218 277.715 214.218C277.296 214.046 273.524 212.438 270.202 208.728V208.717C267.459 205.682 265.026 201.221 265.016 195.001C264.984 180.17 273.267 172.909 282.987 171.848C287.553 171.355 291.368 171.601 294.551 172.427C313.797 177.435 309.468 203.655 303.863 214.347C304.034 214.69 304.184 215.033 304.323 215.365Z" fill="#454343"/>
<path d="M260.728 169.199C260.728 169.199 256.431 226.057 254.845 227.173C254.062 227.72 250.643 228.256 247.15 228.277C243.603 228.331 239.981 227.849 238.941 226.379C235.64 221.703 242.778 217.371 242.778 217.371L242.296 207.837L241.931 200.62L241.663 195.494L241.267 187.623L241.02 182.636L240.645 175.408L240.302 168.598C243.571 162.818 248.533 165.295 252.198 165.628C256.891 166.046 260.728 169.199 260.728 169.199Z" fill="#454343"/>
<path d="M234.762 227.13C234.011 227.656 231.064 228.009 227.967 228.052C224.506 228.106 220.851 227.784 219.887 226.905C215.654 223.033 222.748 217.371 222.748 217.371L220.808 208.234L219.286 201.017L218.14 195.612L216.597 188.309H216.586L215.493 183.14L213.896 175.579L213.221 172.405C216.457 166.668 220.594 165.317 224.238 165.617C228.974 166.003 232.875 169.199 232.875 169.199C232.875 169.199 236.348 226.015 234.762 227.13Z" fill="#454343"/>
<path d="M244.345 46.9934C244.345 46.9934 254.745 31.8401 267.619 25.16C269.803 24.0266 272.303 25.33 272.728 27.7538C273.954 34.7422 275.168 49.1995 268.615 64.7137C268.615 64.7137 254.816 49.8913 244.345 46.9934Z" fill="#454343"/>
<path d="M250.675 51.8198C250.675 51.8198 256.032 40.772 266.273 36.0059C266.273 36.0059 268.186 49.675 261.673 61.8292L250.675 51.8198Z" fill="#EBC0CD"/>
<path d="M219.495 46.9934C219.495 46.9934 209.096 31.8401 196.222 25.16C194.038 24.0266 191.538 25.33 191.113 27.7538C189.886 34.7422 188.673 49.1995 195.226 64.7137C195.226 64.7137 209.025 49.8913 219.495 46.9934Z" fill="#454343"/>
<path d="M213.165 51.8198C213.165 51.8198 207.808 40.772 197.568 36.0059C197.568 36.0059 195.655 49.675 202.167 61.8292L213.165 51.8198Z" fill="#EBC0CD"/>
<path d="M228.183 41.029C204.046 42.3565 187.653 54.7877 179.66 93.465C179.434 94.5615 179.646 95.7134 180.341 96.5915C184.23 101.508 199.434 117.652 230.752 116.641C261.555 115.647 277.93 100.712 282.507 95.7958C283.402 94.8353 283.685 93.5286 283.315 92.2695C280.42 82.4097 265.519 38.9753 228.183 41.029Z" fill="#454343"/>
<path d="M231.886 110.595C243.726 110.595 253.325 104.193 253.325 96.2958C253.325 88.3988 243.726 81.9971 231.886 81.9971C220.046 81.9971 210.448 88.3988 210.448 96.2958C210.448 104.193 220.046 110.595 231.886 110.595Z" fill="#B4A599"/>
<path d="M153.603 176.187C151.058 156.029 186.05 111.605 197.337 105.732C204.697 101.904 214.956 97.6981 223.239 95.395C230.379 100.932 223.239 95.395 231.61 101.177C245.005 97.7315 240.257 95.1453 245.005 97.7315C254.314 102.802 265.527 112.194 270.55 123.637C270.55 123.637 242.455 116.401 238.544 116.401C234.632 116.401 207.211 124.222 202.244 127.343C185.574 137.819 160.965 177.776 160.965 177.776C160.965 177.776 153.763 177.448 153.603 176.187Z" fill="#50AA75"/>
<path d="M198.188 115.179C195.576 116.37 164.538 145.855 157.433 177.465C159.222 177.695 160.965 177.775 160.965 177.775C160.965 177.775 185.574 137.819 202.244 127.342C207.21 124.221 234.632 116.401 238.543 116.401C242.455 116.401 270.549 123.637 270.549 123.637C270.549 123.637 243.168 103.264 237.709 103.502C232.25 103.74 200.8 113.987 198.188 115.179Z" fill="#2A6B52"/>
<path d="M150.995 183.387C150.995 183.387 143.374 128.899 150.995 80.159C157.43 39.0014 178.815 1 178.815 1C178.815 1 187.829 56.9175 180.036 97.655C173.139 133.712 155.44 183.387 155.44 183.387H150.995Z" fill="#50AA75"/>
<path d="M155.441 183.387C155.441 183.387 173.139 133.712 180.036 97.6552C187.828 56.9174 178.815 1.00024 178.815 1.00024C178.815 1.00024 156.594 144.65 153.29 183.387H155.441Z" fill="#2A6B52"/>
<path d="M137.294 182.208C137.294 182.208 125.012 148.846 118.583 97.6577C112.891 52.3479 118.583 15.3015 118.583 15.3015C118.583 15.3015 163.378 96.5595 150.995 183.39L137.294 182.208Z" fill="#50AA75"/>
<path d="M150.777 183.365C163.16 96.5345 118.364 15.2761 118.364 15.2761C118.364 15.2761 141.635 148.975 143.651 182.75L150.777 183.365Z" fill="#2A6B52"/>
<path d="M125.357 226.733C125.357 226.733 64.689 196.343 25 203.749C25 203.749 77.831 234.894 121.768 234.235L125.357 226.733Z" fill="#50AA75"/>
<path d="M125.356 226.732C125.356 226.732 64.6883 196.342 25 203.749C25 203.749 96.0454 224.522 122.736 232.206L125.356 226.732Z" fill="#2A6B52"/>
<path d="M232.613 83.8164L220.664 88.7852C220.996 89.8041 221.928 91.3481 223.386 92.3991C224.543 93.2356 226.022 93.7504 227.769 93.45C227.962 93.418 228.165 93.375 228.379 93.3106C231.747 92.3756 232.48 89.2232 232.613 87.3695C232.745 89.2232 233.478 92.3756 236.846 93.3106C237.06 93.375 237.264 93.418 237.456 93.45C239.203 93.7504 240.682 93.2356 241.839 92.3991C243.297 91.3481 244.229 89.8038 244.562 88.7852L232.613 83.8164Z" fill="#B4A599"/>
<path d="M227.769 93.4501L225.229 96.8603L223.386 92.3992C224.543 93.2357 226.022 93.7505 227.769 93.4501Z" fill="#D7E4F7"/>
<path d="M237.457 93.4501L239.997 96.8603L241.84 92.3992C240.682 93.2357 239.203 93.7505 237.457 93.4501Z" fill="#D7E4F7"/>
<path d="M226.784 93.9282C225.501 93.9282 224.264 93.5179 223.156 92.7176C221.59 91.5882 220.634 89.9591 220.291 88.9075C220.224 88.7017 220.336 88.4798 220.542 88.413C220.749 88.3437 220.969 88.4581 221.037 88.6643C221.367 89.6783 222.293 91.1281 223.615 92.0816C224.866 92.9857 226.242 93.3153 227.703 93.0639C227.887 93.0334 228.077 92.9843 228.282 92.9317C231.669 92.0596 232.165 88.2619 232.223 86.6883C232.205 86.2425 232.221 85.9638 232.222 85.9506C232.236 85.7448 232.406 85.5841 232.613 85.5837H232.613C232.82 85.5837 232.991 85.7437 233.004 85.9496C233.006 85.9631 233.022 86.2418 233.006 86.6876C233.068 88.2587 233.573 92.0486 236.946 92.932C237.15 92.9854 237.34 93.0333 237.522 93.0636C238.988 93.3167 240.362 92.985 241.611 92.0816C242.933 91.1281 243.859 89.6783 244.19 88.6643C244.256 88.4592 244.476 88.3444 244.684 88.413C244.89 88.4798 245.003 88.7017 244.935 88.9075C244.593 89.9591 243.636 91.5885 242.07 92.7176C240.664 93.7337 239.045 94.1212 237.392 93.8372C237.189 93.8034 236.976 93.7508 236.748 93.6907C234.251 93.0369 233.124 91.051 232.618 89.2542C232.116 91.0545 230.988 93.0447 228.478 93.6911C228.25 93.7501 228.038 93.8038 227.834 93.8375C227.482 93.8983 227.131 93.9282 226.784 93.9282Z" fill="#2D3136"/>
<path d="M232.64 87.0721C232.64 87.0721 228.045 83.9641 227.674 82.2125C227.26 80.2589 228.69 79.3029 232.92 79.2873C237.248 79.2713 238.166 80.6144 238.166 81.7468C238.166 83.7953 232.64 87.0721 232.64 87.0721Z" fill="#2D3136"/>
<path d="M166.034 232.011C165.937 232.523 165.489 232.894 164.968 232.894H127.937C127.403 232.894 126.948 232.504 126.865 231.976L119.963 187.672H174.426L166.034 232.011Z" fill="#EF9D6B"/>
<g filter="url(#filter0_d_2_8972)">
<path d="M177.876 183.189H116.054C115.455 183.189 114.969 183.675 114.969 184.274V189.844C114.969 190.444 115.455 190.93 116.054 190.93H177.876C178.476 190.93 178.962 190.444 178.962 189.844V184.274C178.962 183.675 178.476 183.189 177.876 183.189Z" fill="#EF9D6B"/>
</g>
<path d="M175.698 183.189C174.006 179.115 168.692 176.866 162.387 176.866C160.745 176.866 159.178 176.908 157.717 177.225C154.398 176.294 150.064 175.654 145.306 175.654C140.933 175.654 136.918 176.102 133.719 176.901C132.643 176.723 131.516 176.882 130.345 176.882C124.248 176.882 119.159 179.115 117.858 183.189H175.698Z" fill="#372626"/>
<path d="M169.282 180.125C169.282 180.301 168.832 180.444 168.277 180.444C167.722 180.444 167.273 180.301 167.273 180.125C167.273 179.949 167.722 179.806 168.277 179.806C168.832 179.806 169.282 179.949 169.282 180.125Z" fill="#593639"/>
<path d="M167.991 182.072C167.991 182.248 167.541 182.391 166.987 182.391C166.432 182.391 165.982 182.248 165.982 182.072C165.982 181.897 166.432 181.754 166.987 181.754C167.541 181.754 167.991 181.896 167.991 182.072Z" fill="#593639"/>
<path d="M125.586 179.556C125.586 179.733 125.136 179.875 124.581 179.875C124.026 179.875 123.577 179.733 123.577 179.556C123.577 179.38 124.026 179.238 124.581 179.238C125.136 179.238 125.586 179.38 125.586 179.556Z" fill="#593639"/>
<path d="M170.467 181.754C170.467 181.93 170.017 182.073 169.462 182.073C168.907 182.073 168.458 181.93 168.458 181.754C168.458 181.578 168.907 181.436 169.462 181.436C170.017 181.436 170.467 181.578 170.467 181.754Z" fill="#593639"/>
<path d="M167.833 180.871C167.833 180.952 167.661 181.018 167.447 181.018C167.233 181.018 167.06 180.952 167.06 180.871C167.06 180.791 167.233 180.726 167.447 180.726C167.66 180.726 167.833 180.791 167.833 180.871Z" fill="#593639"/>
<path d="M168.042 179.056C168.042 179.136 167.869 179.202 167.655 179.202C167.441 179.202 167.269 179.136 167.269 179.056C167.269 178.975 167.441 178.91 167.655 178.91C167.869 178.911 168.042 178.976 168.042 179.056Z" fill="#593639"/>
<path d="M131.334 179.7C131.334 179.781 131.16 179.846 130.947 179.846C130.734 179.846 130.56 179.781 130.56 179.7C130.56 179.619 130.734 179.554 130.947 179.554C131.16 179.554 131.334 179.619 131.334 179.7Z" fill="#593639"/>
<path d="M124.968 182.429C124.968 182.51 124.795 182.576 124.581 182.576C124.368 182.576 124.195 182.51 124.195 182.429C124.195 182.349 124.368 182.284 124.581 182.284C124.795 182.284 124.968 182.349 124.968 182.429Z" fill="#593639"/>
<path d="M126.737 181.406C126.737 181.486 126.564 181.551 126.351 181.551C126.137 181.551 125.964 181.486 125.964 181.406C125.964 181.325 126.137 181.26 126.351 181.26C126.564 181.26 126.737 181.325 126.737 181.406Z" fill="#593639"/>
<path d="M170.853 180.725C170.853 180.911 170.68 181.063 170.466 181.063C170.253 181.063 170.08 180.911 170.08 180.725C170.08 180.539 170.253 180.387 170.466 180.387C170.68 180.387 170.853 180.539 170.853 180.725Z" fill="#593639"/>
<path d="M166.64 179.807C166.64 179.993 166.467 180.145 166.253 180.145C166.04 180.145 165.866 179.993 165.866 179.807C165.866 179.621 166.04 179.469 166.253 179.469C166.467 179.469 166.64 179.62 166.64 179.807Z" fill="#593639"/>
<path d="M166.427 180.726C166.427 180.81 166.349 180.878 166.254 180.878C166.158 180.878 166.08 180.81 166.08 180.726C166.08 180.643 166.158 180.575 166.254 180.575C166.349 180.575 166.427 180.643 166.427 180.726Z" fill="#593639"/>
<path d="M162.89 178.04C162.89 178.124 162.813 178.192 162.717 178.192C162.622 178.192 162.544 178.124 162.544 178.04C162.544 177.957 162.622 177.889 162.717 177.889C162.813 177.889 162.89 177.957 162.89 178.04Z" fill="#593639"/>
<path d="M157.582 180.444C157.582 180.622 157.504 180.769 157.409 180.769C157.313 180.769 157.236 180.622 157.236 180.444C157.236 180.263 157.313 180.117 157.409 180.117C157.504 180.117 157.582 180.263 157.582 180.444Z" fill="#593639"/>
<path d="M125.314 180.482C125.314 180.566 125.237 180.634 125.141 180.634C125.045 180.634 124.967 180.566 124.967 180.482C124.967 180.398 125.045 180.331 125.141 180.331C125.237 180.331 125.314 180.399 125.314 180.482Z" fill="#593639"/>
<path d="M120.826 182.279C120.826 182.362 120.749 182.43 120.653 182.43C120.557 182.43 120.48 182.362 120.48 182.279C120.48 182.195 120.557 182.127 120.653 182.127C120.749 182.127 120.826 182.195 120.826 182.279Z" fill="#593639"/>
<path d="M127.12 179.239C127.12 179.322 127.042 179.39 126.947 179.39C126.851 179.39 126.773 179.322 126.773 179.239C126.773 179.155 126.851 179.087 126.947 179.087C127.042 179.087 127.12 179.155 127.12 179.239Z" fill="#593639"/>
<path d="M166.427 181.354C166.427 181.438 166.349 181.506 166.254 181.506C166.158 181.506 166.08 181.438 166.08 181.354C166.08 181.271 166.158 181.203 166.254 181.203C166.349 181.202 166.427 181.271 166.427 181.354Z" fill="#593639"/>
<path d="M171.992 182.655C171.992 182.739 171.914 182.807 171.818 182.807C171.723 182.807 171.645 182.739 171.645 182.655C171.645 182.572 171.723 182.504 171.818 182.504C171.914 182.504 171.992 182.572 171.992 182.655Z" fill="#593639"/>
<path d="M168.94 182.655C168.94 182.739 168.862 182.807 168.767 182.807C168.671 182.807 168.594 182.739 168.594 182.655C168.594 182.572 168.671 182.504 168.767 182.504C168.862 182.504 168.94 182.572 168.94 182.655Z" fill="#593639"/>
<path d="M127.793 182.429C127.793 182.513 127.715 182.581 127.619 182.581C127.524 182.581 127.446 182.513 127.446 182.429C127.446 182.346 127.524 182.278 127.619 182.278C127.715 182.278 127.793 182.346 127.793 182.429Z" fill="#593639"/>
<path d="M169.456 180.865C169.456 180.948 169.378 181.017 169.282 181.017C169.186 181.017 169.109 180.948 169.109 180.865C169.109 180.781 169.186 180.713 169.282 180.713C169.378 180.713 169.456 180.781 169.456 180.865Z" fill="#593639"/>
<path d="M170.081 179.688C170.081 179.771 170.003 179.839 169.907 179.839C169.812 179.839 169.734 179.771 169.734 179.688C169.734 179.604 169.812 179.536 169.907 179.536C170.003 179.536 170.081 179.604 170.081 179.688Z" fill="#593639"/>
<path d="M172.379 180.574C172.379 180.657 172.301 180.725 172.205 180.725C172.11 180.725 172.032 180.657 172.032 180.574C172.032 180.489 172.11 180.422 172.205 180.422C172.301 180.422 172.379 180.49 172.379 180.574Z" fill="#593639"/>
<path d="M167.859 181.505C167.859 181.588 167.919 181.656 167.992 181.656C168.065 181.656 168.125 181.588 168.125 181.505C168.125 181.421 168.066 181.353 167.992 181.353C167.919 181.353 167.859 181.421 167.859 181.505Z" fill="#593639"/>
<path d="M124.349 181.465C124.349 181.651 124.176 181.803 123.963 181.803C123.749 181.803 123.577 181.651 123.577 181.465C123.577 181.279 123.749 181.128 123.963 181.128C124.177 181.128 124.349 181.279 124.349 181.465Z" fill="#593639"/>
<path d="M124.968 181.391C124.968 181.577 124.795 181.729 124.581 181.729C124.368 181.729 124.195 181.577 124.195 181.391C124.195 181.205 124.368 181.053 124.581 181.053C124.795 181.053 124.968 181.205 124.968 181.391Z" fill="#593639"/>
<path d="M132.592 177.908C132.592 178.094 132.42 178.246 132.207 178.246C131.993 178.246 131.819 178.094 131.819 177.908C131.819 177.721 131.993 177.57 132.207 177.57C132.42 177.57 132.592 177.721 132.592 177.908Z" fill="#593639"/>
<path d="M128.393 181.247C128.393 181.433 128.22 181.584 128.006 181.584C127.793 181.584 127.619 181.433 127.619 181.247C127.619 181.061 127.793 180.909 128.006 180.909C128.22 180.909 128.393 181.061 128.393 181.247Z" fill="#593639"/>
<path d="M129.735 182.126C129.735 182.313 129.562 182.464 129.349 182.464C129.135 182.464 128.962 182.313 128.962 182.126C128.962 181.941 129.135 181.789 129.349 181.789C129.562 181.789 129.735 181.941 129.735 182.126Z" fill="#593639"/>
<path d="M172.032 181.354C172.032 181.54 171.859 181.691 171.645 181.691C171.431 181.691 171.258 181.54 171.258 181.354C171.258 181.167 171.431 181.016 171.645 181.016C171.859 181.016 172.032 181.167 172.032 181.354Z" fill="#593639"/>
<path d="M126.604 182.319C126.604 182.505 126.431 182.657 126.217 182.657C126.004 182.657 125.831 182.505 125.831 182.319C125.831 182.133 126.004 181.982 126.217 181.982C126.431 181.982 126.604 182.133 126.604 182.319Z" fill="#593639"/>
<path d="M151.321 178.692C151.321 178.955 150.65 179.168 149.823 179.168C148.995 179.168 148.324 178.954 148.324 178.692C148.324 178.43 148.995 178.217 149.823 178.217C150.65 178.217 151.321 178.43 151.321 178.692Z" fill="#593639"/>
<path d="M131.138 178.61C131.138 178.872 130.467 179.085 129.639 179.085C128.811 179.085 128.14 178.872 128.14 178.61C128.14 178.347 128.811 178.135 129.639 178.135C130.467 178.134 131.138 178.347 131.138 178.61Z" fill="#593639"/>
<path d="M124.746 180.022C124.746 180.285 124.075 180.498 123.247 180.498C122.419 180.498 121.748 180.284 121.748 180.022C121.748 179.76 122.419 179.547 123.247 179.547C124.075 179.547 124.746 179.76 124.746 180.022Z" fill="#593639"/>
<path d="M149.396 181.601C149.396 181.863 148.725 182.076 147.897 182.076C147.069 182.076 146.398 181.863 146.398 181.601C146.398 181.338 147.069 181.125 147.897 181.125C148.725 181.125 149.396 181.338 149.396 181.601Z" fill="#593639"/>
<path d="M140.551 180.65C140.551 180.913 139.88 181.125 139.052 181.125C138.224 181.125 137.553 180.912 137.553 180.65C137.553 180.387 138.224 180.175 139.052 180.175C139.88 180.174 140.551 180.387 140.551 180.65Z" fill="#593639"/>
<path d="M141.904 177.791C141.904 178.054 141.232 178.266 140.405 178.266C139.577 178.266 138.906 178.054 138.906 177.791C138.906 177.528 139.577 177.316 140.405 177.316C141.232 177.316 141.904 177.528 141.904 177.791Z" fill="#593639"/>
<path d="M153.09 181.126C153.09 181.389 152.419 181.601 151.59 181.601C150.763 181.601 150.091 181.388 150.091 181.126C150.091 180.864 150.763 180.65 151.59 180.65C152.419 180.65 153.09 180.864 153.09 181.126Z" fill="#593639"/>
<path d="M161.61 179.084C161.61 179.347 160.939 179.559 160.11 179.559C159.283 179.559 158.611 179.347 158.611 179.084C158.611 178.822 159.283 178.609 160.11 178.609C160.939 178.609 161.61 178.822 161.61 179.084Z" fill="#593639"/>
<path d="M149.16 179.805C149.16 179.925 148.902 180.022 148.584 180.022C148.265 180.022 148.006 179.925 148.006 179.805C148.006 179.685 148.265 179.588 148.584 179.588C148.902 179.588 149.16 179.685 149.16 179.805Z" fill="#593639"/>
<path d="M149.471 177.099C149.471 177.217 149.214 177.315 148.895 177.315C148.576 177.315 148.318 177.217 148.318 177.099C148.318 176.978 148.576 176.881 148.895 176.881C149.214 176.881 149.471 176.978 149.471 177.099Z" fill="#593639"/>
<path d="M144.361 177.315C144.361 177.435 144.103 177.532 143.785 177.532C143.466 177.532 143.208 177.435 143.208 177.315C143.208 177.195 143.466 177.098 143.785 177.098C144.103 177.098 144.361 177.195 144.361 177.315Z" fill="#593639"/>
<path d="M139.482 179.301C139.482 179.421 139.224 179.518 138.906 179.518C138.587 179.518 138.328 179.421 138.328 179.301C138.328 179.181 138.586 179.084 138.906 179.084C139.224 179.084 139.482 179.181 139.482 179.301Z" fill="#593639"/>
<path d="M131.138 181.248C131.138 181.368 130.88 181.465 130.562 181.465C130.243 181.465 129.984 181.368 129.984 181.248C129.984 181.128 130.243 181.031 130.562 181.031C130.879 181.031 131.138 181.128 131.138 181.248Z" fill="#593639"/>
<path d="M136.391 181.126C136.391 181.246 136.133 181.343 135.814 181.343C135.495 181.343 135.237 181.246 135.237 181.126C135.237 181.007 135.495 180.909 135.814 180.909C136.133 180.909 136.391 181.006 136.391 181.126Z" fill="#593639"/>
<path d="M140.981 182.076C140.981 182.195 140.723 182.293 140.405 182.293C140.087 182.293 139.828 182.195 139.828 182.076C139.828 181.955 140.087 181.859 140.405 181.859C140.723 181.859 140.981 181.956 140.981 182.076Z" fill="#593639"/>
<path d="M145.37 181.031C145.37 181.15 145.111 181.248 144.793 181.248C144.474 181.248 144.216 181.15 144.216 181.031C144.216 180.911 144.474 180.814 144.793 180.814C145.111 180.814 145.37 180.911 145.37 181.031Z" fill="#593639"/>
<path d="M153.666 179.588C153.666 179.865 153.408 180.092 153.09 180.092C152.771 180.092 152.513 179.865 152.513 179.588C152.513 179.309 152.771 179.084 153.09 179.084C153.408 179.084 153.666 179.31 153.666 179.588Z" fill="#593639"/>
<path d="M164.723 179.815C164.723 180.093 164.465 180.319 164.147 180.319C163.829 180.319 163.57 180.093 163.57 179.815C163.57 179.537 163.829 179.311 164.147 179.311C164.465 179.312 164.723 179.537 164.723 179.815Z" fill="#593639"/>
<path d="M147.38 178.218C147.38 178.496 147.122 178.722 146.803 178.722C146.485 178.722 146.227 178.496 146.227 178.218C146.227 177.94 146.485 177.714 146.803 177.714C147.122 177.714 147.38 177.94 147.38 178.218Z" fill="#593639"/>
<path d="M147.062 179.589C147.062 179.713 146.946 179.814 146.804 179.814C146.661 179.814 146.545 179.713 146.545 179.589C146.545 179.464 146.661 179.363 146.804 179.363C146.946 179.363 147.062 179.464 147.062 179.589Z" fill="#593639"/>
<path d="M155.942 177.908C155.942 178.032 155.826 178.133 155.683 178.133C155.54 178.133 155.424 178.032 155.424 177.908C155.424 177.783 155.54 177.682 155.683 177.682C155.826 177.683 155.942 177.783 155.942 177.908Z" fill="#593639"/>
<path d="M164.147 181.405C164.147 181.529 164.031 181.631 163.889 181.631C163.745 181.631 163.63 181.529 163.63 181.405C163.63 181.28 163.745 181.179 163.889 181.179C164.032 181.179 164.147 181.28 164.147 181.405Z" fill="#593639"/>
<path d="M156.459 182.085C156.459 182.209 156.343 182.31 156.2 182.31C156.057 182.31 155.941 182.209 155.941 182.085C155.941 181.96 156.057 181.859 156.2 181.859C156.343 181.859 156.459 181.96 156.459 182.085Z" fill="#593639"/>
<path d="M164.664 178.36C164.664 178.484 164.548 178.586 164.406 178.586C164.263 178.586 164.147 178.484 164.147 178.36C164.147 178.236 164.263 178.135 164.406 178.135C164.548 178.135 164.664 178.236 164.664 178.36Z" fill="#593639"/>
<path d="M161.868 180.146C161.868 180.27 161.752 180.372 161.61 180.372C161.467 180.372 161.351 180.27 161.351 180.146C161.351 180.021 161.467 179.92 161.61 179.92C161.752 179.92 161.868 180.021 161.868 180.146Z" fill="#593639"/>
<path d="M159.792 182.278C159.792 182.402 159.676 182.503 159.533 182.503C159.39 182.503 159.275 182.402 159.275 182.278C159.275 182.153 159.39 182.052 159.533 182.052C159.676 182.052 159.792 182.153 159.792 182.278Z" fill="#593639"/>
<path d="M158.87 180.574C158.87 180.698 158.754 180.799 158.611 180.799C158.468 180.799 158.353 180.698 158.353 180.574C158.353 180.449 158.468 180.348 158.611 180.348C158.754 180.349 158.87 180.449 158.87 180.574Z" fill="#593639"/>
<path d="M160.688 177.815C160.688 177.939 160.572 178.04 160.429 178.04C160.286 178.04 160.171 177.939 160.171 177.815C160.171 177.69 160.286 177.589 160.429 177.589C160.572 177.589 160.688 177.69 160.688 177.815Z" fill="#593639"/>
<path d="M166.686 177.908C166.686 178.032 166.57 178.133 166.427 178.133C166.284 178.133 166.169 178.032 166.169 177.908C166.169 177.783 166.284 177.682 166.427 177.682C166.57 177.683 166.686 177.783 166.686 177.908Z" fill="#593639"/>
<path d="M164.922 182.301C164.922 182.425 164.807 182.527 164.664 182.527C164.521 182.527 164.405 182.425 164.405 182.301C164.405 182.177 164.521 182.075 164.664 182.075C164.807 182.075 164.922 182.177 164.922 182.301Z" fill="#593639"/>
<path d="M141.499 179.169C141.499 179.293 141.383 179.395 141.24 179.395C141.097 179.395 140.982 179.293 140.982 179.169C140.982 179.045 141.097 178.944 141.24 178.944C141.383 178.944 141.499 179.045 141.499 179.169Z" fill="#593639"/>
<path d="M135.815 177.098C135.815 177.223 135.699 177.324 135.556 177.324C135.413 177.324 135.297 177.223 135.297 177.098C135.297 176.974 135.413 176.873 135.556 176.873C135.699 176.873 135.815 176.974 135.815 177.098Z" fill="#593639"/>
<path d="M127.464 178.134C127.464 178.258 127.347 178.36 127.205 178.36C127.063 178.36 126.946 178.258 126.946 178.134C126.946 178.01 127.063 177.909 127.205 177.909C127.347 177.909 127.464 178.01 127.464 178.134Z" fill="#593639"/>
<path d="M120.48 180.977C120.48 181.101 120.364 181.203 120.221 181.203C120.079 181.203 119.963 181.101 119.963 180.977C119.963 180.852 120.079 180.751 120.221 180.751C120.364 180.751 120.48 180.852 120.48 180.977Z" fill="#593639"/>
<path d="M122.933 181.859C122.933 181.983 122.817 182.085 122.674 182.085C122.531 182.085 122.416 181.983 122.416 181.859C122.416 181.735 122.531 181.634 122.674 181.634C122.817 181.634 122.933 181.735 122.933 181.859Z" fill="#593639"/>
<path d="M125.719 178.36C125.719 178.484 125.602 178.586 125.46 178.586C125.317 178.586 125.201 178.484 125.201 178.36C125.201 178.236 125.317 178.135 125.46 178.135C125.602 178.135 125.719 178.236 125.719 178.36Z" fill="#593639"/>
<path d="M133.001 180.247C133.001 180.372 132.884 180.473 132.742 180.473C132.599 180.473 132.483 180.372 132.483 180.247C132.483 180.123 132.599 180.022 132.742 180.022C132.884 180.022 133.001 180.123 133.001 180.247Z" fill="#593639"/>
<path d="M132.206 182.066C132.206 182.19 132.09 182.291 131.947 182.291C131.804 182.291 131.689 182.19 131.689 182.066C131.689 181.941 131.804 181.84 131.947 181.84C132.09 181.84 132.206 181.941 132.206 182.066Z" fill="#593639"/>
<path d="M137.554 182.301C137.554 182.425 137.438 182.527 137.295 182.527C137.152 182.527 137.036 182.425 137.036 182.301C137.036 182.177 137.152 182.075 137.295 182.075C137.437 182.075 137.554 182.177 137.554 182.301Z" fill="#593639"/>
<path d="M154.184 178.134C154.184 178.258 154.067 178.36 153.925 178.36C153.782 178.36 153.666 178.258 153.666 178.134C153.666 178.01 153.782 177.909 153.925 177.909C154.067 177.909 154.184 178.01 154.184 178.134Z" fill="#593639"/>
<path d="M157.409 179.329C157.409 179.454 157.293 179.555 157.15 179.555C157.008 179.555 156.892 179.454 156.892 179.329C156.892 179.205 157.008 179.104 157.15 179.104C157.293 179.104 157.409 179.205 157.409 179.329Z" fill="#593639"/>
<path d="M157.667 182.31C157.81 182.31 157.926 182.209 157.926 182.085C157.926 181.96 157.81 181.859 157.667 181.859C157.524 181.859 157.408 181.96 157.408 182.085C157.408 182.209 157.524 182.31 157.667 182.31Z" fill="#593639"/>
<path d="M137.554 178.692C137.554 178.816 137.438 178.918 137.295 178.918C137.152 178.918 137.037 178.816 137.037 178.692C137.037 178.568 137.152 178.466 137.295 178.466C137.438 178.466 137.554 178.568 137.554 178.692Z" fill="#593639"/>
<path d="M136.908 180.022C136.908 180.146 136.792 180.247 136.65 180.247C136.507 180.247 136.391 180.146 136.391 180.022C136.391 179.897 136.507 179.796 136.65 179.796C136.792 179.796 136.908 179.897 136.908 180.022Z" fill="#593639"/>
<path d="M134.411 180.651C134.411 180.775 134.295 180.877 134.153 180.877C134.01 180.877 133.894 180.775 133.894 180.651C133.894 180.527 134.01 180.426 134.153 180.426C134.295 180.426 134.411 180.526 134.411 180.651Z" fill="#593639"/>
<path d="M146.032 176.656C146.032 176.779 145.917 176.881 145.774 176.881C145.631 176.881 145.515 176.779 145.515 176.656C145.515 176.531 145.631 176.43 145.774 176.43C145.916 176.43 146.032 176.531 146.032 176.656Z" fill="#593639"/>
<path d="M147.062 180.525C147.062 180.651 146.946 180.751 146.804 180.751C146.661 180.751 146.545 180.651 146.545 180.525C146.545 180.401 146.661 180.3 146.804 180.3C146.946 180.3 147.062 180.401 147.062 180.525Z" fill="#593639"/>
<path d="M145.197 182.075C145.197 182.2 145.081 182.301 144.939 182.301C144.796 182.301 144.68 182.2 144.68 182.075C144.68 181.951 144.796 181.85 144.939 181.85C145.081 181.85 145.197 181.951 145.197 182.075Z" fill="#593639"/>
<path d="M151.58 179.796C151.58 179.92 151.464 180.022 151.322 180.022C151.179 180.022 151.063 179.92 151.063 179.796C151.063 179.672 151.179 179.571 151.322 179.571C151.464 179.571 151.58 179.672 151.58 179.796Z" fill="#593639"/>
<path d="M154.183 181.599C154.183 181.724 154.067 181.825 153.925 181.825C153.782 181.825 153.666 181.724 153.666 181.599C153.666 181.475 153.782 181.374 153.925 181.374C154.067 181.374 154.183 181.475 154.183 181.599Z" fill="#593639"/>
<path d="M152.513 178.04C152.513 178.164 152.397 178.265 152.254 178.265C152.112 178.265 151.996 178.164 151.996 178.04C151.996 177.915 152.112 177.814 152.254 177.814C152.397 177.814 152.513 177.915 152.513 178.04Z" fill="#593639"/>
<path d="M149.198 180.752C149.198 180.877 149.287 180.978 149.396 180.978C149.506 180.978 149.594 180.877 149.594 180.752C149.594 180.628 149.506 180.526 149.396 180.526C149.287 180.527 149.198 180.628 149.198 180.752Z" fill="#593639"/>
<path d="M142.846 179.806C142.846 180.084 142.588 180.31 142.269 180.31C141.95 180.31 141.692 180.084 141.692 179.806C141.692 179.528 141.95 179.302 142.269 179.302C142.588 179.302 142.846 179.528 142.846 179.806Z" fill="#593639"/>
<path d="M143.422 179.672C143.422 179.95 143.164 180.176 142.846 180.176C142.527 180.176 142.269 179.95 142.269 179.672C142.269 179.394 142.527 179.168 142.846 179.168C143.164 179.168 143.422 179.394 143.422 179.672Z" fill="#593639"/>
<path d="M158.244 178.943C158.244 179.221 157.986 179.447 157.667 179.447C157.349 179.447 157.091 179.221 157.091 178.943C157.091 178.665 157.349 178.439 157.667 178.439C157.986 178.439 158.244 178.665 158.244 178.943Z" fill="#593639"/>
<path d="M145.152 178.296C145.152 178.573 144.895 178.8 144.576 178.8C144.257 178.8 143.999 178.573 143.999 178.296C143.999 178.017 144.257 177.792 144.576 177.792C144.895 177.792 145.152 178.017 145.152 178.296Z" fill="#593639"/>
<path d="M128.962 180.176C128.962 180.439 128.291 180.652 127.463 180.652C126.635 180.652 125.964 180.439 125.964 180.176C125.964 179.913 126.635 179.701 127.463 179.701C128.291 179.701 128.962 179.914 128.962 180.176Z" fill="#593639"/>
<path d="M134.369 182.066C134.369 182.186 134.111 182.284 133.793 182.284C133.474 182.284 133.216 182.186 133.216 182.066C133.216 181.947 133.474 181.85 133.793 181.85C134.111 181.85 134.369 181.947 134.369 182.066Z" fill="#593639"/>
<path d="M134.153 179.331C134.153 179.608 133.895 179.834 133.577 179.834C133.258 179.834 133 179.607 133 179.331C133 179.052 133.258 178.826 133.577 178.826C133.895 178.826 134.153 179.052 134.153 179.331Z" fill="#593639"/>
<path d="M136.132 178.998C136.132 179.368 135.875 179.672 135.556 179.672C135.238 179.672 134.979 179.368 134.979 178.998C134.979 178.625 135.238 178.323 135.556 178.323C135.875 178.323 136.132 178.625 136.132 178.998Z" fill="#593639"/>
<path d="M145.514 180.024C145.514 180.302 145.257 180.528 144.938 180.528C144.62 180.528 144.361 180.302 144.361 180.024C144.361 179.746 144.62 179.521 144.938 179.521C145.257 179.521 145.514 179.746 145.514 180.024Z" fill="#593639"/>
<path d="M162.89 182.067C162.89 182.345 162.633 182.57 162.314 182.57C161.995 182.57 161.737 182.344 161.737 182.067C161.737 181.789 161.995 181.563 162.314 181.563C162.633 181.563 162.89 181.789 162.89 182.067Z" fill="#593639"/>
<path d="M155.425 180.525C155.425 180.804 155.166 181.03 154.848 181.03C154.529 181.03 154.271 180.804 154.271 180.525C154.271 180.248 154.529 180.022 154.848 180.022C155.166 180.022 155.425 180.248 155.425 180.525Z" fill="#593639"/>
<path d="M151.245 182.412C151.245 182.691 150.987 182.916 150.668 182.916C150.35 182.916 150.091 182.691 150.091 182.412C150.091 182.134 150.35 181.909 150.668 181.909C150.987 181.909 151.245 182.135 151.245 182.412Z" fill="#593639"/>
<path d="M160.687 180.649C160.687 180.928 160.429 181.154 160.11 181.154C159.791 181.154 159.533 180.927 159.533 180.649C159.533 180.371 159.791 180.145 160.11 180.145C160.429 180.145 160.687 180.371 160.687 180.649Z" fill="#593639"/>
<path d="M143.422 181.909C143.422 182.188 143.164 182.414 142.846 182.414C142.527 182.414 142.269 182.187 142.269 181.909C142.269 181.631 142.527 181.406 142.846 181.406C143.164 181.406 143.422 181.631 143.422 181.909Z" fill="#593639"/>
<path d="M249.389 69.1838C249.276 69.1231 249.14 69.0505 249.009 68.9802C248.828 68.3022 249.024 67.6653 249.1 67.0241C249.118 66.8679 249.155 66.714 249.18 66.5587C249.19 66.5004 249.187 66.4393 249.2 66.3819C249.287 66.0021 249.556 65.7431 249.825 65.7751C250.128 65.811 250.395 66.2319 250.344 66.5993C250.272 67.1259 250.225 67.6581 250.114 68.1766C250.026 68.5884 249.975 69.0648 249.389 69.1838Z" fill="#312C28"/>
<path d="M243.542 66.3045C244.389 66.2046 244.465 66.3054 244.557 67.0001C244.625 67.5176 244.806 68.0217 244.959 68.5253C245.048 68.821 245.02 69.0661 244.818 69.2238C244.599 69.3954 244.291 69.3829 244.073 69.1488C243.929 68.995 243.805 68.8038 243.731 68.6075C243.543 68.1072 243.425 67.5883 243.472 67.046C243.494 66.8004 243.518 66.5553 243.542 66.3045Z" fill="#312C28"/>
<path d="M218.843 63.6317C218.843 64.4067 218.847 65.1707 218.839 65.9352C218.838 66.0279 218.789 66.1253 218.745 66.2118C218.644 66.4125 218.512 66.5855 218.259 66.584C218.006 66.5826 217.862 66.4139 217.779 66.207C217.715 66.047 217.666 65.8654 217.673 65.6953C217.693 65.1865 217.728 64.6771 217.785 64.1711C217.859 63.5151 218.054 63.4066 218.843 63.6317Z" fill="#312C28"/>
<path d="M214.748 63.3018C215.05 63.3018 215.261 63.3018 215.454 63.3018C215.696 63.4929 215.772 63.7327 215.762 64.0008C215.741 64.5235 215.82 65.0252 216.045 65.5006C216.161 65.7457 216.133 65.9636 215.91 66.1356C215.708 66.2923 215.423 66.2732 215.202 66.0893C214.876 65.8174 214.773 65.4332 214.702 65.041C214.65 64.7509 214.593 64.4552 214.598 64.1632C214.603 63.8962 214.687 63.631 214.748 63.3018Z" fill="#312C28"/>
<path d="M220.321 67.0218C220.046 66.7414 220.015 66.4609 220.139 66.1255C220.283 65.7375 220.377 65.3309 220.505 64.9362C220.566 64.7523 220.657 64.5788 220.745 64.3777C220.982 64.3777 221.192 64.3777 221.443 64.3777C221.527 64.51 221.618 64.6558 221.682 64.7575C221.682 64.8579 221.692 64.8999 221.681 64.9358C221.523 65.4661 221.378 66.0008 221.197 66.523C221.034 66.9937 220.875 67.0696 220.321 67.0218Z" fill="#312C28"/>
<path d="M246.704 68.6737C246.46 68.4067 246.359 68.0641 246.335 67.7076C246.308 67.3325 246.303 66.9522 246.339 66.5791C246.356 66.4004 246.453 66.1954 246.58 66.0711C246.688 65.9665 246.928 65.88 247.045 65.9321C247.194 65.9985 247.356 66.2006 247.378 66.3626C247.455 66.9283 247.499 67.5012 247.51 68.0722C247.52 68.6393 247.334 68.7636 246.704 68.6737Z" fill="#312C28"/>
<path d="M223.553 70.1605C222.441 69.8967 221.33 69.6263 220.215 69.3774C219.542 69.2273 218.864 69.0936 218.184 68.9856C216.921 68.7854 215.655 68.6067 214.39 68.4261C214.176 68.3955 213.955 68.3749 213.741 68.3955C213.269 68.4418 213.053 68.6994 213.028 69.1729C212.964 70.3808 213.257 71.4854 213.967 72.4702C214.152 72.7258 214.363 72.9623 214.547 73.2184C215.071 73.949 215.797 74.4139 216.589 74.7894C217.466 75.2046 218.397 75.3327 219.362 75.3241C219.813 75.2835 220.266 75.262 220.713 75.1975C221.484 75.0861 222.197 74.7832 222.858 74.389C223.555 73.9734 224.222 73.4913 224.624 72.7569C225.234 71.6431 225.012 70.5064 223.553 70.1605ZM251.323 70.4204C250.776 70.4152 250.223 70.4959 249.681 70.5838C248.438 70.7859 247.199 71.011 245.959 71.2355C244.216 71.5518 242.474 71.8715 240.733 72.2002C240.245 72.2924 239.913 72.818 240.1 73.2762C240.399 74.0049 240.759 74.7082 241.105 75.4168C241.164 75.5372 241.269 75.6404 241.369 75.7336C242.509 76.7914 243.907 77.1937 245.568 77.3213C246.002 77.2367 246.586 77.1455 247.159 77.0074C248.615 76.6567 249.79 75.8325 250.739 74.7096C251.468 73.8477 252.062 72.8883 252.32 71.7583C252.511 70.9188 252.181 70.4285 251.323 70.4204Z" fill="white"/>
<path d="M247.793 73.7455C247.793 73.4464 247.819 73.1076 247.787 72.7751C247.729 72.1773 247.575 71.6049 247.14 71.1563C247.101 71.1171 247.062 71.0813 247.023 71.0459C246.668 71.1099 246.314 71.173 245.96 71.237C245.576 71.3068 245.194 71.3794 244.811 71.4492C244.721 71.5901 244.652 71.7473 244.615 71.9255C244.486 72.54 244.41 73.1788 244.418 73.8057C244.427 74.5702 244.449 75.3452 244.723 76.0834C244.951 76.6993 245.399 77.0567 245.988 77.2449C246.33 77.1833 246.715 77.1126 247.101 77.0218C247.175 76.9391 247.232 76.8412 247.263 76.7298C247.529 75.7647 247.938 74.8215 247.793 73.7455Z" fill="#312C28"/>
<path d="M219.293 74.4602C220.006 73.4501 220.378 72.3163 220.45 71.0869C220.5 70.5255 220.355 70.0219 220.048 69.5608C219.979 69.4576 219.903 69.3711 219.822 69.2956C219.42 69.2101 219.016 69.1318 218.61 69.0615C218.197 69.1623 217.843 69.3597 217.587 69.739C217.015 70.5886 216.629 71.5155 216.439 72.5184C216.343 73.0235 216.326 73.5361 216.425 74.0507C216.494 74.41 216.668 74.6972 216.896 74.9108C217.319 75.078 217.753 75.1879 218.197 75.2486C218.367 75.207 218.538 75.1449 218.702 75.0364C218.928 74.8869 219.136 74.6819 219.293 74.4602Z" fill="#312C28"/>
<path d="M234.992 45.082C235.234 45.2408 235.508 45.368 235.711 45.565C236.154 45.9957 236.176 46.5677 236.033 47.1002C235.554 48.8794 234.499 50.2374 232.799 51.0785C232.317 51.3164 231.816 51.4295 231.325 51.0931C231.214 51.0172 231.072 50.9305 231.032 50.8189C230.877 50.3811 230.685 49.9273 230.84 49.4599C231.247 48.2296 231.767 47.0498 232.766 46.1507C233.07 45.8774 233.436 45.6682 233.78 45.4397C233.976 45.3096 234.187 45.2003 234.391 45.082C234.592 45.082 234.792 45.082 234.992 45.082Z" fill="#B4A599"/>
<path d="M222.449 55.7471C221.413 55.3975 220.959 54.5835 220.726 53.6259C220.519 52.7773 220.568 51.9048 220.592 51.0407C220.604 50.6108 220.755 50.2184 221.072 49.8927C221.34 49.6167 221.556 49.2866 221.845 49.0354C222.289 48.6498 222.816 48.5003 223.383 48.7827C223.558 48.8693 223.726 49.0057 223.843 49.1581C224.542 50.0699 224.625 51.1278 224.537 52.2091C224.475 52.9745 224.248 53.7081 223.96 54.4209C223.692 55.083 223.321 55.6443 222.449 55.7471Z" fill="#B4A599"/>
<path d="M241.095 53.0806C240.8 53.0354 240.56 53.0325 240.347 52.9602C239.234 52.5829 238.923 51.635 239.515 50.6686C240.184 49.5766 241.263 49.0532 242.476 48.6997C243.109 48.5151 243.7 48.7549 244.094 49.1598C244.504 49.5795 244.707 50.1381 244.403 50.7438C243.911 51.7245 243.202 52.4987 242.085 52.8779C241.754 52.9907 241.391 53.0221 241.095 53.0806Z" fill="#B4A599"/>
<path d="M233.891 56.2697C233.807 56.5906 233.751 56.9703 233.61 57.3066C233.135 58.4355 232.399 59.2939 231.284 59.6798C230.638 59.9036 230.068 59.5456 229.921 58.8729C229.893 58.7435 229.882 58.5909 229.917 58.4668C230.231 57.3519 230.64 56.2803 231.504 55.5306C231.838 55.2409 232.26 55.0499 232.666 54.8863C233.006 54.7491 233.614 55.1336 233.736 55.5133C233.808 55.7356 233.832 55.9742 233.891 56.2697Z" fill="#B4A599"/>
<path d="M29.6694 212.222C29.6461 212.217 29.6228 212.216 29.6005 212.211C29.3272 212.068 29.0421 212.109 28.7652 212.239C28.3135 212.343 27.904 212.58 27.653 212.915C27.489 213.026 27.342 213.163 27.2219 213.336C27.1646 213.414 27.1144 213.518 27.0678 213.629C26.8123 213.972 26.7003 214.431 26.8616 214.813C26.928 215.437 27.3393 216.02 28.0098 216.077C28.0205 216.077 28.0303 216.075 28.0412 216.076C28.7008 216.522 29.5521 216.679 30.0272 216.148C30.3597 215.778 30.5703 215.262 30.8168 214.834C31.0185 214.482 31.2937 214.1 31.3178 213.68C31.3669 212.84 30.3713 212.368 29.6694 212.222ZM30.6661 213.247C30.7046 213.301 30.7351 213.354 30.7566 213.406C30.7405 213.387 30.7226 213.37 30.7001 213.358C30.6912 213.319 30.6768 213.285 30.6661 213.247ZM28.8503 215.842C28.8718 215.856 28.8889 215.872 28.9113 215.883C28.8817 215.877 28.853 215.871 28.8235 215.861C28.8324 215.855 28.8414 215.849 28.8503 215.842ZM30.7674 213.876C30.7657 213.83 30.7639 213.784 30.7593 213.739C30.7808 213.712 30.7952 213.682 30.8041 213.649C30.8032 213.727 30.7906 213.803 30.7674 213.876Z" fill="#50AA75"/>
<path d="M15.7256 214.688C15.5554 213.982 14.7335 213.956 14.298 214.32C14.1636 214.362 14.0301 214.414 13.8964 214.491C13.4429 214.757 13.1194 215.273 13.019 215.779C12.933 216.217 13.1419 216.621 13.5827 216.762C14.8419 217.163 16.0168 215.898 15.7256 214.688Z" fill="#2A6B52"/>
<path d="M14.9727 214.207C14.2217 214.139 13.398 214.546 13.1301 215.268C13.0728 215.422 13.166 215.663 13.3209 215.732C13.3532 215.746 13.3863 215.759 13.4195 215.773C13.423 215.774 13.4257 215.773 13.4294 215.774C13.4814 215.878 13.58 215.954 13.7198 215.945C14.4807 215.896 15.1072 215.392 15.3303 214.671C15.4064 214.426 15.203 214.228 14.9727 214.207Z" fill="#50AA75"/>
<path d="M55.1924 216.898C54.8268 216.566 54.1922 216.41 53.7504 216.714C52.8237 217.351 52.1228 218.414 51.4731 219.32C50.8395 220.205 50.6486 221.091 51.4005 221.98C52.7502 223.573 55.1942 224.14 57.1542 223.489C57.6938 223.537 58.2414 223.378 58.7173 222.917C61.2894 220.42 56.6309 218.201 55.1924 216.898Z" fill="#2A6B52"/>
<path d="M55.5483 217.548C55.0374 216.988 54.5141 216.606 53.7478 217.017C53.2844 217.266 52.9178 217.735 52.5513 218.095C52.2179 218.423 51.6953 218.778 51.6031 219.263C51.535 219.618 51.6765 219.887 51.9302 220.027C51.9185 220.141 51.9409 220.268 52.0306 220.344C52.8559 221.035 54.255 221.381 55.2785 221.646C55.9856 221.829 57.1553 222.215 57.796 221.661C59.4254 220.255 56.2688 218.337 55.5483 217.548Z" fill="#50AA75"/>
<path d="M218.982 155.578C218.26 154.83 217.634 154.155 216.867 153.925C216.825 153.589 216.691 153.299 216.509 153.032C216.285 153.823 216.316 154.639 216.596 155.382C217.63 155.952 218.761 157.117 219.903 157.742C220.53 157.687 221.105 157.39 221.602 156.947C220.649 156.776 219.756 156.38 218.982 155.578Z" fill="#2A6B52"/>
<path d="M238.358 127.952C238.343 127.985 238.328 128.017 238.305 128.05C238.199 128.208 238.109 128.371 238.026 128.536C238.094 128.535 238.161 128.527 238.225 128.505C238.375 128.615 238.525 128.72 238.673 128.815C238.895 128.961 239.142 128.938 239.343 128.823C239.854 128.857 240.318 128.545 240.483 127.998C239.727 127.917 238.976 127.91 238.358 127.952Z" fill="#50AA75"/>
<path d="M261.118 135.151C261.458 135.17 261.813 135.112 262.155 134.964C262.365 134.873 262.547 134.751 262.719 134.617C262.452 133.612 261.965 132.614 261.318 131.706C260.959 131.432 260.586 131.147 260.301 131.055C259.155 130.685 257.964 130.83 257.747 132.225C257.547 133.519 258.488 134.569 259.563 135.171C260.042 135.181 260.522 135.231 260.993 135.32C261.04 135.268 261.085 135.213 261.118 135.151Z" fill="#50AA75"/>
<path d="M73.1527 192.803C73.3026 192.609 73.4432 192.408 73.5838 192.207C72.9906 192.005 72.4458 191.687 71.9836 191.239C71.5642 191.63 71.1132 192.011 70.6514 192.332C70.977 192.723 71.2518 193.158 71.4559 193.613C72.0328 193.397 72.6221 193.133 73.1527 192.803Z" fill="#50AA75"/>
<path d="M71.2124 192.564C71.541 192.376 71.8251 192.154 72.0213 191.905C72.3293 192.302 72.7248 192.583 73.172 192.774C73.4898 192.362 73.7807 191.93 74.0541 191.485C73.9672 191.444 73.8808 191.403 73.8002 191.352C73.2037 191.173 72.6164 190.914 72.0428 190.599C72.0199 190.587 72.0077 190.57 71.9901 190.555C71.5009 190.75 71.0367 191.279 70.3387 191.664C70.2698 191.702 70.1937 191.738 70.1151 191.773C70.448 192.077 70.7473 192.426 71.0011 192.802C71.0772 192.729 71.1499 192.652 71.2124 192.564Z" fill="#2A6B52"/>
<path d="M72.3015 190.89C72.3113 190.83 72.2337 190.762 72.1839 190.822C71.9442 191.111 71.8016 191.776 71.9832 192.116C72.0149 192.175 72.1121 192.162 72.1277 192.098C72.1726 191.91 72.1311 191.709 72.1541 191.516C72.181 191.301 72.2674 191.101 72.3015 190.89Z" fill="#50AA75"/>
<path d="M102.783 198.017C103.059 197.661 103.317 197.292 103.575 196.923C102.486 196.552 101.486 195.969 100.637 195.145C99.8672 195.863 99.0391 196.562 98.1913 197.152C98.7891 197.87 99.2936 198.669 99.6682 199.504C100.728 199.108 101.809 198.623 102.783 198.017Z" fill="#50AA75"/>
<path d="M99.2218 197.579C99.825 197.234 100.347 196.827 100.707 196.369C101.272 197.098 101.998 197.615 102.819 197.965C103.403 197.209 103.937 196.415 104.439 195.599C104.279 195.524 104.121 195.448 103.973 195.354C102.878 195.026 101.799 194.549 100.746 193.973C100.704 193.949 100.682 193.918 100.65 193.891C99.7515 194.25 98.8992 195.22 97.6177 195.927C97.4913 195.996 97.3515 196.063 97.2073 196.128C97.8185 196.686 98.3679 197.325 98.8339 198.017C98.9736 197.883 99.1071 197.742 99.2218 197.579Z" fill="#2A6B52"/>
<path d="M101.222 194.504C101.24 194.393 101.097 194.268 101.005 194.379C100.565 194.909 100.304 196.131 100.637 196.755C100.695 196.863 100.874 196.839 100.902 196.721C100.985 196.376 100.909 196.008 100.951 195.653C101 195.257 101.159 194.892 101.222 194.504Z" fill="#50AA75"/>
<path d="M36.7942 223.137C37.0694 222.782 37.3276 222.413 37.5856 222.044C36.4967 221.672 35.4964 221.089 34.6478 220.265C33.8779 220.984 33.0499 221.683 32.202 222.272C32.7998 222.99 33.3044 223.789 33.679 224.624C34.7383 224.229 35.82 223.744 36.7942 223.137Z" fill="#50AA75"/>
<path d="M33.2324 222.7C33.8357 222.355 34.3572 221.948 34.7175 221.49C35.283 222.219 36.0089 222.736 36.8299 223.086C37.4134 222.33 37.9476 221.536 38.4494 220.721C38.2898 220.645 38.1312 220.569 37.9833 220.475C36.8882 220.147 35.81 219.67 34.7569 219.094C34.7148 219.071 34.6925 219.039 34.6602 219.012C33.7621 219.371 32.9098 220.341 31.6283 221.048C31.5019 221.117 31.3621 221.184 31.2179 221.249C31.8291 221.807 32.3785 222.446 32.8445 223.138C32.9842 223.004 33.1177 222.863 33.2324 222.7Z" fill="#2A6B52"/>
<path d="M35.2321 219.624C35.2501 219.513 35.1076 219.388 35.0161 219.499C34.5761 220.029 34.3144 221.251 34.6477 221.875C34.706 221.983 34.8843 221.959 34.913 221.841C34.9955 221.496 34.9193 221.128 34.9614 220.773C35.0108 220.377 35.1694 220.012 35.2321 219.624Z" fill="#50AA75"/>
<path d="M29.7122 204.787C29.2192 204.646 28.3572 204.782 28.2685 205.396C28.2407 205.582 28.3329 205.754 28.4898 205.814C28.4682 205.856 28.4548 205.901 28.4566 205.95C28.4772 206.378 28.7031 206.595 29.0606 206.809C29.2561 206.925 29.5814 206.867 29.6835 206.647C29.8959 206.186 30.0187 205.725 30.0438 205.218C30.0537 205.023 29.8959 204.84 29.7122 204.787Z" fill="#2A6B52"/>
<path d="M69.3994 215.077C69.3017 214.825 69.0947 214.633 68.8536 214.505C68.3912 213.741 67.4618 213.526 66.5369 213.617C66.0225 214.619 65.1809 215.503 63.9316 216.168C63.66 216.313 63.4011 216.241 63.2245 216.078C63.2254 216.106 63.22 216.131 63.2227 216.159C63.3365 217.339 64.5222 217.446 65.4695 217.587C66.4491 217.732 67.4752 217.909 68.384 217.393C69.1717 216.946 69.74 215.96 69.3994 215.077Z" fill="#2A6B52"/>
<path d="M79.0888 224.505C78.8227 224.676 78.6721 224.928 78.6156 225.197C78.4318 225.335 78.2606 225.487 78.1074 225.663C77.6853 226.151 77.766 226.791 78.3019 227.156C78.6944 227.423 79.1166 227.649 79.5351 227.874C79.9643 228.106 80.4438 228.418 80.9377 228.462C81.9298 228.55 82.5509 227.687 82.6119 226.779C82.7301 225.027 80.719 223.465 79.0888 224.505Z" fill="#2A6B52"/>
<path d="M73.6506 228.316C73.6398 228.307 73.6363 228.296 73.6246 228.288C73.2787 227.874 72.6299 227.82 72.1244 227.773C71.6413 227.728 71.1869 228.226 71.204 228.684C71.2362 229.497 71.7677 230.266 72.5957 230.459C73.0018 230.554 73.4104 230.508 73.7895 230.346C74.3066 230.124 74.6176 229.767 74.6785 229.202C74.735 228.674 74.1489 228.244 73.6506 228.316Z" fill="#2A6B52"/>
<path d="M92.5464 228.155C92.5194 228.13 92.4864 228.112 92.4577 228.089C92.4495 227.876 92.3017 227.674 92.0749 227.592C91.7308 227.465 91.332 227.607 91.0254 227.776C90.6337 227.992 90.4994 228.639 90.873 228.945C91.1903 229.204 91.6062 229.392 92.0193 229.416C92.6611 229.452 93.0089 228.58 92.5464 228.155Z" fill="#2A6B52"/>
<path d="M61.4753 226.611C61.4197 226.543 61.34 226.506 61.2557 226.49C61.0496 226.27 60.6786 226.39 60.5737 226.665C60.4921 226.879 60.4411 227.097 60.4535 227.328C60.4894 227.959 61.322 228.05 61.538 227.474C61.6626 227.139 61.7208 226.91 61.4753 226.611Z" fill="#2A6B52"/>
<path d="M57.099 223.168C57.0749 223.157 57.0489 223.147 57.0247 223.136C56.8043 223.042 56.5049 223.019 56.3292 223.225C56.2781 223.283 56.2297 223.342 56.1822 223.403C55.994 223.638 56.0165 224.068 56.3777 224.139C56.4467 224.153 56.5139 224.166 56.582 224.175C56.8204 224.214 57.1135 224.153 57.23 223.914C57.2453 223.885 57.2595 223.855 57.2739 223.827C57.3769 223.615 57.3545 223.276 57.099 223.168Z" fill="#2A6B52"/>
<path d="M58.6477 228.238C58.5912 228.208 58.5339 228.19 58.4747 228.183C58.3681 228.031 58.222 227.956 58.0678 227.936C58.0418 227.917 58.0158 227.895 57.9809 227.861C57.8563 227.743 57.6707 227.776 57.5793 227.913C57.5238 227.995 57.4968 228.08 57.4916 228.164C57.4162 228.251 57.3617 228.359 57.3419 228.486C57.2989 228.779 57.4486 229.046 57.7111 229.185C58.0248 229.351 58.3707 229.249 58.6477 229.064C58.7812 228.974 58.9031 228.823 58.887 228.651C58.8717 228.476 58.8117 228.327 58.6477 228.238Z" fill="#2A6B52"/>
<path d="M69.9832 225.357C69.9644 225.304 69.9465 225.251 69.9285 225.2C69.8093 224.859 69.3584 224.787 69.1577 225.1C69.0457 225.274 69.0591 225.441 69.1523 225.62C69.2375 225.783 69.4552 225.859 69.629 225.811C69.6595 225.803 69.6819 225.786 69.7079 225.773C69.8927 225.741 70.0486 225.542 69.9832 225.357Z" fill="#2A6B52"/>
<path d="M110.46 197.771C110.405 197.561 110.26 197.403 110.081 197.31C110.056 197.239 110.036 197.165 110 197.102C109.864 196.861 109.653 196.668 109.379 196.593C108.755 196.423 108.103 196.886 108.096 197.529C108.091 197.874 108.332 198.191 108.645 198.324C108.659 198.352 108.665 198.384 108.681 198.41C108.832 198.653 109.061 198.822 109.34 198.897C110.028 199.08 110.631 198.424 110.46 197.771Z" fill="#2A6B52"/>
<path d="M254.776 144.332C254.784 144.316 254.793 144.301 254.802 144.285C255.039 143.836 254.737 143.396 254.257 143.345C253.635 143.28 253.012 143.229 252.387 143.2C251.929 143.179 251.437 143.157 251.018 143.38C250.079 143.882 250.163 144.973 250.931 145.572C251.585 146.081 252.482 146.226 253.283 146.034C254.015 145.859 255.074 145.257 254.787 144.356C254.784 144.348 254.779 144.34 254.776 144.332Z" fill="#2A6B52"/>
<path d="M251.627 143.368C251.417 143.417 251.294 143.673 251.361 143.87C251.328 143.878 251.295 143.882 251.262 143.888C251.049 143.928 250.96 144.248 251.129 144.385C251.54 144.717 252.145 145.007 252.722 145.052C252.579 145.343 252.565 145.697 252.815 145.887C252.882 145.937 253.009 145.901 253.043 145.828C253.112 145.677 253.083 145.551 253.095 145.391C253.107 145.249 253.165 145.131 253.23 145.012C253.524 144.941 253.793 144.785 253.993 144.485C254.923 143.09 252.324 143.204 251.627 143.368Z" fill="#50AA75"/>
<path d="M83.6247 192.719C83.3262 192.719 83.2187 193.063 83.3953 193.269C83.4106 193.288 83.4275 193.307 83.4437 193.327C83.5279 193.425 83.7224 193.425 83.8057 193.327C83.8218 193.307 83.8379 193.288 83.855 193.269C84.0306 193.063 83.924 192.719 83.6247 192.719Z" fill="#50AA75"/>
<path d="M238.246 118.104C238.16 117.886 238.017 117.729 237.838 117.607C237.837 117.601 237.838 117.595 237.836 117.588C237.807 117.413 237.629 117.258 237.462 117.216C236.92 117.081 236.345 117.059 235.8 117.158C235.28 118.111 234.454 118.951 233.254 119.589C233.203 119.617 233.153 119.622 233.102 119.635C233.376 119.99 233.923 120.039 234.324 119.853C234.488 119.778 234.625 119.691 234.758 119.605C235.677 119.541 236.7 119.472 237.544 119.215C238.029 119.066 238.459 118.641 238.246 118.104Z" fill="#50AA75"/>
<path d="M73.1503 228.27C72.9531 228.082 72.6942 227.956 72.4172 227.96C72.2424 227.963 72.1241 228.021 72.0148 228.1C71.909 228.125 71.8114 228.191 71.7433 228.283C71.0819 229.174 71.901 230.148 72.721 230.527C73.0284 230.668 73.3305 230.495 73.3618 230.163C73.4255 229.49 73.7212 228.817 73.1503 228.27Z" fill="#50AA75"/>
<path d="M91.8089 189.928C91.6181 189.494 91.3993 188.639 90.9162 188.356C90.8732 188.249 90.7916 188.156 90.66 188.111C89.2494 187.627 88.2886 188.823 87.4774 189.762C87.2051 190.077 87.3843 190.555 87.8162 190.574C89.0019 190.627 90.1885 190.649 91.3742 190.679C91.7918 190.688 91.9532 190.256 91.8089 189.928Z" fill="#50AA75"/>
<path d="M120.477 219.179C120.858 219.865 121.765 220.249 122.523 219.971C123.212 219.719 123.492 218.911 122.955 218.35C122.779 218.166 122.604 217.984 122.428 217.8C122.074 217.431 121.394 217.421 121.043 217.8C120.676 218.196 120.666 218.778 121.043 219.171C121.219 219.355 121.394 219.538 121.57 219.722C121.714 219.182 121.859 218.642 122.002 218.1C121.926 218.129 121.755 218.145 122.012 218.118C121.823 218.138 122.196 218.175 122.017 218.116C122.056 218.132 122.094 218.148 122.131 218.163C122.042 218.109 122.055 218.123 122.17 218.207C122.032 218.085 122.266 218.373 122.168 218.2C121.921 217.755 121.265 217.574 120.828 217.853C120.373 218.143 120.211 218.704 120.477 219.179Z" fill="#2A6B52"/>
<path d="M224.272 132.212C224.65 133.639 226.986 133.635 227.28 132.154C227.435 131.375 226.936 130.66 226.176 130.448C225.522 130.266 224.72 130.496 224.405 131.129C224.178 131.584 224.266 132.2 224.756 132.457C225.198 132.688 225.854 132.594 226.096 132.108C226.173 131.956 225.933 132.271 226.049 132.159C225.993 132.223 225.924 132.267 225.844 132.291C225.752 132.325 225.74 132.33 225.809 132.309C225.967 132.259 225.551 132.329 225.73 132.324C225.89 132.319 225.517 132.289 225.632 132.312C225.829 132.354 225.489 132.242 225.572 132.284C225.711 132.353 225.54 132.259 225.503 132.224C225.55 132.277 225.544 132.266 225.483 132.193C225.424 132.132 225.386 132.06 225.37 131.976C225.388 132.046 225.388 132.033 225.37 131.934C225.35 131.851 225.354 131.768 225.383 131.684C225.38 131.698 225.376 131.712 225.372 131.728C225.4 131.617 225.457 131.523 225.539 131.445C225.435 131.553 225.718 131.325 225.623 131.387C225.492 131.472 225.676 131.368 225.715 131.352C225.559 131.415 225.709 131.357 225.796 131.349C225.708 131.357 225.572 131.312 225.876 131.371C225.779 131.352 225.707 131.286 225.943 131.412C225.804 131.338 226.121 131.58 226.006 131.462C226.041 131.504 226.075 131.547 226.11 131.589C226.172 131.758 226.189 131.794 226.161 131.696C226.031 131.206 225.456 130.859 224.956 131.02C224.446 131.183 224.133 131.686 224.272 132.212Z" fill="#2A6B52"/>
<path d="M36.8553 227.45C36.8491 227.376 36.8159 227.316 36.7693 227.273C36.772 227.206 36.7738 227.141 36.7756 227.084C36.7827 226.707 36.452 226.404 36.0819 226.397C34.4024 226.366 32.6314 227.245 31.9288 228.817C31.6133 229.522 31.6007 230.385 32.1483 230.985C32.4191 231.28 32.7801 231.454 33.1351 231.459C33.1889 231.494 33.2454 231.528 33.3036 231.558C33.4936 231.654 33.7776 231.744 34.061 231.775C34.1282 231.804 34.1937 231.831 34.2572 231.851C34.2797 231.865 34.303 231.88 34.3253 231.895C35.3281 232.559 35.9601 231.979 36.3445 231.027C36.3767 230.977 36.4037 230.92 36.4188 230.853C36.4215 230.84 36.4233 230.826 36.426 230.813C36.5972 230.322 36.7102 229.758 36.7791 229.221C36.8168 229.104 36.8311 228.983 36.8204 228.863C36.8778 228.273 36.8823 227.751 36.8553 227.45Z" fill="#2A6B52"/>
<path d="M233.474 143.544C233.309 143.219 232.968 143.127 232.631 143.225C232.609 143.231 232.587 143.243 232.564 143.25C232.018 143.16 231.503 143.727 231.65 144.237C231.637 144.674 231.868 145.061 232.305 145.221C232.747 145.383 233.227 145.171 233.462 144.78C233.691 144.399 233.67 143.932 233.474 143.544Z" fill="#2A6B52"/>
<path d="M252.529 118.929C252.509 118.786 252.356 118.665 252.226 118.629C251.47 118.417 250.623 118.84 250.392 119.595C250.145 120.399 250.726 121.267 251.533 121.443C251.83 121.508 252.083 121.339 252.15 121.064C252.196 121.033 252.237 120.995 252.259 120.946C252.547 120.29 252.628 119.638 252.529 118.929Z" fill="#2A6B52"/>
<path d="M47.9765 210.606C47.6618 210.424 47.307 210.456 47.03 210.683C46.987 210.718 46.9565 210.765 46.9341 210.815C46.555 210.896 46.4448 211.406 46.7934 211.626C47.177 211.868 47.6484 211.929 48.084 211.807C48.2803 211.752 48.4353 211.562 48.4309 211.356C48.4237 211.038 48.2534 210.766 47.9765 210.606Z" fill="#2A6B52"/>
<path d="M214.61 127.559C214.407 127.369 214.143 127.411 213.981 127.585C213.781 127.47 213.489 127.516 213.425 127.795C213.321 128.248 213.683 128.706 214.169 128.632C214.635 128.56 215.006 127.929 214.61 127.559Z" fill="#50AA75"/>
<path d="M45.2519 217.339C45.1847 217.294 45.1165 217.254 45.0467 217.217C45.0342 217.186 45.0251 217.153 45.0081 217.124C45.0358 217.024 44.9651 216.927 44.8718 216.888C44.8261 216.869 44.7884 216.861 44.7509 216.856C44.6389 216.795 44.4937 216.815 44.3817 216.879C44.1585 216.902 43.9389 216.965 43.7256 217.033C43.411 217.133 43.2076 217.454 43.2981 217.779C43.3842 218.088 43.7337 218.299 44.0509 218.202C44.1996 218.157 44.344 218.143 44.4937 218.158C44.6837 218.259 44.9059 218.295 45.1318 218.251C45.3227 218.214 45.4706 218.017 45.4921 217.836C45.5171 217.627 45.423 217.459 45.2519 217.339Z" fill="#50AA75"/>
<path d="M77.2563 217.188C77.1899 216.671 76.8745 216.247 76.3681 216.084C75.9711 215.958 75.6636 216.411 75.7712 216.732C75.4924 216.895 75.2971 217.19 75.3195 217.529C75.3571 218.123 76.0024 218.552 76.576 218.417C77.1057 218.293 77.3163 217.672 77.2563 217.188Z" fill="#50AA75"/>
<path d="M95.2522 220.909C94.823 220.772 94.4573 220.805 94.1184 221.129C93.8684 221.369 94.0163 221.74 94.2726 221.865C94.2045 221.948 94.1713 222.053 94.2153 222.166C94.3811 222.587 94.6903 222.795 95.1392 222.847C95.3633 222.872 95.5515 222.639 95.5533 222.437C95.5578 222.064 95.5614 221.69 95.5649 221.316C95.5676 221.125 95.4305 220.966 95.2522 220.909Z" fill="#50AA75"/>
<path d="M114.89 221.261C115.06 221.163 115.221 221.046 115.366 220.91C116.261 220.074 116.411 218.795 116.527 217.649C116.558 217.337 116.214 217.002 115.902 217.03C114.561 217.151 113.351 217.802 112.579 218.91C111.998 219.745 111.476 221.328 112.851 221.689C113.04 221.739 113.195 221.68 113.303 221.575C113.714 221.643 114.139 221.584 114.532 221.431C114.774 221.892 115.064 222.32 115.422 222.638C115.558 222.757 115.763 222.608 115.675 222.444C115.451 222.032 115.13 221.67 114.89 221.261Z" fill="#50AA75"/>
<path d="M103.077 189.469C102.95 188.988 102.573 188.785 102.186 188.785C101.85 188.515 101.447 188.317 101.035 188.151C100.923 188.106 100.8 188.099 100.676 188.115C100.383 187.968 100.022 187.947 99.7522 188.139C98.1541 189.288 98.3738 191.664 100.124 192.572C100.867 192.957 102.067 193.21 102.826 192.724C103.825 192.084 103.316 190.38 103.077 189.469Z" fill="#50AA75"/>
<path d="M56.8195 222.783C56.6798 222.882 56.5973 222.984 56.5067 223.11C56.4296 223.218 56.2978 223.337 56.202 223.442C55.9815 223.686 56.3202 224.023 56.5657 223.802C56.6715 223.706 56.7898 223.574 56.8974 223.498C57.0246 223.407 57.1259 223.329 57.2272 223.187C57.3976 222.951 57.0579 222.612 56.8195 222.783Z" fill="#50AA75"/>
<path d="M59.0646 228.235C58.9454 228.086 58.7716 228.051 58.5878 228.063C58.405 228.075 58.2482 228.276 58.3646 228.449C58.4587 228.589 58.5636 228.708 58.7401 228.74C58.8789 228.764 59.0431 228.727 59.1174 228.596C59.1855 228.475 59.1452 228.336 59.0646 228.235Z" fill="#50AA75"/>
<path d="M48.2023 211.198C47.9845 211.158 47.7793 211.155 47.5596 211.158C47.2522 211.161 47.2514 211.627 47.5596 211.631C47.7801 211.634 47.9845 211.631 48.2023 211.592C48.3993 211.557 48.4003 211.232 48.2023 211.198Z" fill="#50AA75"/>
<path d="M100.168 212.271C100.095 212.252 100.02 212.239 99.9459 212.225C99.902 211.934 99.6771 211.73 99.3661 211.65C98.9224 211.537 98.5872 211.718 98.3364 212.068C98.2038 212.253 98.2835 212.5 98.4466 212.644C98.4484 212.743 98.4825 212.846 98.5693 212.941C98.6231 213 98.6832 213.042 98.7441 213.078C98.7235 213.142 98.7386 213.213 98.8202 213.248C99.1187 213.378 99.3803 213.453 99.695 213.324C99.833 213.267 99.9512 213.188 100.066 213.093C100.149 213.024 100.287 212.924 100.373 212.769C100.478 212.581 100.386 212.328 100.168 212.271Z" fill="#50AA75"/>
</g>
<defs>
<filter id="filter0_d_2_8972" x="114.427" y="183.189" width="65.0776" height="8.82594" filterUnits="userSpaceOnUse" color-interpolation-filters="sRGB">
<feFlood flood-opacity="0" result="BackgroundImageFix"/>
<feColorMatrix in="SourceAlpha" type="matrix" values="0 0 0 0 0 0 0 0 0 0 0 0 0 0 0 0 0 0 127 0" result="hardAlpha"/>
<feOffset dy="0.542607"/>
<feGaussianBlur stdDeviation="0.271304"/>
<feComposite in2="hardAlpha" operator="out"/>
<feColorMatrix type="matrix" values="0 0 0 0 0 0 0 0 0 0 0 0 0 0 0 0 0 0 0.05 0"/>
<feBlend mode="normal" in2="BackgroundImageFix" result="effect1_dropShadow_2_8972"/>
<feBlend mode="normal" in="SourceGraphic" in2="effect1_dropShadow_2_8972" result="shape"/>
</filter>
<clipPath id="clip0_2_8972">
<rect width="375" height="239" fill="white"/>
</clipPath>
</defs>
</svg>
