<svg width="52" height="51" viewBox="0 0 52 51" fill="none" xmlns="http://www.w3.org/2000/svg">
<g clip-path="url(#clip0_2_3264)">
<rect x="0.5" width="51" height="51" fill="url(#paint0_linear_2_3264)"/>
<g filter="url(#filter0_f_2_3264)">
<rect x="2.79102" y="41.3379" width="31.875" height="0.597656" rx="0.298828" transform="rotate(-90 2.79102 41.3379)" fill="#A3A7A3"/>
</g>
<g filter="url(#filter1_f_2_3264)">
<rect x="10.0625" y="1.99219" width="31.875" height="2.39062" rx="1.19531" fill="white"/>
</g>
<g filter="url(#filter2_f_2_3264)">
<rect x="48.0137" y="41.3379" width="31.875" height="1.19531" rx="0.597656" transform="rotate(-90 48.0137 41.3379)" fill="white"/>
</g>
<g filter="url(#filter3_f_2_3264)">
<rect x="2.79102" y="13.0488" width="3.58594" height="0.597656" rx="0.298828" transform="rotate(-90 2.79102 13.0488)" fill="white"/>
</g>
<g filter="url(#filter4_f_2_3264)">
<rect x="48.0137" y="13.0488" width="3.58594" height="1.19531" rx="0.597656" transform="rotate(-90 48.0137 13.0488)" fill="white"/>
</g>
<g filter="url(#filter5_ddd_2_3264)">
<path d="M35.2815 12.7251C35.4189 13.1006 36.9447 17.5692 33.8153 22.8387C31.9145 26.0393 29.0285 26.2511 28.7459 26.2642C28.5803 26.0347 26.951 23.6432 28.2747 20.1641C30.4541 14.4359 34.9021 12.8511 35.2815 12.7251Z" fill="url(#paint1_linear_2_3264)"/>
<path d="M16.7189 12.7251C16.5815 13.1006 15.0556 17.5692 18.1851 22.8387C20.0859 26.0393 22.9719 26.2511 23.2545 26.2642C23.42 26.0347 25.0494 23.6432 23.7256 20.1641C21.5463 14.4359 17.0983 12.8511 16.7189 12.7251Z" fill="url(#paint2_linear_2_3264)"/>
<path d="M26.0001 9.96094C25.5341 10.4131 20.1481 15.8708 21.0047 25.786C21.525 31.8085 25.596 34.1554 26.0001 34.3742C26.4041 34.1554 30.4751 31.8084 30.9954 25.786C31.852 15.8708 26.466 10.4131 26.0001 9.96094Z" fill="url(#paint3_linear_2_3264)"/>
<path d="M37.5308 25.1394C38.5442 21.6565 38.2012 18.4194 38.2012 18.4194C38.2012 18.4194 36.2496 19.2888 31.3453 22.4581C27.533 24.9216 26.3535 29.2408 26 30.4049H30.4804C33.7372 30.4049 36.6209 28.2666 37.5308 25.1394Z" fill="url(#paint4_linear_2_3264)"/>
<path d="M14.4692 25.1394C13.4558 21.6565 13.7988 18.4194 13.7988 18.4194C13.7988 18.4194 15.7504 19.2888 20.6548 22.4581C24.467 24.9216 25.6465 29.2408 26 30.4049H21.5196C18.2628 30.4049 15.3791 28.2666 14.4692 25.1394Z" fill="url(#paint5_linear_2_3264)"/>
<g filter="url(#filter6_d_2_3264)">
<path d="M29.2393 41.0404H22.7595C21.0408 41.0404 19.5665 39.8149 19.2523 38.1252L17.863 30.6548H34.1359L32.7467 38.1252C32.4324 39.8149 30.958 41.0404 29.2393 41.0404Z" fill="url(#paint6_linear_2_3264)"/>
</g>
<path d="M34.4199 32.3335H17.5797C16.8973 32.3335 16.3441 31.7803 16.3441 31.0979C16.3441 30.4155 16.8973 29.8623 17.5797 29.8623H34.42C35.1024 29.8623 35.6556 30.4155 35.6556 31.0979C35.6555 31.7803 35.1024 32.3335 34.4199 32.3335Z" fill="url(#paint7_linear_2_3264)"/>
</g>
</g>
<defs>
<filter id="filter0_f_2_3264" x="-0.496094" y="6.17578" width="7.17188" height="38.4492" filterUnits="userSpaceOnUse" color-interpolation-filters="sRGB">
<feFlood flood-opacity="0" result="BackgroundImageFix"/>
<feBlend mode="normal" in="SourceGraphic" in2="BackgroundImageFix" result="shape"/>
<feGaussianBlur stdDeviation="1.64355" result="effect1_foregroundBlur_2_3264"/>
</filter>
<filter id="filter1_f_2_3264" x="4.7832" y="-3.28711" width="42.4336" height="12.9492" filterUnits="userSpaceOnUse" color-interpolation-filters="sRGB">
<feFlood flood-opacity="0" result="BackgroundImageFix"/>
<feBlend mode="normal" in="SourceGraphic" in2="BackgroundImageFix" result="shape"/>
<feGaussianBlur stdDeviation="2.63965" result="effect1_foregroundBlur_2_3264"/>
</filter>
<filter id="filter2_f_2_3264" x="44.627" y="6.07617" width="7.96875" height="38.6484" filterUnits="userSpaceOnUse" color-interpolation-filters="sRGB">
<feFlood flood-opacity="0" result="BackgroundImageFix"/>
<feBlend mode="normal" in="SourceGraphic" in2="BackgroundImageFix" result="shape"/>
<feGaussianBlur stdDeviation="1.69336" result="effect1_foregroundBlur_2_3264"/>
</filter>
<filter id="filter3_f_2_3264" x="1.19727" y="7.86914" width="3.78516" height="6.77344" filterUnits="userSpaceOnUse" color-interpolation-filters="sRGB">
<feFlood flood-opacity="0" result="BackgroundImageFix"/>
<feBlend mode="normal" in="SourceGraphic" in2="BackgroundImageFix" result="shape"/>
<feGaussianBlur stdDeviation="0.796875" result="effect1_foregroundBlur_2_3264"/>
</filter>
<filter id="filter4_f_2_3264" x="46.4199" y="7.86914" width="4.38281" height="6.77344" filterUnits="userSpaceOnUse" color-interpolation-filters="sRGB">
<feFlood flood-opacity="0" result="BackgroundImageFix"/>
<feBlend mode="normal" in="SourceGraphic" in2="BackgroundImageFix" result="shape"/>
<feGaussianBlur stdDeviation="0.796875" result="effect1_foregroundBlur_2_3264"/>
</filter>
<filter id="filter5_ddd_2_3264" x="11.7507" y="7.82302" width="28.4985" height="35.1491" filterUnits="userSpaceOnUse" color-interpolation-filters="sRGB">
<feFlood flood-opacity="0" result="BackgroundImageFix"/>
<feColorMatrix in="SourceAlpha" type="matrix" values="0 0 0 0 0 0 0 0 0 0 0 0 0 0 0 0 0 0 127 0" result="hardAlpha"/>
<feOffset dy="-0.0606418"/>
<feGaussianBlur stdDeviation="0.996094"/>
<feColorMatrix type="matrix" values="0 0 0 0 0.341176 0 0 0 0 0.694118 0 0 0 0 0.0666667 0 0 0 0.0534177 0"/>
<feBlend mode="normal" in2="BackgroundImageFix" result="effect1_dropShadow_2_3264"/>
<feColorMatrix in="SourceAlpha" type="matrix" values="0 0 0 0 0 0 0 0 0 0 0 0 0 0 0 0 0 0 127 0" result="hardAlpha"/>
<feOffset dy="-0.145731"/>
<feGaussianBlur stdDeviation="0.996094"/>
<feColorMatrix type="matrix" values="0 0 0 0 0.341176 0 0 0 0 0.694118 0 0 0 0 0.0666667 0 0 0 0.0767396 0"/>
<feBlend mode="normal" in2="effect1_dropShadow_2_3264" result="effect2_dropShadow_2_3264"/>
<feColorMatrix in="SourceAlpha" type="matrix" values="0 0 0 0 0 0 0 0 0 0 0 0 0 0 0 0 0 0 127 0" result="hardAlpha"/>
<feOffset dx="-0.199219" dy="-0.199219"/>
<feGaussianBlur stdDeviation="0.149414"/>
<feColorMatrix type="matrix" values="0 0 0 0 0 0 0 0 0 0 0 0 0 0 0 0 0 0 0.25 0"/>
<feBlend mode="normal" in2="effect2_dropShadow_2_3264" result="effect3_dropShadow_2_3264"/>
<feBlend mode="normal" in="SourceGraphic" in2="effect3_dropShadow_2_3264" result="shape"/>
</filter>
<filter id="filter6_d_2_3264" x="17.4646" y="30.6548" width="17.0697" height="11.1826" filterUnits="userSpaceOnUse" color-interpolation-filters="sRGB">
<feFlood flood-opacity="0" result="BackgroundImageFix"/>
<feColorMatrix in="SourceAlpha" type="matrix" values="0 0 0 0 0 0 0 0 0 0 0 0 0 0 0 0 0 0 127 0" result="hardAlpha"/>
<feOffset dy="0.398438"/>
<feGaussianBlur stdDeviation="0.199219"/>
<feColorMatrix type="matrix" values="0 0 0 0 0 0 0 0 0 0 0 0 0 0 0 0 0 0 0.25 0"/>
<feBlend mode="normal" in2="BackgroundImageFix" result="effect1_dropShadow_2_3264"/>
<feBlend mode="normal" in="SourceGraphic" in2="effect1_dropShadow_2_3264" result="shape"/>
</filter>
<linearGradient id="paint0_linear_2_3264" x1="26" y1="0" x2="26" y2="51" gradientUnits="userSpaceOnUse">
<stop stop-color="#E6E9F0"/>
<stop offset="1" stop-color="#EEF1F5"/>
</linearGradient>
<linearGradient id="paint1_linear_2_3264" x1="31.7669" y1="12.7251" x2="31.7628" y2="27.3071" gradientUnits="userSpaceOnUse">
<stop stop-color="#A6C568"/>
<stop offset="0.223958" stop-color="#9EDB1D"/>
<stop offset="0.473958" stop-color="#94CB23"/>
<stop offset="0.59375" stop-color="#8AB927"/>
<stop offset="0.755208" stop-color="#7A9E2F"/>
<stop offset="1" stop-color="#7A9A37"/>
</linearGradient>
<linearGradient id="paint2_linear_2_3264" x1="20.2334" y1="12.7251" x2="20.2294" y2="27.3071" gradientUnits="userSpaceOnUse">
<stop stop-color="#A6C568"/>
<stop offset="0.223958" stop-color="#9EDB1D"/>
<stop offset="0.473958" stop-color="#94CB23"/>
<stop offset="0.59375" stop-color="#8AB927"/>
<stop offset="0.755208" stop-color="#7A9E2F"/>
<stop offset="1" stop-color="#7A9A37"/>
</linearGradient>
<linearGradient id="paint3_linear_2_3264" x1="26.0001" y1="9.96094" x2="25.9896" y2="36.2547" gradientUnits="userSpaceOnUse">
<stop stop-color="#A6C568"/>
<stop offset="0.223958" stop-color="#9EDB1D"/>
<stop offset="0.473958" stop-color="#94CB23"/>
<stop offset="0.59375" stop-color="#8AB927"/>
<stop offset="0.755208" stop-color="#7A9E2F"/>
<stop offset="1" stop-color="#7A9A37"/>
</linearGradient>
<linearGradient id="paint4_linear_2_3264" x1="32.1285" y1="18.4194" x2="32.1265" y2="31.3281" gradientUnits="userSpaceOnUse">
<stop stop-color="#A6C568"/>
<stop offset="0.223958" stop-color="#9EDB1D"/>
<stop offset="0.473958" stop-color="#94CB23"/>
<stop offset="0.59375" stop-color="#8AB927"/>
<stop offset="0.755208" stop-color="#7A9E2F"/>
<stop offset="1" stop-color="#7A9A37"/>
</linearGradient>
<linearGradient id="paint5_linear_2_3264" x1="19.8715" y1="18.4194" x2="19.8694" y2="31.3281" gradientUnits="userSpaceOnUse">
<stop stop-color="#A6C568"/>
<stop offset="0.223958" stop-color="#9EDB1D"/>
<stop offset="0.473958" stop-color="#94CB23"/>
<stop offset="0.59375" stop-color="#8AB927"/>
<stop offset="0.755208" stop-color="#7A9E2F"/>
<stop offset="1" stop-color="#7A9A37"/>
</linearGradient>
<linearGradient id="paint6_linear_2_3264" x1="25.9995" y1="30.6548" x2="25.9995" y2="41.0404" gradientUnits="userSpaceOnUse">
<stop stop-color="#F2A559"/>
<stop offset="1" stop-color="#CF7012"/>
</linearGradient>
<linearGradient id="paint7_linear_2_3264" x1="25.9999" y1="29.8623" x2="25.9999" y2="32.3335" gradientUnits="userSpaceOnUse">
<stop stop-color="#F2A559"/>
<stop offset="1" stop-color="#CF7012"/>
</linearGradient>
<clipPath id="clip0_2_3264">
<rect x="0.5" width="51" height="51" rx="11.9531" fill="white"/>
</clipPath>
</defs>
</svg>
