<svg width="1164" height="412" viewBox="0 0 1164 412" fill="none" xmlns="http://www.w3.org/2000/svg">
<g clip-path="url(#clip0_2_1816)">
<path d="M385.693 186.801C386.776 186.767 387.734 186.086 388.122 185.074C389.722 180.897 393.699 177.864 398.442 177.715C401.056 177.633 403.48 178.453 405.448 179.879L403.95 180.159C403.438 180.255 403.051 180.676 402.997 181.194C402.943 181.711 403.237 182.203 403.718 182.401L412.117 185.866C412.485 186.018 412.904 185.973 413.232 185.748C413.559 185.522 413.751 185.146 413.74 184.748L413.496 175.622C413.483 175.103 413.13 174.654 412.629 174.519C412.127 174.383 411.597 174.592 411.323 175.033L410.235 176.784C407.098 173.884 402.869 172.164 398.272 172.308C391.3 172.528 385.44 176.974 383.074 183.105C382.745 183.955 382.865 184.913 383.391 185.656C383.918 186.399 384.782 186.83 385.693 186.801Z" fill="#FB8B39"/>
<path d="M414.212 192.656C413.686 191.913 412.821 191.482 411.911 191.511C410.827 191.545 409.869 192.226 409.482 193.239C407.881 197.415 403.905 200.448 399.162 200.597C396.548 200.68 394.123 199.859 392.155 198.434L393.654 198.153C394.166 198.057 394.553 197.636 394.607 197.118C394.66 196.601 394.367 196.109 393.886 195.911L385.487 192.446C385.119 192.295 384.699 192.339 384.371 192.565C384.044 192.79 383.853 193.166 383.863 193.564L384.107 202.69C384.121 203.209 384.474 203.658 384.974 203.794C385.476 203.929 386.007 203.72 386.281 203.279L387.368 201.528C390.506 204.428 394.734 206.148 399.332 206.004C406.304 205.784 412.164 201.338 414.53 195.207C414.859 194.357 414.739 193.399 414.212 192.656Z" fill="#FB8B39"/>
</g>
<path opacity="0.05" fill-rule="evenodd" clip-rule="evenodd" d="M357.295 185.886C359.267 177.593 369.517 174.79 376.616 170.043C381.925 166.493 387.294 163.712 393.38 161.757C400.341 159.52 407.455 155.699 414.433 157.893C421.713 160.182 428.037 166.199 430.455 173.416C432.742 180.238 427.942 187.039 426.566 194.096C425.33 200.436 426.529 207.334 422.811 212.622C418.819 218.299 412.651 222.777 405.754 223.697C399.027 224.594 393.223 219.905 386.912 217.409C380.12 214.722 372.455 213.867 367.459 208.55C361.641 202.358 355.334 194.136 357.295 185.886Z" fill="#85B719"/>
<path opacity="0.05" fill-rule="evenodd" clip-rule="evenodd" d="M976.641 390.467C967.358 394.481 957.415 386.729 947.862 383.351C940.717 380.825 934.262 377.696 928.081 373.299C921.012 368.27 912.328 364.222 909.459 356.03C906.466 347.484 907.695 337.2 912.838 329.776C917.699 322.759 927.572 322.492 935.258 318.789C942.162 315.463 947.868 309.425 955.534 309.204C963.766 308.967 972.403 311.651 978.174 317.554C983.804 323.312 983.468 332.158 985.576 339.93C987.845 348.295 992.475 356.188 990.968 364.713C989.213 374.64 985.876 386.474 976.641 390.467Z" fill="#85B719"/>
<path opacity="0.05" fill-rule="evenodd" clip-rule="evenodd" d="M264.737 365.656C261.302 375.843 259.487 387.451 250.02 392.545C240.409 397.717 229.253 393.968 218.981 390.278C207.125 386.018 192.858 382.566 188.928 370.596C184.841 358.145 192.164 344.966 200.898 335.196C208.716 326.451 220.236 324.075 231.868 322.562C246.045 320.717 263.828 314.514 272.498 325.881C281.117 337.181 269.278 352.189 264.737 365.656Z" fill="#85B719"/>
<g clip-path="url(#clip1_2_1816)">
<path d="M51.4651 238.588C49.9699 237.019 48.8549 237.347 48.2014 239.356C45.019 247.788 40.1826 260.451 41.4674 265.912C42.3682 269.74 44.7643 272.886 47.8655 274.806C50.9668 276.725 54.8507 277.467 58.6792 276.567C62.5078 275.666 65.6533 273.27 67.5731 270.168C69.4929 267.067 70.2349 263.183 69.3341 259.355C68.0345 253.832 58.0737 244.716 51.4651 238.588ZM66.9048 266.484C66.2846 268.352 65.1807 270.135 63.6596 271.553C62.9471 272.184 61.8838 272.17 61.2525 271.457C60.5436 270.696 60.6212 269.618 61.3337 268.987C62.4265 268.001 63.1944 266.761 63.667 265.391C64.1396 264.021 64.254 262.537 63.9771 261.079C63.8184 260.123 64.4091 259.255 65.3653 259.096C66.3215 258.938 67.1891 259.528 67.3478 260.485C67.6949 262.522 67.5103 264.553 66.9048 266.484Z" fill="#42A9CA"/>
</g>
<g clip-path="url(#clip2_2_1816)">
<path d="M238.921 342.427C239.554 342.292 239.957 341.669 239.821 341.036C239.686 340.403 239.063 340 238.43 340.135C237.797 340.271 237.394 340.894 237.53 341.527C237.665 342.159 238.288 342.563 238.921 342.427Z" fill="#50AA75"/>
<path d="M248.989 339.073C248.66 337.539 247.371 336.453 245.887 336.31C246.28 334.871 245.723 333.281 244.407 332.426C243.09 331.575 241.41 331.721 240.259 332.667C239.521 331.371 238.002 330.64 236.468 330.968C234.934 331.296 233.847 332.586 233.704 334.07C232.262 333.677 230.673 334.234 229.82 335.55C228.97 336.867 229.114 338.546 230.061 339.697C228.766 340.436 228.034 341.955 228.362 343.489C228.691 345.023 229.98 346.11 231.465 346.253C231.071 347.691 231.628 349.282 232.944 350.136C234.263 350.989 235.944 350.842 237.092 349.896C237.636 350.851 238.608 351.491 239.694 351.635L240.863 357.095L237.673 355.03C237.129 354.678 236.404 354.833 236.052 355.377C235.7 355.92 235.856 356.645 236.399 356.997L241.556 360.336L242.714 365.743L231.255 368.197L230.097 362.789L232.535 359.023C232.887 358.479 232.732 357.754 232.188 357.402C231.645 357.05 230.92 357.206 230.568 357.749L229.403 359.548L228.724 356.374C229.953 355.614 230.644 354.148 230.325 352.656C230.196 352.052 229.91 351.492 229.498 351.037L226.776 348.023C226.214 347.401 225.048 347.651 224.791 348.448L223.541 352.312C223.352 352.896 223.32 353.524 223.45 354.128C223.769 355.62 225 356.675 226.432 356.864L227.112 360.039L225.313 358.874C224.769 358.522 224.044 358.678 223.692 359.221C223.341 359.764 223.496 360.49 224.039 360.841L227.805 363.279L228.963 368.687L222.088 370.159L219.847 359.693C219.712 359.06 219.089 358.657 218.456 358.793C217.823 358.928 217.42 359.55 217.555 360.184L217.944 362.001L217.537 361.737C216.993 361.385 216.268 361.541 215.916 362.084C215.565 362.628 215.72 363.353 216.263 363.705L218.638 365.242L219.796 370.65L216.282 371.402C215.648 371.538 215.246 372.16 215.381 372.793L215.872 375.085C216.007 375.718 216.63 376.121 217.263 375.986L254.085 368.103C254.718 367.967 255.121 367.345 254.986 366.712L254.495 364.42C254.359 363.786 253.737 363.384 253.104 363.519L245.006 365.253L243.358 357.553L246.696 352.396C247.048 351.852 246.893 351.127 246.349 350.775C245.806 350.424 245.081 350.579 244.729 351.122L242.664 354.312L241.986 351.144C242.918 350.569 243.542 349.587 243.647 348.492C245.086 348.885 246.676 348.326 247.531 347.013C248.382 345.695 248.238 344.016 247.29 342.865C248.586 342.126 249.317 340.608 248.989 339.073ZM239.412 344.719C237.516 345.125 235.644 343.913 235.238 342.017C234.832 340.121 236.044 338.249 237.94 337.843C239.835 337.438 241.708 338.65 242.113 340.545C242.519 342.441 241.307 344.313 239.412 344.719Z" fill="#50AA75"/>
</g>
<g clip-path="url(#clip3_2_1816)">
<path d="M960.95 349.753C962.79 349.031 964.197 346.623 964.256 346.521C964.302 346.439 964.329 346.349 964.335 346.255C964.341 346.162 964.327 346.069 964.293 345.982C964.259 345.895 964.206 345.816 964.138 345.752C964.07 345.688 963.988 345.64 963.9 345.611C963.787 345.576 961.118 344.767 959.278 345.488C958.786 345.678 958.348 345.984 958.001 346.381C957.757 345.914 957.403 345.513 956.969 345.213C955.35 344.08 952.565 344.24 952.448 344.247C952.354 344.255 952.264 344.282 952.183 344.329C952.101 344.375 952.032 344.439 951.978 344.515C951.924 344.592 951.888 344.679 951.873 344.771C951.857 344.864 951.862 344.958 951.887 345.048C951.921 345.161 952.723 347.832 954.343 348.966C955.234 349.59 956.184 349.666 957.031 349.485L956.855 350.962C956.067 350.989 955.308 351.264 954.685 351.747C954.062 352.23 953.606 352.896 953.383 353.652L952.146 353.505C952.066 353.494 951.984 353.499 951.905 353.519C951.827 353.54 951.753 353.577 951.688 353.626C951.624 353.676 951.57 353.738 951.53 353.809C951.49 353.88 951.464 353.958 951.455 354.038C951.445 354.119 951.452 354.201 951.474 354.279C951.496 354.357 951.534 354.43 951.585 354.494C951.636 354.557 951.699 354.61 951.771 354.649C951.842 354.687 951.921 354.711 952.002 354.719L961.932 355.902C962.012 355.913 962.094 355.908 962.173 355.887C962.251 355.866 962.325 355.83 962.389 355.78C962.454 355.731 962.508 355.669 962.548 355.598C962.588 355.527 962.614 355.449 962.623 355.368C962.633 355.287 962.626 355.206 962.604 355.127C962.581 355.049 962.544 354.976 962.493 354.913C962.442 354.849 962.379 354.797 962.307 354.758C962.236 354.719 962.157 354.695 962.076 354.687L960.725 354.526C960.686 353.759 960.413 353.022 959.942 352.415C959.472 351.808 958.827 351.359 958.094 351.13L958.272 349.638C959.051 349.969 960.055 350.104 960.95 349.753Z" fill="#B47C64"/>
<path d="M960.732 323.686C957.798 323.336 952.2 327.067 948.584 329.982C948.489 330.059 948.418 330.163 948.381 330.28C948.344 330.398 948.342 330.523 948.376 330.641C948.41 330.76 948.478 330.865 948.572 330.945C948.666 331.024 948.781 331.075 948.903 331.089L970.457 333.656C970.579 333.67 970.704 333.648 970.814 333.592C970.924 333.536 971.015 333.449 971.076 333.341C971.136 333.234 971.164 333.11 971.154 332.987C971.145 332.864 971.099 332.746 971.023 332.649C968.13 328.964 963.451 324.01 960.732 323.686ZM954.26 330.468C954.137 330.454 954.021 330.403 953.927 330.322C953.833 330.242 953.765 330.136 953.732 330.017C953.699 329.898 953.701 329.772 953.739 329.654C953.778 329.536 953.85 329.433 953.947 329.356C954.044 329.28 954.162 329.234 954.285 329.224C954.408 329.215 954.532 329.242 954.639 329.302C954.747 329.363 954.835 329.454 954.891 329.564C954.947 329.674 954.969 329.799 954.954 329.921C954.935 330.086 954.85 330.236 954.72 330.339C954.59 330.441 954.424 330.488 954.26 330.468ZM957.038 328.281C956.915 328.267 956.799 328.216 956.705 328.136C956.612 328.055 956.544 327.949 956.51 327.83C956.477 327.711 956.479 327.585 956.517 327.467C956.556 327.35 956.628 327.246 956.725 327.17C956.822 327.093 956.94 327.047 957.063 327.038C957.186 327.028 957.31 327.055 957.417 327.116C957.525 327.176 957.613 327.267 957.669 327.377C957.725 327.487 957.747 327.612 957.732 327.735C957.713 327.899 957.629 328.049 957.498 328.152C957.368 328.254 957.202 328.301 957.038 328.281ZM957.983 330.912C957.861 330.897 957.745 330.846 957.651 330.766C957.557 330.686 957.489 330.579 957.456 330.46C957.422 330.341 957.425 330.215 957.463 330.097C957.501 329.98 957.574 329.876 957.671 329.8C957.768 329.723 957.886 329.677 958.009 329.668C958.132 329.658 958.255 329.685 958.363 329.746C958.471 329.806 958.558 329.897 958.614 330.008C958.67 330.118 958.693 330.242 958.678 330.365C958.658 330.529 958.574 330.679 958.444 330.782C958.314 330.885 958.148 330.931 957.983 330.912ZM959.195 326.02C959.072 326.006 958.957 325.955 958.863 325.875C958.769 325.794 958.701 325.688 958.667 325.569C958.634 325.45 958.637 325.324 958.675 325.206C958.713 325.089 958.785 324.985 958.883 324.909C958.98 324.832 959.097 324.786 959.221 324.777C959.344 324.767 959.467 324.794 959.575 324.855C959.683 324.915 959.77 325.006 959.826 325.117C959.882 325.227 959.904 325.351 959.89 325.474C959.87 325.638 959.786 325.788 959.656 325.891C959.525 325.993 959.36 326.04 959.195 326.02ZM960.215 328.03C960.092 328.016 959.976 327.965 959.882 327.884C959.789 327.804 959.72 327.698 959.687 327.579C959.654 327.46 959.656 327.333 959.694 327.216C959.733 327.098 959.805 326.995 959.902 326.918C959.999 326.842 960.117 326.796 960.24 326.786C960.363 326.777 960.487 326.804 960.594 326.864C960.702 326.925 960.79 327.016 960.846 327.126C960.902 327.236 960.924 327.361 960.909 327.483C960.89 327.648 960.806 327.798 960.675 327.901C960.545 328.003 960.379 328.05 960.215 328.03ZM961.087 331.281C960.964 331.266 960.848 331.216 960.754 331.135C960.66 331.055 960.592 330.949 960.559 330.83C960.525 330.711 960.528 330.584 960.566 330.467C960.604 330.349 960.677 330.246 960.774 330.169C960.871 330.093 960.989 330.047 961.112 330.037C961.235 330.028 961.358 330.055 961.466 330.115C961.574 330.176 961.661 330.267 961.718 330.377C961.774 330.487 961.796 330.612 961.781 330.734C961.761 330.899 961.677 331.049 961.547 331.151C961.417 331.254 961.251 331.301 961.087 331.281ZM962.224 327.011C962.102 326.996 961.986 326.945 961.892 326.865C961.798 326.785 961.73 326.678 961.697 326.559C961.663 326.44 961.666 326.314 961.704 326.196C961.742 326.079 961.815 325.975 961.912 325.899C962.009 325.822 962.126 325.776 962.25 325.767C962.373 325.757 962.496 325.784 962.604 325.845C962.712 325.905 962.799 325.996 962.855 326.107C962.911 326.217 962.934 326.341 962.919 326.464C962.899 326.628 962.815 326.779 962.685 326.881C962.555 326.984 962.389 327.03 962.224 327.011ZM963.17 329.641C963.047 329.626 962.932 329.576 962.838 329.495C962.744 329.415 962.676 329.308 962.642 329.189C962.609 329.07 962.611 328.944 962.65 328.827C962.688 328.709 962.76 328.606 962.857 328.529C962.955 328.453 963.072 328.407 963.195 328.397C963.319 328.388 963.442 328.415 963.55 328.475C963.658 328.536 963.745 328.627 963.801 328.737C963.857 328.847 963.879 328.971 963.865 329.094C963.845 329.259 963.761 329.409 963.631 329.511C963.5 329.614 963.335 329.66 963.17 329.641ZM965.431 331.798C965.308 331.784 965.192 331.733 965.099 331.653C965.005 331.572 964.937 331.466 964.903 331.347C964.87 331.228 964.872 331.102 964.91 330.984C964.949 330.867 965.021 330.763 965.118 330.687C965.215 330.61 965.333 330.564 965.456 330.555C965.579 330.545 965.703 330.572 965.811 330.633C965.918 330.693 966.006 330.784 966.062 330.894C966.118 331.004 966.14 331.129 966.125 331.252C966.106 331.416 966.022 331.566 965.891 331.669C965.761 331.771 965.595 331.818 965.431 331.798Z" fill="#B47C64"/>
<path d="M974.607 349.885C974.798 348.284 974.669 344.661 974.511 341.682C974.857 341.689 975.199 341.6 975.497 341.425C975.796 341.25 976.04 340.995 976.203 340.689C976.366 340.384 976.441 340.039 976.419 339.693C976.398 339.348 976.281 339.015 976.082 338.731C976.453 338.406 976.68 337.948 976.714 337.456C976.785 336.451 976.026 335.577 975.026 335.458L943.414 331.694C943.085 331.655 942.753 331.748 942.493 331.953C942.232 332.158 942.064 332.459 942.025 332.788C941.986 333.117 942.079 333.448 942.284 333.709C942.489 333.969 942.789 334.138 943.118 334.177L963.599 336.615C963.763 336.635 963.913 336.719 964.016 336.849C964.118 336.98 964.165 337.145 964.145 337.31C964.126 337.475 964.042 337.625 963.911 337.727C963.781 337.83 963.615 337.876 963.451 337.857L942.351 335.344C942.186 335.325 942.021 335.372 941.891 335.474C941.76 335.577 941.676 335.726 941.655 335.891C941.601 336.353 941.72 336.818 941.989 337.198C942.259 337.577 942.659 337.843 943.113 337.943C942.26 340.802 941.284 344.293 941.094 345.895C940.326 352.343 940.42 354.946 940.498 355.776C940.311 356.046 939.11 357.27 939.069 357.612C938.893 359.089 940.316 360.224 941.748 359.849C951.862 363.335 958.903 364.419 970.694 363.295C971.98 363.987 973.647 363.231 973.823 361.751C973.864 361.408 972.99 359.937 972.865 359.63C973.136 358.841 973.839 356.333 974.607 349.885ZM959.387 358.773L953.801 358.108C951.579 357.843 949.553 356.707 948.169 354.948C946.785 353.19 946.156 350.954 946.421 348.732C946.685 346.51 947.822 344.484 949.58 343.1C951.338 341.716 953.574 341.087 955.796 341.351L961.382 342.016C963.604 342.281 965.63 343.417 967.014 345.176C968.398 346.934 969.027 349.17 968.763 351.392C968.498 353.614 967.362 355.64 965.603 357.024C963.845 358.408 961.609 359.037 959.387 358.773ZM972.118 338.889L967.174 338.3C967.01 338.28 966.86 338.196 966.757 338.066C966.655 337.936 966.608 337.77 966.628 337.606C966.647 337.441 966.732 337.291 966.862 337.188C966.992 337.086 967.158 337.039 967.322 337.059L972.287 337.65C972.372 337.66 972.454 337.688 972.528 337.731C972.602 337.774 972.666 337.832 972.717 337.901C972.768 337.97 972.804 338.048 972.823 338.132C972.842 338.215 972.843 338.302 972.828 338.386C972.795 338.544 972.703 338.683 972.572 338.776C972.44 338.87 972.278 338.91 972.118 338.889Z" fill="#B47C64"/>
</g>
<g clip-path="url(#clip4_2_1816)">
<path d="M1122.53 217.538C1123.14 217.488 1123.6 216.951 1123.55 216.34C1123.5 215.728 1122.96 215.273 1122.35 215.323L1116.85 215.771C1116.94 215.405 1116.98 215.026 1116.96 214.647C1116.79 212.592 1115.84 210.686 1114.32 209.347C1112.8 208.008 1110.84 207.345 1108.85 207.505C1107.71 207.638 1106.63 208.105 1105.74 208.851L1105.28 203.27C1107.61 202.802 1109.68 201.464 1111.11 199.51C1112.53 197.556 1113.22 195.122 1113.02 192.672L1112.84 190.457C1112.82 190.163 1112.68 189.891 1112.46 189.7C1112.25 189.508 1111.96 189.414 1111.68 189.437C1109.91 189.583 1108.22 190.232 1106.79 191.313C1105.36 192.393 1104.25 193.863 1103.58 195.56C1102.64 193.994 1101.31 192.724 1099.72 191.889C1098.14 191.055 1096.36 190.688 1094.59 190.83C1094.31 190.853 1094.05 190.992 1093.87 191.216C1093.68 191.44 1093.59 191.731 1093.62 192.025L1093.8 194.24C1094 196.689 1095.07 198.98 1096.79 200.678C1098.52 202.375 1100.78 203.359 1103.15 203.444L1103.6 209.026C1102.6 208.434 1101.46 208.148 1100.31 208.201C1098.33 208.365 1096.5 209.338 1095.21 210.905C1093.93 212.473 1093.3 214.508 1093.47 216.563C1093.52 216.939 1093.61 217.307 1093.76 217.654L1088.26 218.103C1087.65 218.153 1087.19 218.689 1087.24 219.301C1087.29 219.912 1087.83 220.368 1088.44 220.318L1095.01 219.782C1097.94 223.769 1104.14 228.625 1105.66 229.783C1105.87 229.945 1106.13 230.022 1106.39 230.001C1106.65 229.98 1106.89 229.862 1107.07 229.668C1108.39 228.279 1113.72 222.482 1115.96 218.073L1122.53 217.538ZM1113.39 218.283L1110.2 218.544L1106.58 222.975C1106.39 223.198 1106.13 223.335 1105.85 223.358C1105.75 223.367 1105.65 223.36 1105.56 223.337C1105.37 223.299 1105.2 223.211 1105.05 223.082C1104.91 222.952 1104.8 222.786 1104.74 222.601L1102.61 216.13L1100.96 218.851C1100.88 218.995 1100.76 219.117 1100.61 219.206C1100.47 219.295 1100.31 219.349 1100.15 219.363L1097.58 219.572C1096.99 218.932 1096.46 218.227 1096.01 217.471L1099.43 217.192L1101.99 212.97C1102.1 212.793 1102.25 212.652 1102.44 212.562C1102.62 212.472 1102.82 212.437 1103.02 212.462C1103.23 212.486 1103.42 212.57 1103.57 212.704C1103.73 212.837 1103.85 213.014 1103.91 213.214L1106.16 220.033L1108.85 216.748C1109.03 216.527 1109.29 216.39 1109.58 216.365L1114.6 215.955C1114.27 216.773 1113.87 217.553 1113.39 218.283Z" fill="#C55F5F"/>
</g>
<g clip-path="url(#clip5_2_1816)">
<g clip-path="url(#clip6_2_1816)">
<path d="M124.84 48.2151C128.01 47.7574 130.797 44.9508 133.854 44.5094C135.952 44.2064 137.81 45.2197 138.656 46.8968C139.084 47.7472 140.253 47.8669 140.862 47.1352C141.051 46.9078 141.158 46.6246 141.169 46.3295C141.18 46.0345 141.092 45.7443 140.921 45.504C139.786 43.8924 138.27 42.5869 136.508 41.7039C134.746 40.821 132.793 40.3881 130.823 40.444C128.852 40.4998 126.927 41.0426 125.218 42.0239C123.508 43.0053 122.069 44.3946 121.027 46.0678C120.895 46.2783 120.821 46.5199 120.812 46.7682C120.803 47.0166 120.859 47.2629 120.976 47.4825C121.092 47.702 121.264 47.8871 121.475 48.019C121.685 48.151 121.927 48.2251 122.175 48.2341C123.138 48.2671 124.124 48.3186 124.84 48.2151Z" fill="#50A5AA"/>
<path d="M124.604 68.576L114.026 70.1034C113.861 70.1273 113.693 70.0846 113.56 69.9847C113.426 69.8849 113.338 69.7361 113.314 69.571L112.325 62.7264C112.013 60.5614 111.905 57.4009 113.164 54.6393C114.494 51.7248 116.987 49.9843 120.574 49.4663C121.455 49.339 124.075 49.5959 125.02 49.4595C127.364 49.121 129.635 47.808 131.639 46.6496C137.45 43.2895 139.558 49.8761 136.445 51.5979C134.148 52.8681 130.09 54.1092 128.405 56.2741L138.42 52.0311L143.606 45.8061C143.895 41.8802 143.352 36.649 148.472 35.9097C148.562 35.898 148.653 35.9057 148.74 35.9324C148.827 35.9591 148.907 36.004 148.975 36.0643C149.043 36.1245 149.098 36.1986 149.135 36.2817C149.172 36.3647 149.191 36.4547 149.19 36.5456C149.182 36.9438 149.086 48.0544 148.816 48.3782L140.297 59.7717C140.121 60.075 127.05 65.0156 126.727 65.141C126.191 65.3465 125.742 65.7281 125.453 66.2231C125.164 66.7181 125.052 67.2968 125.136 67.8639C125.16 68.0289 125.117 68.1966 125.018 68.3302C124.918 68.4637 124.769 68.5521 124.604 68.576Z" fill="#50A5AA"/>
<path d="M139.47 26.6998C139.258 26.6632 134.257 25.8191 131.237 27.3932C129.536 28.2797 128.505 29.3235 127.996 30.3494C127.229 29.4963 125.948 28.7757 124.058 28.4048C120.747 27.7554 116.227 29.9893 116.036 30.0847C115.951 30.1287 115.877 30.1914 115.82 30.268C115.762 30.3446 115.723 30.4333 115.705 30.5273C115.686 30.6212 115.689 30.7182 115.714 30.8108C115.738 30.9034 115.783 30.9893 115.845 31.0621C117.033 32.4132 120.901 36.4415 125.547 35.7707C126.462 35.6385 127.339 35.2709 127.966 34.6749L128.571 38.8609C128.595 39.0259 128.683 39.1747 128.817 39.2746C128.95 39.3744 129.118 39.4171 129.283 39.3933C129.448 39.3694 129.597 39.281 129.697 39.1475C129.797 39.0139 129.839 38.8462 129.815 38.6812L129.221 34.5678C130.794 35.3565 133.062 34.7642 134.637 33.9434C137.656 32.3696 139.84 27.7814 139.931 27.587C139.971 27.4992 139.99 27.4036 139.987 27.3074C139.985 27.2112 139.96 27.1168 139.916 27.0314C139.871 26.9461 139.808 26.8718 139.731 26.8144C139.654 26.757 139.564 26.7178 139.47 26.6998Z" fill="#50A5AA"/>
</g>
</g>
<g clip-path="url(#clip7_2_1816)">
<path d="M997.483 71.1563C998.001 71.28 998.521 70.9604 998.645 70.4424C998.769 69.9244 998.449 69.4043 997.931 69.2806C997.413 69.1569 996.893 69.4765 996.769 69.9945C996.645 70.5125 996.965 71.0326 997.483 71.1563Z" fill="#647AB4"/>
<path d="M991.603 69.7522C992.121 69.8758 992.641 69.5562 992.765 69.0382C992.888 68.5203 992.569 68.0001 992.051 67.8764C991.533 67.7527 991.013 68.0724 990.889 68.5903C990.765 69.1083 991.085 69.6285 991.603 69.7522Z" fill="#647AB4"/>
<path d="M995.218 68.2013C995.736 68.3249 996.256 68.0053 996.38 67.4873C996.503 66.9694 996.184 66.4492 995.666 66.3255C995.148 66.2018 994.628 66.5215 994.504 67.0394C994.38 67.5574 994.7 68.0776 995.218 68.2013Z" fill="#647AB4"/>
<path d="M994.127 72.7691C994.645 72.8928 995.165 72.5732 995.289 72.0552C995.413 71.5372 995.093 71.0171 994.575 70.8934C994.057 70.7697 993.537 71.0893 993.413 71.6073C993.29 72.1253 993.609 72.6454 994.127 72.7691Z" fill="#647AB4"/>
<path d="M992.596 65.5922C993.114 65.7159 993.634 65.3963 993.758 64.8783C993.882 64.3604 993.562 63.8402 993.044 63.7165C992.526 63.5928 992.006 63.9125 991.882 64.4304C991.759 64.9484 992.078 65.4686 992.596 65.5922Z" fill="#647AB4"/>
<path d="M990.536 74.219C991.054 74.3427 991.574 74.023 991.698 73.505C991.822 72.9871 991.502 72.4669 990.984 72.3432C990.466 72.2195 989.946 72.5392 989.822 73.0571C989.699 73.5751 990.018 74.0953 990.536 74.219Z" fill="#647AB4"/>
<path d="M995.135 105.228L995.29 105.377L1007.64 108.327L1007.95 107.906C1009.82 105.347 1011.2 102.538 1012.05 99.5575C1012.73 97.1743 1013.07 94.6778 1013.06 92.1376C1013.06 87.8064 1012.06 84.8669 1012.01 84.7439L1011.87 84.3379L1005.87 82.9036L1005.68 83.6665C1004.74 87.6307 1002.58 88.9378 1000.3 90.3216C998.241 91.566 996.117 92.8529 994.996 96.0104C994.022 98.754 993.721 101.1 994.102 102.982C994.407 104.489 995.062 105.157 995.135 105.228ZM1010.66 85.6604C1011 86.8602 1011.5 89.3094 1011.5 92.2008C1011.5 93.1381 1011.44 94.0686 1011.34 94.9885L1007.64 94.1033C1008.54 91.9365 1009.38 89.0483 1009.68 85.4274L1010.66 85.6604ZM1001.11 91.6632C1003.32 90.3237 1005.81 88.8152 1007.01 84.7888L1008.14 85.0586C1007.86 88.7463 1006.99 91.632 1006.09 93.7339L1000.08 92.2985C1000.41 92.0854 1000.76 91.8769 1001.11 91.6632Z" fill="#647AB4"/>
<path d="M1000.69 73.3455L1001.98 73.6532L1003.07 69.0854L1001.78 68.7777C1001.19 68.6372 1000.6 69.0003 1000.46 69.5887L999.881 72.0257C999.741 72.6141 1000.1 73.205 1000.69 73.3455Z" fill="#647AB4"/>
<path d="M1004.45 76.171C1004.4 76.0947 1004.34 76.0227 1004.28 75.954C1004 75.6918 1003.66 75.4549 1003.23 75.2673C1003.23 75.2673 1001.38 79.755 999.584 80.8568C997.791 81.9587 999.959 82.9866 1001.53 80.9807C1003.07 79.0092 1004.78 78.7873 1005.33 78.8969C1005.3 78.6255 1005.27 78.3416 1005.21 78.055C1005.06 77.2851 1004.81 76.6513 1004.45 76.171Z" fill="#647AB4"/>
<path d="M1011.84 82.3308C1012.92 77.8099 1015.53 77.2269 1016.86 77.2392C1017.23 77.2426 1017.48 76.8603 1017.33 76.5208C1015.64 72.684 1012.98 71.4514 1011.65 71.1347C1010.29 70.8102 1004.67 69.4666 1004.22 69.3597L1004.19 69.3527L1003.1 73.9204L1003.08 73.9848C1007.33 74.9987 1006.43 81.0404 1006.43 81.0404L1011.84 82.3308Z" fill="#647AB4"/>
</g>
<path opacity="0.05" fill-rule="evenodd" clip-rule="evenodd" d="M1023.24 113.375C1014.48 119.611 1006.2 127.95 995.547 126.524C984.729 125.076 977.892 115.496 971.737 106.483C964.632 96.0793 955.1 84.9164 958.938 72.9165C962.929 60.4339 976.59 54.0552 989.394 51.2638C1000.86 48.7653 1011.58 53.5969 1021.89 59.193C1034.45 66.0136 1052.49 71.4186 1052.85 85.7106C1053.2 99.9181 1034.81 105.13 1023.24 113.375Z" fill="#85B719"/>
<path opacity="0.05" fill-rule="evenodd" clip-rule="evenodd" d="M1081.78 184.854C1089.19 177.07 1095.74 167.313 1106.47 166.692C1117.37 166.061 1125.9 174.17 1133.65 181.852C1142.6 190.72 1154.07 199.872 1152.58 212.382C1151.03 225.395 1138.83 234.249 1126.79 239.419C1116.01 244.045 1104.56 241.336 1093.38 237.796C1079.75 233.483 1061.01 231.598 1057.95 217.633C1054.91 203.75 1071.97 195.145 1081.78 184.854Z" fill="#85B719"/>
<path opacity="0.05" fill-rule="evenodd" clip-rule="evenodd" d="M82.609 40.9771C84.9489 31.1374 97.1096 27.8113 105.533 22.1786C111.833 17.9661 118.203 14.6673 125.424 12.3473C133.684 9.69368 142.124 5.15901 150.404 7.76279C159.042 10.4792 166.545 17.6184 169.415 26.1813C172.127 34.2752 166.433 42.3449 164.8 50.7185C163.334 58.2403 164.756 66.4256 160.345 72.6992C155.608 79.4359 148.289 84.7492 140.106 85.8404C132.124 86.9049 125.238 81.3414 117.75 78.3796C109.69 75.1917 100.596 74.177 94.6684 67.8679C87.7656 60.5208 80.2813 50.7658 82.609 40.9771Z" fill="#85B719"/>
<path opacity="0.05" fill-rule="evenodd" clip-rule="evenodd" d="M4.60901 256.977C6.94885 247.137 19.1096 243.811 27.5332 238.179C33.8328 233.966 40.2028 230.667 47.424 228.347C55.6836 225.694 64.1239 221.159 72.4037 223.763C81.0416 226.479 88.545 233.618 91.4148 242.181C94.1275 250.275 88.4329 258.345 86.8002 266.718C85.3336 274.24 86.7558 282.426 82.3448 288.699C77.6083 295.436 70.2889 300.749 62.1063 301.84C54.1243 302.905 47.238 297.341 39.7499 294.38C31.6905 291.192 22.596 290.177 16.6684 283.868C9.76559 276.521 2.2813 266.766 4.60901 256.977Z" fill="#85B719"/>
<defs>
<clipPath id="clip0_2_1816">
<rect width="33.7121" height="33.7121" fill="white" transform="translate(381.424 172.839) rotate(-1.80232)"/>
</clipPath>
<clipPath id="clip1_2_1816">
<rect width="40" height="40" fill="white" transform="translate(30.0492 242.211) rotate(-13.2406)"/>
</clipPath>
<clipPath id="clip2_2_1816">
<rect width="40" height="40" fill="white" transform="translate(207.744 337.117) rotate(-12.0835)"/>
</clipPath>
<clipPath id="clip3_2_1816">
<rect width="40" height="40" fill="white" transform="translate(940.872 321.321) rotate(6.79025)"/>
</clipPath>
<clipPath id="clip4_2_1816">
<rect width="40" height="40" fill="white" transform="translate(1083.56 191.73) rotate(-4.66212)"/>
</clipPath>
<clipPath id="clip5_2_1816">
<rect width="40" height="40" fill="white" transform="translate(107.653 30.37) rotate(-8.21673)"/>
</clipPath>
<clipPath id="clip6_2_1816">
<rect width="40.2363" height="40.2363" fill="white" transform="translate(107.653 30.37) rotate(-8.21673)"/>
</clipPath>
<clipPath id="clip7_2_1816">
<rect width="40" height="40" fill="white" transform="translate(986.172 62.0754) rotate(13.43)"/>
</clipPath>
</defs>
</svg>
