<svg width="528" height="470" viewBox="0 0 528 470" fill="none" xmlns="http://www.w3.org/2000/svg">
<path d="M229.858 459.89C270.649 459.89 303.717 455.763 303.717 450.672C303.717 445.581 270.649 441.454 229.858 441.454C189.068 441.454 156 445.581 156 450.672C156 455.763 189.068 459.89 229.858 459.89Z" fill="#E0E0E0" fill-opacity="0.4"/>
<path d="M343.281 149.626L342.415 148.36C344.857 146.679 346.241 145.798 346.255 145.789L347.074 147.086C347.061 147.094 345.697 147.963 343.281 149.626Z" fill="#00BFFA"/>
<path d="M201.748 337.636L200.271 337.235C200.674 335.744 201.089 334.26 201.517 332.784L202.986 333.213C202.562 334.68 202.148 336.154 201.748 337.636Z" fill="#00BFFA"/>
<path d="M348.438 160.563L347.473 159.37C349.776 157.491 351.074 156.502 351.086 156.492L352.011 157.717C351.999 157.727 350.719 158.703 348.438 160.563Z" fill="#00BFFA"/>
<path d="M215.324 336.774L213.912 336.18C214.507 334.757 215.108 333.341 215.717 331.932L217.121 332.544C216.515 333.946 215.915 335.357 215.324 336.774Z" fill="#00BFFA"/>
<path d="M352.138 174.583L351.145 173.414C353.399 171.482 354.675 170.458 354.688 170.448L355.642 171.65C355.629 171.659 354.37 172.669 352.138 174.583Z" fill="#00BFFA"/>
<path d="M233.779 336.308L232.361 335.73C232.939 334.3 233.525 332.877 234.12 331.461L235.53 332.058C234.939 333.468 234.354 334.884 233.779 336.308Z" fill="#00BFFA"/>
<path d="M251.948 336.882L250.461 336.522C250.819 335.033 251.208 333.524 251.618 332.034L253.093 332.444C252.687 333.918 252.301 335.41 251.948 336.882Z" fill="#00BFFA"/>
<path d="M188.516 339.374L187.022 339.047C187.35 337.535 187.689 336.033 188.037 334.54L189.526 334.89C189.18 336.375 188.843 337.87 188.516 339.374Z" fill="#00BFFA"/>
<path d="M234.448 319.935C233.856 317.256 232.068 313.353 227.38 310.21C221.496 314.661 223.044 324.069 227.503 329.146C228.208 329.853 229.08 330.619 230.132 331.441C228.667 333.825 231.433 337.238 229.893 339.567L231.52 340.598C233.892 337.006 230.5 334.371 233.641 329.001C234.553 327.442 235.259 323.611 234.448 319.935Z" fill="#50AA75"/>
<path d="M269.912 444.368C269.223 448.024 266.03 450.672 262.31 450.672H197.78C193.965 450.672 190.719 447.891 190.135 444.121L177.087 359.978H285.811L269.912 444.368Z" fill="#EF9D6B"/>
<g filter="url(#filter0_d_2_1679)">
<path d="M290.997 350.991H170.986C168.85 350.991 167.118 352.722 167.118 354.859V362.647C167.118 364.783 168.85 366.515 170.986 366.515H290.997C293.133 366.515 294.865 364.783 294.865 362.647V354.859C294.865 352.722 293.133 350.991 290.997 350.991Z" fill="#EF9D6B"/>
</g>
<path d="M288.349 350.991C284.973 342.82 274.363 338.31 261.778 338.31C258.499 338.31 255.371 338.393 252.453 339.03C245.828 337.163 237.177 335.88 227.678 335.88C218.948 335.88 210.933 336.777 204.548 338.38C202.399 338.024 200.148 338.343 197.812 338.343C185.641 338.343 175.481 342.82 172.883 350.991H288.349Z" fill="#372626"/>
<path d="M275.541 344.847C275.541 345.199 274.643 345.486 273.535 345.486C272.428 345.486 271.53 345.199 271.53 344.847C271.53 344.493 272.428 344.207 273.535 344.207C274.643 344.207 275.541 344.493 275.541 344.847Z" fill="#593639"/>
<path d="M272.966 348.753C272.966 349.106 272.067 349.392 270.96 349.392C269.852 349.392 268.954 349.106 268.954 348.753C268.954 348.401 269.852 348.115 270.96 348.115C272.067 348.114 272.966 348.4 272.966 348.753Z" fill="#593639"/>
<path d="M188.311 343.708C188.311 344.061 187.414 344.347 186.306 344.347C185.198 344.347 184.3 344.061 184.3 343.708C184.3 343.355 185.198 343.07 186.306 343.07C187.414 343.07 188.311 343.355 188.311 343.708Z" fill="#593639"/>
<path d="M277.906 348.115C277.906 348.467 277.008 348.753 275.901 348.753C274.793 348.753 273.895 348.467 273.895 348.115C273.895 347.762 274.793 347.476 275.901 347.476C277.008 347.476 277.906 347.762 277.906 348.115Z" fill="#593639"/>
<path d="M272.65 346.339C272.65 346.5 272.305 346.631 271.878 346.631C271.452 346.631 271.107 346.5 271.107 346.339C271.107 346.179 271.452 346.049 271.878 346.049C272.305 346.049 272.65 346.179 272.65 346.339Z" fill="#593639"/>
<path d="M273.066 342.702C273.066 342.861 272.72 342.992 272.294 342.992C271.867 342.992 271.522 342.861 271.522 342.702C271.522 342.54 271.867 342.41 272.294 342.41C272.72 342.411 273.066 342.541 273.066 342.702Z" fill="#593639"/>
<path d="M199.786 343.993C199.786 344.154 199.44 344.284 199.014 344.284C198.589 344.284 198.243 344.154 198.243 343.993C198.243 343.832 198.589 343.702 199.014 343.702C199.44 343.702 199.786 343.832 199.786 343.993Z" fill="#593639"/>
<path d="M187.078 349.466C187.078 349.627 186.732 349.758 186.306 349.758C185.88 349.758 185.535 349.627 185.535 349.466C185.535 349.306 185.88 349.175 186.306 349.175C186.732 349.175 187.078 349.306 187.078 349.466Z" fill="#593639"/>
<path d="M190.61 347.413C190.61 347.574 190.265 347.704 189.839 347.704C189.412 347.704 189.067 347.574 189.067 347.413C189.067 347.252 189.412 347.122 189.839 347.122C190.265 347.122 190.61 347.252 190.61 347.413Z" fill="#593639"/>
<path d="M278.679 346.049C278.679 346.422 278.333 346.726 277.907 346.726C277.481 346.726 277.135 346.422 277.135 346.049C277.135 345.675 277.481 345.372 277.907 345.372C278.333 345.372 278.679 345.675 278.679 346.049Z" fill="#593639"/>
<path d="M270.267 344.207C270.267 344.58 269.922 344.884 269.496 344.884C269.07 344.884 268.724 344.58 268.724 344.207C268.724 343.834 269.07 343.53 269.496 343.53C269.922 343.53 270.267 343.833 270.267 344.207Z" fill="#593639"/>
<path d="M269.843 346.048C269.843 346.216 269.687 346.352 269.496 346.352C269.305 346.352 269.15 346.216 269.15 346.048C269.15 345.881 269.305 345.746 269.496 345.746C269.688 345.746 269.843 345.881 269.843 346.048Z" fill="#593639"/>
<path d="M262.784 340.664C262.784 340.832 262.629 340.967 262.438 340.967C262.247 340.967 262.091 340.832 262.091 340.664C262.091 340.497 262.247 340.362 262.438 340.362C262.629 340.363 262.784 340.497 262.784 340.664Z" fill="#593639"/>
<path d="M252.186 345.485C252.186 345.844 252.03 346.138 251.839 346.138C251.648 346.138 251.493 345.844 251.493 345.485C251.493 345.123 251.648 344.831 251.839 344.831C252.03 344.831 252.186 345.123 252.186 345.485Z" fill="#593639"/>
<path d="M187.771 345.559C187.771 345.726 187.615 345.863 187.424 345.863C187.233 345.863 187.078 345.726 187.078 345.559C187.078 345.392 187.233 345.257 187.424 345.257C187.615 345.257 187.771 345.393 187.771 345.559Z" fill="#593639"/>
<path d="M178.811 349.165C178.811 349.331 178.656 349.467 178.465 349.467C178.273 349.467 178.118 349.331 178.118 349.165C178.118 348.997 178.274 348.861 178.465 348.861C178.656 348.861 178.811 348.997 178.811 349.165Z" fill="#593639"/>
<path d="M191.374 343.069C191.374 343.235 191.219 343.372 191.028 343.372C190.837 343.372 190.681 343.235 190.681 343.069C190.681 342.901 190.837 342.766 191.028 342.766C191.22 342.766 191.374 342.901 191.374 343.069Z" fill="#593639"/>
<path d="M269.843 347.31C269.843 347.477 269.687 347.612 269.496 347.612C269.305 347.612 269.15 347.477 269.15 347.31C269.15 347.143 269.305 347.008 269.496 347.008C269.688 347.007 269.843 347.143 269.843 347.31Z" fill="#593639"/>
<path d="M280.953 349.921C280.953 350.089 280.797 350.225 280.606 350.225C280.415 350.225 280.26 350.089 280.26 349.921C280.26 349.755 280.415 349.619 280.606 349.619C280.796 349.619 280.953 349.755 280.953 349.921Z" fill="#593639"/>
<path d="M274.859 349.921C274.859 350.089 274.705 350.225 274.514 350.225C274.323 350.225 274.167 350.089 274.167 349.921C274.167 349.755 274.323 349.619 274.514 349.619C274.705 349.619 274.859 349.755 274.859 349.921Z" fill="#593639"/>
<path d="M192.719 349.466C192.719 349.634 192.563 349.77 192.372 349.77C192.181 349.77 192.026 349.634 192.026 349.466C192.026 349.3 192.181 349.164 192.372 349.164C192.563 349.165 192.719 349.3 192.719 349.466Z" fill="#593639"/>
<path d="M275.889 346.329C275.889 346.495 275.734 346.632 275.542 346.632C275.351 346.632 275.196 346.495 275.196 346.329C275.196 346.161 275.351 346.026 275.542 346.026C275.733 346.026 275.889 346.161 275.889 346.329Z" fill="#593639"/>
<path d="M277.136 343.967C277.136 344.133 276.981 344.27 276.79 344.27C276.598 344.27 276.443 344.133 276.443 343.967C276.443 343.8 276.598 343.664 276.79 343.664C276.981 343.664 277.136 343.8 277.136 343.967Z" fill="#593639"/>
<path d="M281.723 345.745C281.723 345.912 281.568 346.048 281.377 346.048C281.186 346.048 281.031 345.912 281.031 345.745C281.031 345.577 281.186 345.442 281.377 345.442C281.568 345.443 281.723 345.578 281.723 345.745Z" fill="#593639"/>
<path d="M272.7 347.611C272.7 347.779 272.82 347.913 272.965 347.913C273.111 347.913 273.231 347.778 273.231 347.611C273.231 347.444 273.112 347.309 272.965 347.309C272.819 347.309 272.7 347.444 272.7 347.611Z" fill="#593639"/>
<path d="M185.844 347.532C185.844 347.905 185.498 348.21 185.072 348.21C184.645 348.21 184.3 347.905 184.3 347.532C184.3 347.159 184.645 346.855 185.072 346.855C185.498 346.855 185.844 347.158 185.844 347.532Z" fill="#593639"/>
<path d="M187.078 347.385C187.078 347.757 186.732 348.062 186.306 348.062C185.88 348.062 185.535 347.757 185.535 347.385C185.535 347.011 185.88 346.708 186.306 346.708C186.732 346.708 187.078 347.011 187.078 347.385Z" fill="#593639"/>
<path d="M202.298 340.401C202.298 340.774 201.954 341.079 201.528 341.079C201.101 341.079 200.756 340.774 200.756 340.401C200.756 340.027 201.102 339.724 201.528 339.724C201.954 339.724 202.298 340.027 202.298 340.401Z" fill="#593639"/>
<path d="M193.914 347.096C193.914 347.469 193.569 347.773 193.143 347.773C192.717 347.773 192.371 347.469 192.371 347.096C192.371 346.722 192.717 346.419 193.143 346.419C193.569 346.419 193.914 346.722 193.914 347.096Z" fill="#593639"/>
<path d="M196.595 348.861C196.595 349.234 196.25 349.538 195.823 349.538C195.398 349.538 195.052 349.234 195.052 348.861C195.052 348.488 195.398 348.184 195.823 348.184C196.25 348.184 196.595 348.488 196.595 348.861Z" fill="#593639"/>
<path d="M281.031 347.31C281.031 347.684 280.685 347.987 280.259 347.987C279.833 347.987 279.487 347.684 279.487 347.31C279.487 346.937 279.833 346.633 280.259 346.633C280.685 346.633 281.031 346.936 281.031 347.31Z" fill="#593639"/>
<path d="M190.343 349.244C190.343 349.618 189.997 349.922 189.571 349.922C189.145 349.922 188.8 349.619 188.8 349.244C188.8 348.871 189.146 348.568 189.571 348.568C189.998 348.568 190.343 348.871 190.343 349.244Z" fill="#593639"/>
<path d="M239.687 341.973C239.687 342.499 238.348 342.927 236.695 342.927C235.042 342.927 233.702 342.499 233.702 341.973C233.702 341.447 235.042 341.021 236.695 341.021C238.347 341.021 239.687 341.447 239.687 341.973Z" fill="#593639"/>
<path d="M199.395 341.806C199.395 342.333 198.056 342.76 196.402 342.76C194.75 342.76 193.41 342.332 193.41 341.806C193.41 341.28 194.749 340.854 196.402 340.854C198.056 340.853 199.395 341.28 199.395 341.806Z" fill="#593639"/>
<path d="M186.636 344.64C186.636 345.166 185.297 345.594 183.643 345.594C181.99 345.594 180.651 345.166 180.651 344.64C180.651 344.113 181.99 343.688 183.643 343.688C185.296 343.688 186.636 344.113 186.636 344.64Z" fill="#593639"/>
<path d="M235.844 347.804C235.844 348.33 234.504 348.757 232.851 348.757C231.198 348.757 229.859 348.329 229.859 347.804C229.859 347.277 231.198 346.852 232.851 346.852C234.504 346.852 235.844 347.278 235.844 347.804Z" fill="#593639"/>
<path d="M218.186 345.898C218.186 346.426 216.847 346.852 215.194 346.852C213.541 346.852 212.201 346.425 212.201 345.898C212.201 345.372 213.541 344.946 215.194 344.946C216.847 344.945 218.186 345.372 218.186 345.898Z" fill="#593639"/>
<path d="M220.887 340.164C220.887 340.692 219.547 341.117 217.895 341.117C216.241 341.117 214.902 340.691 214.902 340.164C214.902 339.636 216.241 339.212 217.895 339.212C219.547 339.212 220.887 339.636 220.887 340.164Z" fill="#593639"/>
<path d="M243.216 346.852C243.216 347.379 241.877 347.804 240.224 347.804C238.57 347.804 237.23 347.378 237.23 346.852C237.23 346.326 238.57 345.898 240.224 345.898C241.878 345.898 243.216 346.326 243.216 346.852Z" fill="#593639"/>
<path d="M260.225 342.76C260.225 343.287 258.886 343.713 257.233 343.713C255.58 343.713 254.239 343.286 254.239 342.76C254.239 342.234 255.58 341.807 257.233 341.807C258.885 341.807 260.225 342.234 260.225 342.76Z" fill="#593639"/>
<path d="M235.373 344.205C235.373 344.445 234.859 344.64 234.223 344.64C233.586 344.64 233.071 344.445 233.071 344.205C233.071 343.965 233.586 343.771 234.223 343.771C234.858 343.77 235.373 343.964 235.373 344.205Z" fill="#593639"/>
<path d="M235.994 338.776C235.994 339.014 235.479 339.21 234.843 339.21C234.206 339.21 233.692 339.014 233.692 338.776C233.692 338.534 234.206 338.341 234.843 338.341C235.478 338.341 235.994 338.535 235.994 338.776Z" fill="#593639"/>
<path d="M225.793 339.211C225.793 339.451 225.278 339.647 224.642 339.647C224.006 339.647 223.49 339.451 223.49 339.211C223.49 338.971 224.006 338.777 224.642 338.777C225.278 338.776 225.793 338.971 225.793 339.211Z" fill="#593639"/>
<path d="M216.053 343.195C216.053 343.435 215.537 343.63 214.902 343.63C214.265 343.63 213.749 343.435 213.749 343.195C213.749 342.954 214.265 342.76 214.902 342.76C215.537 342.76 216.053 342.954 216.053 343.195Z" fill="#593639"/>
<path d="M199.395 347.096C199.395 347.336 198.879 347.532 198.245 347.532C197.608 347.532 197.092 347.336 197.092 347.096C197.092 346.856 197.608 346.661 198.245 346.661C198.879 346.661 199.395 346.856 199.395 347.096Z" fill="#593639"/>
<path d="M209.882 346.852C209.882 347.091 209.366 347.286 208.73 347.286C208.094 347.286 207.578 347.091 207.578 346.852C207.578 346.612 208.094 346.416 208.73 346.416C209.366 346.416 209.882 346.611 209.882 346.852Z" fill="#593639"/>
<path d="M219.045 348.757C219.045 348.998 218.53 349.193 217.895 349.193C217.26 349.193 216.744 348.998 216.744 348.757C216.744 348.516 217.26 348.323 217.895 348.323C218.53 348.323 219.045 348.517 219.045 348.757Z" fill="#593639"/>
<path d="M227.805 346.66C227.805 346.9 227.29 347.096 226.654 347.096C226.018 347.096 225.503 346.9 225.503 346.66C225.503 346.421 226.018 346.226 226.654 346.226C227.29 346.226 227.805 346.42 227.805 346.66Z" fill="#593639"/>
<path d="M244.367 343.77C244.367 344.325 243.852 344.779 243.216 344.779C242.58 344.779 242.065 344.324 242.065 343.77C242.065 343.211 242.58 342.759 243.216 342.759C243.852 342.76 244.367 343.211 244.367 343.77Z" fill="#593639"/>
<path d="M266.442 344.221C266.442 344.778 265.926 345.232 265.291 345.232C264.654 345.232 264.139 344.778 264.139 344.221C264.139 343.663 264.655 343.211 265.291 343.211C265.926 343.212 266.442 343.663 266.442 344.221Z" fill="#593639"/>
<path d="M231.819 341.021C231.819 341.578 231.304 342.032 230.668 342.032C230.032 342.032 229.516 341.578 229.516 341.021C229.516 340.463 230.032 340.011 230.668 340.011C231.304 340.012 231.819 340.463 231.819 341.021Z" fill="#593639"/>
<path d="M231.183 343.77C231.183 344.019 230.951 344.222 230.667 344.222C230.382 344.222 230.152 344.019 230.152 343.77C230.152 343.52 230.382 343.317 230.667 343.317C230.952 343.317 231.183 343.52 231.183 343.77Z" fill="#593639"/>
<path d="M248.909 340.401C248.909 340.65 248.678 340.853 248.395 340.853C248.109 340.853 247.879 340.65 247.879 340.401C247.879 340.151 248.109 339.948 248.395 339.948C248.679 339.949 248.909 340.151 248.909 340.401Z" fill="#593639"/>
<path d="M265.291 347.414C265.291 347.663 265.059 347.867 264.776 347.867C264.49 347.867 264.26 347.663 264.26 347.414C264.26 347.165 264.49 346.962 264.776 346.962C265.059 346.962 265.291 347.165 265.291 347.414Z" fill="#593639"/>
<path d="M249.426 349.228C249.711 349.228 249.941 349.025 249.941 348.776C249.941 348.526 249.711 348.323 249.426 348.323C249.141 348.323 248.91 348.526 248.91 348.776C248.91 349.025 249.141 349.228 249.426 349.228Z" fill="#593639"/>
<path d="M266.322 341.304C266.322 341.554 266.091 341.758 265.807 341.758C265.522 341.758 265.291 341.554 265.291 341.304C265.291 341.056 265.522 340.853 265.807 340.853C266.091 340.853 266.322 341.056 266.322 341.304Z" fill="#593639"/>
<path d="M260.741 344.888C260.741 345.136 260.51 345.341 260.225 345.341C259.94 345.341 259.71 345.136 259.71 344.888C259.71 344.638 259.94 344.435 260.225 344.435C260.51 344.435 260.741 344.638 260.741 344.888Z" fill="#593639"/>
<path d="M256.596 349.165C256.596 349.414 256.365 349.618 256.08 349.618C255.795 349.618 255.565 349.414 255.565 349.165C255.565 348.916 255.795 348.713 256.08 348.713C256.365 348.713 256.596 348.915 256.596 349.165Z" fill="#593639"/>
<path d="M254.755 345.746C254.755 345.995 254.524 346.198 254.24 346.198C253.954 346.198 253.724 345.995 253.724 345.746C253.724 345.496 253.954 345.293 254.24 345.293C254.524 345.294 254.755 345.496 254.755 345.746Z" fill="#593639"/>
<path d="M258.384 340.213C258.384 340.462 258.153 340.665 257.868 340.665C257.584 340.665 257.353 340.462 257.353 340.213C257.353 339.963 257.583 339.761 257.868 339.761C258.153 339.761 258.384 339.963 258.384 340.213Z" fill="#593639"/>
<path d="M270.357 340.401C270.357 340.65 270.126 340.853 269.841 340.853C269.556 340.853 269.326 340.65 269.326 340.401C269.326 340.151 269.556 339.948 269.841 339.948C270.126 339.949 270.357 340.151 270.357 340.401Z" fill="#593639"/>
<path d="M266.838 349.21C266.838 349.459 266.607 349.662 266.322 349.662C266.037 349.662 265.807 349.459 265.807 349.21C265.807 348.96 266.037 348.757 266.322 348.757C266.607 348.757 266.838 348.96 266.838 349.21Z" fill="#593639"/>
<path d="M220.077 342.927C220.077 343.176 219.846 343.38 219.561 343.38C219.276 343.38 219.045 343.176 219.045 342.927C219.045 342.678 219.277 342.475 219.561 342.475C219.846 342.475 220.077 342.677 220.077 342.927Z" fill="#593639"/>
<path d="M208.73 338.776C208.73 339.025 208.498 339.229 208.214 339.229C207.929 339.229 207.698 339.025 207.698 338.776C207.698 338.526 207.93 338.323 208.214 338.323C208.499 338.323 208.73 338.526 208.73 338.776Z" fill="#593639"/>
<path d="M192.06 340.853C192.06 341.102 191.828 341.305 191.544 341.305C191.259 341.305 191.028 341.102 191.028 340.853C191.028 340.603 191.259 340.4 191.544 340.4C191.828 340.4 192.06 340.603 192.06 340.853Z" fill="#593639"/>
<path d="M178.119 346.554C178.119 346.802 177.887 347.006 177.602 347.006C177.318 347.006 177.087 346.802 177.087 346.554C177.087 346.304 177.318 346.101 177.602 346.101C177.887 346.101 178.119 346.304 178.119 346.554Z" fill="#593639"/>
<path d="M183.015 348.323C183.015 348.572 182.783 348.775 182.498 348.775C182.214 348.775 181.983 348.572 181.983 348.323C181.983 348.073 182.214 347.87 182.498 347.87C182.783 347.87 183.015 348.073 183.015 348.323Z" fill="#593639"/>
<path d="M188.575 341.304C188.575 341.554 188.343 341.758 188.058 341.758C187.774 341.758 187.543 341.554 187.543 341.304C187.543 341.056 187.774 340.853 188.058 340.853C188.342 340.853 188.575 341.056 188.575 341.304Z" fill="#593639"/>
<path d="M203.111 345.092C203.111 345.341 202.88 345.545 202.595 345.545C202.31 345.545 202.079 345.341 202.079 345.092C202.079 344.843 202.311 344.64 202.595 344.64C202.88 344.64 203.111 344.843 203.111 345.092Z" fill="#593639"/>
<path d="M201.527 348.739C201.527 348.988 201.295 349.191 201.01 349.191C200.726 349.191 200.495 348.988 200.495 348.739C200.495 348.49 200.727 348.287 201.01 348.287C201.295 348.287 201.527 348.49 201.527 348.739Z" fill="#593639"/>
<path d="M212.201 349.21C212.201 349.459 211.969 349.662 211.685 349.662C211.4 349.662 211.169 349.459 211.169 349.21C211.169 348.96 211.401 348.757 211.685 348.757C211.969 348.757 212.201 348.96 212.201 349.21Z" fill="#593639"/>
<path d="M245.4 340.853C245.4 341.102 245.168 341.305 244.883 341.305C244.599 341.305 244.368 341.102 244.368 340.853C244.368 340.603 244.599 340.4 244.883 340.4C245.169 340.4 245.4 340.603 245.4 340.853Z" fill="#593639"/>
<path d="M251.838 343.252C251.838 343.501 251.607 343.704 251.322 343.704C251.037 343.704 250.806 343.501 250.806 343.252C250.806 343.002 251.037 342.799 251.322 342.799C251.607 342.799 251.838 343.002 251.838 343.252Z" fill="#593639"/>
<path d="M252.871 348.776C252.871 349.024 252.639 349.228 252.355 349.228C252.07 349.228 251.839 349.024 251.839 348.776C251.839 348.526 252.07 348.323 252.355 348.323C252.638 348.323 252.871 348.526 252.871 348.776Z" fill="#593639"/>
<path d="M211.686 342.426C211.971 342.426 212.201 342.223 212.201 341.973C212.201 341.723 211.971 341.521 211.686 341.521C211.401 341.521 211.17 341.723 211.17 341.973C211.17 342.223 211.401 342.426 211.686 342.426Z" fill="#593639"/>
<path d="M210.913 344.64C210.913 344.889 210.682 345.093 210.397 345.093C210.112 345.093 209.882 344.889 209.882 344.64C209.882 344.39 210.112 344.188 210.397 344.188C210.682 344.188 210.913 344.39 210.913 344.64Z" fill="#593639"/>
<path d="M205.928 345.901C205.928 346.15 205.696 346.354 205.412 346.354C205.128 346.354 204.897 346.15 204.897 345.901C204.897 345.652 205.128 345.449 205.412 345.449C205.697 345.449 205.928 345.651 205.928 345.901Z" fill="#593639"/>
<path d="M229.127 337.888C229.127 338.136 228.896 338.341 228.611 338.341C228.326 338.341 228.095 338.136 228.095 337.888C228.095 337.639 228.327 337.435 228.611 337.435C228.896 337.435 229.127 337.639 229.127 337.888Z" fill="#593639"/>
<path d="M231.183 345.65C231.183 345.901 230.951 346.103 230.667 346.103C230.382 346.103 230.152 345.901 230.152 345.65C230.152 345.402 230.382 345.197 230.667 345.197C230.952 345.197 231.183 345.401 231.183 345.65Z" fill="#593639"/>
<path d="M227.46 348.757C227.46 349.007 227.229 349.21 226.945 349.21C226.66 349.21 226.428 349.007 226.428 348.757C226.428 348.508 226.66 348.305 226.945 348.305C227.229 348.305 227.46 348.508 227.46 348.757Z" fill="#593639"/>
<path d="M240.203 344.187C240.203 344.436 239.972 344.64 239.687 344.64C239.403 344.64 239.172 344.436 239.172 344.187C239.172 343.938 239.403 343.735 239.687 343.735C239.971 343.735 240.203 343.938 240.203 344.187Z" fill="#593639"/>
<path d="M245.399 347.804C245.399 348.053 245.168 348.257 244.884 348.257C244.599 348.257 244.368 348.053 244.368 347.804C244.368 347.555 244.6 347.352 244.884 347.352C245.168 347.352 245.399 347.555 245.399 347.804Z" fill="#593639"/>
<path d="M242.066 340.665C242.066 340.914 241.834 341.118 241.55 341.118C241.266 341.118 241.035 340.914 241.035 340.665C241.035 340.416 241.266 340.213 241.55 340.213C241.834 340.213 242.066 340.416 242.066 340.665Z" fill="#593639"/>
<path d="M235.449 346.103C235.449 346.353 235.627 346.555 235.845 346.555C236.063 346.555 236.24 346.353 236.24 346.103C236.24 345.854 236.064 345.649 235.845 345.649C235.627 345.65 235.449 345.854 235.449 346.103Z" fill="#593639"/>
<path d="M222.767 344.205C222.767 344.762 222.252 345.215 221.616 345.215C220.979 345.215 220.464 344.762 220.464 344.205C220.464 343.648 220.979 343.196 221.616 343.196C222.252 343.195 222.767 343.648 222.767 344.205Z" fill="#593639"/>
<path d="M223.919 343.937C223.919 344.494 223.404 344.947 222.767 344.947C222.131 344.947 221.616 344.493 221.616 343.937C221.616 343.38 222.131 342.927 222.767 342.927C223.404 342.928 223.919 343.38 223.919 343.937Z" fill="#593639"/>
<path d="M253.507 342.474C253.507 343.032 252.992 343.484 252.356 343.484C251.72 343.484 251.205 343.031 251.205 342.474C251.205 341.917 251.72 341.465 252.356 341.465C252.992 341.465 253.507 341.917 253.507 342.474Z" fill="#593639"/>
<path d="M227.372 341.175C227.372 341.731 226.858 342.185 226.223 342.185C225.586 342.185 225.07 341.731 225.07 341.175C225.07 340.617 225.586 340.164 226.223 340.164C226.858 340.164 227.372 340.617 227.372 341.175Z" fill="#593639"/>
<path d="M195.052 344.946C195.052 345.474 193.712 345.9 192.06 345.9C190.407 345.9 189.067 345.473 189.067 344.946C189.067 344.42 190.407 343.994 192.06 343.994C193.712 343.994 195.052 344.42 195.052 344.946Z" fill="#593639"/>
<path d="M205.846 348.739C205.846 348.979 205.33 349.175 204.694 349.175C204.059 349.175 203.543 348.979 203.543 348.739C203.543 348.5 204.059 348.305 204.694 348.305C205.33 348.305 205.846 348.499 205.846 348.739Z" fill="#593639"/>
<path d="M205.413 343.254C205.413 343.809 204.9 344.263 204.263 344.263C203.627 344.263 203.111 343.808 203.111 343.254C203.111 342.695 203.627 342.242 204.263 342.242C204.9 342.242 205.413 342.695 205.413 343.254Z" fill="#593639"/>
<path d="M209.365 342.585C209.365 343.328 208.851 343.937 208.216 343.937C207.579 343.937 207.063 343.328 207.063 342.585C207.063 341.837 207.579 341.232 208.216 341.232C208.852 341.233 209.365 341.837 209.365 342.585Z" fill="#593639"/>
<path d="M228.095 344.64C228.095 345.197 227.581 345.65 226.945 345.65C226.309 345.65 225.794 345.197 225.794 344.64C225.794 344.083 226.309 343.631 226.945 343.631C227.581 343.631 228.095 344.083 228.095 344.64Z" fill="#593639"/>
<path d="M262.783 348.739C262.783 349.296 262.269 349.748 261.632 349.748C260.996 349.748 260.481 349.295 260.481 348.739C260.481 348.183 260.996 347.73 261.632 347.73C262.269 347.73 262.783 348.182 262.783 348.739Z" fill="#593639"/>
<path d="M247.879 345.649C247.879 346.208 247.364 346.66 246.727 346.66C246.091 346.66 245.576 346.207 245.576 345.649C245.576 345.092 246.091 344.64 246.727 344.64C247.363 344.64 247.879 345.092 247.879 345.649Z" fill="#593639"/>
<path d="M239.534 349.433C239.534 349.992 239.018 350.444 238.382 350.444C237.746 350.444 237.231 349.991 237.231 349.433C237.231 348.876 237.746 348.424 238.382 348.424C239.018 348.425 239.534 348.877 239.534 349.433Z" fill="#593639"/>
<path d="M258.384 345.897C258.384 346.456 257.868 346.908 257.232 346.908C256.596 346.908 256.08 346.455 256.08 345.897C256.08 345.34 256.596 344.887 257.232 344.887C257.868 344.887 258.384 345.34 258.384 345.897Z" fill="#593639"/>
<path d="M223.919 348.424C223.919 348.982 223.404 349.436 222.767 349.436C222.131 349.436 221.616 348.981 221.616 348.424C221.616 347.866 222.131 347.415 222.767 347.415C223.404 347.415 223.919 347.866 223.919 348.424Z" fill="#593639"/>
<path d="M205.991 323.567C205.857 323.968 205.423 324.186 205.022 324.053C204.621 323.919 204.404 323.487 204.538 323.087C205.369 320.592 206.25 318.078 207.161 315.594C207.307 315.197 207.748 314.995 208.145 315.143C208.541 315.29 208.742 315.73 208.596 316.126C207.691 318.592 206.817 321.088 205.991 323.567ZM212.576 305.931C212.414 306.322 211.965 306.509 211.574 306.347C211.184 306.185 210.998 305.739 211.16 305.349C212.162 302.927 213.216 300.481 214.299 298.061C214.472 297.675 214.927 297.504 215.312 297.679C215.696 297.853 215.867 298.305 215.695 298.691C214.619 301.096 213.572 303.525 212.576 305.931ZM220.359 288.788C220.171 289.168 219.711 289.325 219.331 289.136C218.953 288.949 218.798 288.491 218.985 288.113C220.149 285.758 221.36 283.388 222.595 281.05C222.793 280.675 223.258 280.534 223.631 280.734C224.003 280.933 224.144 281.396 223.947 281.769C222.721 284.093 221.516 286.448 220.359 288.788ZM229.231 272.184C229.019 272.552 228.55 272.679 228.183 272.467C227.817 272.256 227.691 271.79 227.901 271.424C229.209 269.148 230.563 266.858 231.937 264.599C232.157 264.237 232.63 264.124 232.991 264.346C233.35 264.567 233.462 265.037 233.243 265.398C231.878 267.644 230.532 269.921 229.231 272.184ZM239.089 256.141C238.856 256.496 238.38 256.596 238.025 256.363C237.673 256.131 237.574 255.658 237.805 255.305C239.24 253.112 240.723 250.905 242.224 248.725C242.464 248.376 242.943 248.289 243.291 248.532C243.637 248.773 243.723 249.249 243.484 249.597C241.991 251.765 240.516 253.961 239.089 256.141ZM249.832 240.677C249.581 241.019 249.1 241.093 248.758 240.84C248.419 240.59 248.346 240.112 248.596 239.772C250.151 237.657 251.749 235.533 253.359 233.441C253.618 233.104 254.101 233.043 254.436 233.304C254.768 233.564 254.829 234.043 254.572 234.378C252.97 236.459 251.38 238.573 249.832 240.677ZM261.374 225.799C261.105 226.128 260.621 226.177 260.292 225.907C259.966 225.639 259.918 225.158 260.185 224.832C261.844 222.8 263.546 220.759 265.257 218.749C265.532 218.425 266.018 218.388 266.34 218.665C266.659 218.941 266.696 219.423 266.423 219.745C264.719 221.746 263.025 223.777 261.374 225.799ZM273.634 211.506C273.35 211.821 272.864 211.847 272.549 211.562C272.236 211.279 272.21 210.796 272.493 210.483C274.245 208.535 276.041 206.577 277.846 204.648C278.136 204.337 278.623 204.323 278.931 204.615C279.238 204.905 279.252 205.389 278.964 205.697C277.167 207.618 275.379 209.567 273.634 211.506ZM286.547 197.801C286.249 198.103 285.763 198.106 285.461 197.808C285.161 197.511 285.157 197.027 285.454 196.726C287.296 194.857 289.178 192.983 291.063 191.14C291.367 190.843 291.854 190.851 292.149 191.156C292.443 191.46 292.435 191.944 292.133 192.239C290.256 194.073 288.382 195.939 286.547 197.801ZM300.06 184.686C299.749 184.975 299.262 184.956 298.974 184.644C298.687 184.334 298.705 183.851 299.014 183.564C300.941 181.775 302.903 179.985 304.862 178.229C305.179 177.946 305.665 177.974 305.947 178.292C306.227 178.608 306.198 179.091 305.884 179.373C303.932 181.121 301.979 182.903 300.06 184.686ZM314.132 172.172C313.809 172.447 313.323 172.408 313.049 172.084C312.775 171.762 312.814 171.279 313.136 171.006C315.147 169.295 317.185 167.593 319.212 165.933C319.54 165.664 320.025 165.714 320.292 166.044C320.558 166.372 320.508 166.854 320.181 167.121C318.163 168.773 316.134 170.468 314.132 172.172ZM328.743 160.298C328.407 160.558 327.924 160.497 327.664 160.161C327.406 159.826 327.467 159.346 327.801 159.087C329.918 157.447 332.035 155.842 334.112 154.304C334.453 154.051 334.935 154.125 335.186 154.468C335.435 154.809 335.362 155.288 335.023 155.539C332.957 157.069 330.85 158.666 328.743 160.298Z" fill="#00BFFA"/>
<path d="M220.555 323.629C220.377 324.013 219.92 324.18 219.536 324.001C219.154 323.823 218.988 323.369 219.165 322.987C220.278 320.589 221.433 318.165 222.607 315.764C222.793 315.383 223.254 315.227 223.634 315.415C224.012 315.603 224.167 316.061 223.982 316.44C222.812 318.83 221.663 321.242 220.555 323.629ZM228.961 306.602C228.765 306.978 228.3 307.123 227.925 306.926C227.552 306.729 227.407 306.268 227.603 305.894C228.827 303.554 230.095 301.188 231.381 298.843C231.585 298.471 232.052 298.337 232.423 298.542C232.791 298.747 232.925 299.211 232.722 299.581C231.442 301.917 230.181 304.272 228.961 306.602ZM238.148 289.983C237.935 290.349 237.465 290.473 237.099 290.259C236.735 290.046 236.611 289.579 236.823 289.214C238.155 286.928 239.526 284.622 240.911 282.341C241.131 281.978 241.604 281.864 241.966 282.087C242.325 282.308 242.438 282.778 242.219 283.138C240.84 285.41 239.474 287.707 238.148 289.983ZM248.058 273.785C247.829 274.142 247.354 274.246 246.997 274.016C246.643 273.788 246.539 273.315 246.767 272.96C248.199 270.727 249.667 268.482 251.141 266.268C251.377 265.915 251.854 265.821 252.206 266.059C252.556 266.294 252.649 266.768 252.415 267.119C250.947 269.324 249.485 271.561 248.058 273.785ZM258.636 258.015C258.393 258.362 257.914 258.447 257.567 258.202C257.222 257.959 257.138 257.483 257.38 257.138C258.899 254.969 260.456 252.786 262.02 250.63C262.27 250.286 262.751 250.212 263.093 250.463C263.433 250.713 263.507 251.19 263.259 251.532C261.701 253.679 260.15 255.854 258.636 258.015ZM269.834 242.679C269.577 243.017 269.095 243.083 268.758 242.825C268.422 242.569 268.357 242.09 268.613 241.754C270.223 239.637 271.863 237.516 273.5 235.431C273.762 235.097 274.246 235.041 274.578 235.305C274.908 235.568 274.964 236.048 274.704 236.379C273.072 238.457 271.438 240.57 269.834 242.679ZM281.61 227.784C281.34 228.112 280.856 228.16 280.529 227.89C280.203 227.621 280.156 227.14 280.424 226.813C282.111 224.76 283.828 222.702 285.542 220.679C285.816 220.355 286.302 220.317 286.624 220.593C286.945 220.868 286.983 221.35 286.71 221.672C285.002 223.687 283.29 225.739 281.61 227.784ZM293.928 213.335C293.647 213.653 293.161 213.683 292.843 213.4C292.528 213.12 292.499 212.637 292.778 212.321C294.531 210.339 296.322 208.345 298.116 206.378C298.402 206.064 298.889 206.044 299.201 206.332C299.511 206.618 299.532 207.101 299.247 207.413C297.459 209.373 295.675 211.36 293.928 213.335ZM306.76 199.344C306.468 199.651 305.981 199.663 305.674 199.37C305.369 199.078 305.357 198.595 305.648 198.289C307.477 196.366 309.339 194.438 311.197 192.542C311.494 192.239 311.981 192.236 312.283 192.535C312.582 192.832 312.585 193.316 312.29 193.617C310.438 195.505 308.583 197.427 306.76 199.344ZM320.092 185.828C319.788 186.125 319.301 186.119 319.005 185.814C318.711 185.511 318.717 185.028 319.019 184.733C320.929 182.866 322.861 181.009 324.776 179.197C325.084 178.905 325.572 178.92 325.862 179.23C326.15 179.538 326.135 180.022 325.828 180.312C323.92 182.118 321.996 183.968 320.092 185.828ZM333.922 172.83C333.607 173.115 333.121 173.09 332.837 172.774C332.555 172.46 332.579 171.976 332.893 171.693C334.903 169.879 336.909 168.102 338.874 166.396C339.195 166.117 339.681 166.153 339.958 166.476C340.233 166.796 340.197 167.279 339.878 167.556C337.922 169.254 335.924 171.024 333.922 172.83Z" fill="#00BFFA"/>
<path d="M239.589 322.785C239.413 323.171 238.958 323.341 238.572 323.165C238.189 322.99 238.019 322.538 238.194 322.154C239.276 319.775 240.404 317.368 241.554 314.98C241.738 314.598 242.198 314.44 242.579 314.626C242.958 314.811 243.116 315.268 242.932 315.648C241.787 318.024 240.666 320.418 239.589 322.785ZM247.829 305.863C247.634 306.239 247.171 306.386 246.795 306.19C246.421 305.995 246.275 305.535 246.469 305.16C247.679 302.829 248.927 300.484 250.19 298.17C250.393 297.797 250.86 297.662 251.231 297.867C251.6 298.071 251.734 298.536 251.532 298.906C250.276 301.209 249.033 303.543 247.829 305.863ZM256.907 289.372C256.693 289.739 256.223 289.863 255.857 289.649C255.493 289.436 255.369 288.969 255.581 288.604C256.9 286.339 258.258 284.057 259.629 281.802C259.849 281.44 260.322 281.327 260.683 281.549C261.043 281.77 261.155 282.24 260.936 282.6C259.571 284.845 258.219 287.117 256.907 289.372ZM266.745 273.325C266.515 273.682 266.039 273.784 265.683 273.554C265.329 273.325 265.226 272.852 265.455 272.497C266.869 270.303 268.328 268.084 269.802 265.885C270.038 265.533 270.516 265.44 270.867 265.678C271.216 265.915 271.308 266.389 271.073 266.74C269.605 268.93 268.153 271.139 266.745 273.325ZM277.279 257.726C277.034 258.072 276.555 258.154 276.209 257.909C275.865 257.665 275.783 257.188 276.026 256.844C277.533 254.712 279.083 252.557 280.648 250.422C280.899 250.079 281.38 250.007 281.721 250.26C282.06 250.511 282.132 250.989 281.883 251.329C280.324 253.456 278.78 255.603 277.279 257.726ZM288.455 242.578C288.196 242.915 287.713 242.977 287.377 242.717C287.043 242.459 286.981 241.98 287.238 241.645C288.841 239.563 290.476 237.473 292.112 235.417C292.377 235.085 292.861 235.031 293.191 235.298C293.52 235.562 293.573 236.043 293.31 236.373C291.681 238.422 290.051 240.504 288.455 242.578ZM300.222 227.888C299.95 228.214 299.466 228.258 299.14 227.985C298.817 227.714 298.773 227.233 299.043 226.908C300.723 224.893 302.437 222.868 304.154 220.874C304.431 220.552 304.917 220.518 305.237 220.797C305.555 221.074 305.59 221.556 305.314 221.876C303.604 223.862 301.895 225.879 300.222 227.888ZM312.544 213.661C312.26 213.976 311.774 214.001 311.459 213.717C311.146 213.433 311.121 212.951 311.404 212.637C313.17 210.675 314.96 208.717 316.74 206.802C317.029 206.491 317.515 206.475 317.824 206.765C318.132 207.054 318.148 207.538 317.861 207.847C316.088 209.755 314.304 211.706 312.544 213.661ZM325.397 199.913C325.101 200.218 324.614 200.224 324.31 199.928C324.008 199.633 324.001 199.149 324.296 198.846C326.134 196.953 327.998 195.066 329.85 193.222C330.151 192.922 330.639 192.925 330.937 193.228C331.233 193.529 331.23 194.012 330.931 194.31C329.086 196.148 327.229 198.028 325.397 199.913ZM338.776 186.683C338.468 186.975 337.981 186.962 337.69 186.653C337.4 186.347 337.412 185.863 337.719 185.572C339.662 183.729 341.604 181.921 343.507 180.183C343.821 179.897 344.307 179.921 344.592 180.236C344.875 180.55 344.851 181.033 344.539 181.318C342.644 183.048 340.711 184.848 338.776 186.683Z" fill="#00BFFA"/>
<path d="M191.969 325.155C191.859 325.564 191.439 325.807 191.03 325.697C190.623 325.587 190.381 325.169 190.491 324.761C191.167 322.249 191.881 319.726 192.619 317.243C192.74 316.837 193.168 316.607 193.573 316.73C193.977 316.853 194.206 317.279 194.085 317.683C193.351 320.151 192.641 322.658 191.969 325.155ZM197.363 307.367C197.228 307.768 196.793 307.984 196.391 307.848C195.992 307.713 195.777 307.28 195.912 306.88C196.744 304.421 197.617 301.949 198.513 299.515C198.659 299.117 199.102 298.916 199.498 299.064C199.893 299.212 200.094 299.652 199.948 300.048C199.058 302.467 198.19 304.923 197.363 307.367ZM203.88 289.964C203.718 290.356 203.27 290.543 202.878 290.381C202.488 290.221 202.301 289.774 202.462 289.384C203.449 286.985 204.48 284.575 205.532 282.201C205.704 281.814 206.158 281.641 206.544 281.815C206.929 281.988 207.101 282.44 206.93 282.826C205.884 285.184 204.861 287.579 203.88 289.964ZM211.503 273.018C211.317 273.398 210.857 273.557 210.476 273.37C210.097 273.185 209.94 272.727 210.125 272.348C211.265 270.019 212.448 267.681 213.651 265.38C213.848 265.004 214.312 264.861 214.687 265.06C215.06 265.258 215.202 265.72 215.007 266.094C213.811 268.38 212.635 270.703 211.503 273.018ZM220.2 256.601C219.99 256.969 219.521 257.097 219.153 256.886C218.787 256.677 218.66 256.21 218.869 255.844C220.158 253.59 221.488 251.333 222.834 249.119C223.054 248.756 223.527 248.643 223.888 248.866C224.247 249.087 224.36 249.557 224.141 249.917C222.804 252.119 221.482 254.361 220.2 256.601ZM229.931 240.776C229.697 241.13 229.221 241.228 228.867 240.994C228.515 240.761 228.417 240.288 228.65 239.936C230.075 237.774 231.545 235.607 233.033 233.476C233.275 233.128 233.755 233.045 234.101 233.29C234.446 233.534 234.528 234.01 234.287 234.356C232.809 236.474 231.347 238.628 229.931 240.776ZM240.639 225.599C240.384 225.938 239.902 226.006 239.563 225.75C239.227 225.496 239.159 225.017 239.413 224.68C240.97 222.612 242.573 220.541 244.188 218.509C244.452 218.176 244.936 218.123 245.266 218.389C245.595 218.654 245.648 219.135 245.385 219.465C243.78 221.486 242.188 223.544 240.639 225.599ZM252.267 211.115C251.991 211.438 251.506 211.476 251.183 211.2C250.863 210.925 250.825 210.443 251.099 210.122C252.78 208.155 254.505 206.187 256.241 204.256C256.525 203.94 257.011 203.917 257.325 204.202C257.638 204.487 257.661 204.97 257.379 205.284C255.652 207.203 253.938 209.16 252.267 211.115ZM264.751 197.366C264.456 197.671 263.969 197.68 263.664 197.385C263.361 197.092 263.352 196.608 263.645 196.304C265.443 194.44 267.282 192.579 269.127 190.757C269.429 190.459 269.916 190.465 270.213 190.769C270.507 191.071 270.502 191.555 270.201 191.851C268.367 193.662 266.538 195.512 264.751 197.366ZM278.031 184.384C277.718 184.672 277.231 184.652 276.944 184.339C276.659 184.028 276.679 183.545 276.989 183.259C278.894 181.504 280.839 179.754 282.787 178.045C283.106 177.765 283.593 177.799 283.871 178.121C284.147 178.44 284.113 178.923 283.796 179.201C281.859 180.9 279.925 182.639 278.031 184.384ZM292.05 172.207C291.721 172.476 291.236 172.428 290.968 172.099C290.701 171.772 290.749 171.29 291.075 171.023C293.08 169.382 295.124 167.75 297.169 166.159C297.504 165.898 297.987 165.96 298.246 166.297C298.504 166.632 298.442 167.113 298.108 167.372C296.075 168.954 294.043 170.577 292.05 172.207ZM306.759 160.878C306.415 161.127 305.933 161.05 305.685 160.706C305.438 160.363 305.514 159.885 305.857 159.637C307.968 158.109 310.107 156.603 312.231 155.148C312.581 154.907 313.06 154.999 313.298 155.351C313.534 155.701 313.443 156.177 313.095 156.416C310.984 157.862 308.859 159.36 306.759 160.878ZM322.131 150.471C321.771 150.697 321.296 150.59 321.07 150.231C320.845 149.873 320.951 149.401 321.308 149.175C323.541 147.766 325.775 146.403 327.966 145.111C328.332 144.895 328.804 145.019 329.017 145.387C329.229 145.752 329.106 146.221 328.742 146.435C326.566 147.718 324.348 149.072 322.131 150.471Z" fill="#00BFFA"/>
<path d="M256.119 322.745C255.98 323.145 255.543 323.358 255.143 323.219C254.744 323.082 254.532 322.647 254.67 322.248C255.535 319.763 256.483 317.231 257.495 314.704C257.653 314.311 258.101 314.122 258.493 314.282C258.884 314.442 259.071 314.887 258.915 315.279C257.913 317.781 256.975 320.286 256.119 322.745ZM263.314 305.156C263.134 305.54 262.678 305.706 262.294 305.527C261.912 305.348 261.746 304.894 261.925 304.512C263.04 302.126 264.231 299.699 265.472 297.279C265.666 296.902 266.129 296.755 266.505 296.952C266.879 297.147 267.025 297.607 266.832 297.983C265.601 300.383 264.421 302.79 263.314 305.156ZM272.101 288.27C271.891 288.638 271.422 288.766 271.054 288.556C270.688 288.346 270.56 287.88 270.77 287.514C272.076 285.228 273.449 282.906 274.862 280.593C275.084 280.231 275.557 280.119 275.918 280.343C276.276 280.565 276.387 281.035 276.167 281.395C274.763 283.693 273.4 285.999 272.101 288.27ZM282.103 272.08C281.869 272.433 281.393 272.53 281.039 272.295C280.688 272.062 280.592 271.588 280.825 271.237C282.283 269.039 283.798 266.813 285.341 264.603C285.584 264.255 286.064 264.172 286.41 264.417C286.754 264.661 286.837 265.137 286.595 265.483C285.06 267.681 283.553 269.894 282.103 272.08ZM293.066 256.523C292.812 256.863 292.331 256.933 291.991 256.679C291.653 256.426 291.583 255.948 291.835 255.609C293.418 253.487 295.051 251.345 296.701 249.225C296.961 248.89 297.445 248.832 297.778 249.094C298.109 249.355 298.167 249.835 297.908 250.168C296.266 252.279 294.641 254.411 293.066 256.523ZM304.816 241.536C304.547 241.864 304.062 241.911 303.735 241.641C303.409 241.372 303.362 240.891 303.63 240.565C305.313 238.518 307.041 236.455 308.781 234.414C309.057 234.091 309.543 234.054 309.864 234.332C310.184 234.607 310.22 235.089 309.946 235.411C308.213 237.443 306.492 239.498 304.816 241.536ZM317.221 227.085C316.938 227.401 316.451 227.428 316.136 227.144C315.822 226.862 315.795 226.379 316.076 226.064C317.84 224.093 319.651 222.102 321.474 220.131C321.762 219.819 322.249 219.802 322.559 220.092C322.867 220.38 322.884 220.864 322.598 221.174C320.782 223.137 318.978 225.12 317.221 227.085ZM330.193 213.138C329.898 213.443 329.411 213.451 329.106 213.155C328.803 212.861 328.795 212.378 329.089 212.074C330.941 210.156 332.825 208.236 334.705 206.351C335.005 206.05 335.492 206.051 335.791 206.352C336.089 206.652 336.088 207.136 335.79 207.435C333.917 209.314 332.039 211.227 330.193 213.138ZM343.68 199.69C343.373 199.984 342.887 199.974 342.593 199.667C342.301 199.362 342.311 198.878 342.616 198.586C344.568 196.712 346.524 194.864 348.448 193.079C348.76 192.79 349.247 192.81 349.534 193.123C349.819 193.434 349.799 193.917 349.49 194.204C347.573 195.983 345.623 197.824 343.68 199.69Z" fill="#00BFFA"/>
<path d="M486.238 64.6224C473.163 51.4925 453.053 49.6458 437.985 59.0599L424.979 46L358.198 113.059L384.479 139.45L352.949 149.615C344.137 133.288 328.816 124.044 315.341 128.088L315.336 128.073C315.314 128.08 315.295 128.098 315.273 128.108C315.151 128.144 315.027 128.173 314.905 128.212L314.951 128.357C312.751 130.931 316.225 149.237 323.096 170.729C329.968 192.22 337.755 209.135 341.037 209.941L341.083 210.088C341.206 210.047 341.324 209.998 341.445 209.956C341.468 209.951 341.492 209.955 341.515 209.947L341.51 209.932C354.811 205.342 361.908 188.871 359.608 170.445L401.798 156.842L450.656 205.903C453.546 208.805 458.232 208.805 461.123 205.903L517.437 149.355C520.327 146.453 520.327 141.747 517.437 138.844L491.775 113.076C501.152 97.9463 499.314 77.753 486.238 64.6224ZM486.37 107.648L443.391 64.4902C455.413 57.8754 470.834 59.666 481.003 69.8783C491.175 80.0905 492.958 95.5756 486.37 107.648Z" fill="#EF9D6B"/>
<defs>
<filter id="filter0_d_2_1679" x="165.184" y="350.991" width="131.615" height="19.3924" filterUnits="userSpaceOnUse" color-interpolation-filters="sRGB">
<feFlood flood-opacity="0" result="BackgroundImageFix"/>
<feColorMatrix in="SourceAlpha" type="matrix" values="0 0 0 0 0 0 0 0 0 0 0 0 0 0 0 0 0 0 127 0" result="hardAlpha"/>
<feOffset dy="1.93407"/>
<feGaussianBlur stdDeviation="0.967033"/>
<feComposite in2="hardAlpha" operator="out"/>
<feColorMatrix type="matrix" values="0 0 0 0 0 0 0 0 0 0 0 0 0 0 0 0 0 0 0.05 0"/>
<feBlend mode="normal" in2="BackgroundImageFix" result="effect1_dropShadow_2_1679"/>
<feBlend mode="normal" in="SourceGraphic" in2="effect1_dropShadow_2_1679" result="shape"/>
</filter>
</defs>
</svg>
