<svg width="326" height="337" viewBox="0 0 326 337" fill="none" xmlns="http://www.w3.org/2000/svg">
<g clip-path="url(#clip0_2_9732)">
<g clip-path="url(#clip1_2_9732)">
<g clip-path="url(#clip2_2_9732)">
<path d="M39.8695 52.0493C41.445 51.8218 42.8306 50.4267 44.35 50.2073C45.393 50.0567 46.3164 50.5603 46.7367 51.394C46.9498 51.8167 47.5306 51.8762 47.8336 51.5125C47.9272 51.3994 47.9808 51.2587 47.9861 51.112C47.9914 50.9654 47.9481 50.8211 47.8628 50.7016C47.2988 49.9006 46.5452 49.2517 45.6694 48.8128C44.7935 48.3739 43.8226 48.1588 42.8433 48.1865C41.864 48.2143 40.9068 48.4841 40.0572 48.9719C39.2076 49.4596 38.492 50.1502 37.9743 50.9819C37.9087 51.0866 37.8718 51.2066 37.8673 51.3301C37.8628 51.4535 37.8909 51.5759 37.9487 51.6851C38.0066 51.7942 38.0921 51.8862 38.1968 51.9518C38.3015 52.0174 38.4216 52.0542 38.545 52.0587C39.0236 52.0751 39.5135 52.1007 39.8695 52.0493Z" fill="#50A5AA"/>
<path d="M39.7522 62.1699L34.4942 62.9291C34.4122 62.941 34.3288 62.9197 34.2624 62.8701C34.1961 62.8205 34.1521 62.7465 34.1403 62.6645L33.649 59.2623C33.4936 58.1861 33.4398 56.6152 34.0659 55.2424C34.7267 53.7938 35.9659 52.9286 37.7491 52.6711C38.1872 52.6079 39.4894 52.7356 39.9588 52.6678C41.1242 52.4995 42.253 51.8469 43.2489 51.2711C46.1375 49.6009 47.1852 52.8748 45.6378 53.7307C44.4963 54.362 42.479 54.979 41.6414 56.0551L46.6196 53.946L49.1973 50.8518C49.3409 48.9004 49.0709 46.3001 51.6159 45.9326C51.6607 45.9268 51.7062 45.9307 51.7494 45.9439C51.7926 45.9572 51.8325 45.9795 51.8663 46.0095C51.9002 46.0394 51.9272 46.0763 51.9456 46.1175C51.964 46.1588 51.9733 46.2035 51.973 46.2487C51.9688 46.4467 51.9213 51.9694 51.7869 52.1303L47.5528 57.7936C47.4654 57.9443 40.9679 60.4001 40.8073 60.4625C40.5413 60.5646 40.318 60.7543 40.1743 61.0004C40.0306 61.2464 39.9751 61.5341 40.0168 61.8159C40.0287 61.8979 40.0074 61.9813 39.9578 62.0477C39.9082 62.1141 39.8342 62.158 39.7522 62.1699Z" fill="#50A5AA"/>
<path d="M47.1415 41.3548C47.0362 41.3366 44.5505 40.917 43.0493 41.6994C42.2038 42.1401 41.6913 42.6589 41.4381 43.1689C41.0571 42.7448 40.4202 42.3867 39.4807 42.2023C37.835 41.8795 35.5885 42.9899 35.4935 43.0373C35.4512 43.0592 35.4144 43.0903 35.3859 43.1284C35.3573 43.1665 35.3378 43.2106 35.3286 43.2573C35.3195 43.304 35.3211 43.3522 35.3332 43.3982C35.3453 43.4443 35.3676 43.487 35.3985 43.5231C35.9891 44.1947 37.9114 46.197 40.2207 45.8636C40.6756 45.7979 41.1116 45.6152 41.4236 45.3189L41.724 47.3996C41.7359 47.4817 41.7798 47.5556 41.8462 47.6052C41.9126 47.6549 41.9959 47.6761 42.078 47.6643C42.16 47.6524 42.234 47.6085 42.2836 47.5421C42.3332 47.4757 42.3544 47.3923 42.3426 47.3103L42.0474 45.2657C42.8291 45.6577 43.9564 45.3633 44.7392 44.9553C46.2401 44.173 47.3254 41.8924 47.3709 41.7958C47.3905 41.7522 47.4001 41.7046 47.3987 41.6568C47.3974 41.609 47.3852 41.5621 47.3631 41.5196C47.3411 41.4772 47.3096 41.4403 47.2713 41.4118C47.2329 41.3832 47.1885 41.3637 47.1415 41.3548Z" fill="#50A5AA"/>
</g>
</g>
<path opacity="0.05" fill-rule="evenodd" clip-rule="evenodd" d="M10.7952 49.8457C12.2143 43.8782 19.5895 41.861 24.6982 38.4449C28.5187 35.8901 32.382 33.8895 36.7614 32.4825C41.7707 30.8731 46.8894 28.1229 51.9109 29.7021C57.1496 31.3495 61.7002 35.6793 63.4407 40.8724C65.0858 45.7811 61.6322 50.6752 60.642 55.7536C59.7526 60.3153 60.6151 65.2795 57.94 69.0843C55.0674 73.1699 50.6284 76.3923 45.6659 77.0541C40.825 77.6997 36.6486 74.3255 32.1073 72.5293C27.2194 70.5959 21.7039 69.9805 18.109 66.1542C13.9226 61.6984 9.38355 55.7822 10.7952 49.8457Z" fill="#85B719"/>
<path opacity="0.05" fill-rule="evenodd" clip-rule="evenodd" d="M32.8747 157.552C34.3342 151.415 41.9191 149.341 47.1731 145.827C51.1023 143.2 55.0754 141.142 59.5794 139.695C64.7311 138.04 69.9955 135.212 75.1598 136.836C80.5474 138.53 85.2275 142.983 87.0175 148.324C88.7094 153.372 85.1576 158.406 84.1392 163.628C83.2245 168.32 84.1115 173.425 81.3603 177.338C78.406 181.54 73.8408 184.854 68.7371 185.535C63.7586 186.199 59.4634 182.729 54.7929 180.881C49.7661 178.893 44.0936 178.26 40.3965 174.325C36.091 169.742 31.4229 163.658 32.8747 157.552Z" fill="#85B719"/>
<g clip-path="url(#clip3_2_9732)">
<path d="M60.4531 150.257C59.6818 149.448 59.1067 149.617 58.7696 150.653C57.1279 155.003 54.6331 161.535 55.2958 164.352C55.7605 166.327 56.9965 167.95 58.5963 168.94C60.1961 169.93 62.1996 170.313 64.1745 169.848C66.1495 169.384 67.7721 168.148 68.7624 166.548C69.7528 164.948 70.1356 162.945 69.6709 160.97C69.0005 158.121 63.8622 153.418 60.4531 150.257ZM68.4177 164.647C68.0978 165.611 67.5283 166.531 66.7437 167.262C66.3761 167.588 65.8276 167.58 65.502 167.213C65.1363 166.82 65.1763 166.264 65.5438 165.939C66.1076 165.43 66.5037 164.79 66.7475 164.084C66.9913 163.377 67.0503 162.611 66.9075 161.859C66.8256 161.366 67.1303 160.918 67.6235 160.836C68.1168 160.755 68.5644 161.059 68.6462 161.553C68.8253 162.604 68.73 163.651 68.4177 164.647Z" fill="#42A9CA"/>
</g>
<path opacity="0.05" fill-rule="evenodd" clip-rule="evenodd" d="M51.0991 313.914C48.9518 320.282 47.8169 327.54 41.8987 330.724C35.8902 333.958 28.9157 331.614 22.4943 329.306C15.0821 326.643 6.16292 324.486 3.70625 317.002C1.15075 309.218 5.72928 300.98 11.1896 294.871C16.0768 289.404 23.2785 287.919 30.5504 286.973C39.4133 285.82 50.5307 281.942 55.951 289.048C61.3393 296.113 53.9378 305.495 51.0991 313.914Z" fill="#85B719"/>
<g clip-path="url(#clip4_2_9732)">
<path d="M34.96 299.392C35.3556 299.307 35.6077 298.918 35.523 298.522C35.4383 298.127 35.0489 297.875 34.6533 297.959C34.2576 298.044 34.0056 298.434 34.0903 298.829C34.175 299.225 34.5644 299.477 34.96 299.392Z" fill="#50AA75"/>
<path d="M41.254 297.296C41.0486 296.336 40.2425 295.657 39.3147 295.568C39.5604 294.669 39.2122 293.674 38.3896 293.14C37.566 292.608 36.5158 292.699 35.7966 293.29C35.335 292.48 34.3854 292.023 33.4262 292.228C32.4671 292.434 31.788 293.24 31.6984 294.168C30.797 293.922 29.8035 294.27 29.2705 295.093C28.7386 295.916 28.8287 296.966 29.421 297.686C28.6111 298.147 28.1537 299.097 28.359 300.056C28.5644 301.015 29.3705 301.694 30.2984 301.784C30.0526 302.683 30.4008 303.677 31.2234 304.212C32.048 304.745 33.0988 304.653 33.8164 304.061C34.1568 304.658 34.7639 305.059 35.443 305.148L36.1737 308.562L34.1794 307.271C33.8397 307.051 33.3863 307.148 33.1664 307.488C32.9464 307.827 33.0435 308.281 33.3832 308.501L36.6074 310.588L37.3312 313.969L30.1674 315.502L29.4436 312.122L30.9677 309.767C31.1876 309.427 31.0906 308.974 30.7508 308.754C30.4111 308.534 29.9577 308.631 29.7378 308.971L29.0099 310.096L28.585 308.111C29.3536 307.636 29.7856 306.72 29.586 305.787C29.5051 305.409 29.3262 305.059 29.0692 304.775L27.3672 302.891C27.0162 302.502 26.2872 302.658 26.1261 303.156L25.3446 305.572C25.2266 305.937 25.2068 306.33 25.2877 306.707C25.4873 307.64 26.2567 308.299 27.1523 308.418L27.5771 310.402L26.4525 309.674C26.1128 309.454 25.6594 309.551 25.4395 309.891C25.2196 310.231 25.3166 310.684 25.6564 310.904L28.0108 312.428L28.7346 315.809L24.4363 316.729L23.0356 310.186C22.9508 309.79 22.5618 309.539 22.1658 309.623C21.7699 309.708 21.518 310.097 21.6028 310.493L21.846 311.629L21.5912 311.464C21.2515 311.244 20.7981 311.341 20.5782 311.681C20.3583 312.021 20.4553 312.474 20.795 312.694L22.2798 313.655L23.0035 317.036L20.8066 317.506C20.4106 317.591 20.1588 317.98 20.2436 318.376L20.5503 319.809C20.6351 320.205 21.0241 320.457 21.4201 320.372L44.4399 315.444C44.8358 315.359 45.0877 314.97 45.0029 314.574L44.6962 313.141C44.6114 312.745 44.2224 312.493 43.8264 312.578L38.764 313.662L37.7335 308.848L39.8206 305.624C40.0405 305.285 39.9435 304.831 39.6037 304.611C39.264 304.391 38.8106 304.488 38.5907 304.828L37.2998 306.822L36.8757 304.842C37.4586 304.482 37.8485 303.868 37.9146 303.184C38.8137 303.43 39.8079 303.08 40.3425 302.259C40.8744 301.435 40.7843 300.386 40.192 299.666C41.0019 299.204 41.4593 298.255 41.254 297.296ZM35.2666 300.825C34.0815 301.079 32.9111 300.321 32.6574 299.136C32.4037 297.951 33.1613 296.78 34.3464 296.527C35.5315 296.273 36.702 297.031 36.9557 298.216C37.2094 299.401 36.4517 300.571 35.2666 300.825Z" fill="#50AA75"/>
</g>
<g clip-path="url(#clip5_2_9732)">
<path d="M187.06 28.0459C187.741 28.0082 188.333 27.5657 188.561 26.9235C189.504 24.2744 191.958 22.3084 194.937 22.1434C196.579 22.0525 198.115 22.5318 199.374 23.3983L198.436 23.5971C198.116 23.665 197.878 23.9353 197.853 24.2616C197.827 24.5878 198.019 24.8923 198.324 25.0097L203.655 27.0615C203.888 27.1513 204.151 27.117 204.354 26.9703C204.556 26.8234 204.671 26.5842 204.659 26.3344L204.368 20.6019C204.352 20.2758 204.123 19.9992 203.807 19.9215C203.489 19.8437 203.159 19.983 202.993 20.2644L202.336 21.3815C200.32 19.6058 197.637 18.5878 194.749 18.7477C190.37 18.9903 186.754 21.8727 185.359 25.7622C185.165 26.3013 185.254 26.9014 185.597 27.3605C185.939 27.8197 186.488 28.0776 187.06 28.0459Z" fill="#FB8B39"/>
<path d="M205.074 31.2981C204.732 30.8388 204.182 30.5809 203.61 30.6126C202.93 30.6503 202.338 31.0929 202.109 31.735C201.166 34.3841 198.712 36.3502 195.733 36.5152C194.092 36.6061 192.555 36.1268 191.297 35.2603L192.235 35.0616C192.555 34.9936 192.792 34.7233 192.818 34.3969C192.844 34.0708 192.652 33.7663 192.347 33.6489L187.016 31.597C186.782 31.5073 186.519 31.5415 186.316 31.6883C186.114 31.8351 185.999 32.0743 186.012 32.3241L186.302 38.0566C186.319 38.3827 186.547 38.6593 186.864 38.737C187.181 38.8148 187.512 38.6755 187.677 38.394L188.334 37.2769C190.35 39.0527 193.034 40.0707 195.921 39.9108C200.3 39.6683 203.917 36.7858 205.312 32.8964C205.506 32.3572 205.416 31.7572 205.074 31.2981Z" fill="#FB8B39"/>
</g>
<path opacity="0.05" fill-rule="evenodd" clip-rule="evenodd" d="M164.524 27.2039C165.852 20.9621 173.473 18.6809 178.701 15.0011C182.611 12.2492 186.58 10.0724 191.099 8.50029C196.269 6.70206 201.525 3.71462 206.787 5.23229C212.276 6.8156 217.117 11.2058 219.056 16.5637C220.889 21.6282 217.418 26.8041 216.515 32.1105C215.703 36.8771 216.723 42.0187 214.035 46.0423C211.149 50.3629 206.612 53.8246 201.467 54.6362C196.449 55.4278 192.021 52.0223 187.253 50.2668C182.122 48.3774 176.37 47.8743 172.536 43.9841C168.071 39.4537 163.204 33.4133 164.524 27.2039Z" fill="#85B719"/>
<path opacity="0.05" fill-rule="evenodd" clip-rule="evenodd" d="M292.192 326.14C287.211 328.294 281.877 324.134 276.751 322.322C272.918 320.967 269.455 319.288 266.139 316.929C262.346 314.231 257.687 312.059 256.148 307.664C254.542 303.079 255.202 297.562 257.961 293.579C260.569 289.814 265.866 289.671 269.989 287.684C273.693 285.899 276.755 282.66 280.868 282.542C285.284 282.415 289.918 283.855 293.014 287.021C296.035 290.111 295.854 294.857 296.985 299.026C298.203 303.514 300.687 307.749 299.878 312.323C298.937 317.649 297.147 323.998 292.192 326.14Z" fill="#85B719"/>
<g clip-path="url(#clip6_2_9732)">
<path d="M281.07 306.617C282.102 306.372 283.03 305.198 283.069 305.148C283.099 305.108 283.12 305.062 283.13 305.013C283.141 304.964 283.14 304.913 283.128 304.864C283.117 304.816 283.094 304.77 283.063 304.731C283.032 304.692 282.992 304.66 282.947 304.638C282.89 304.611 281.532 303.981 280.501 304.227C280.226 304.291 279.97 304.421 279.756 304.605C279.661 304.339 279.503 304.1 279.295 303.908C278.52 303.185 277.028 303.061 276.965 303.056C276.915 303.053 276.865 303.061 276.818 303.079C276.772 303.098 276.73 303.127 276.696 303.163C276.661 303.2 276.636 303.244 276.621 303.292C276.605 303.339 276.601 303.39 276.608 303.44C276.617 303.502 276.843 304.981 277.619 305.705C278.046 306.103 278.545 306.215 279.008 306.182L278.804 306.953C278.383 306.909 277.96 306.998 277.592 307.208C277.225 307.418 276.933 307.738 276.758 308.123L276.112 307.952C276.07 307.94 276.026 307.936 275.983 307.941C275.94 307.947 275.898 307.96 275.86 307.982C275.822 308.004 275.789 308.032 275.762 308.067C275.735 308.102 275.716 308.141 275.705 308.183C275.694 308.226 275.691 308.27 275.697 308.313C275.703 308.356 275.718 308.398 275.74 308.435C275.762 308.473 275.792 308.505 275.827 308.531C275.862 308.557 275.902 308.576 275.944 308.586L281.131 309.958C281.173 309.97 281.217 309.973 281.26 309.968C281.304 309.963 281.345 309.949 281.383 309.927C281.421 309.906 281.455 309.877 281.481 309.842C281.508 309.808 281.527 309.768 281.538 309.726C281.55 309.684 281.552 309.64 281.546 309.597C281.54 309.553 281.526 309.512 281.503 309.474C281.481 309.437 281.451 309.404 281.416 309.378C281.381 309.352 281.341 309.334 281.299 309.323L280.593 309.137C280.63 308.726 280.54 308.314 280.335 307.957C280.131 307.599 279.822 307.312 279.45 307.135L279.656 306.356C280.045 306.59 280.568 306.737 281.07 306.617Z" fill="#B47C64"/>
<path d="M282.906 292.753C281.373 292.347 278.12 293.91 275.981 295.188C275.924 295.222 275.879 295.272 275.851 295.331C275.822 295.391 275.812 295.458 275.821 295.523C275.83 295.588 275.859 295.649 275.902 295.699C275.946 295.748 276.004 295.783 276.067 295.8L287.326 298.777C287.39 298.794 287.458 298.792 287.52 298.771C287.583 298.749 287.638 298.71 287.678 298.657C287.718 298.604 287.742 298.541 287.746 298.475C287.751 298.408 287.735 298.343 287.702 298.285C286.441 296.111 284.326 293.128 282.906 292.753ZM278.96 295.871C278.896 295.854 278.838 295.819 278.794 295.769C278.75 295.719 278.722 295.658 278.713 295.592C278.704 295.526 278.715 295.459 278.744 295.4C278.773 295.34 278.82 295.291 278.877 295.257C278.934 295.224 279 295.208 279.066 295.213C279.132 295.217 279.196 295.24 279.249 295.281C279.301 295.321 279.341 295.376 279.363 295.438C279.384 295.501 279.387 295.569 279.37 295.633C279.347 295.719 279.291 295.792 279.214 295.837C279.137 295.882 279.046 295.894 278.96 295.871ZM280.599 294.918C280.535 294.901 280.478 294.865 280.434 294.815C280.39 294.766 280.362 294.704 280.353 294.638C280.344 294.573 280.355 294.506 280.384 294.446C280.413 294.387 280.459 294.337 280.516 294.304C280.574 294.27 280.64 294.255 280.706 294.259C280.772 294.263 280.836 294.287 280.888 294.327C280.941 294.367 280.981 294.422 281.002 294.485C281.024 294.547 281.026 294.615 281.009 294.679C280.987 294.765 280.931 294.839 280.854 294.883C280.777 294.928 280.685 294.94 280.599 294.918ZM280.905 296.386C280.841 296.369 280.783 296.333 280.739 296.283C280.695 296.234 280.667 296.172 280.658 296.106C280.649 296.041 280.66 295.974 280.689 295.914C280.718 295.855 280.765 295.805 280.822 295.772C280.879 295.738 280.945 295.723 281.011 295.727C281.078 295.731 281.141 295.755 281.194 295.795C281.247 295.835 281.286 295.89 281.308 295.953C281.329 296.015 281.332 296.083 281.315 296.147C281.292 296.233 281.236 296.307 281.159 296.351C281.082 296.396 280.991 296.408 280.905 296.386ZM281.915 293.878C281.851 293.861 281.793 293.826 281.749 293.776C281.705 293.726 281.677 293.664 281.668 293.599C281.659 293.533 281.67 293.466 281.699 293.407C281.728 293.347 281.775 293.297 281.832 293.264C281.889 293.231 281.955 293.215 282.021 293.219C282.088 293.223 282.151 293.247 282.204 293.287C282.257 293.327 282.296 293.382 282.318 293.445C282.339 293.508 282.342 293.576 282.325 293.64C282.302 293.726 282.246 293.799 282.169 293.844C282.092 293.888 282.001 293.901 281.915 293.878ZM282.306 295.022C282.242 295.005 282.184 294.97 282.14 294.92C282.096 294.87 282.068 294.808 282.059 294.743C282.05 294.677 282.061 294.61 282.09 294.551C282.12 294.491 282.166 294.441 282.223 294.408C282.28 294.375 282.346 294.359 282.413 294.363C282.479 294.367 282.542 294.391 282.595 294.431C282.648 294.471 282.687 294.526 282.709 294.589C282.73 294.652 282.733 294.72 282.716 294.784C282.693 294.87 282.637 294.943 282.56 294.988C282.483 295.032 282.392 295.045 282.306 295.022ZM282.526 296.814C282.462 296.797 282.404 296.762 282.36 296.712C282.316 296.662 282.288 296.601 282.279 296.535C282.27 296.469 282.281 296.402 282.31 296.343C282.339 296.283 282.385 296.234 282.443 296.2C282.5 296.167 282.566 296.151 282.632 296.156C282.698 296.16 282.762 296.183 282.815 296.224C282.867 296.264 282.907 296.319 282.929 296.381C282.95 296.444 282.953 296.512 282.936 296.576C282.913 296.662 282.857 296.735 282.78 296.78C282.703 296.825 282.612 296.837 282.526 296.814ZM283.45 294.631C283.386 294.614 283.328 294.578 283.284 294.529C283.24 294.479 283.212 294.417 283.203 294.352C283.194 294.286 283.205 294.219 283.234 294.159C283.264 294.1 283.31 294.05 283.367 294.017C283.424 293.984 283.49 293.968 283.556 293.972C283.623 293.976 283.686 294 283.739 294.04C283.792 294.08 283.831 294.135 283.853 294.198C283.874 294.261 283.877 294.328 283.86 294.392C283.837 294.478 283.781 294.552 283.704 294.597C283.627 294.641 283.536 294.654 283.45 294.631ZM283.755 296.099C283.691 296.082 283.634 296.047 283.59 295.997C283.546 295.947 283.518 295.885 283.509 295.82C283.5 295.754 283.511 295.687 283.54 295.628C283.569 295.568 283.615 295.518 283.672 295.485C283.73 295.452 283.796 295.436 283.862 295.44C283.928 295.444 283.992 295.468 284.044 295.508C284.097 295.548 284.137 295.603 284.158 295.666C284.18 295.729 284.182 295.796 284.165 295.861C284.143 295.947 284.087 296.02 284.01 296.065C283.933 296.109 283.841 296.122 283.755 296.099ZM284.795 297.414C284.731 297.398 284.673 297.362 284.629 297.312C284.585 297.263 284.557 297.201 284.548 297.135C284.539 297.069 284.55 297.003 284.579 296.943C284.609 296.883 284.655 296.834 284.712 296.8C284.769 296.767 284.835 296.752 284.901 296.756C284.968 296.76 285.031 296.783 285.084 296.824C285.137 296.864 285.176 296.919 285.198 296.981C285.219 297.044 285.222 297.112 285.205 297.176C285.182 297.262 285.126 297.335 285.049 297.38C284.972 297.425 284.881 297.437 284.795 297.414Z" fill="#B47C64"/>
<path d="M288.315 307.71C288.537 306.874 288.739 304.94 288.879 303.345C289.062 303.375 289.25 303.353 289.422 303.282C289.594 303.212 289.743 303.095 289.852 302.945C289.961 302.794 290.027 302.617 290.041 302.431C290.056 302.246 290.019 302.061 289.934 301.895C290.156 301.75 290.311 301.524 290.365 301.265C290.479 300.737 290.141 300.216 289.618 300.077L273.106 295.711C272.934 295.665 272.751 295.69 272.597 295.779C272.443 295.869 272.332 296.016 272.286 296.188C272.241 296.36 272.265 296.543 272.355 296.696C272.444 296.85 272.591 296.962 272.763 297.007L283.461 299.836C283.547 299.859 283.62 299.915 283.665 299.992C283.71 300.069 283.722 300.16 283.699 300.246C283.676 300.332 283.62 300.406 283.544 300.45C283.467 300.495 283.375 300.508 283.289 300.485L272.268 297.57C272.182 297.548 272.09 297.56 272.014 297.605C271.937 297.65 271.881 297.723 271.857 297.809C271.794 298.05 271.822 298.306 271.937 298.528C272.052 298.749 272.244 298.921 272.478 299.008C271.811 300.463 271.031 302.245 270.81 303.081C269.919 306.449 269.775 307.839 269.754 308.286C269.634 308.415 268.904 308.976 268.857 309.155C268.653 309.926 269.324 310.636 270.113 310.543C275.225 313.153 278.885 314.256 285.232 314.542C285.864 315.006 286.806 314.729 287.011 313.955C287.058 313.776 286.704 312.929 286.66 312.757C286.863 312.358 287.425 311.079 288.315 307.71ZM279.564 311.292L276.647 310.521C275.486 310.214 274.495 309.458 273.891 308.421C273.287 307.383 273.121 306.148 273.427 304.987C273.734 303.827 274.49 302.835 275.528 302.232C276.565 301.628 277.8 301.461 278.961 301.768L281.879 302.54C283.039 302.847 284.031 303.602 284.634 304.64C285.238 305.678 285.405 306.913 285.098 308.073C284.791 309.234 284.035 310.225 282.998 310.829C281.96 311.433 280.725 311.599 279.564 311.292ZM287.817 301.682L285.234 300.999C285.148 300.976 285.075 300.92 285.03 300.844C284.985 300.767 284.973 300.675 284.996 300.589C285.019 300.503 285.075 300.43 285.151 300.385C285.228 300.34 285.32 300.328 285.406 300.351L287.999 301.037C288.044 301.048 288.085 301.069 288.121 301.098C288.157 301.126 288.187 301.162 288.209 301.202C288.231 301.242 288.244 301.287 288.248 301.333C288.251 301.378 288.246 301.424 288.231 301.468C288.202 301.549 288.143 301.617 288.066 301.656C287.989 301.696 287.9 301.705 287.817 301.682Z" fill="#B47C64"/>
</g>
<g clip-path="url(#clip7_2_9732)">
<path d="M258.349 213.832C258.675 213.805 258.918 213.52 258.891 213.194C258.864 212.868 258.579 212.625 258.252 212.651L255.319 212.891C255.367 212.695 255.387 212.493 255.379 212.291C255.289 211.196 254.783 210.18 253.972 209.466C253.162 208.752 252.114 208.399 251.057 208.484C250.448 208.555 249.872 208.804 249.397 209.202L249.154 206.226C250.393 205.977 251.498 205.264 252.258 204.222C253.019 203.181 253.382 201.883 253.278 200.577L253.181 199.397C253.169 199.24 253.096 199.095 252.981 198.993C252.865 198.891 252.715 198.84 252.564 198.853C251.622 198.931 250.72 199.277 249.959 199.853C249.197 200.428 248.604 201.212 248.246 202.117C247.746 201.282 247.034 200.605 246.189 200.16C245.344 199.715 244.398 199.52 243.456 199.595C243.305 199.608 243.165 199.682 243.067 199.801C242.97 199.921 242.922 200.076 242.935 200.232L243.031 201.413C243.14 202.719 243.708 203.94 244.627 204.845C245.546 205.749 246.752 206.274 248.015 206.319L248.258 209.295C247.724 208.979 247.115 208.827 246.503 208.855C245.447 208.943 244.469 209.461 243.785 210.297C243.102 211.132 242.767 212.217 242.855 213.313C242.88 213.513 242.933 213.709 243.011 213.894L240.078 214.133C239.752 214.16 239.509 214.446 239.536 214.772C239.562 215.098 239.848 215.341 240.174 215.314L243.677 215.029C245.237 217.154 248.543 219.743 249.355 220.36C249.467 220.446 249.605 220.487 249.743 220.476C249.881 220.465 250.01 220.402 250.107 220.298C250.808 219.558 253.651 216.468 254.846 214.118L258.349 213.832ZM253.474 214.23L251.772 214.368L249.844 216.73C249.746 216.849 249.605 216.923 249.454 216.935C249.402 216.94 249.349 216.936 249.298 216.923C249.2 216.903 249.107 216.856 249.031 216.787C248.955 216.718 248.898 216.63 248.865 216.531L247.73 213.082L246.851 214.532C246.804 214.609 246.74 214.674 246.664 214.721C246.589 214.769 246.503 214.797 246.415 214.805L245.049 214.917C244.732 214.575 244.452 214.2 244.213 213.796L246.034 213.648L247.398 211.397C247.456 211.303 247.538 211.228 247.636 211.18C247.733 211.132 247.842 211.113 247.949 211.126C248.056 211.139 248.158 211.184 248.242 211.255C248.326 211.326 248.389 211.421 248.423 211.528L249.619 215.162L251.052 213.411C251.152 213.293 251.292 213.22 251.442 213.207L254.118 212.989C253.945 213.424 253.729 213.84 253.474 214.23Z" fill="#C55F5F"/>
</g>
<path opacity="0.05" fill-rule="evenodd" clip-rule="evenodd" d="M238.269 194.521C243.176 191.56 247.913 187.463 253.519 188.652C259.211 189.859 262.457 195.228 265.364 200.267C268.72 206.085 273.334 212.403 270.809 218.626C268.183 225.1 260.664 227.938 253.745 228.903C247.552 229.768 242.048 226.766 236.795 223.374C230.392 219.241 221.021 215.638 221.41 208.027C221.797 200.461 231.783 198.435 238.269 194.521Z" fill="#85B719"/>
<g clip-path="url(#clip8_2_9732)">
<path d="M292.523 74.4475C292.797 74.513 293.073 74.3438 293.138 74.0696C293.204 73.7954 293.034 73.5201 292.76 73.4546C292.486 73.3891 292.211 73.5583 292.145 73.8325C292.08 74.1067 292.249 74.382 292.523 74.4475Z" fill="#647AB4"/>
<path d="M289.411 73.7042C289.685 73.7697 289.96 73.6005 290.026 73.3263C290.091 73.0521 289.922 72.7768 289.648 72.7113C289.374 72.6458 289.098 72.815 289.033 73.0892C288.967 73.3634 289.136 73.6387 289.411 73.7042Z" fill="#647AB4"/>
<path d="M291.324 72.8833C291.598 72.9488 291.874 72.7796 291.939 72.5054C292.005 72.2312 291.835 71.9559 291.561 71.8904C291.287 71.8249 291.012 71.9941 290.946 72.2683C290.881 72.5425 291.05 72.8178 291.324 72.8833Z" fill="#647AB4"/>
<path d="M290.747 75.3013C291.021 75.3667 291.296 75.1975 291.362 74.9234C291.427 74.6492 291.258 74.3738 290.984 74.3084C290.71 74.2429 290.434 74.4121 290.369 74.6863C290.303 74.9605 290.473 75.2358 290.747 75.3013Z" fill="#647AB4"/>
<path d="M289.936 71.5022C290.211 71.5677 290.486 71.3985 290.551 71.1243C290.617 70.8501 290.448 70.5748 290.173 70.5093C289.899 70.4438 289.624 70.613 289.558 70.8872C289.493 71.1614 289.662 71.4367 289.936 71.5022Z" fill="#647AB4"/>
<path d="M288.846 76.0687C289.12 76.1342 289.395 75.965 289.461 75.6908C289.526 75.4166 289.357 75.1413 289.083 75.0758C288.809 75.0103 288.533 75.1795 288.468 75.4537C288.403 75.7279 288.572 76.0033 288.846 76.0687Z" fill="#647AB4"/>
<path d="M291.281 92.4829L291.362 92.5618L297.902 94.1233L298.065 93.9004C299.055 92.5459 299.785 91.0591 300.233 89.4812C300.592 88.2196 300.773 86.8982 300.771 85.5535C300.767 83.2609 300.237 81.7049 300.214 81.6398L300.14 81.4249L296.96 80.6657L296.864 81.0695C296.363 83.1679 295.221 83.8598 294.012 84.5923C292.924 85.251 291.8 85.9321 291.207 87.6036C290.691 89.0558 290.532 90.2975 290.733 91.2938C290.895 92.0918 291.242 92.4452 291.281 92.4829ZM299.496 82.1249C299.68 82.76 299.942 84.0565 299.941 85.587C299.94 86.0831 299.913 86.5757 299.86 87.0626L297.898 86.594C298.376 85.4471 298.82 83.9182 298.98 82.0016L299.496 82.1249ZM294.442 85.3024C295.612 84.5934 296.93 83.7949 297.564 81.6635L298.162 81.8063C298.015 83.7584 297.558 85.2859 297.079 86.3985L293.897 85.6387C294.073 85.5259 294.255 85.4155 294.442 85.3024Z" fill="#647AB4"/>
<path d="M294.222 75.6062L294.904 75.7691L295.481 73.3513L294.799 73.1884C294.488 73.114 294.175 73.3062 294.101 73.6177L293.793 74.9076C293.718 75.2191 293.911 75.5319 294.222 75.6062Z" fill="#647AB4"/>
<path d="M296.213 77.102C296.183 77.0616 296.152 77.0235 296.12 76.9871C295.975 76.8483 295.793 76.7229 295.565 76.6236C295.565 76.6236 294.584 78.9991 293.635 79.5824C292.686 80.1656 293.834 80.7097 294.663 79.6479C295.479 78.6043 296.385 78.4869 296.675 78.5449C296.662 78.4012 296.643 78.2509 296.614 78.0993C296.534 77.6917 296.4 77.3562 296.213 77.102Z" fill="#647AB4"/>
<path d="M300.121 80.3625C300.692 77.9694 302.078 77.6608 302.779 77.6673C302.975 77.6691 303.108 77.4667 303.029 77.287C302.135 75.2561 300.726 74.6036 300.024 74.436C299.305 74.2642 296.327 73.553 296.089 73.4964L296.074 73.4927L295.496 75.9106L295.488 75.9446C297.736 76.4813 297.26 79.6794 297.26 79.6794L300.121 80.3625Z" fill="#647AB4"/>
</g>
<path opacity="0.05" fill-rule="evenodd" clip-rule="evenodd" d="M306.884 95.7156C302.249 99.0167 297.867 103.43 292.227 102.676C286.501 101.909 282.882 96.8384 279.623 92.0675C275.862 86.5603 270.817 80.6514 272.848 74.2994C274.961 67.6919 282.192 64.3155 288.97 62.8379C295.037 61.5153 300.713 64.0729 306.17 67.0351C312.821 70.6455 322.371 73.5065 322.56 81.0718C322.747 88.5924 313.012 91.3513 306.884 95.7156Z" fill="#85B719"/>
</g>
<path d="M128.318 300.727C149.67 300.727 166.979 298.566 166.979 295.902C166.979 293.237 149.67 291.076 128.318 291.076C106.967 291.076 89.6577 293.237 89.6577 295.902C89.6577 298.566 106.967 300.727 128.318 300.727Z" fill="#E0E0E0" fill-opacity="0.4"/>
<path d="M187.689 138.321L187.236 137.658C188.514 136.778 189.238 136.317 189.246 136.312L189.674 136.991C189.667 136.996 188.954 137.451 187.689 138.321Z" fill="#00BFFA"/>
<path d="M113.604 236.734L112.831 236.524C113.042 235.744 113.259 234.967 113.483 234.194L114.252 234.419C114.03 235.186 113.814 235.958 113.604 236.734Z" fill="#00BFFA"/>
<path d="M190.388 144.046L189.883 143.421C191.089 142.438 191.768 141.92 191.774 141.915L192.259 142.556C192.252 142.561 191.582 143.072 190.388 144.046Z" fill="#00BFFA"/>
<path d="M120.71 236.282L119.972 235.972C120.283 235.227 120.598 234.486 120.916 233.748L121.651 234.069C121.334 234.802 121.02 235.541 120.71 236.282Z" fill="#00BFFA"/>
<path d="M192.325 151.384L191.805 150.772C192.985 149.76 193.653 149.225 193.66 149.22L194.159 149.848C194.153 149.853 193.494 150.382 192.325 151.384Z" fill="#00BFFA"/>
<path d="M130.371 236.038L129.628 235.736C129.931 234.987 130.238 234.242 130.549 233.501L131.287 233.814C130.978 234.552 130.672 235.293 130.371 236.038Z" fill="#00BFFA"/>
<path d="M139.881 236.339L139.103 236.15C139.29 235.371 139.494 234.581 139.709 233.801L140.481 234.016C140.268 234.787 140.066 235.569 139.881 236.339Z" fill="#00BFFA"/>
<path d="M106.678 237.644L105.896 237.472C106.068 236.681 106.245 235.894 106.427 235.113L107.207 235.296C107.025 236.074 106.849 236.856 106.678 237.644Z" fill="#00BFFA"/>
<path d="M130.721 227.468C130.411 226.066 129.475 224.023 127.021 222.378C123.941 224.708 124.752 229.632 127.086 232.29C127.454 232.66 127.911 233.061 128.462 233.491C127.695 234.739 129.143 236.526 128.337 237.745L129.188 238.284C130.43 236.404 128.655 235.025 130.299 232.214C130.776 231.398 131.145 229.392 130.721 227.468Z" fill="#50AA75"/>
<path d="M149.284 292.602C148.924 294.516 147.252 295.902 145.305 295.902H111.527C109.53 295.902 107.831 294.446 107.525 292.473L100.696 248.429H157.607L149.284 292.602Z" fill="#EF9D6B"/>
<g filter="url(#filter0_d_2_9732)">
<path d="M160.321 243.724H97.5023C96.3841 243.724 95.4775 244.631 95.4775 245.749V249.826C95.4775 250.944 96.384 251.85 97.5023 251.85H160.321C161.44 251.85 162.346 250.944 162.346 249.826V245.749C162.346 244.631 161.44 243.724 160.321 243.724Z" fill="#EF9D6B"/>
</g>
<path d="M158.935 243.724C157.168 239.448 151.615 237.086 145.027 237.086C143.311 237.086 141.673 237.13 140.146 237.464C136.678 236.486 132.15 235.815 127.177 235.815C122.608 235.815 118.413 236.284 115.07 237.123C113.945 236.937 112.767 237.104 111.544 237.104C105.173 237.104 99.8552 239.448 98.4954 243.724H158.935Z" fill="#372626"/>
<path d="M152.231 240.508C152.231 240.693 151.761 240.843 151.181 240.843C150.601 240.843 150.131 240.693 150.131 240.508C150.131 240.323 150.601 240.174 151.181 240.174C151.761 240.174 152.231 240.323 152.231 240.508Z" fill="#593639"/>
<path d="M150.883 242.553C150.883 242.737 150.413 242.887 149.833 242.887C149.253 242.887 148.783 242.737 148.783 242.553C148.783 242.368 149.253 242.219 149.833 242.219C150.413 242.218 150.883 242.368 150.883 242.553Z" fill="#593639"/>
<path d="M106.571 239.912C106.571 240.097 106.102 240.247 105.521 240.247C104.942 240.247 104.471 240.097 104.471 239.912C104.471 239.728 104.942 239.578 105.521 239.578C106.102 239.578 106.571 239.728 106.571 239.912Z" fill="#593639"/>
<path d="M153.469 242.219C153.469 242.403 152.999 242.553 152.419 242.553C151.839 242.553 151.369 242.403 151.369 242.219C151.369 242.034 151.839 241.884 152.419 241.884C152.999 241.884 153.469 242.034 153.469 242.219Z" fill="#593639"/>
<path d="M150.717 241.289C150.717 241.374 150.537 241.442 150.314 241.442C150.09 241.442 149.91 241.374 149.91 241.289C149.91 241.206 150.091 241.137 150.314 241.137C150.537 241.137 150.717 241.206 150.717 241.289Z" fill="#593639"/>
<path d="M150.935 239.385C150.935 239.469 150.754 239.537 150.531 239.537C150.308 239.537 150.127 239.469 150.127 239.385C150.127 239.301 150.308 239.233 150.531 239.233C150.754 239.233 150.935 239.301 150.935 239.385Z" fill="#593639"/>
<path d="M112.577 240.061C112.577 240.145 112.396 240.213 112.173 240.213C111.951 240.213 111.77 240.145 111.77 240.061C111.77 239.977 111.951 239.909 112.173 239.909C112.396 239.909 112.577 239.977 112.577 240.061Z" fill="#593639"/>
<path d="M105.925 242.926C105.925 243.01 105.744 243.079 105.521 243.079C105.298 243.079 105.118 243.01 105.118 242.926C105.118 242.842 105.299 242.774 105.521 242.774C105.744 242.774 105.925 242.842 105.925 242.926Z" fill="#593639"/>
<path d="M107.775 241.851C107.775 241.936 107.594 242.004 107.37 242.004C107.147 242.004 106.966 241.936 106.966 241.851C106.966 241.767 107.147 241.699 107.37 241.699C107.594 241.699 107.775 241.767 107.775 241.851Z" fill="#593639"/>
<path d="M153.874 241.138C153.874 241.333 153.693 241.492 153.469 241.492C153.246 241.492 153.065 241.333 153.065 241.138C153.065 240.942 153.246 240.783 153.469 240.783C153.693 240.783 153.874 240.942 153.874 241.138Z" fill="#593639"/>
<path d="M149.471 240.173C149.471 240.369 149.29 240.528 149.067 240.528C148.844 240.528 148.663 240.369 148.663 240.173C148.663 239.978 148.844 239.819 149.067 239.819C149.29 239.819 149.471 239.978 149.471 240.173Z" fill="#593639"/>
<path d="M149.248 241.137C149.248 241.225 149.167 241.296 149.067 241.296C148.967 241.296 148.886 241.225 148.886 241.137C148.886 241.05 148.967 240.979 149.067 240.979C149.167 240.979 149.248 241.05 149.248 241.137Z" fill="#593639"/>
<path d="M145.553 238.319C145.553 238.407 145.472 238.478 145.372 238.478C145.272 238.478 145.191 238.407 145.191 238.319C145.191 238.232 145.272 238.161 145.372 238.161C145.472 238.161 145.553 238.232 145.553 238.319Z" fill="#593639"/>
<path d="M140.006 240.842C140.006 241.03 139.924 241.184 139.824 241.184C139.725 241.184 139.643 241.03 139.643 240.842C139.643 240.653 139.725 240.5 139.824 240.5C139.924 240.5 140.006 240.653 140.006 240.842Z" fill="#593639"/>
<path d="M106.288 240.881C106.288 240.969 106.207 241.04 106.107 241.04C106.007 241.04 105.925 240.969 105.925 240.881C105.925 240.794 106.007 240.723 106.107 240.723C106.207 240.723 106.288 240.794 106.288 240.881Z" fill="#593639"/>
<path d="M101.598 242.768C101.598 242.855 101.517 242.926 101.417 242.926C101.317 242.926 101.236 242.855 101.236 242.768C101.236 242.68 101.317 242.609 101.417 242.609C101.517 242.609 101.598 242.68 101.598 242.768Z" fill="#593639"/>
<path d="M108.174 239.578C108.174 239.665 108.093 239.736 107.993 239.736C107.893 239.736 107.812 239.665 107.812 239.578C107.812 239.49 107.893 239.419 107.993 239.419C108.093 239.419 108.174 239.49 108.174 239.578Z" fill="#593639"/>
<path d="M149.248 241.797C149.248 241.884 149.167 241.955 149.067 241.955C148.967 241.955 148.886 241.884 148.886 241.797C148.886 241.71 148.967 241.639 149.067 241.639C149.167 241.639 149.248 241.71 149.248 241.797Z" fill="#593639"/>
<path d="M155.064 243.165C155.064 243.252 154.982 243.323 154.882 243.323C154.782 243.323 154.701 243.252 154.701 243.165C154.701 243.077 154.782 243.006 154.882 243.006C154.982 243.006 155.064 243.077 155.064 243.165Z" fill="#593639"/>
<path d="M151.874 243.165C151.874 243.252 151.793 243.323 151.693 243.323C151.594 243.323 151.512 243.252 151.512 243.165C151.512 243.077 151.594 243.006 151.693 243.006C151.793 243.006 151.874 243.077 151.874 243.165Z" fill="#593639"/>
<path d="M108.878 242.926C108.878 243.014 108.797 243.085 108.697 243.085C108.596 243.085 108.515 243.014 108.515 242.926C108.515 242.839 108.597 242.768 108.697 242.768C108.797 242.768 108.878 242.839 108.878 242.926Z" fill="#593639"/>
<path d="M152.413 241.284C152.413 241.371 152.332 241.442 152.232 241.442C152.132 241.442 152.05 241.371 152.05 241.284C152.05 241.196 152.132 241.125 152.232 241.125C152.332 241.125 152.413 241.196 152.413 241.284Z" fill="#593639"/>
<path d="M153.066 240.048C153.066 240.135 152.985 240.206 152.885 240.206C152.785 240.206 152.703 240.135 152.703 240.048C152.703 239.96 152.785 239.889 152.885 239.889C152.985 239.889 153.066 239.96 153.066 240.048Z" fill="#593639"/>
<path d="M155.467 240.979C155.467 241.066 155.386 241.137 155.286 241.137C155.186 241.137 155.105 241.066 155.105 240.979C155.105 240.891 155.186 240.82 155.286 240.82C155.386 240.82 155.467 240.891 155.467 240.979Z" fill="#593639"/>
<path d="M150.744 241.955C150.744 242.043 150.806 242.113 150.883 242.113C150.959 242.113 151.022 242.042 151.022 241.955C151.022 241.868 150.959 241.797 150.883 241.797C150.806 241.797 150.744 241.868 150.744 241.955Z" fill="#593639"/>
<path d="M105.28 241.914C105.28 242.109 105.099 242.268 104.875 242.268C104.652 242.268 104.471 242.109 104.471 241.914C104.471 241.718 104.652 241.559 104.875 241.559C105.099 241.559 105.28 241.718 105.28 241.914Z" fill="#593639"/>
<path d="M105.925 241.837C105.925 242.032 105.744 242.191 105.521 242.191C105.298 242.191 105.118 242.032 105.118 241.837C105.118 241.641 105.299 241.482 105.521 241.482C105.744 241.482 105.925 241.641 105.925 241.837Z" fill="#593639"/>
<path d="M113.892 238.181C113.892 238.376 113.712 238.536 113.489 238.536C113.266 238.536 113.085 238.376 113.085 238.181C113.085 237.985 113.266 237.827 113.489 237.827C113.712 237.827 113.892 237.985 113.892 238.181Z" fill="#593639"/>
<path d="M109.504 241.685C109.504 241.881 109.323 242.04 109.1 242.04C108.877 242.04 108.696 241.881 108.696 241.685C108.696 241.49 108.877 241.331 109.1 241.331C109.323 241.331 109.504 241.49 109.504 241.685Z" fill="#593639"/>
<path d="M110.907 242.61C110.907 242.805 110.726 242.964 110.503 242.964C110.28 242.964 110.099 242.805 110.099 242.61C110.099 242.415 110.28 242.255 110.503 242.255C110.726 242.255 110.907 242.415 110.907 242.61Z" fill="#593639"/>
<path d="M155.105 241.797C155.105 241.993 154.924 242.152 154.701 242.152C154.478 242.152 154.297 241.993 154.297 241.797C154.297 241.602 154.478 241.443 154.701 241.443C154.924 241.443 155.105 241.601 155.105 241.797Z" fill="#593639"/>
<path d="M107.635 242.81C107.635 243.005 107.454 243.165 107.231 243.165C107.008 243.165 106.827 243.006 106.827 242.81C106.827 242.615 107.008 242.456 107.231 242.456C107.454 242.456 107.635 242.615 107.635 242.81Z" fill="#593639"/>
<path d="M133.464 239.004C133.464 239.28 132.762 239.503 131.897 239.503C131.032 239.503 130.331 239.279 130.331 239.004C130.331 238.729 131.032 238.505 131.897 238.505C132.762 238.505 133.464 238.729 133.464 239.004Z" fill="#593639"/>
<path d="M112.373 238.917C112.373 239.193 111.672 239.416 110.806 239.416C109.941 239.416 109.24 239.192 109.24 238.917C109.24 238.641 109.941 238.418 110.806 238.418C111.672 238.418 112.373 238.641 112.373 238.917Z" fill="#593639"/>
<path d="M105.694 240.4C105.694 240.675 104.993 240.899 104.128 240.899C103.262 240.899 102.561 240.675 102.561 240.4C102.561 240.124 103.262 239.901 104.128 239.901C104.993 239.901 105.694 240.124 105.694 240.4Z" fill="#593639"/>
<path d="M131.452 242.056C131.452 242.332 130.75 242.555 129.885 242.555C129.02 242.555 128.319 242.332 128.319 242.056C128.319 241.781 129.02 241.558 129.885 241.558C130.75 241.558 131.452 241.781 131.452 242.056Z" fill="#593639"/>
<path d="M122.209 241.059C122.209 241.335 121.508 241.558 120.643 241.558C119.777 241.558 119.076 241.335 119.076 241.059C119.076 240.783 119.778 240.56 120.643 240.56C121.508 240.56 122.209 240.783 122.209 241.059Z" fill="#593639"/>
<path d="M123.622 238.057C123.622 238.333 122.921 238.556 122.056 238.556C121.191 238.556 120.49 238.333 120.49 238.057C120.49 237.781 121.191 237.558 122.056 237.558C122.921 237.558 123.622 237.781 123.622 238.057Z" fill="#593639"/>
<path d="M135.311 241.558C135.311 241.834 134.61 242.056 133.744 242.056C132.879 242.056 132.177 241.833 132.177 241.558C132.177 241.283 132.879 241.059 133.744 241.059C134.61 241.059 135.311 241.283 135.311 241.558Z" fill="#593639"/>
<path d="M144.214 239.416C144.214 239.692 143.513 239.914 142.648 239.914C141.782 239.914 141.081 239.691 141.081 239.416C141.081 239.14 141.782 238.917 142.648 238.917C143.513 238.917 144.214 239.14 144.214 239.416Z" fill="#593639"/>
<path d="M131.206 240.172C131.206 240.298 130.936 240.4 130.603 240.4C130.27 240.4 130 240.298 130 240.172C130 240.047 130.27 239.945 130.603 239.945C130.936 239.944 131.206 240.046 131.206 240.172Z" fill="#593639"/>
<path d="M131.53 237.331C131.53 237.455 131.261 237.558 130.928 237.558C130.595 237.558 130.326 237.455 130.326 237.331C130.326 237.204 130.595 237.103 130.928 237.103C131.261 237.103 131.53 237.204 131.53 237.331Z" fill="#593639"/>
<path d="M126.191 237.558C126.191 237.684 125.921 237.786 125.588 237.786C125.255 237.786 124.985 237.684 124.985 237.558C124.985 237.433 125.255 237.331 125.588 237.331C125.921 237.331 126.191 237.432 126.191 237.558Z" fill="#593639"/>
<path d="M121.092 239.644C121.092 239.769 120.822 239.871 120.49 239.871C120.156 239.871 119.887 239.769 119.887 239.644C119.887 239.517 120.156 239.416 120.49 239.416C120.822 239.416 121.092 239.517 121.092 239.644Z" fill="#593639"/>
<path d="M112.373 241.686C112.373 241.811 112.103 241.914 111.771 241.914C111.437 241.914 111.167 241.811 111.167 241.686C111.167 241.56 111.437 241.458 111.771 241.458C112.103 241.458 112.373 241.56 112.373 241.686Z" fill="#593639"/>
<path d="M117.862 241.558C117.862 241.684 117.592 241.786 117.259 241.786C116.926 241.786 116.656 241.684 116.656 241.558C116.656 241.433 116.926 241.33 117.259 241.33C117.592 241.33 117.862 241.432 117.862 241.558Z" fill="#593639"/>
<path d="M122.659 242.555C122.659 242.681 122.389 242.783 122.057 242.783C121.724 242.783 121.454 242.681 121.454 242.555C121.454 242.429 121.724 242.328 122.057 242.328C122.389 242.328 122.659 242.429 122.659 242.555Z" fill="#593639"/>
<path d="M127.244 241.457C127.244 241.583 126.974 241.685 126.641 241.685C126.309 241.685 126.039 241.583 126.039 241.457C126.039 241.332 126.309 241.23 126.641 241.23C126.974 241.23 127.244 241.332 127.244 241.457Z" fill="#593639"/>
<path d="M135.913 239.944C135.913 240.235 135.643 240.473 135.311 240.473C134.978 240.473 134.708 240.235 134.708 239.944C134.708 239.652 134.978 239.415 135.311 239.415C135.643 239.416 135.913 239.652 135.913 239.944Z" fill="#593639"/>
<path d="M147.468 240.181C147.468 240.472 147.198 240.71 146.866 240.71C146.532 240.71 146.263 240.472 146.263 240.181C146.263 239.888 146.533 239.652 146.866 239.652C147.198 239.652 147.468 239.888 147.468 240.181Z" fill="#593639"/>
<path d="M129.345 238.505C129.345 238.797 129.075 239.035 128.742 239.035C128.409 239.035 128.14 238.797 128.14 238.505C128.14 238.213 128.409 237.977 128.742 237.977C129.075 237.977 129.345 238.213 129.345 238.505Z" fill="#593639"/>
<path d="M129.012 239.944C129.012 240.075 128.891 240.181 128.742 240.181C128.593 240.181 128.472 240.075 128.472 239.944C128.472 239.813 128.593 239.707 128.742 239.707C128.891 239.707 129.012 239.813 129.012 239.944Z" fill="#593639"/>
<path d="M138.291 238.181C138.291 238.311 138.17 238.418 138.021 238.418C137.872 238.418 137.752 238.311 137.752 238.181C137.752 238.05 137.872 237.944 138.021 237.944C138.17 237.944 138.291 238.05 138.291 238.181Z" fill="#593639"/>
<path d="M146.866 241.853C146.866 241.983 146.744 242.089 146.596 242.089C146.446 242.089 146.326 241.983 146.326 241.853C146.326 241.722 146.446 241.616 146.596 241.616C146.744 241.616 146.866 241.722 146.866 241.853Z" fill="#593639"/>
<path d="M138.561 242.802C138.71 242.802 138.831 242.696 138.831 242.565C138.831 242.434 138.71 242.328 138.561 242.328C138.412 242.328 138.291 242.434 138.291 242.565C138.291 242.696 138.412 242.802 138.561 242.802Z" fill="#593639"/>
<path d="M147.406 238.654C147.406 238.785 147.285 238.891 147.136 238.891C146.986 238.891 146.866 238.785 146.866 238.654C146.866 238.524 146.986 238.418 147.136 238.418C147.285 238.418 147.406 238.524 147.406 238.654Z" fill="#593639"/>
<path d="M144.484 240.529C144.484 240.66 144.363 240.767 144.214 240.767C144.065 240.767 143.944 240.66 143.944 240.529C143.944 240.399 144.065 240.292 144.214 240.292C144.363 240.292 144.484 240.399 144.484 240.529Z" fill="#593639"/>
<path d="M142.314 242.768C142.314 242.899 142.193 243.005 142.044 243.005C141.895 243.005 141.775 242.899 141.775 242.768C141.775 242.638 141.895 242.532 142.044 242.532C142.193 242.532 142.314 242.637 142.314 242.768Z" fill="#593639"/>
<path d="M141.351 240.979C141.351 241.109 141.229 241.215 141.081 241.215C140.932 241.215 140.811 241.109 140.811 240.979C140.811 240.848 140.932 240.742 141.081 240.742C141.229 240.742 141.351 240.848 141.351 240.979Z" fill="#593639"/>
<path d="M143.25 238.083C143.25 238.213 143.129 238.319 142.98 238.319C142.831 238.319 142.71 238.213 142.71 238.083C142.71 237.952 142.831 237.846 142.98 237.846C143.129 237.846 143.25 237.952 143.25 238.083Z" fill="#593639"/>
<path d="M149.517 238.181C149.517 238.311 149.396 238.418 149.247 238.418C149.098 238.418 148.978 238.311 148.978 238.181C148.978 238.05 149.098 237.944 149.247 237.944C149.396 237.944 149.517 238.05 149.517 238.181Z" fill="#593639"/>
<path d="M147.676 242.792C147.676 242.922 147.555 243.029 147.406 243.029C147.256 243.029 147.136 242.922 147.136 242.792C147.136 242.661 147.256 242.555 147.406 242.555C147.555 242.555 147.676 242.661 147.676 242.792Z" fill="#593639"/>
<path d="M123.199 239.504C123.199 239.634 123.078 239.741 122.929 239.741C122.78 239.741 122.659 239.634 122.659 239.504C122.659 239.373 122.78 239.267 122.929 239.267C123.078 239.267 123.199 239.373 123.199 239.504Z" fill="#593639"/>
<path d="M117.259 237.33C117.259 237.461 117.138 237.568 116.989 237.568C116.84 237.568 116.719 237.461 116.719 237.33C116.719 237.2 116.84 237.094 116.989 237.094C117.138 237.094 117.259 237.2 117.259 237.33Z" fill="#593639"/>
<path d="M108.533 238.418C108.533 238.548 108.412 238.654 108.263 238.654C108.114 238.654 107.993 238.548 107.993 238.418C107.993 238.287 108.114 238.181 108.263 238.181C108.412 238.181 108.533 238.287 108.533 238.418Z" fill="#593639"/>
<path d="M101.236 241.402C101.236 241.532 101.114 241.639 100.965 241.639C100.816 241.639 100.696 241.532 100.696 241.402C100.696 241.271 100.816 241.165 100.965 241.165C101.114 241.165 101.236 241.271 101.236 241.402Z" fill="#593639"/>
<path d="M103.799 242.328C103.799 242.458 103.677 242.565 103.528 242.565C103.379 242.565 103.258 242.458 103.258 242.328C103.258 242.197 103.379 242.091 103.528 242.091C103.677 242.091 103.799 242.197 103.799 242.328Z" fill="#593639"/>
<path d="M106.709 238.654C106.709 238.785 106.588 238.891 106.439 238.891C106.29 238.891 106.169 238.785 106.169 238.654C106.169 238.524 106.29 238.418 106.439 238.418C106.587 238.418 106.709 238.524 106.709 238.654Z" fill="#593639"/>
<path d="M114.318 240.637C114.318 240.767 114.197 240.874 114.048 240.874C113.899 240.874 113.778 240.767 113.778 240.637C113.778 240.506 113.899 240.4 114.048 240.4C114.197 240.4 114.318 240.506 114.318 240.637Z" fill="#593639"/>
<path d="M113.489 242.546C113.489 242.676 113.367 242.783 113.218 242.783C113.07 242.783 112.949 242.676 112.949 242.546C112.949 242.415 113.07 242.309 113.218 242.309C113.367 242.309 113.489 242.415 113.489 242.546Z" fill="#593639"/>
<path d="M119.076 242.792C119.076 242.922 118.955 243.029 118.806 243.029C118.657 243.029 118.536 242.922 118.536 242.792C118.536 242.661 118.657 242.555 118.806 242.555C118.955 242.555 119.076 242.661 119.076 242.792Z" fill="#593639"/>
<path d="M136.454 238.418C136.454 238.548 136.332 238.654 136.183 238.654C136.035 238.654 135.914 238.548 135.914 238.418C135.914 238.287 136.035 238.181 136.183 238.181C136.333 238.181 136.454 238.287 136.454 238.418Z" fill="#593639"/>
<path d="M139.824 239.673C139.824 239.804 139.703 239.91 139.554 239.91C139.405 239.91 139.284 239.804 139.284 239.673C139.284 239.543 139.405 239.436 139.554 239.436C139.703 239.436 139.824 239.543 139.824 239.673Z" fill="#593639"/>
<path d="M140.365 242.565C140.365 242.695 140.243 242.802 140.094 242.802C139.945 242.802 139.824 242.695 139.824 242.565C139.824 242.434 139.945 242.328 140.094 242.328C140.243 242.328 140.365 242.434 140.365 242.565Z" fill="#593639"/>
<path d="M118.806 239.241C118.955 239.241 119.076 239.135 119.076 239.004C119.076 238.873 118.955 238.767 118.806 238.767C118.657 238.767 118.536 238.873 118.536 239.004C118.536 239.135 118.657 239.241 118.806 239.241Z" fill="#593639"/>
<path d="M118.402 240.4C118.402 240.53 118.281 240.637 118.132 240.637C117.983 240.637 117.862 240.53 117.862 240.4C117.862 240.269 117.983 240.163 118.132 240.163C118.281 240.163 118.402 240.269 118.402 240.4Z" fill="#593639"/>
<path d="M115.792 241.06C115.792 241.19 115.671 241.297 115.523 241.297C115.374 241.297 115.253 241.19 115.253 241.06C115.253 240.929 115.374 240.823 115.523 240.823C115.672 240.823 115.792 240.929 115.792 241.06Z" fill="#593639"/>
<path d="M127.936 236.866C127.936 236.996 127.815 237.103 127.666 237.103C127.517 237.103 127.396 236.996 127.396 236.866C127.396 236.735 127.517 236.629 127.666 236.629C127.815 236.629 127.936 236.735 127.936 236.866Z" fill="#593639"/>
<path d="M129.012 240.928C129.012 241.06 128.891 241.166 128.742 241.166C128.593 241.166 128.472 241.06 128.472 240.928C128.472 240.798 128.593 240.692 128.742 240.692C128.891 240.692 129.012 240.798 129.012 240.928Z" fill="#593639"/>
<path d="M127.063 242.555C127.063 242.686 126.942 242.792 126.793 242.792C126.645 242.792 126.523 242.686 126.523 242.555C126.523 242.425 126.645 242.318 126.793 242.318C126.942 242.318 127.063 242.425 127.063 242.555Z" fill="#593639"/>
<path d="M133.734 240.163C133.734 240.293 133.613 240.4 133.464 240.4C133.315 240.4 133.194 240.293 133.194 240.163C133.194 240.032 133.315 239.926 133.464 239.926C133.612 239.926 133.734 240.032 133.734 240.163Z" fill="#593639"/>
<path d="M136.453 242.057C136.453 242.187 136.333 242.293 136.184 242.293C136.035 242.293 135.914 242.187 135.914 242.057C135.914 241.926 136.035 241.82 136.184 241.82C136.333 241.82 136.453 241.926 136.453 242.057Z" fill="#593639"/>
<path d="M134.709 238.319C134.709 238.45 134.587 238.556 134.439 238.556C134.29 238.556 134.169 238.45 134.169 238.319C134.169 238.189 134.29 238.082 134.439 238.082C134.587 238.082 134.709 238.189 134.709 238.319Z" fill="#593639"/>
<path d="M131.245 241.165C131.245 241.297 131.338 241.402 131.452 241.402C131.567 241.402 131.659 241.297 131.659 241.165C131.659 241.035 131.567 240.928 131.452 240.928C131.338 240.929 131.245 241.035 131.245 241.165Z" fill="#593639"/>
<path d="M124.607 240.172C124.607 240.464 124.337 240.701 124.004 240.701C123.671 240.701 123.401 240.463 123.401 240.172C123.401 239.88 123.671 239.644 124.004 239.644C124.337 239.644 124.607 239.88 124.607 240.172Z" fill="#593639"/>
<path d="M125.21 240.032C125.21 240.323 124.94 240.561 124.607 240.561C124.274 240.561 124.004 240.323 124.004 240.032C124.004 239.74 124.274 239.503 124.607 239.503C124.94 239.503 125.21 239.74 125.21 240.032Z" fill="#593639"/>
<path d="M140.697 239.266C140.697 239.558 140.428 239.795 140.095 239.795C139.762 239.795 139.492 239.558 139.492 239.266C139.492 238.975 139.762 238.738 140.095 238.738C140.428 238.738 140.697 238.975 140.697 239.266Z" fill="#593639"/>
<path d="M127.017 238.586C127.017 238.877 126.748 239.115 126.416 239.115C126.082 239.115 125.812 238.877 125.812 238.586C125.812 238.294 126.082 238.057 126.416 238.057C126.748 238.057 127.017 238.294 127.017 238.586Z" fill="#593639"/>
<path d="M110.099 240.56C110.099 240.837 109.398 241.059 108.533 241.059C107.668 241.059 106.967 240.836 106.967 240.56C106.967 240.285 107.668 240.062 108.533 240.062C109.398 240.062 110.099 240.285 110.099 240.56Z" fill="#593639"/>
<path d="M115.749 242.546C115.749 242.671 115.479 242.774 115.147 242.774C114.814 242.774 114.544 242.671 114.544 242.546C114.544 242.42 114.814 242.318 115.147 242.318C115.479 242.318 115.749 242.42 115.749 242.546Z" fill="#593639"/>
<path d="M115.523 239.675C115.523 239.965 115.254 240.203 114.921 240.203C114.588 240.203 114.318 239.965 114.318 239.675C114.318 239.382 114.588 239.145 114.921 239.145C115.254 239.145 115.523 239.382 115.523 239.675Z" fill="#593639"/>
<path d="M117.592 239.324C117.592 239.713 117.323 240.032 116.99 240.032C116.657 240.032 116.387 239.713 116.387 239.324C116.387 238.933 116.657 238.616 116.99 238.616C117.323 238.616 117.592 238.933 117.592 239.324Z" fill="#593639"/>
<path d="M127.396 240.4C127.396 240.692 127.127 240.929 126.794 240.929C126.461 240.929 126.191 240.692 126.191 240.4C126.191 240.108 126.461 239.872 126.794 239.872C127.127 239.872 127.396 240.108 127.396 240.4Z" fill="#593639"/>
<path d="M145.553 242.546C145.553 242.837 145.284 243.074 144.95 243.074C144.618 243.074 144.348 242.837 144.348 242.546C144.348 242.254 144.618 242.017 144.95 242.017C145.284 242.017 145.553 242.254 145.553 242.546Z" fill="#593639"/>
<path d="M137.752 240.929C137.752 241.221 137.482 241.458 137.149 241.458C136.816 241.458 136.546 241.22 136.546 240.929C136.546 240.637 136.816 240.4 137.149 240.4C137.481 240.4 137.752 240.637 137.752 240.929Z" fill="#593639"/>
<path d="M133.383 242.909C133.383 243.201 133.114 243.438 132.78 243.438C132.448 243.438 132.178 243.201 132.178 242.909C132.178 242.617 132.448 242.38 132.78 242.38C133.114 242.381 133.383 242.618 133.383 242.909Z" fill="#593639"/>
<path d="M143.25 241.058C143.25 241.35 142.98 241.587 142.647 241.587C142.314 241.587 142.044 241.35 142.044 241.058C142.044 240.766 142.314 240.529 142.647 240.529C142.98 240.529 143.25 240.766 143.25 241.058Z" fill="#593639"/>
<path d="M125.21 242.38C125.21 242.672 124.94 242.91 124.607 242.91C124.274 242.91 124.004 242.672 124.004 242.38C124.004 242.088 124.274 241.852 124.607 241.852C124.94 241.852 125.21 242.088 125.21 242.38Z" fill="#593639"/>
<path d="M115.825 229.369C115.755 229.579 115.528 229.693 115.318 229.623C115.108 229.554 114.995 229.328 115.065 229.118C115.5 227.812 115.961 226.496 116.438 225.196C116.514 224.988 116.745 224.882 116.953 224.96C117.16 225.037 117.265 225.267 117.189 225.474C116.715 226.765 116.258 228.072 115.825 229.369ZM119.272 220.138C119.187 220.343 118.953 220.44 118.748 220.355C118.544 220.271 118.446 220.037 118.531 219.833C119.056 218.565 119.607 217.285 120.174 216.019C120.265 215.816 120.503 215.727 120.705 215.818C120.906 215.91 120.995 216.146 120.905 216.348C120.342 217.607 119.794 218.878 119.272 220.138ZM123.346 211.165C123.248 211.363 123.007 211.445 122.808 211.347C122.61 211.249 122.529 211.009 122.627 210.811C123.236 209.578 123.87 208.338 124.516 207.114C124.62 206.918 124.864 206.844 125.059 206.949C125.254 207.053 125.328 207.295 125.224 207.49C124.582 208.707 123.952 209.94 123.346 211.165ZM127.99 202.473C127.879 202.666 127.634 202.732 127.441 202.621C127.25 202.511 127.184 202.267 127.294 202.075C127.979 200.884 128.688 199.685 129.407 198.503C129.522 198.313 129.769 198.254 129.958 198.37C130.146 198.486 130.205 198.732 130.09 198.921C129.376 200.097 128.671 201.288 127.99 202.473ZM133.15 194.076C133.028 194.261 132.779 194.314 132.594 194.192C132.409 194.07 132.357 193.823 132.478 193.638C133.229 192.49 134.006 191.335 134.791 190.194C134.917 190.011 135.168 189.966 135.35 190.093C135.531 190.219 135.576 190.468 135.451 190.65C134.669 191.785 133.898 192.934 133.15 194.076ZM138.774 185.981C138.642 186.16 138.39 186.198 138.212 186.067C138.034 185.935 137.996 185.685 138.127 185.507C138.941 184.4 139.777 183.288 140.62 182.193C140.755 182.017 141.008 181.985 141.183 182.122C141.358 182.257 141.389 182.508 141.255 182.684C140.416 183.773 139.584 184.879 138.774 185.981ZM144.815 178.193C144.675 178.365 144.421 178.391 144.249 178.25C144.078 178.11 144.053 177.858 144.193 177.687C145.061 176.623 145.952 175.555 146.848 174.503C146.992 174.333 147.246 174.314 147.415 174.459C147.582 174.603 147.601 174.856 147.458 175.024C146.566 176.071 145.68 177.135 144.815 178.193ZM151.233 170.711C151.084 170.877 150.83 170.89 150.665 170.741C150.501 170.593 150.488 170.34 150.635 170.176C151.553 169.156 152.493 168.132 153.437 167.122C153.589 166.959 153.844 166.952 154.006 167.105C154.166 167.256 154.173 167.509 154.022 167.671C153.082 168.676 152.146 169.697 151.233 170.711ZM157.992 163.538C157.836 163.696 157.581 163.698 157.423 163.541C157.266 163.386 157.265 163.133 157.42 162.975C158.384 161.997 159.369 161.016 160.356 160.051C160.515 159.896 160.77 159.9 160.924 160.06C161.078 160.219 161.074 160.472 160.916 160.626C159.934 161.587 158.953 162.563 157.992 163.538ZM165.065 156.673C164.902 156.824 164.647 156.814 164.497 156.651C164.347 156.489 164.356 156.236 164.518 156.085C165.526 155.149 166.553 154.212 167.579 153.293C167.745 153.145 167.999 153.16 168.147 153.326C168.293 153.491 168.278 153.744 168.114 153.892C167.092 154.807 166.07 155.74 165.065 156.673ZM172.431 150.122C172.262 150.266 172.008 150.246 171.864 150.076C171.721 149.908 171.741 149.655 171.91 149.512C172.962 148.616 174.029 147.725 175.09 146.856C175.262 146.716 175.516 146.742 175.656 146.915C175.795 147.086 175.769 147.338 175.598 147.479C174.541 148.343 173.479 149.231 172.431 150.122ZM180.079 143.907C179.903 144.043 179.65 144.011 179.515 143.835C179.38 143.66 179.411 143.409 179.586 143.273C180.694 142.415 181.803 141.575 182.89 140.77C183.068 140.637 183.32 140.676 183.452 140.855C183.582 141.034 183.544 141.284 183.366 141.416C182.285 142.217 181.182 143.053 180.079 143.907Z" fill="#00BFFA"/>
<path d="M123.449 229.401C123.355 229.603 123.116 229.69 122.915 229.596C122.715 229.503 122.628 229.265 122.721 229.065C123.304 227.81 123.908 226.542 124.523 225.285C124.62 225.085 124.861 225.004 125.06 225.102C125.258 225.2 125.339 225.44 125.242 225.638C124.63 226.89 124.029 228.152 123.449 229.401ZM127.849 220.489C127.746 220.686 127.503 220.762 127.306 220.658C127.111 220.555 127.035 220.314 127.138 220.118C127.779 218.894 128.442 217.655 129.116 216.427C129.222 216.233 129.467 216.162 129.661 216.27C129.854 216.377 129.924 216.62 129.818 216.814C129.148 218.037 128.487 219.269 127.849 220.489ZM132.658 211.789C132.546 211.981 132.3 212.046 132.109 211.934C131.918 211.823 131.853 211.578 131.964 211.387C132.661 210.191 133.379 208.984 134.104 207.789C134.219 207.6 134.467 207.54 134.656 207.656C134.844 207.772 134.903 208.018 134.789 208.207C134.067 209.396 133.352 210.598 132.658 211.789ZM137.845 203.311C137.725 203.498 137.477 203.552 137.29 203.432C137.104 203.312 137.05 203.065 137.169 202.879C137.919 201.71 138.687 200.535 139.459 199.376C139.582 199.192 139.832 199.142 140.016 199.267C140.199 199.39 140.248 199.638 140.126 199.822C139.357 200.976 138.592 202.147 137.845 203.311ZM143.382 195.056C143.255 195.238 143.004 195.282 142.822 195.154C142.642 195.027 142.598 194.778 142.725 194.597C143.52 193.462 144.335 192.319 145.153 191.191C145.284 191.011 145.536 190.972 145.715 191.103C145.893 191.234 145.932 191.484 145.802 191.663C144.987 192.786 144.174 193.925 143.382 195.056ZM149.244 187.029C149.109 187.206 148.857 187.24 148.68 187.105C148.505 186.971 148.471 186.72 148.604 186.544C149.447 185.436 150.305 184.326 151.163 183.235C151.3 183.06 151.553 183.031 151.727 183.169C151.9 183.306 151.929 183.558 151.793 183.731C150.938 184.819 150.083 185.925 149.244 187.029ZM155.407 179.232C155.266 179.404 155.013 179.429 154.842 179.287C154.671 179.147 154.647 178.895 154.787 178.724C155.67 177.649 156.569 176.572 157.466 175.513C157.609 175.343 157.864 175.323 158.032 175.468C158.2 175.612 158.22 175.864 158.077 176.032C157.183 177.088 156.287 178.161 155.407 179.232ZM161.855 171.669C161.708 171.835 161.454 171.851 161.288 171.703C161.123 171.556 161.107 171.304 161.254 171.138C162.171 170.101 163.109 169.057 164.048 168.027C164.197 167.863 164.452 167.852 164.615 168.003C164.778 168.153 164.789 168.406 164.64 168.569C163.704 169.595 162.77 170.635 161.855 171.669ZM168.572 164.345C168.419 164.506 168.165 164.512 168.004 164.359C167.844 164.206 167.838 163.953 167.99 163.793C168.948 162.786 169.922 161.777 170.895 160.785C171.05 160.626 171.305 160.625 171.463 160.781C171.62 160.937 171.622 161.19 171.467 161.348C170.497 162.336 169.526 163.342 168.572 164.345ZM175.551 157.27C175.392 157.426 175.137 157.422 174.982 157.263C174.828 157.104 174.831 156.851 174.989 156.697C175.989 155.72 177 154.748 178.003 153.799C178.164 153.646 178.419 153.654 178.571 153.817C178.722 153.978 178.714 154.231 178.553 154.383C177.554 155.328 176.547 156.297 175.551 157.27ZM182.79 150.467C182.625 150.616 182.371 150.603 182.222 150.437C182.074 150.273 182.087 150.02 182.251 149.872C183.304 148.922 184.354 147.992 185.382 147.099C185.55 146.953 185.805 146.972 185.949 147.141C186.093 147.308 186.075 147.561 185.908 147.706C184.884 148.595 183.838 149.521 182.79 150.467Z" fill="#00BFFA"/>
<path d="M133.412 228.96C133.32 229.162 133.082 229.251 132.88 229.159C132.679 229.067 132.59 228.83 132.682 228.629C133.248 227.384 133.838 226.124 134.441 224.875C134.537 224.675 134.778 224.592 134.977 224.689C135.175 224.786 135.258 225.025 135.162 225.224C134.563 226.468 133.976 227.721 133.412 228.96ZM137.725 220.102C137.623 220.299 137.381 220.376 137.184 220.273C136.988 220.171 136.912 219.93 137.013 219.734C137.647 218.514 138.3 217.287 138.961 216.075C139.067 215.88 139.312 215.809 139.506 215.917C139.699 216.024 139.769 216.267 139.664 216.461C139.006 217.666 138.356 218.888 137.725 220.102ZM142.477 211.47C142.365 211.662 142.119 211.727 141.927 211.615C141.737 211.504 141.672 211.259 141.783 211.068C142.473 209.883 143.184 208.688 143.902 207.508C144.017 207.318 144.265 207.259 144.454 207.375C144.642 207.491 144.701 207.737 144.586 207.926C143.872 209.101 143.164 210.29 142.477 211.47ZM147.627 203.07C147.506 203.257 147.257 203.311 147.071 203.19C146.885 203.07 146.832 202.823 146.951 202.637C147.692 201.488 148.455 200.327 149.227 199.176C149.351 198.991 149.601 198.943 149.784 199.068C149.967 199.192 150.015 199.44 149.892 199.623C149.124 200.77 148.364 201.926 147.627 203.07ZM153.141 194.905C153.013 195.086 152.762 195.129 152.581 195.001C152.4 194.873 152.358 194.624 152.485 194.443C153.273 193.327 154.085 192.2 154.904 191.082C155.035 190.903 155.287 190.865 155.466 190.997C155.643 191.129 155.681 191.379 155.55 191.557C154.735 192.67 153.926 193.794 153.141 194.905ZM158.991 186.976C158.855 187.152 158.602 187.185 158.426 187.049C158.252 186.914 158.219 186.663 158.354 186.488C159.193 185.398 160.049 184.304 160.905 183.228C161.043 183.054 161.297 183.026 161.47 183.165C161.642 183.304 161.67 183.555 161.532 183.728C160.679 184.8 159.826 185.89 158.991 186.976ZM165.15 179.286C165.008 179.457 164.754 179.48 164.584 179.337C164.414 179.196 164.392 178.944 164.533 178.774C165.412 177.719 166.31 176.659 167.208 175.615C167.353 175.447 167.608 175.429 167.775 175.575C167.942 175.72 167.96 175.972 167.816 176.14C166.92 177.179 166.026 178.235 165.15 179.286ZM171.6 171.839C171.451 172.005 171.197 172.018 171.032 171.869C170.868 171.72 170.855 171.468 171.003 171.304C171.927 170.277 172.864 169.252 173.796 168.249C173.947 168.086 174.202 168.078 174.364 168.23C174.525 168.381 174.533 168.634 174.383 168.796C173.455 169.795 172.521 170.816 171.6 171.839ZM178.328 164.643C178.173 164.803 177.918 164.806 177.759 164.651C177.601 164.496 177.597 164.243 177.751 164.085C178.714 163.094 179.689 162.106 180.659 161.141C180.816 160.984 181.072 160.985 181.228 161.144C181.383 161.301 181.381 161.554 181.225 161.71C180.259 162.672 179.287 163.656 178.328 164.643ZM185.331 157.718C185.17 157.871 184.915 157.864 184.762 157.703C184.61 157.542 184.617 157.289 184.778 157.137C185.794 156.172 186.811 155.225 187.808 154.316C187.972 154.166 188.226 154.178 188.375 154.343C188.523 154.508 188.511 154.761 188.348 154.91C187.356 155.815 186.344 156.757 185.331 157.718Z" fill="#00BFFA"/>
<path d="M108.486 230.2C108.428 230.414 108.208 230.542 107.994 230.484C107.781 230.427 107.654 230.207 107.712 229.994C108.066 228.679 108.44 227.359 108.826 226.059C108.889 225.846 109.113 225.726 109.325 225.79C109.537 225.854 109.656 226.077 109.593 226.289C109.209 227.581 108.838 228.893 108.486 230.2ZM111.309 220.889C111.238 221.099 111.01 221.212 110.8 221.141C110.591 221.07 110.479 220.844 110.549 220.634C110.985 219.347 111.442 218.053 111.911 216.779C111.988 216.571 112.219 216.465 112.427 216.543C112.634 216.621 112.739 216.851 112.662 217.058C112.196 218.324 111.742 219.61 111.309 220.889ZM114.72 211.779C114.636 211.985 114.401 212.083 114.196 211.998C113.992 211.914 113.894 211.68 113.978 211.476C114.495 210.22 115.034 208.959 115.585 207.716C115.675 207.514 115.913 207.423 116.115 207.514C116.316 207.605 116.406 207.841 116.317 208.043C115.77 209.278 115.234 210.531 114.72 211.779ZM118.71 202.909C118.613 203.109 118.372 203.191 118.173 203.094C117.975 202.997 117.892 202.757 117.989 202.559C118.586 201.339 119.205 200.116 119.835 198.911C119.938 198.715 120.181 198.64 120.377 198.744C120.572 198.847 120.647 199.089 120.544 199.285C119.919 200.481 119.303 201.697 118.71 202.909ZM123.263 194.316C123.153 194.509 122.908 194.576 122.715 194.465C122.523 194.356 122.457 194.111 122.566 193.92C123.241 192.74 123.937 191.559 124.642 190.399C124.757 190.21 125.005 190.151 125.194 190.267C125.382 190.383 125.44 190.629 125.326 190.818C124.626 191.97 123.934 193.143 123.263 194.316ZM128.357 186.032C128.234 186.218 127.985 186.269 127.8 186.147C127.615 186.025 127.564 185.777 127.686 185.593C128.432 184.461 129.202 183.327 129.98 182.211C130.107 182.029 130.358 181.986 130.54 182.114C130.72 182.242 130.763 182.491 130.637 182.672C129.863 183.781 129.098 184.908 128.357 186.032ZM133.962 178.088C133.828 178.265 133.576 178.301 133.399 178.167C133.222 178.034 133.187 177.783 133.32 177.607C134.135 176.524 134.974 175.441 135.819 174.377C135.957 174.203 136.211 174.175 136.384 174.314C136.556 174.453 136.584 174.705 136.446 174.878C135.606 175.935 134.772 177.012 133.962 178.088ZM140.048 170.507C139.904 170.676 139.65 170.696 139.481 170.551C139.313 170.407 139.294 170.155 139.437 169.987C140.317 168.957 141.22 167.927 142.128 166.916C142.277 166.751 142.532 166.739 142.696 166.888C142.859 167.037 142.872 167.29 142.724 167.454C141.82 168.459 140.923 169.483 140.048 170.507ZM146.583 163.31C146.429 163.47 146.174 163.474 146.014 163.32C145.855 163.166 145.851 162.913 146.004 162.754C146.945 161.778 147.908 160.804 148.874 159.851C149.032 159.694 149.287 159.697 149.442 159.857C149.596 160.015 149.593 160.268 149.436 160.423C148.476 161.371 147.519 162.339 146.583 163.31ZM153.534 156.515C153.371 156.665 153.116 156.655 152.965 156.491C152.816 156.328 152.826 156.075 152.989 155.925C153.986 155.007 155.004 154.091 156.024 153.197C156.191 153.05 156.446 153.068 156.591 153.236C156.736 153.403 156.718 153.656 156.552 153.801C155.538 154.691 154.526 155.601 153.534 156.515ZM160.872 150.141C160.7 150.281 160.446 150.256 160.306 150.084C160.166 149.913 160.191 149.661 160.362 149.521C161.412 148.662 162.482 147.808 163.552 146.975C163.727 146.838 163.98 146.871 164.116 147.047C164.251 147.222 164.218 147.474 164.044 147.61C162.979 148.438 161.915 149.287 160.872 150.141ZM168.572 144.21C168.392 144.341 168.14 144.3 168.01 144.12C167.88 143.941 167.92 143.69 168.099 143.561C169.205 142.761 170.324 141.973 171.436 141.211C171.619 141.085 171.87 141.133 171.995 141.317C172.118 141.501 172.071 141.749 171.888 141.875C170.784 142.632 169.671 143.416 168.572 144.21ZM176.618 138.763C176.43 138.881 176.181 138.825 176.063 138.637C175.945 138.45 176.001 138.203 176.188 138.085C177.356 137.347 178.526 136.634 179.673 135.957C179.864 135.844 180.111 135.909 180.223 136.102C180.334 136.293 180.269 136.538 180.079 136.65C178.94 137.322 177.779 138.031 176.618 138.763Z" fill="#00BFFA"/>
<path d="M142.064 228.939C141.992 229.148 141.763 229.259 141.554 229.187C141.345 229.115 141.234 228.887 141.306 228.679C141.759 227.378 142.255 226.053 142.785 224.73C142.868 224.524 143.102 224.425 143.307 224.509C143.512 224.593 143.61 224.826 143.528 225.031C143.003 226.34 142.512 227.652 142.064 228.939ZM145.831 219.732C145.737 219.933 145.498 220.02 145.297 219.926C145.097 219.832 145.01 219.595 145.103 219.395C145.687 218.146 146.311 216.876 146.96 215.609C147.062 215.411 147.305 215.335 147.501 215.437C147.697 215.539 147.773 215.781 147.672 215.977C147.028 217.233 146.41 218.493 145.831 219.732ZM150.43 210.893C150.32 211.086 150.075 211.153 149.882 211.043C149.691 210.933 149.624 210.689 149.733 210.497C150.417 209.301 151.136 208.085 151.876 206.875C151.991 206.685 152.239 206.626 152.428 206.743C152.616 206.86 152.674 207.106 152.559 207.295C151.824 208.497 151.11 209.704 150.43 210.893ZM155.666 202.418C155.543 202.603 155.294 202.654 155.109 202.531C154.925 202.409 154.875 202.161 154.997 201.977C155.76 200.826 156.553 199.661 157.361 198.505C157.488 198.323 157.739 198.279 157.92 198.407C158.101 198.535 158.144 198.784 158.017 198.965C157.214 200.116 156.425 201.274 155.666 202.418ZM161.404 194.275C161.271 194.453 161.019 194.49 160.842 194.357C160.665 194.225 160.628 193.974 160.76 193.797C161.589 192.686 162.443 191.565 163.307 190.455C163.443 190.28 163.696 190.249 163.871 190.387C164.044 190.523 164.074 190.774 163.939 190.949C163.079 192.054 162.229 193.17 161.404 194.275ZM167.555 186.43C167.414 186.602 167.16 186.627 166.989 186.485C166.818 186.345 166.794 186.093 166.934 185.922C167.815 184.851 168.72 183.771 169.63 182.702C169.775 182.533 170.029 182.514 170.197 182.659C170.364 182.804 170.384 183.056 170.24 183.224C169.333 184.288 168.432 185.364 167.555 186.43ZM174.048 178.866C173.9 179.031 173.645 179.045 173.48 178.897C173.316 178.749 173.302 178.497 173.449 178.332C174.372 177.3 175.32 176.258 176.274 175.226C176.425 175.063 176.68 175.054 176.842 175.206C177.003 175.357 177.012 175.61 176.862 175.772C175.912 176.8 174.968 177.838 174.048 178.866ZM180.838 171.565C180.684 171.725 180.429 171.73 180.269 171.575C180.111 171.421 180.107 171.168 180.26 171.009C181.23 170.005 182.216 169 183.2 168.013C183.357 167.855 183.612 167.856 183.769 168.014C183.924 168.171 183.924 168.424 183.768 168.58C182.787 169.564 181.804 170.565 180.838 171.565ZM187.898 164.526C187.737 164.68 187.483 164.675 187.329 164.514C187.176 164.355 187.182 164.101 187.341 163.948C188.363 162.968 189.387 162 190.394 161.066C190.557 160.914 190.812 160.925 190.962 161.089C191.111 161.252 191.101 161.505 190.939 161.655C189.936 162.586 188.915 163.55 187.898 164.526Z" fill="#00BFFA"/>
<path d="M262.519 93.8259C255.675 86.9532 245.149 85.9865 237.262 90.9143L230.454 84.0781L195.497 119.18L209.254 132.994L192.75 138.315C188.137 129.769 180.117 124.93 173.064 127.047L173.061 127.039C173.05 127.042 173.04 127.052 173.029 127.057C172.965 127.076 172.9 127.091 172.836 127.112L172.86 127.188C171.708 128.535 173.527 138.117 177.123 149.367C180.721 160.616 184.797 169.47 186.514 169.892L186.538 169.969C186.603 169.948 186.665 169.922 186.728 169.9C186.74 169.897 186.753 169.899 186.765 169.895L186.762 169.887C193.724 167.485 197.44 158.863 196.235 149.218L218.319 142.098L243.894 167.779C245.407 169.298 247.86 169.298 249.373 167.779L278.85 138.179C280.363 136.659 280.363 134.196 278.85 132.677L265.418 119.189C270.326 111.269 269.364 100.699 262.519 93.8259ZM262.588 116.347L240.091 93.7567C246.384 90.2942 254.456 91.2315 259.779 96.5771C265.103 101.923 266.037 110.028 262.588 116.347Z" fill="#EF9D6B"/>
<defs>
<filter id="filter0_d_2_9732" x="94.4652" y="243.724" width="68.8934" height="10.1509" filterUnits="userSpaceOnUse" color-interpolation-filters="sRGB">
<feFlood flood-opacity="0" result="BackgroundImageFix"/>
<feColorMatrix in="SourceAlpha" type="matrix" values="0 0 0 0 0 0 0 0 0 0 0 0 0 0 0 0 0 0 127 0" result="hardAlpha"/>
<feOffset dy="1.01238"/>
<feGaussianBlur stdDeviation="0.506188"/>
<feComposite in2="hardAlpha" operator="out"/>
<feColorMatrix type="matrix" values="0 0 0 0 0 0 0 0 0 0 0 0 0 0 0 0 0 0 0.05 0"/>
<feBlend mode="normal" in2="BackgroundImageFix" result="effect1_dropShadow_2_9732"/>
<feBlend mode="normal" in="SourceGraphic" in2="effect1_dropShadow_2_9732" result="shape"/>
</filter>
<clipPath id="clip0_2_9732">
<rect width="326" height="337" fill="white"/>
</clipPath>
<clipPath id="clip1_2_9732">
<rect width="20" height="20" fill="white" transform="translate(31.3265 43.1791) rotate(-8.21673)"/>
</clipPath>
<clipPath id="clip2_2_9732">
<rect width="20" height="20" fill="white" transform="translate(31.3265 43.1791) rotate(-8.21673)"/>
</clipPath>
<clipPath id="clip3_2_9732">
<rect width="20.634" height="20.634" fill="white" transform="translate(49.4058 152.126) rotate(-13.2406)"/>
</clipPath>
<clipPath id="clip4_2_9732">
<rect width="25.0066" height="25.0066" fill="white" transform="translate(15.4689 296.073) rotate(-12.0835)"/>
</clipPath>
<clipPath id="clip5_2_9732">
<rect width="21.1954" height="21.1954" fill="white" transform="translate(184.167 19.3339) rotate(-3.17016)"/>
</clipPath>
<clipPath id="clip6_2_9732">
<rect width="21.4604" height="21.4604" fill="white" transform="translate(272.532 290.01) rotate(14.8127)"/>
</clipPath>
<clipPath id="clip7_2_9732">
<rect width="21.3225" height="21.3225" fill="white" transform="translate(237.573 200.075) rotate(-4.66212)"/>
</clipPath>
<clipPath id="clip8_2_9732">
<rect width="21.1734" height="21.1734" fill="white" transform="translate(286.536 69.6406) rotate(13.43)"/>
</clipPath>
</defs>
</svg>
