<svg width="266" height="293" viewBox="0 0 266 293" fill="none" xmlns="http://www.w3.org/2000/svg">
<g clip-path="url(#clip0_2_3634)">
<path d="M254.755 285.724C254.755 289.859 175.933 293.21 106.46 293.21C36.9869 293.21 3.17114 289.859 3.17114 285.724C3.17114 281.59 36.9869 278.238 106.46 278.238C175.933 278.238 254.755 281.59 254.755 285.724Z" fill="#E0E0E0" fill-opacity="0.4"/>
<path d="M124.637 203.22C123.078 188.867 121.731 174.462 121.201 159.997C120.67 145.539 120.966 131.009 122.707 116.61C124.451 102.219 127.695 87.9695 132.832 74.3824C137.962 60.8127 145.046 47.8999 154.307 36.6708L155.573 37.7025C146.511 48.8322 139.6 61.6124 134.616 75.0487C129.626 88.501 126.505 102.612 124.869 116.863C123.233 131.13 123.029 145.539 123.646 159.9C124.263 174.27 125.693 188.604 127.338 202.92L124.637 203.22Z" fill="#50AA75"/>
<path d="M200.219 73.7263C186.778 78.6997 174.223 86.035 163.385 95.3278C157.983 99.9709 153.049 105.158 149.151 111.023C145.236 116.866 142.555 123.446 140.68 130.277C138.786 137.104 137.623 144.185 136.604 151.275C136.116 154.822 135.695 158.377 135.344 161.939C135.006 165.503 134.736 169.071 134.534 172.644C134.15 179.789 134.051 186.948 134.26 194.095L134.348 196.775L134.471 199.453C134.553 201.242 134.662 203.001 134.843 204.718C135.205 208.147 135.911 211.436 137.38 214.233L132.959 216.492C131.126 212.836 130.416 208.91 130.079 205.182C129.914 203.308 129.832 201.463 129.779 199.648L129.699 196.919L129.655 194.19C129.562 186.911 129.784 179.633 130.296 172.377C130.561 168.75 130.896 165.129 131.3 161.515C131.716 157.904 132.204 154.301 132.759 150.709C133.912 143.541 135.208 136.366 137.289 129.311C138.321 125.787 139.573 122.31 141.085 118.934C142.612 115.568 144.41 112.293 146.527 109.255C150.734 103.15 155.95 97.8641 161.571 93.1907C172.83 83.8567 185.754 76.6005 199.512 71.7665L200.219 73.7263Z" fill="#50AA75"/>
<path d="M187.78 17.865C186.625 20.0706 185.052 21.4544 183.129 22.9509C182.023 23.8111 180.849 24.584 179.618 25.2551C179.003 25.5905 178.374 25.9007 177.733 26.1835C177.359 26.3484 176.458 26.9127 176.057 26.8502C180.19 27.4933 184.491 26.1593 187.748 23.5602C187.802 27.8032 188.08 32.0532 187.936 36.2955C187.929 36.482 187.897 36.6666 187.889 36.8531C183.838 40.9108 178.533 43.7191 172.882 44.7428C178.001 45.5708 183.347 44.0985 187.536 41.0715C186.971 46.0841 185.779 51.01 184.015 55.7373C183.344 56.1798 182.664 56.609 181.947 56.9775C178.526 58.7362 174.511 59.5297 170.766 58.6466C169.546 58.3587 168.107 57.9477 167.164 58.7712C166.343 59.4883 166.409 60.8647 167.057 61.7405C167.705 62.616 168.77 63.0799 169.819 63.3764C173.508 64.4186 177.503 63.8285 181.082 62.4531C178.312 67.6927 174.56 72.4805 169.427 75.3717C163.399 78.7672 155.214 78.9607 149.953 74.4726C147.158 72.0884 145.46 68.6747 144.564 65.1653C143.652 61.5925 144.72 58.242 144.519 54.6322C144.472 53.8042 144.296 52.9893 144.121 52.1788C144.086 52.0185 144.047 51.8492 143.933 51.7303C143.806 51.5967 143.612 51.5546 143.429 51.5265C139.49 50.9144 135.715 53.3582 131.609 52.7559C127.313 52.1256 123.197 49.062 122.324 44.819C121.715 41.8625 122.691 38.8177 123.895 36.049C126.214 30.715 129.487 25.8255 133.442 21.5593C132.533 26.3455 133.661 31.5194 136.645 35.3894C137.739 36.8072 139.164 38.1106 140.928 38.4294C142.692 38.7482 144.779 37.7194 145.075 35.955C145.348 34.3299 144.127 32.8751 143.019 31.653C140.036 28.3637 137.172 24.7039 136.282 20.3579C136.186 19.8912 136.134 19.4123 136.097 18.9315C139.697 15.5532 143.756 12.6923 148.143 10.4296C146.167 15.2344 146.286 20.913 148.722 25.5213C149.229 26.4804 149.979 27.4911 151.063 27.5803C152.33 27.6846 153.347 26.3879 153.455 25.1238C153.563 23.8596 153.038 22.6398 152.596 21.4502C151.281 17.9128 150.627 14.0674 151.216 10.3407C151.303 9.79738 151.476 9.271 151.619 8.73728C153.257 8.04192 154.926 7.41701 156.631 6.89859C159.459 6.03871 162.345 5.44187 165.256 4.96235C162.112 9.16195 160.045 14.1628 159.507 19.3791C159.398 20.4395 159.355 21.55 159.774 22.5304C160.193 23.5108 161.2 24.3162 162.259 24.1784C163.634 23.9989 164.352 22.4749 164.714 21.14C166.066 16.1631 165.987 10.7564 168.29 6.14073C168.598 5.52444 168.957 4.93685 169.344 4.36869C177.243 -0.54253 189.03 -0.491198 194.786 0.599193C193.254 3.85283 191.945 7.20978 190.632 10.5556C189.685 12.9688 188.993 15.549 187.78 17.865ZM157.67 31.5156C158.051 31.5803 158.431 31.4008 158.752 31.1859C159.181 30.8984 159.56 30.5381 159.869 30.1246C160.093 29.8255 160.283 29.4882 160.333 29.118C160.383 28.7482 160.271 28.3404 159.98 28.1067C159.733 27.9084 159.399 27.8596 159.083 27.8488C158.879 27.8421 158.67 27.8491 158.479 27.9205C158.034 28.0873 157.432 28.8853 157.169 29.2653C156.908 29.6425 156.741 30.1058 156.809 30.5591C156.876 31.0122 157.217 31.4388 157.67 31.5156ZM161.992 47.8083C161.545 47.2695 160.766 47.1713 160.067 47.1385C158.837 47.0811 157.603 47.1041 156.377 47.2074C152.564 47.5291 152.84 51.3234 156.363 52.0794C157.914 52.4125 159.551 51.8667 160.851 50.9587C161.368 50.5975 161.859 50.1626 162.126 49.5922C162.394 49.0225 162.394 48.2933 161.992 47.8083ZM154.907 33.4123C153.448 32.8544 152.551 34.211 151.707 35.0954C151.177 35.6505 150.714 36.3162 150.553 37.0776C150.353 38.0216 150.826 39.1809 151.773 39.3805C152.651 39.5657 153.456 38.899 154.105 38.2808C154.822 37.5976 155.566 36.8726 155.864 35.9291C156.162 34.9854 155.833 33.7662 154.907 33.4123ZM164.356 38.5155C163.826 39.3416 163.7 40.511 164.33 41.2644C164.855 41.8912 165.77 42.0755 166.576 41.9311C167.381 41.787 168.107 41.368 168.813 40.9564C169.585 40.5072 170.373 40.0439 170.945 39.3597C171.517 38.6755 171.84 37.7143 171.538 36.8757C170.265 33.3447 165.485 36.7571 164.356 38.5155ZM166.974 27.4251C166.572 27.2392 166.094 27.2255 165.682 27.3881C164.818 27.7292 164.261 29.0288 165.551 29.1965C165.979 29.2523 166.42 29.2073 166.828 29.0664C167.167 28.9497 167.515 28.7255 167.586 28.3748C167.666 27.9769 167.344 27.5956 166.974 27.4251Z" fill="#2A6B52"/>
<path d="M171.956 66.0682C168.1 69.4968 161.921 68.6638 157.573 66.5467C152.079 63.8718 147.812 56.9711 148.684 50.7963C148.904 49.2344 149.834 48.0196 150.757 46.7647C152.717 44.1006 155.078 41.7687 157.218 39.2544C159.081 37.0663 160.852 33.3472 163.541 32.1133C164.591 31.6319 163.993 29.9313 162.937 30.4152C160.089 31.7224 158.47 34.8887 156.573 37.226C155.39 38.6828 154.145 40.0958 152.883 41.4846C151.874 42.5954 150.681 43.0628 149.263 43.4696C148.102 43.8031 147.159 44.224 145.909 44.2297C143.534 44.2406 141.196 43.3938 139.104 42.3327C138.069 41.8076 137.312 43.4432 138.349 43.9686C140.239 44.927 142.288 45.6552 144.4 45.9119C146.094 46.1178 149.037 46.2715 150.228 44.7497C149.375 45.8385 148.198 47.1735 146.783 47.3814C145.557 47.5615 144.344 47.5981 143.107 47.5082C140.596 47.3259 138.135 46.7523 135.684 46.2042C132.719 45.5411 129.434 44.268 128.145 41.2433C127.303 39.2662 127.515 34.4134 129.649 33.0242C130.625 32.3901 129.6 30.9059 128.628 31.5382C124.332 34.3333 125.427 42.1306 128.77 45.0906C131.483 47.4933 135.449 48.0719 138.896 48.562C140.25 48.7549 141.596 49.0045 142.956 49.154C144.374 49.3099 145.718 49.1633 147.121 49.1566C146.922 49.1575 146.817 53.6128 146.804 53.837C146.663 56.3073 148.222 59.0811 149.427 61.1506C151.168 64.1402 153.678 66.6708 156.817 68.183C161.71 70.54 168.642 71.4085 172.977 67.5542C173.835 66.7922 172.821 65.2985 171.956 66.0682Z" fill="#F1F1F1" fill-opacity="0.2"/>
<path d="M184.422 15.2826C183.104 16.8314 178.469 19.7882 176.099 19.1133C176.36 18.8158 176.633 18.5263 176.883 18.2199C179.396 15.1305 181.918 12.1086 184.851 9.39889C185.702 8.61362 184.314 7.45882 183.471 8.2374C180.534 10.95 178.019 13.9655 175.503 17.0584C175.291 17.3186 175.058 17.5625 174.838 17.8166C174.735 17.4799 174.665 17.0989 174.675 16.6146C174.759 12.7549 176.211 9.2704 178.03 5.92844C178.585 4.91106 176.943 4.158 176.39 5.17506C174.98 7.76522 173.744 10.4568 173.206 13.374C172.897 15.0457 172.377 17.8813 173.235 19.5851C171.738 21.1566 170.2 22.6927 168.924 24.4201C168.239 25.3489 169.613 26.5171 170.304 25.5816C171.561 23.8794 173.079 22.3573 174.559 20.8047C175.871 21.3065 177.678 20.943 178.862 20.6806C181.64 20.0653 183.967 18.5996 185.801 16.444C186.553 15.5603 185.175 14.3975 184.422 15.2826Z" fill="#F1F1F1" fill-opacity="0.2"/>
<path d="M181.29 49.1591C176.667 51.5137 170.666 53.2813 166.156 49.7694C165.242 49.0577 164.073 50.4306 164.992 51.1461C170.217 55.2153 176.916 53.3928 182.311 50.6445C183.345 50.1188 182.311 48.6391 181.29 49.1591Z" fill="#F1F1F1" fill-opacity="0.2"/>
<path d="M183.942 31.6763C182.144 33.8351 177.677 36.4839 174.804 35.3396C173.731 34.9121 172.966 36.5445 174.049 36.9762C177.741 38.4472 182.968 35.6636 185.321 32.8378C186.064 31.947 184.687 30.7836 183.942 31.6763Z" fill="#F1F1F1" fill-opacity="0.2"/>
<path d="M190.168 2.29557C188.395 2.88093 187.702 4.75787 186.113 5.55877C185.088 6.0759 185.683 7.77845 186.717 7.25653C187.507 6.85863 188.123 6.32395 188.729 5.68407C189.336 5.0445 189.904 4.27933 190.772 3.99302C191.878 3.62796 191.27 1.93178 190.168 2.29557Z" fill="#F1F1F1" fill-opacity="0.2"/>
<path d="M158.231 25.0503C155.101 21.1772 156.17 15.2782 158.585 11.312C159.186 10.324 157.543 9.57536 156.945 10.558C154.221 15.0292 153.242 21.7386 156.741 26.0693C157.466 26.9671 158.96 25.9535 158.231 25.0503Z" fill="#F1F1F1" fill-opacity="0.2"/>
<path d="M149.231 30.6122C145.226 28.9565 143.933 23.9685 143.032 20.1298C142.766 19.0005 141.068 19.6155 141.33 20.732C142.348 25.0681 143.972 30.3865 148.475 32.2487C149.544 32.691 150.308 31.0576 149.231 30.6122Z" fill="#F1F1F1" fill-opacity="0.2"/>
<path d="M162.288 73.7769C157.364 74.0342 154.109 70.346 151.579 66.6138C150.926 65.6519 149.438 66.6725 150.089 67.6322C153.013 71.9446 156.85 75.863 162.44 75.5713C163.603 75.5113 163.447 73.7163 162.288 73.7769Z" fill="#F1F1F1" fill-opacity="0.2"/>
<path d="M50.8392 139.662C55.3939 137.016 60.4264 135.072 65.6919 134.305C70.942 133.507 76.3612 133.744 81.532 135.015C86.7048 136.28 91.6257 138.504 96.0536 141.454C100.473 144.424 104.386 148.124 107.663 152.322C109.29 154.432 110.748 156.67 112.034 159.004C113.321 161.341 114.401 163.728 115.453 166.148C117.481 171.007 119.092 176.015 120.435 181.073C123.124 191.199 124.691 201.525 126.115 211.787L121.996 212.309C120.787 202.069 119.444 191.868 117.02 181.936C115.81 176.976 114.343 172.084 112.481 167.356C111.519 165.013 110.511 162.661 109.344 160.442C108.18 158.222 106.85 156.086 105.356 154.065C102.346 150.045 98.7191 146.471 94.5954 143.576C90.4628 140.701 85.848 138.502 80.9753 137.205C76.1042 135.902 70.9774 135.573 65.9692 136.23C60.9476 136.857 56.1004 138.614 51.6588 141.073L50.8392 139.662Z" fill="#50AA75"/>
<path d="M58.6904 46.7786C72.3329 57.627 83.8464 71.0264 93.1393 85.7431C102.445 100.476 109.597 116.516 114.81 133.13C120.022 149.751 123.353 166.913 125.393 184.174C127.436 201.446 128.206 218.828 128.322 236.172L123.355 236.166C123.517 218.947 123.029 201.725 121.285 184.625C119.542 167.535 116.527 150.555 111.652 134.087C106.781 117.639 99.9846 101.714 91.042 87.0395C82.1108 72.3807 70.9683 58.9798 57.6614 48.0449L58.6904 46.7786Z" fill="#50AA75"/>
<path d="M12.38 167.487C8.79189 167.798 5.19452 168.102 1.6333 168.649C2.21235 162.831 5.49466 151.537 12.449 145.366C13.1047 145.155 13.771 144.978 14.4504 144.858C19.5395 143.958 24.7151 145.562 29.8821 145.675C31.2678 145.706 32.9362 145.449 33.4974 144.184C33.9294 143.21 33.4392 142.019 32.6154 141.341C31.7915 140.662 30.7114 140.39 29.661 140.195C24.4939 139.235 19.1016 139.8 14.1755 141.621C15.4596 138.971 16.849 136.378 18.4753 133.915C19.4557 132.43 20.5285 131.009 21.6601 129.637C22.2133 129.652 22.7686 129.634 23.3154 129.705C27.0652 130.195 30.5771 131.908 33.6066 134.166C34.6254 134.925 35.6496 135.772 36.8956 136.026C38.1416 136.28 39.6758 135.674 39.9337 134.431C40.1542 133.369 39.3942 132.366 38.6155 131.61C34.8734 127.976 29.4475 126.256 24.2697 126.789C27.6848 123.231 31.5825 120.155 35.8481 117.665C36.2999 117.836 36.7457 118.021 37.1675 118.244C41.094 120.325 43.8032 124.1 46.1226 127.884C46.9842 129.29 48.0378 130.87 49.6775 131.068C51.4574 131.283 53.0364 129.578 53.2285 127.799C53.4208 126.02 52.5702 124.288 51.5163 122.841C48.6392 118.891 43.9835 116.349 39.1248 115.866C44.3446 113.287 49.9705 111.536 55.7543 110.825C58.7566 110.456 61.9596 110.383 64.6302 111.801C68.4627 113.836 70.2449 118.641 69.6365 122.93C69.2354 125.757 67.9556 128.416 66.2629 130.696C65.8094 131.307 64.0364 133.154 64.6222 133.972C64.8155 134.243 65.1357 134.388 65.4431 134.516C69.104 136.039 73.0529 136.288 76.6074 138.119C80.2894 140.016 83.6378 142.85 85.3312 146.624C88.1593 152.927 85.6594 160.706 80.6911 165.515C76.4604 169.61 70.7968 171.848 64.9762 173.017C67.31 169.981 69.0072 166.324 69.0475 162.5C69.059 161.412 68.9139 160.262 68.2553 159.394C67.5967 158.526 66.2916 158.074 65.3706 158.657C64.3122 159.326 64.3007 160.82 64.2327 162.069C64.023 165.903 62.1251 169.52 59.4673 172.297C58.9103 172.88 58.3053 173.409 57.6902 173.926C52.6465 174.278 47.5738 174.026 42.5947 173.151C46.689 169.997 49.6158 165.297 50.2664 160.164C47.685 165.282 43.4856 169.566 38.4394 172.295C38.2579 172.25 38.0712 172.229 37.89 172.182C33.7705 171.121 29.7632 169.654 25.699 168.403C29.1184 166.021 31.6167 162.281 32.1667 158.145C32.1133 158.547 31.316 159.249 31.052 159.56C30.5989 160.094 30.1231 160.608 29.6265 161.102C28.6336 162.089 27.5585 162.995 26.419 163.81C24.4364 165.228 22.6616 166.342 20.2143 166.824C17.6441 167.33 14.9678 167.264 12.38 167.487ZM41.1723 140.772C40.7556 140.579 40.2631 140.607 39.8266 140.751C39.3869 140.895 38.4493 141.246 38.1633 141.625C38.0405 141.787 37.9747 141.985 37.9236 142.182C37.8443 142.488 37.7971 142.822 37.9179 143.114C38.0604 143.459 38.4209 143.681 38.7903 143.738C39.1603 143.794 39.5384 143.708 39.889 143.578C40.3737 143.399 40.8275 143.138 41.2253 142.809C41.5225 142.563 41.8025 142.25 41.8481 141.867C41.9025 141.412 41.589 140.965 41.1723 140.772ZM57.9686 151.241C58.5923 151.147 59.1493 150.8 59.6428 150.408C60.883 149.42 61.8704 148.007 61.989 146.429C62.2581 142.844 58.6879 141.507 57.301 145.065C56.8549 146.21 56.4842 147.384 56.1918 148.577C56.0256 149.256 55.9 150.029 56.2915 150.608C56.644 151.13 57.3454 151.336 57.9686 151.241ZM46.602 141.386C47.5933 141.368 48.5005 140.861 49.3602 140.368C50.138 139.922 51.0069 139.339 51.0766 138.447C51.1523 137.485 50.1715 136.704 49.2074 136.629C48.4299 136.568 47.6595 136.822 46.9759 137.172C45.8872 137.73 44.3293 138.205 44.4533 139.759C44.5319 140.745 45.611 141.405 46.602 141.386ZM43.082 156.654C43.8029 157.18 44.8182 157.143 45.6379 156.789C46.4576 156.434 47.1255 155.811 47.7754 155.2C48.3708 154.64 48.9786 154.064 49.3448 153.333C49.7113 152.603 49.7928 151.675 49.3384 150.996C48.7923 150.181 47.6322 149.97 46.6886 150.244C44.6792 150.827 40.0471 154.437 43.082 156.654ZM36.0266 150.468C36.3839 150.5 36.6977 150.231 36.9054 149.939C37.1563 149.589 37.3242 149.179 37.3916 148.754C37.5948 147.471 36.1881 147.637 35.6157 148.368C35.3431 148.716 35.2211 149.178 35.2859 149.615C35.3457 150.017 35.6211 150.433 36.0266 150.468Z" fill="#2A6B52"/>
<path d="M71.0309 165.306C75.4175 162.585 76.3628 156.436 75.5566 151.677C74.5378 145.663 69.1093 139.629 62.9261 138.718C61.3622 138.487 59.9315 139.033 58.4641 139.562C55.3486 140.685 52.4393 142.286 49.4169 143.624C46.7869 144.788 42.7102 145.432 40.7641 147.656C40.0048 148.525 38.5383 147.472 39.3023 146.598C41.3642 144.242 44.8657 143.588 47.6494 142.432C49.3843 141.712 51.0946 140.92 52.7867 140.105C54.14 139.453 54.9265 138.443 55.7184 137.202C56.3674 136.184 57.0384 135.401 57.3973 134.206C58.0793 131.936 57.9256 129.46 57.4967 127.158C57.2845 126.019 59.0709 125.756 59.2834 126.897C59.6704 128.977 59.7915 131.144 59.4412 133.238C59.1603 134.917 58.4762 137.777 56.6767 138.486C57.9646 137.978 59.5806 137.229 60.1804 135.934C60.7003 134.811 61.0781 133.661 61.3414 132.452C61.876 129.996 62.0202 127.479 62.1857 124.979C62.3861 121.954 62.0908 118.45 59.547 116.362C57.8843 114.997 53.1587 113.828 51.2199 115.478C50.3344 116.232 49.197 114.833 50.0797 114.08C53.9809 110.76 61.1682 114.012 63.0693 118.047C64.6124 121.323 64.0478 125.282 63.5445 128.719C63.347 130.069 63.2067 131.428 62.9657 132.772C62.7149 134.173 62.194 135.418 61.7907 136.76C61.8479 136.569 66.1614 137.727 66.3806 137.779C68.7955 138.342 71.0217 140.618 72.6706 142.357C75.0529 144.868 76.7766 147.985 77.3429 151.416C78.2258 156.765 77.1016 163.645 72.1704 166.704C71.1964 167.309 70.0463 165.917 71.0309 165.306Z" fill="#F1F1F1" fill-opacity="0.2"/>
<path d="M18.6809 162.881C20.5427 162.058 24.6954 158.458 24.7165 155.999C24.3567 156.165 24.001 156.344 23.636 156.497C19.9553 158.029 16.3372 159.588 12.9029 161.629C11.9071 162.221 11.1896 160.567 12.1761 159.98C15.6143 157.936 19.2245 156.381 22.909 154.848C23.2193 154.718 23.5194 154.564 23.8261 154.425C23.5315 154.232 23.1848 154.057 22.7166 153.93C18.9816 152.919 15.2216 153.324 11.4942 154.12C10.3591 154.363 10.099 152.58 11.2331 152.338C14.122 151.72 17.0591 151.298 20.016 151.608C21.7104 151.785 24.5835 152.088 25.9794 153.391C27.9134 152.402 29.8251 151.365 31.8463 150.632C32.9328 150.239 33.6671 151.885 32.573 152.281C30.5811 153.003 28.6887 154.025 26.7777 155.003C26.8892 156.401 26.0289 158.027 25.4425 159.086C24.0655 161.571 21.9986 163.384 19.4076 164.529C18.3453 165 17.6171 163.351 18.6809 162.881Z" fill="#F1F1F1" fill-opacity="0.2"/>
<path d="M52.1357 169.459C55.7065 165.699 59.1022 160.456 57.0001 155.148C56.5741 154.072 58.2246 153.342 58.6529 154.423C61.0882 160.574 57.4424 166.469 53.2753 170.856C52.4776 171.697 51.3474 170.289 52.1357 169.459Z" fill="#F1F1F1" fill-opacity="0.2"/>
<path d="M34.5776 167.055C37.1609 165.945 40.9704 162.418 40.6825 159.346C40.5748 158.197 42.3605 157.926 42.4695 159.085C42.8402 163.035 38.6865 167.25 35.3042 168.704C34.2378 169.163 33.5086 167.515 34.5776 167.055Z" fill="#F1F1F1" fill-opacity="0.2"/>
<path d="M4.57058 164.709C5.63441 163.178 7.63521 163.045 8.85403 161.752C9.64079 160.917 11.1098 161.967 10.3154 162.809C9.70982 163.452 9.02116 163.891 8.23503 164.29C7.44858 164.69 6.5522 165.018 6.03195 165.767C5.36821 166.722 3.90909 165.661 4.57058 164.709Z" fill="#F1F1F1" fill-opacity="0.2"/>
<path d="M35.4754 140.576C32.6364 136.487 26.6625 135.842 22.1669 137.032C21.0471 137.328 20.7918 135.544 21.9054 135.249C26.974 133.907 33.7015 134.866 36.8761 139.439C37.5341 140.387 36.1372 141.53 35.4754 140.576Z" fill="#F1F1F1" fill-opacity="0.2"/>
<path d="M43.3665 133.535C42.9066 129.235 38.4762 126.588 35.0406 124.64C34.0298 124.067 35.1014 122.615 36.1006 123.182C39.9814 125.382 44.6358 128.439 45.1535 133.275C45.2762 134.423 43.4902 134.693 43.3665 133.535Z" fill="#F1F1F1" fill-opacity="0.2"/>
<path d="M81.1757 158.232C82.8151 153.592 80.1889 149.435 77.316 145.959C76.5756 145.062 77.9775 143.927 78.7164 144.821C82.036 148.838 84.7187 153.618 82.8582 158.885C82.4712 159.981 80.7894 159.325 81.1757 158.232Z" fill="#F1F1F1" fill-opacity="0.2"/>
<path d="M42.9503 10.5869C38.7991 10.4077 34.6135 10.4083 30.493 9.96102C30.9398 11.4165 31.1942 13.03 30.7676 14.5215C30.471 15.558 29.6666 16.987 28.4203 16.9293C27.5434 16.8888 26.7765 16.1409 26.6388 15.2759C26.5273 14.5748 26.7753 13.874 26.9363 13.1821C27.7036 9.88672 24.0932 9.19487 21.4612 8.72683C17.6933 8.05697 13.8103 8.06526 10.0397 8.7112C8.03415 9.0549 6.14233 9.65207 4.20769 10.2562C2.54308 10.7759 1.2038 10.8847 0 12.3382C3.11351 13.0961 6.01002 14.7214 8.27604 16.9822C9.09796 17.8026 9.83615 18.7014 10.5731 19.5985C14.1691 23.9786 15.0709 28.5841 15.0709 34.1323C15.0028 34.6845 21.3079 32.0523 21.7834 31.7558C23.5317 30.6654 25.413 30.4613 27.3828 31.2833C28.4642 31.7334 28.9643 32.615 29.2503 33.7127C29.6951 35.4197 29.2321 37.2772 28.2779 38.7623C25.8201 42.5876 20.0795 41.5833 15.6519 40.4084C15.7484 41.0391 15.8656 41.752 15.9906 42.4926C16.0318 42.5022 16.0727 42.5124 16.1133 42.5232C16.6575 46.0788 17.2654 49.6487 18.0425 53.1708C20.1044 53.101 22.1819 52.7547 24.1168 52.2191C26.9092 51.4459 29.6855 50.3683 32.583 50.4107C35.4805 50.4531 38.6202 51.9879 39.414 54.7681C40.0419 56.9677 39.0056 59.4 37.2931 60.9202C35.5805 62.4404 33.3056 63.1791 31.0472 63.5706C27.6774 64.1547 24.2098 63.9688 20.8883 63.166C22.288 67.0449 24.0347 70.772 26.3451 74.2169C27.2933 75.6306 28.3673 76.9773 29.5267 78.2559C31.083 78.0273 32.6245 77.7024 34.1121 77.1836C37.0885 76.1458 39.8735 74.5645 42.9301 73.7935C45.9871 73.022 49.5534 73.2174 51.8578 75.3647C52.611 76.0665 53.214 77.0191 53.1891 78.047C53.1725 78.7255 52.8859 79.3686 52.5484 79.9581C50.1852 84.0914 45.3077 86.1813 40.4945 86.3939C45.5858 88.7386 51.1864 89.6326 56.6455 88.2744C64.5841 86.2989 69.7169 79.2892 71.7634 71.4517C72.8343 67.3513 73.0605 63.0248 72.4022 59.0739C80.1437 56.8606 85.8693 49.0085 85.597 40.9788C85.3404 33.4156 80.1993 24.7782 74.3896 20.1265C74.017 19.8281 73.6322 19.5507 73.249 19.2702C73.5021 19.7117 73.7613 20.1498 73.9981 20.6C75.4285 23.3186 76.5882 26.402 75.9673 29.4092C75.3464 32.4164 72.3066 35.0815 69.3344 34.285C65.8256 33.3445 64.9408 28.9345 64.0092 25.4305C62.6473 20.3073 59.7261 15.668 55.8444 12.0554C54.0014 11.6852 52.1361 11.3973 50.2625 11.1726C51.7651 13.0559 52.9555 15.1847 53.6991 17.4758C54.3989 19.6317 54.4629 22.513 52.4758 23.61C50.4926 24.7052 47.9594 23.003 47.1174 20.9035C46.2753 18.8037 46.5035 16.4504 46.2178 14.2068C46.0635 12.9966 45.7276 11.8262 45.2566 10.7122C44.4861 10.6631 43.7169 10.62 42.9503 10.5869ZM60.0997 58.1327C60.7806 59.1271 60.9037 60.4264 60.2352 61.4578C59.5609 62.4987 57.9959 63.3682 56.8915 63.8926C55.7136 64.4522 54.4255 64.7018 53.1243 64.5638C52.1231 64.4576 51.0828 64.1098 50.3504 63.3966C49.5035 62.5711 49.2591 61.4463 49.5998 60.3231C50.197 58.3527 52.3039 57.0675 54.189 56.5784C56.1416 56.0715 58.8665 56.331 60.0997 58.1327ZM37.883 40.5414C38.4511 40.7773 39.0954 41.2189 39.3453 41.8011C39.77 42.7891 38.918 43.8444 38.075 44.257C37.1208 44.7238 35.9617 44.872 34.9967 44.4288C34.2342 44.0785 33.7532 43.3825 33.5931 42.5774C33.3991 41.6015 33.5641 41.0483 34.5605 40.6278C35.0507 40.4209 35.5923 40.2889 36.1247 40.2678C36.7262 40.2439 37.3215 40.3086 37.883 40.5414ZM58.6274 28.1495C59.6408 28.2477 60.6506 28.8311 61.1875 29.7025C62.1024 31.1863 61.9557 33.442 61.0248 34.8819C60.4777 35.7283 59.5491 36.2914 58.5348 36.3019C56.3109 36.3249 55.0068 34.0637 54.8684 32.0896C54.7914 30.989 55.0813 29.9378 55.8776 29.1477C56.6049 28.4269 57.6013 28.05 58.6274 28.1495ZM40.3059 18.6344C40.3462 18.6465 40.3842 18.6628 40.4213 18.6819C40.5319 18.7406 40.6529 18.7996 40.7497 18.8821C40.961 19.0619 41.0742 19.2277 41.2036 19.47C41.581 20.1766 41.7491 21.1602 41.0045 21.7538C40.976 21.7765 40.9457 21.7959 40.9144 21.8144C40.8156 21.8734 40.7162 21.9391 40.6092 21.9827C40.5408 22.0105 40.4676 22.027 40.3969 22.0465C40.3203 22.0675 40.2446 22.0924 40.165 22.1004C40.0519 22.1119 39.9345 22.1112 39.8214 22.1061C39.785 22.1045 39.7492 22.1001 39.7137 22.0927C39.4412 22.0366 39.2833 21.9716 39.0507 21.8185C39.02 21.7985 38.9909 21.7758 38.9637 21.7509C38.8746 21.6687 38.7832 21.5832 38.7071 21.4882C38.6845 21.4599 38.6649 21.4299 38.6461 21.399C38.5834 21.2969 38.5163 21.1917 38.4693 21.0805C38.4553 21.0463 38.4435 21.0119 38.4329 20.9765C38.399 20.8633 38.3629 20.7476 38.3422 20.6306C38.3144 20.4724 38.3188 20.3047 38.3236 20.1463C38.3265 20.0631 38.3387 19.9815 38.3582 19.9008C38.3965 19.7423 38.4317 19.5753 38.5039 19.427C38.6212 19.186 38.7512 18.9896 39.0049 18.7919C39.0864 18.7399 39.1746 18.6829 39.2644 18.6456C39.3159 18.6242 39.3766 18.6118 39.4274 18.5981C39.4808 18.5834 39.5421 18.562 39.6 18.5541C39.7118 18.5388 39.832 18.541 39.9441 18.5486C40.0662 18.5566 40.1912 18.5987 40.3059 18.6344Z" fill="#50AA75"/>
<path d="M18.0423 53.1709C17.4031 50.2737 16.5703 45.9277 15.9903 42.4927C16.0315 42.5022 16.0724 42.5124 16.113 42.5233C16.6572 46.0789 17.2651 49.6488 18.0423 53.1709Z" fill="#50AA75"/>
<path d="M77.0081 33.8292C76.3533 38.2679 73.9978 42.6196 70.0384 44.9368C67.2422 46.5733 63.8228 47.0468 60.7493 46.1506C64.2568 49.5748 67.4346 53.3191 70.5638 57.086C71.0099 57.6229 70.1474 58.281 69.7013 57.7441C66.5191 53.9134 63.3167 50.0776 59.7241 46.618C56.4885 43.5024 52.9264 40.7541 49.2319 38.2044C51.2761 41.1606 51.9748 44.9008 51.3494 48.4704C50.9237 50.8998 49.9628 53.1995 48.6711 55.2939C47.4836 57.2193 45.9887 59.0742 43.8476 59.9702C43.2024 60.2399 42.7831 59.241 43.4283 58.971C45.394 58.1484 46.7256 56.3929 47.8121 54.6314C48.9964 52.7114 49.8816 50.5663 50.2715 48.3409C50.9531 44.4503 50.0273 40.1882 47.1605 37.3414C46.9751 37.1574 46.956 36.9192 47.0292 36.7209C46.7959 36.566 46.5597 36.4155 46.3255 36.2618C46.9163 37.6516 47.11 39.2024 46.8039 40.6957C46.376 42.7822 45.0606 44.6294 43.2228 45.7131C42.6291 46.0632 41.9612 45.2075 42.5633 44.8526C45.7832 42.954 46.8521 38.7499 44.7571 35.6111C44.6612 35.4673 44.6426 35.3184 44.6746 35.1842C38.7144 31.3455 32.5897 27.7539 26.8839 23.538C26.8829 23.5374 24.8815 24.8847 24.6725 24.9922C23.887 25.3958 23.0552 25.7166 22.193 25.913C21.3478 26.1059 20.5479 26.1734 19.7033 26.0159C19.3601 25.9519 18.0362 25.8588 17.9451 25.516C17.9058 25.3681 18.0086 25.2119 18.1435 25.1389C18.2783 25.0658 18.4375 25.056 18.5905 25.0477C21.0151 24.9182 23.29 25.0056 25.2707 23.3828C26.6413 22.2598 24.2159 21.2906 23.278 20.7358C21.9045 19.9235 20.4712 19.2115 18.9936 18.6083C18.1931 18.2815 17.3129 17.9301 16.902 17.171C19.9714 18.4438 23.0542 19.7293 25.9233 21.4175C27.3415 22.2522 28.7054 23.1844 29.9588 24.2516C31.1804 25.2916 32.5018 26.0077 33.7893 26.9574C34.9605 27.8215 36.2315 28.5682 37.4621 29.3458C44.7037 33.9203 52.1281 38.3482 58.5382 44.0693C58.6309 44.0721 58.7255 44.0909 58.8198 44.149C62.0918 46.1726 66.4819 45.8866 69.6974 43.8847C73.2375 41.6806 75.3339 37.7431 75.9302 33.6994C76.0315 33.0101 77.1097 33.1389 77.0081 33.8292Z" fill="#F1F1F1" fill-opacity="0.2"/>
<path d="M82.7413 37.6352C82.4153 42.4939 80.0077 47.0662 76.2065 50.1145C75.662 50.5513 75.0015 49.6914 75.547 49.254C79.1328 46.3781 81.3563 42.0816 81.6634 37.5055C81.7097 36.8085 82.7876 36.9421 82.7413 37.6352Z" fill="#F1F1F1" fill-opacity="0.2"/>
<path d="M70.2511 65.3907C69.1671 72.0816 66.4553 79.3318 59.7531 82.2054C59.1105 82.4808 58.6912 81.4816 59.3341 81.2062C65.6599 78.4939 68.1535 71.5543 69.1732 65.261C69.2844 64.5739 70.3626 64.702 70.2511 65.3907Z" fill="#F1F1F1" fill-opacity="0.2"/>
<path d="M43.7912 18.0919C44.5805 19.8011 44.4453 21.7285 43.8493 23.4744C43.5317 24.4047 43.0876 25.291 42.5983 26.1423C42.1305 26.956 41.5783 27.7205 40.7742 28.2329C40.1901 28.6053 39.5241 27.7486 40.1147 27.3723C40.826 26.9193 41.3018 26.2514 41.7102 25.527C42.1244 24.7927 42.4983 24.0291 42.7843 23.2356C43.3356 21.7055 43.486 20.0189 42.7894 18.5105C42.497 17.8757 43.4991 17.459 43.7912 18.0919Z" fill="#F1F1F1" fill-opacity="0.2"/>
<path d="M189.226 80.0142C186.131 83.7008 186.123 89.3176 188.317 93.5995C190.511 97.8813 194.543 100.97 198.854 103.12C202.007 104.693 206.068 105.12 209.583 104.916C213.486 104.691 217.163 102.266 220.092 99.8214C215.507 101.041 210.517 100.705 206.156 98.8353C203.687 97.7764 199.936 95.2054 200.347 92.0557C200.474 91.0791 200.97 90.189 201.532 89.3795C202.21 88.4032 203.014 87.4904 204.027 86.8671C205.041 86.2438 206.286 85.9333 207.444 86.2081C208.521 86.4632 209.418 87.1831 210.275 87.8823C214.364 91.2194 218.131 95.9907 223.966 95.7694C226.118 93.1059 227.947 90.1947 229.783 87.2889C227.247 87.023 224.769 86.1877 222.617 84.8202C220.815 83.675 220.394 81.4515 221.293 79.5857C222.254 77.5911 224.976 77.0329 226.954 77.6836C228.519 78.1985 229.827 79.272 231.095 80.3235C231.817 80.9226 232.558 81.5172 233.347 82.0241C234.989 79.8402 236.826 77.7987 238.953 76.1497C238.211 75.2927 237.642 74.3059 237.387 73.1964C236.72 70.2925 239.847 67.44 242.379 69.7604C243.077 70.4 243.482 71.2892 243.86 72.1564C244.013 72.5068 244.172 72.8588 244.345 73.2012C247.471 72.1417 251.006 71.8114 254.183 71.3832C258.259 70.8336 262.582 71.3268 266 73.7706C262.983 65.497 257.479 58.4618 250.685 52.7895C250.628 52.7847 250.571 52.7713 250.513 52.7678C248.463 52.6269 246.352 52.9945 244.562 54.0014C244.093 54.2647 243.618 54.5797 243.08 54.5896C242.207 54.6059 241.491 53.7208 241.514 52.8498C241.568 50.8039 243.831 50.3652 245.454 50.3269C246.201 50.309 246.948 50.3518 247.69 50.4436C244.574 48.1413 241.248 46.1037 237.801 44.3431C234.713 45.7568 231.975 47.8946 230.01 50.6763C229.131 51.9201 228.231 53.3841 226.738 53.696C224.658 54.1302 222.819 51.7894 223.023 49.679C223.228 47.569 224.798 45.8518 226.459 44.5297C228.009 43.2955 229.729 42.2931 231.536 41.482C227.983 40.0657 224.282 38.9741 220.529 38.4856C219.215 39.7306 218.099 41.1743 217.314 42.8115C216.437 44.6435 215.945 46.638 215.089 48.4799C214.233 50.3218 212.902 52.0827 210.99 52.7761C209.078 53.4696 206.554 52.69 205.891 50.771C205.334 49.1587 206.186 47.423 207.1 45.9816C208.857 43.2094 210.963 40.6661 213.321 38.3807C207.394 39.0688 201.814 41.768 197.14 45.4721C195.491 46.7787 195.608 50.5571 196.021 52.3027C196.625 54.8514 197.463 57.4447 197.553 60.0779C197.653 63.0003 196.397 66.2804 193.652 67.3051C191.399 68.1462 188.676 67.1011 187.332 65.11C185.988 63.1189 185.967 60.3977 187.021 58.2399C183.442 62.2335 180.666 70.4864 183.175 75.6785C184.203 77.8044 186.117 79.4177 189.226 80.0142ZM233.538 56.6237C233.404 56.5833 233.288 56.5106 233.19 56.406C233.135 56.3358 233.081 56.2657 233.026 56.1952C232.937 56.0397 232.89 55.8723 232.886 55.6928C232.897 55.6045 232.907 55.5165 232.917 55.4281C232.973 54.9454 233.769 54.2462 234.192 54.1082C234.94 53.8649 235.753 54.3062 235.545 55.175C235.394 55.8059 234.687 56.7404 233.931 56.7235C233.801 56.721 233.669 56.6897 233.538 56.6237ZM227.91 68.2415C226.747 67.6208 225.523 65.821 227.327 65.0529C228.179 64.6901 229.21 65.2034 229.935 65.6341C230.154 65.7639 230.339 65.9354 230.473 66.1513C230.605 66.3617 230.645 66.5638 230.672 66.8039C230.706 67.0972 230.61 67.4177 230.473 67.6737C230.335 67.9316 230.092 68.1847 229.833 68.3228C229.217 68.6512 228.509 68.561 227.91 68.2415ZM208.12 59.5043C209.358 57.9376 211.047 56.7312 213.137 56.9709C213.748 57.0411 214.37 57.2458 214.786 57.7231C215.266 58.273 215.342 58.9996 215.155 59.6851C214.883 60.685 214.311 61.689 213.53 62.3792C212.723 63.0931 211.691 63.5512 210.597 63.5069C208.334 63.4154 206.576 61.4568 208.12 59.5043ZM200.266 80.8295C198.535 79.3536 199.944 77.3485 201.661 76.752C203.264 76.1953 205.176 76.1025 206.537 77.1139C206.77 77.2867 206.985 77.4936 207.112 77.7537C207.386 78.3123 207.196 78.9943 206.871 79.5245C206.018 80.9143 204.314 81.6335 202.68 81.6119C201.817 81.6001 200.923 81.389 200.266 80.8295Z" fill="#2A6B52"/>
<path d="M191.713 90.7555C190.873 85.976 192.405 81.1167 195.004 77.1145C195.52 76.3206 196.085 75.5631 196.67 74.8218C195.353 75.9125 194.092 77.0714 192.902 78.2992C192.42 78.796 191.655 78.0394 192.138 77.5411C193.898 75.7257 195.81 74.0639 197.836 72.5549C193.95 73.4786 189.676 72.7421 186.415 70.3649C185.862 69.9619 186.385 69.0213 186.945 69.4294C190.986 72.3748 196.608 72.6777 200.935 70.18C200.939 70.1761 200.943 70.172 200.947 70.1682C200.98 70.1363 201.018 70.135 201.053 70.1136C201.11 70.0805 201.168 70.0521 201.224 70.018C201.38 69.9217 201.532 69.9201 201.662 69.9708C206.036 67.3198 210.829 65.3552 215.821 64.2013C218.32 63.6236 220.866 63.2525 223.425 63.0829C224.119 63.0369 224.131 64.1117 223.441 64.1573C215.422 64.6885 207.614 67.3593 200.892 71.7336C197.71 74.8951 194.821 78.4944 193.427 82.8043C192.095 86.9203 192.184 91.536 194.643 95.2213C195.955 97.1875 197.867 98.7428 200.137 99.4566C200.796 99.6639 200.537 100.707 199.876 100.499C195.544 99.1372 192.484 95.1496 191.713 90.7555Z" fill="#F1F1F1" fill-opacity="0.2"/>
<path d="M240.725 60.5673C246.743 60.2587 252.489 62.3301 258.042 64.3875C258.685 64.626 258.429 65.6708 257.781 65.4301C252.317 63.4059 246.663 61.3383 240.741 61.6421C240.047 61.6772 240.034 60.6027 240.725 60.5673Z" fill="#F1F1F1" fill-opacity="0.2"/>
<path d="M201.707 60.8343C200.967 59.2973 200.508 57.6524 200.315 55.9595C199.922 52.5053 200.728 48.9207 202.665 46.0219C203.047 45.4499 203.988 45.9738 203.603 46.5502C201.87 49.1439 201.108 52.2525 201.337 55.355C201.45 56.885 201.812 58.4093 202.421 59.8195C203.071 61.3253 204.105 63.3282 205.76 63.8807C206.414 64.0991 206.156 65.143 205.498 64.9233C203.659 64.3093 202.509 62.5021 201.707 60.8343Z" fill="#F1F1F1" fill-opacity="0.2"/>
<path d="M216.845 54.1718C216.685 50.1017 218.994 45.9279 221.883 43.2022C222.385 42.7285 223.152 43.4834 222.646 43.9604C220.035 46.424 217.991 50.0382 217.918 53.6977C217.857 56.7397 220.069 59.4197 223.064 59.9767C223.746 60.1039 223.481 61.1455 222.803 61.0193C219.533 60.4106 216.975 57.4921 216.845 54.1718Z" fill="#F1F1F1" fill-opacity="0.2"/>
<path d="M233.588 76.4878C232.52 74.4084 231.616 72.3268 232.015 69.9401C232.449 67.3556 234.074 65.2109 235.622 63.179C236.04 62.6313 236.801 63.3929 236.386 63.9372C234.99 65.7679 233.544 67.6946 233.096 70.0032C232.678 72.1632 233.553 74.0673 234.519 75.9468C234.833 76.5596 233.905 77.1057 233.588 76.4878Z" fill="#F1F1F1" fill-opacity="0.2"/>
<path d="M216.234 85.9927C215.537 85.2673 215.048 84.3877 214.683 83.4567C213.918 81.501 213.69 79.3352 213.934 77.2561C214.44 72.9348 217.131 69.1177 220.984 67.1008C221.596 66.7807 222.142 67.7066 221.526 68.0289C218.04 69.8539 215.584 73.222 215.03 77.1248C214.768 78.9667 214.943 80.8723 215.53 82.6367C215.845 83.583 216.296 84.5047 216.994 85.2303C217.731 85.9971 218.665 86.527 219.58 87.0531C220.18 87.3984 219.652 88.3345 219.05 87.9885C218.056 87.4175 217.035 86.8267 216.234 85.9927Z" fill="#F1F1F1" fill-opacity="0.2"/>
<path d="M196.658 119.367C196.389 117.837 195.761 116.381 194.879 115.075C193.997 113.766 192.882 112.601 191.651 111.558C189.181 109.475 186.271 107.855 183.291 106.463C177.328 103.683 170.794 102.136 164.264 102.155C157.741 102.173 151.253 103.8 145.585 106.943C144.163 107.715 142.791 108.588 141.481 109.53C140.174 110.475 138.91 111.475 137.755 112.591C135.428 114.803 133.406 117.333 131.743 120.105C128.385 125.64 126.279 131.935 124.841 138.354C124.124 141.57 123.555 144.828 123.107 148.109C122.688 151.395 122.319 154.691 122.101 158.008C121.608 164.634 121.474 171.299 121.531 177.965C121.591 184.633 121.853 191.304 122.247 197.971L118.207 198.191C117.882 191.463 117.688 184.724 117.699 177.977C117.714 171.23 117.92 164.474 118.494 157.726C118.753 154.352 119.165 150.983 119.631 147.622C120.127 144.261 120.747 140.913 121.526 137.59C123.089 130.962 125.347 124.368 129.026 118.44C130.848 115.476 133.081 112.734 135.646 110.348C138.223 107.968 141.111 105.96 144.201 104.366C150.367 101.12 157.366 99.5343 164.283 99.6673C171.212 99.798 178.032 101.584 184.179 104.611C187.242 106.129 190.23 107.862 192.859 110.168C194.164 111.322 195.369 112.626 196.334 114.125C197.299 115.618 197.999 117.321 198.272 119.105L196.658 119.367Z" fill="#50AA75"/>
<path d="M227.087 159.039C226.128 158.077 225.052 157.23 223.857 156.555C221.643 155.304 219.096 154.538 217.268 152.772C215.44 151.005 214.746 147.655 216.731 146.066C218.72 144.473 221.692 145.766 223.639 147.41C225.708 149.156 227.418 151.296 228.739 153.655C229.303 151.618 229.797 149.562 230.197 147.494C228.088 141.933 224.501 136.93 219.746 133.337C216.494 130.879 212.279 128.085 212.794 124.047C213.23 120.628 217.299 118.612 220.695 119.249C224.09 119.886 226.807 122.4 229.029 125.041C229.397 125.478 229.742 125.933 230.094 126.383C229.965 125.867 229.84 125.35 229.688 124.836C227.318 116.834 220.514 107.828 212.748 104.342C204.503 100.641 193.889 103.232 188.289 110.313C184.455 107.949 179.854 106.341 175.129 105.705C166.097 104.489 156.612 106.824 151.176 114.211C147.437 119.291 145.983 125.476 146.256 131.752C148.527 126.853 152.78 122.688 158.09 121.998C158.848 121.9 159.639 121.876 160.353 122.148C161.434 122.56 162.169 123.59 162.579 124.67C163.834 127.972 162.519 131.752 160.414 134.592C158.31 137.432 155.477 139.645 153.13 142.288C151.957 143.609 150.961 145.068 150.061 146.584C150.898 148.33 151.843 150.017 152.912 151.602C155.515 155.463 158.652 158.86 162.095 161.962C162.673 158.178 163.956 154.505 165.999 151.261C167.368 149.087 169.106 147.044 171.418 145.916C173.73 144.789 176.704 144.75 178.727 146.337C181.284 148.344 181.545 152.251 180.356 155.273C179.166 158.294 176.862 160.713 174.868 163.277C173.487 165.054 172.242 167.06 171.291 169.168C174.627 171.473 178.086 173.623 181.556 175.701C181.55 175.748 181.543 175.794 181.536 175.841C182.254 176.286 182.946 176.711 183.562 177.08C184.224 171.99 185.622 165.613 190.652 164.694C192.604 164.337 194.736 164.649 196.323 165.836C197.345 166.6 198.049 167.494 198.058 168.806C198.063 169.493 198.02 170.188 197.811 170.842C196.968 173.475 194.287 174.646 192.225 176.055C191 176.892 189.132 179.979 189.397 180.117C198.437 185.566 208.615 192.501 215.341 200.546C215.391 200.606 221.023 187.71 220.986 183.029C220.976 181.683 221.153 180.251 220.442 179.106C219.663 177.854 218.173 177.212 216.716 176.976C215.927 176.849 215.092 176.807 214.409 176.393C213.567 175.882 213.115 174.769 213.446 173.842C213.917 172.526 215.747 172.3 216.953 172.434C218.687 172.627 220.259 173.578 221.584 174.661C222.873 170.2 224.656 165.862 226.237 161.483C226.528 160.674 226.811 159.859 227.087 159.039ZM183.133 130.253C181.821 131.998 179.586 133.635 177.28 133.415C175.966 133.289 174.898 132.557 174.4 131.328C173.969 130.265 174.049 129.039 174.365 127.956C174.775 126.549 175.583 125.32 176.668 124.337C177.684 123.415 179.256 122.164 180.627 121.908C181.985 121.655 183.285 122.335 184.031 123.464C185.382 125.51 184.492 128.444 183.133 130.253ZM192.425 155.92C192.176 156.463 191.808 156.968 191.384 157.388C190.522 158.241 189.876 158.177 188.942 157.56C188.172 157.052 187.651 156.257 187.612 155.317C187.561 154.128 188.209 152.99 189.101 152.2C189.89 151.501 191.351 151.068 192.199 151.929C192.699 152.436 192.885 153.291 192.888 153.981C192.892 154.662 192.706 155.307 192.425 155.92ZM212.414 140.181C211.252 140.67 210.034 140.523 208.921 139.975C206.924 138.991 205.126 136.677 206.096 134.381C206.539 133.335 207.52 132.612 208.635 132.405C210.53 132.054 212.941 132.862 214.097 134.442C214.775 135.369 214.953 136.664 214.624 137.757C214.291 138.862 213.474 139.735 212.414 140.181ZM216.666 161.209C216.627 161.329 216.578 161.454 216.514 161.563C216.481 161.62 216.433 161.674 216.395 161.723C216.359 161.77 216.32 161.828 216.276 161.872C216.199 161.949 216.102 162.016 216.013 162.079C215.699 162.257 215.439 162.308 215.138 162.328C214.953 162.339 214.765 162.305 214.583 162.277C214.491 162.263 214.401 162.241 214.313 162.208C214.146 162.146 213.969 162.079 213.816 161.983C213.703 161.911 213.598 161.825 213.495 161.742C213.462 161.715 213.431 161.689 213.402 161.66C213.306 161.564 213.225 161.449 213.146 161.341C213.121 161.308 213.098 161.275 213.079 161.239C213.012 161.12 212.962 160.989 212.915 160.861C212.9 160.823 212.889 160.783 212.881 160.742C212.821 160.436 212.82 160.245 212.878 159.938C212.885 159.898 212.896 159.859 212.91 159.821C212.953 159.701 213.002 159.579 213.062 159.467C213.104 159.388 213.162 159.32 213.217 159.25C213.267 159.185 213.316 159.116 213.373 159.057C213.465 158.964 213.575 158.889 213.679 158.812C213.711 158.787 213.744 158.764 213.78 158.744C214.715 158.225 215.668 158.818 216.243 159.51C216.44 159.748 216.564 159.935 216.661 160.231C216.706 160.366 216.716 160.517 216.73 160.657C216.734 160.703 216.735 160.749 216.731 160.796C216.719 160.931 216.709 161.079 216.666 161.209Z" fill="#50AA75"/>
<path d="M171.291 169.168C174.035 171.064 178.205 173.777 181.536 175.841C181.543 175.794 181.55 175.747 181.556 175.701C178.085 173.623 174.627 171.473 171.291 169.168Z" fill="#50AA75"/>
<path d="M216.536 116.288C211.635 115.077 206.101 115.665 202.003 118.782C199.108 120.984 197.159 124.326 196.784 127.893C194.712 122.8 192.166 117.912 189.576 113.065C189.207 112.374 188.155 112.988 188.524 113.679C191.157 118.608 193.788 123.56 195.86 128.757C197.727 133.436 199.072 138.299 200.154 143.213C197.946 139.836 194.349 137.52 190.366 136.648C187.655 136.055 184.852 136.071 182.121 136.518C179.611 136.929 177.043 137.689 175.198 139.527C174.642 140.081 175.504 140.941 176.06 140.387C177.753 138.7 180.148 138.067 182.445 137.691C184.948 137.281 187.559 137.277 190.042 137.821C194.383 138.771 198.427 141.545 200.171 145.728C200.283 145.998 200.523 146.12 200.761 146.129C200.823 146.436 200.879 146.745 200.939 147.053C199.744 145.849 198.211 144.988 196.526 144.67C194.172 144.225 191.688 144.802 189.777 146.245C189.159 146.711 189.766 147.768 190.392 147.295C193.74 144.766 198.573 145.448 200.949 148.956C201.058 149.117 201.205 149.199 201.358 149.223C202.818 157.035 203.949 164.912 205.91 172.621C202.38 174.525 199.308 178.068 199.88 182.324C199.924 182.652 200.129 182.929 200.489 182.932C200.785 182.935 201.143 182.65 201.099 182.324C200.595 178.579 203.173 175.577 206.242 173.829C207.586 178.855 209.318 183.78 211.711 188.409C212.071 189.105 213.123 188.491 212.763 187.796C208.155 178.88 206.108 168.983 204.366 159.184C202.686 149.731 201.237 140.151 198.01 131.071C198.046 130.974 198.067 130.868 198.046 130.745C197.332 126.492 199.499 122.064 202.953 119.584C206.755 116.853 211.748 116.357 216.212 117.46C216.973 117.649 217.298 116.477 216.536 116.288Z" fill="#F1F1F1" fill-opacity="0.2"/>
<path d="M215.014 108.726C209.816 106.995 204.03 107.544 199.238 110.186C198.551 110.564 199.165 111.615 199.853 111.236C204.374 108.743 209.795 108.268 214.69 109.898C215.436 110.146 215.756 108.973 215.014 108.726Z" fill="#F1F1F1" fill-opacity="0.2"/>
<path d="M180.796 109.853C173.368 108.128 164.664 107.851 158.818 113.574C158.258 114.123 159.12 114.983 159.68 114.434C165.198 109.033 173.486 109.403 180.472 111.025C181.235 111.203 181.561 110.03 180.796 109.853Z" fill="#F1F1F1" fill-opacity="0.2"/>
<path d="M218.779 157.416C217.336 155.87 215.271 155.189 213.199 155.064C212.096 154.997 210.984 155.08 209.889 155.225C208.842 155.363 207.811 155.61 206.936 156.225C206.299 156.672 206.908 157.727 207.551 157.275C208.325 156.731 209.223 156.522 210.152 156.407C211.093 156.29 212.047 156.228 212.995 156.269C214.823 156.349 216.643 156.912 217.917 158.276C218.453 158.85 219.314 157.988 218.779 157.416Z" fill="#F1F1F1" fill-opacity="0.2"/>
<path d="M171.772 228.948C167.404 229.758 166.358 226.705 161.956 227.315C152.145 228.676 145.408 222.452 135.507 222.691C125.527 222.931 115.133 226.282 105.241 224.867C100.89 224.244 101.118 229.375 96.7879 228.676C94.9497 228.378 81.7913 232.92 80.2955 233.682C80.1101 233.777 79.2431 234.318 79.3409 234.364C82.3617 237.636 85.0356 246.107 87.0459 250.015C89.2231 254.247 96.1864 276.973 98.8359 278.155C106.536 281.592 114.27 283.429 122.684 283.967C128.684 284.351 134.498 283.998 140.479 283.751C147.863 283.446 152.715 282.927 159.935 281.301C162.164 280.799 164.467 280.135 166.123 278.565C169.586 275.282 176.061 246.815 186.732 233.395C187.037 233.012 174.976 228.353 171.772 228.948Z" fill="#ADBFC1"/>
<path d="M185.803 232.132C177.617 225.66 171.768 218.75 168.937 211.616C168.178 209.713 167.573 207.881 167.09 206.223C166.145 202.941 165.678 200.321 165.447 199.023H100.423C100.31 199.584 98.6192 206.325 98.3009 207.298C97.5109 209.816 94.1568 217.307 93.4077 218.607C90.2073 224.195 85.9504 229.117 80.2878 233.027C80.1954 233.088 79.7033 233.539 79.5084 233.692C79.276 233.871 79.2236 234.142 79.3412 234.364L186.732 233.395C186.952 233.249 185.865 232.163 185.803 232.132Z" fill="#EF9D6B"/>
<path d="M150.308 211.062H147.74V210.617C147.742 205.12 147.743 199.435 149.376 194.087C150.518 190.349 152.331 188.073 154.919 187.128C156.803 186.436 158.895 186.535 160.809 187.397C166.75 190.08 165.467 198.204 164.984 201.261L162.448 200.863C163.458 194.462 162.626 191.029 159.75 189.731C158.452 189.143 157.052 189.075 155.804 189.532C154.022 190.183 152.724 191.918 151.833 194.835C150.311 199.817 150.309 205.308 150.308 210.619V211.062Z" fill="#EF9D6B"/>
<path d="M117.107 206.586C116.943 202.843 116.65 198.908 115.058 195.548C113.708 192.696 110.324 188.829 106.51 189.886C104.879 190.337 103.473 191.861 102.842 193.863C102.186 195.94 102.353 198.212 102.602 200.162C102.792 201.646 103.06 202.794 103.75 203.57L101.828 205.271C100.636 203.93 100.271 202.178 100.055 200.487C99.7865 198.391 99.583 195.658 100.391 193.094C101.281 190.272 103.363 188.098 105.825 187.418C110.602 186.103 115.252 189.96 117.38 194.452C119.176 198.244 119.498 202.471 119.672 206.474L117.107 206.586Z" fill="#EF9D6B"/>
<path d="M199.152 243.69C191.509 231.691 177.859 223.721 163.63 222.95C173.656 220.689 184.565 222.634 193.184 228.221C196.206 230.18 198.976 232.591 201.02 235.552C203.064 238.514 204.353 242.054 204.31 245.65C204.307 245.882 204.29 246.137 204.127 246.303C203.972 246.46 203.733 246.49 203.513 246.511C202.81 246.576 202.087 246.641 201.407 246.45C200.727 246.26 200.087 245.756 199.948 245.065L199.152 243.69Z" fill="#DE6E00"/>
<path d="M199.249 240.326C199.247 240.223 199.237 240.121 199.236 240.018C199.228 239.864 199.226 239.71 199.223 239.557C199.22 238.098 199.292 236.63 199.14 235.173C198.769 231.694 197.125 228.578 194.819 225.907C192.921 223.693 190.564 221.788 188.112 220.236C182.141 216.451 174.711 214.108 167.958 216.162C182.539 216.428 193.808 227.169 199.249 240.326Z" fill="#538087"/>
<path d="M199.25 240.326C193.809 227.169 182.54 216.428 167.959 216.162C167.856 216.194 167.752 216.216 167.65 216.249C175.025 217.794 181.612 222.161 186.658 227.737C187.804 229.005 188.88 230.333 189.889 231.716C192.204 234.882 194.161 238.313 195.85 241.854C196.081 242.338 196.271 242.801 196.437 243.242C197.525 243.413 198.623 243.538 199.736 243.627C199.488 242.831 199.346 241.989 199.286 241.161C199.263 240.883 199.257 240.605 199.25 240.326Z" fill="#286069"/>
<path d="M202.849 231.921C202.4 224.516 202.85 217.084 202.52 209.672C202.192 202.285 201.021 194.765 197.599 188.215C200.031 199.708 199.118 211.21 198.525 222.878C199.693 228.594 200.702 234.34 201.532 240.119C201.71 241.323 201.872 242.551 201.873 243.765C201.879 243.765 201.879 243.765 201.879 243.765C202.293 243.784 202.706 243.791 203.12 243.803C202.457 239.793 202.062 235.851 202.849 231.921Z" fill="#889E85"/>
<path d="M242.402 224.908C238.434 224.62 234.465 225.284 230.588 226.171C224.313 227.612 217.554 230.172 214.67 235.913C216.736 229.389 223.021 225.326 228.548 221.281C234.454 216.96 239.943 212.079 244.921 206.723C242.218 206.916 239.75 205.176 237.06 204.839C234.093 204.465 231.144 205.845 228.852 207.766C226.681 209.589 224.969 211.884 223.278 214.156C222.958 214.583 222.643 215.009 222.323 215.442C218.825 220.144 215.345 224.886 212.278 229.873C211.015 231.917 209.823 234.008 208.731 236.151C208.725 236.151 208.725 236.157 208.725 236.157C208.376 234.295 208.496 232.465 208.898 230.66C209.802 226.573 212.169 222.614 213.928 218.703C215.717 214.723 216.933 210.488 217.516 206.161C218.2 201.15 218.067 195.921 220.026 191.259C218.447 191.969 216.863 192.69 215.423 193.655C211.589 196.221 209.18 200.25 207.689 204.682C206.918 206.962 206.393 209.355 206.048 211.703C205.29 216.832 205.145 222.093 204.196 227.169C203.872 228.93 203.45 230.667 202.871 232.367C202.861 232.219 202.858 232.07 202.849 231.921C202.062 235.851 202.457 239.792 203.119 243.803C203.455 243.813 203.791 243.829 204.127 243.835C204.264 243.839 204.407 243.837 204.544 243.836C204.681 243.84 204.818 243.844 204.955 243.843C206.566 243.849 208.199 243.832 209.84 243.757C211.936 243.653 214.033 243.452 216.057 243.055C216.475 242.321 216.857 241.548 217.317 240.852C219.344 237.799 222.927 236.215 226.38 234.974C235.04 231.853 244.12 229.895 253.306 229.162C250.351 226.508 246.363 225.196 242.402 224.908Z" fill="#FAB057"/>
<path d="M197.599 188.215C197.521 188.065 197.448 187.913 197.367 187.764C197.389 193.809 195.778 199.774 195.823 205.818C195.837 207.715 196.011 209.592 196.281 211.469C196.724 214.552 197.421 217.609 198.073 220.658C198.23 221.397 198.374 222.138 198.525 222.877C199.118 211.21 200.031 199.708 197.599 188.215Z" fill="#538087"/>
<path d="M227.178 213.648C225.729 214.788 224.487 216.164 223.273 217.551C219.943 221.355 216.75 225.323 214.335 229.761C218.368 225.672 222.401 221.582 226.435 217.492C228.268 215.634 230.121 213.758 232.319 212.346C234.67 210.835 237.667 209.941 239.668 207.947C238.879 207.704 237.569 208.578 236.794 208.887C235.687 209.329 234.572 209.751 233.47 210.207C231.257 211.124 229.07 212.16 227.178 213.648Z" fill="#889E85"/>
<path d="M207.749 227.336C210.328 221.282 214.522 206.507 217.09 195.413C211.162 206.185 208.929 221.712 207.749 227.336Z" fill="#889E85"/>
<path d="M204.127 243.835C203.378 243.823 202.629 243.799 201.879 243.765C201.879 243.765 201.879 243.765 201.873 243.765C201.389 243.238 200.917 242.642 200.472 241.998C200.039 241.371 199.621 240.704 199.237 240.017C198.878 239.381 198.541 238.732 198.233 238.093C198.227 238.087 198.227 238.087 198.227 238.082C197.36 236.264 196.713 234.497 196.37 233.204C195.735 230.799 195.292 228.349 194.82 225.906C194.312 223.198 193.776 220.497 192.935 217.874C190.53 210.387 185.732 203.892 180.423 198.09C185.695 200.794 190.804 204.099 194.437 208.769C195.105 209.634 195.718 210.536 196.281 211.47C197.782 213.944 198.935 216.63 199.885 219.372C201.414 223.788 202.444 228.378 202.935 233.025C203.319 236.629 203.387 240.306 204.127 243.835Z" fill="#172027"/>
<path d="M224.885 200.338C223.261 205.176 223.091 210.399 222.323 215.443C221.93 218.056 221.368 220.615 220.365 223.044C220.294 223.219 220.218 223.394 220.142 223.569C219.713 224.549 219.209 225.481 218.675 226.404C218.669 226.404 218.669 226.41 218.669 226.41C216.788 229.62 214.46 232.597 213.106 236.053C212.265 238.188 211.804 240.486 210.664 242.478C210.392 242.954 210.111 243.379 209.84 243.758C208.199 243.832 206.566 243.85 204.956 243.843C204.819 243.844 204.681 243.84 204.544 243.836C204.2 238.287 204.09 232.725 204.196 227.169C204.395 217.061 205.331 206.972 207.004 197.003C207.236 199.561 207.474 202.118 207.689 204.683C207.938 207.57 208.171 210.464 208.357 213.355L208.357 213.36C208.449 214.661 208.529 215.967 208.597 217.263L208.598 217.268C208.839 221.735 208.96 226.201 208.898 230.661C208.881 232.491 208.823 234.323 208.731 236.151C208.607 238.568 208.42 240.983 208.159 243.395C209.759 238.958 211.131 234.447 212.278 229.873C212.699 228.216 213.085 226.549 213.442 224.872C214.509 219.858 215.343 214.675 217.884 210.222C219.887 206.715 222.859 203.835 224.885 200.338Z" fill="#172027"/>
<path d="M200.608 242.515C200.686 242.91 200.764 243.31 200.842 243.705C200.47 243.691 200.103 243.659 199.736 243.627C198.623 243.537 197.525 243.412 196.437 243.241C196.339 243.224 196.241 243.212 196.149 243.194C193.597 240.285 189.932 238.477 186.287 237.05C182.263 235.472 178.055 234.211 174.488 231.771C177.484 231.073 180.514 230.367 183.59 230.416C185.756 230.451 187.888 230.914 189.889 231.715C193.174 233.03 196.096 235.265 198.227 238.082C198.227 238.088 198.227 238.088 198.233 238.093C198.589 238.564 198.924 239.054 199.224 239.556C199.711 240.334 200.131 241.15 200.472 241.998C200.713 242.555 200.915 243.126 201.088 243.704L200.608 242.515Z" fill="#286069"/>
<path d="M189.524 235.512C188.424 234.992 187.299 234.637 186.16 234.326C188.707 234.884 191.142 235.232 193.325 237.617C192.091 236.857 190.837 236.132 189.524 235.512Z" fill="#F3DECD"/>
<path d="M213.151 241.268C216.486 237.287 221.512 234.938 226.659 234.197C231.806 233.456 237.076 234.218 242.071 235.663C235.28 239.376 226.197 237.402 219.915 241.92C218.393 243.015 217.127 244.44 215.568 245.482C214.447 246.231 212.008 247.211 211.292 245.498C210.69 244.057 212.334 242.243 213.151 241.268Z" fill="#172027"/>
<path d="M226.795 230.169C231.959 228.473 237.431 227.964 242.855 227.585C239.019 228.412 235.184 229.24 231.349 230.068C229.393 230.49 227.431 230.913 225.542 231.576C221.442 233.014 217.147 235.621 214.101 238.737C217.459 234.636 221.748 231.827 226.795 230.169Z" fill="#DE6E00"/>
<path d="M206.132 266.165C206.222 266.235 206.323 266.36 206.338 266.389L206.441 266.539L206.619 266.823L206.949 267.39C207.167 267.767 207.376 268.146 207.58 268.528C207.988 269.291 208.399 270.052 208.787 270.824L209.957 273.135L211.097 275.46C212.617 278.56 214.095 281.679 215.534 284.817L214.84 284.875L222.292 259.101C222.349 258.904 222.556 258.79 222.754 258.847C222.952 258.904 223.066 259.11 223.009 259.308L215.557 285.081C215.5 285.279 215.293 285.392 215.095 285.336C214.99 285.305 214.907 285.231 214.863 285.14C213.297 282.065 211.752 278.98 210.225 275.887L209.072 273.572L207.931 271.252L206.792 268.934L205.719 266.784L205.618 266.583C205.534 266.415 205.603 266.212 205.771 266.128C205.892 266.068 206.032 266.087 206.132 266.165Z" fill="#286069"/>
<path d="M183.798 241.583C183.204 246.174 184.378 250.844 186.225 255.074C188.384 260.018 191.539 264.601 195.815 267.804C200.092 271.008 205.56 272.732 210.799 271.871C217.11 270.834 222.467 266.153 225.536 260.436C228.606 254.719 229.626 248.069 229.707 241.552L183.798 241.583Z" fill="#7BADB2"/>
<path d="M202.84 254.992L198.739 262.517L194.654 270.05L190.59 277.594C189.238 280.111 187.887 282.628 186.555 285.155C186.459 285.336 186.234 285.406 186.052 285.31C185.928 285.245 185.855 285.119 185.853 284.987V284.979C185.82 282.462 185.789 279.946 185.776 277.43C185.753 274.913 185.758 272.397 185.749 269.881C185.738 267.364 185.758 264.848 185.762 262.332L185.796 258.557L185.853 254.783C185.856 254.58 186.02 254.416 186.222 254.41H186.226C187.957 254.366 189.689 254.332 191.42 254.315L194.016 254.283L196.613 254.272C200.076 254.249 203.538 254.268 207 254.272L212.194 254.283L217.387 254.315C220.849 254.328 224.312 254.376 227.774 254.41C227.97 254.412 228.129 254.563 228.145 254.754L228.147 254.782C228.345 257.299 228.348 259.815 228.334 262.331L228.312 269.88L228.254 277.429C228.229 279.946 228.194 282.462 228.147 284.978V284.983C228.143 285.189 227.973 285.352 227.766 285.348C227.63 285.346 227.512 285.271 227.449 285.161L210.322 255.295C210.156 255.005 210.256 254.635 210.547 254.469C210.838 254.303 211.208 254.404 211.375 254.694C211.376 254.695 211.378 254.7 211.379 254.701L228.099 284.796L227.401 284.978C227.354 282.462 227.319 279.946 227.294 277.429L227.236 269.88L227.214 262.331C227.2 259.815 227.203 257.298 227.401 254.782L227.774 255.154C224.312 255.189 220.849 255.236 217.387 255.25L212.193 255.281L207 255.292C203.538 255.297 200.075 255.315 196.613 255.292L194.016 255.281L191.42 255.25C189.688 255.232 187.957 255.198 186.226 255.154L186.599 254.782L186.656 258.557L186.69 262.331C186.694 264.848 186.715 267.364 186.703 269.88C186.694 272.397 186.7 274.913 186.676 277.429C186.664 279.946 186.633 282.462 186.599 284.978L185.898 284.803C187.269 282.297 188.622 279.781 189.974 277.265L194.021 269.711L198.047 262.146L202.057 254.573C202.171 254.356 202.44 254.273 202.658 254.388C202.875 254.502 202.958 254.771 202.843 254.987C202.842 254.988 202.84 254.991 202.84 254.992Z" fill="#286069"/>
<path d="M67.7259 171.747C70.4522 173.973 73.4626 175.825 76.1256 178.132C78.4515 180.146 79.8698 182.749 82.7135 184.217C83.4199 184.581 84.22 184.887 84.9964 184.714C86.0081 184.49 86.6744 183.53 87.101 182.587C89.2335 177.878 87.4002 173.262 84.6295 169.319C81.7829 165.269 77.2193 160.19 71.6807 161.601C69.1921 161.688 66.231 161.835 65.0078 164.196C63.5224 167.063 65.5555 169.975 67.7259 171.747Z" fill="#5E785B"/>
<path d="M117.812 226.691C108.359 220.145 97.5343 207.582 84.6423 211.142C77.8752 213.011 72.4768 218.606 68.3385 223.988C67.3525 225.271 65.699 226.992 64.3064 228.863C64.4274 228.313 64.5516 227.767 64.6625 227.232C65.1808 224.735 65.5726 222.219 66.0342 219.711C66.1299 219.191 66.2365 218.676 66.3421 218.161C66.9679 216.844 67.5441 215.504 68.3282 214.255C69.9819 211.622 72.6429 209.355 75.1628 207.56C77.3387 206.009 79.7271 204.844 82.06 203.558C84.7556 202.072 87.314 200.078 90.5299 200.042C91.4981 200.031 91.5009 198.529 90.5299 198.54C87.9234 198.569 85.8006 199.658 83.5784 200.949C80.5255 202.723 77.2864 204.212 74.4028 206.263C72.1268 207.882 69.8988 209.76 68.1458 211.938C68.0736 212.028 68.0134 212.123 67.9444 212.214C69.0037 209.181 70.4615 206.32 72.6558 203.771C76.423 199.395 81.5584 196.022 87.1893 194.623C92.9452 193.192 98.9866 193.52 104.805 192.392C105.755 192.208 105.353 190.76 104.404 190.944C97.2016 192.34 89.6164 191.607 82.7431 194.533C77.7203 196.672 73.202 200.282 70.0124 204.701C68.2267 207.175 67.0469 209.887 66.1728 212.712C66.2176 212.483 66.2606 212.254 66.3057 212.024C67.3934 206.484 68.1408 200.36 72.4287 196.254C73.1291 195.584 72.0637 194.522 71.364 195.192C67.1161 199.259 66.1024 205.141 65.0356 210.674C64.23 214.853 63.4358 218.98 62.9592 223.139C62.6279 220.737 62.1448 218.346 61.6067 215.99C61.4608 215.352 61.2908 214.713 61.1338 214.074C60.8003 209.915 60.7506 205.748 61.3976 201.602C61.4835 201.489 61.5466 201.352 61.5446 201.169C61.543 201.031 61.5264 200.886 61.5233 200.748C62.5453 195.028 64.585 189.32 67.728 184.419C70.884 179.497 75.2725 175.488 78.9355 170.96C79.5386 170.214 78.4798 169.145 77.8708 169.897C74.1245 174.529 69.6568 178.625 66.4278 183.661C64.0487 187.371 62.2713 191.573 61.0859 195.876C60.1789 190.026 57.9029 183.977 54.1719 179.794C53.5264 179.07 52.4646 180.136 53.1071 180.856C57.5603 185.849 59.8344 193.988 60.0133 200.666C59.6027 203.062 59.4245 205.459 59.4005 207.857C58.5628 205.269 57.5847 202.729 56.401 200.302C54.3617 196.12 51.3521 192.68 47.1084 190.641C41.8046 188.093 35.7205 188.071 30.0217 187.132C29.0738 186.976 28.6662 188.423 29.6213 188.58C34.8492 189.442 40.3276 189.504 45.2895 191.513C50.9791 193.817 54.1317 198.371 56.3223 203.87C57.6833 207.287 58.7735 210.812 59.6646 214.384C59.8257 216.376 60.0383 218.368 60.2732 220.361C60.5834 222.993 60.7347 225.735 61.0047 228.46C59.5791 225.343 58.8625 221.917 57.5902 218.74C55.3833 213.23 51.3271 208.594 45.8533 206.131C35.284 201.376 23.2511 205.924 15.0966 213.194C14.3726 213.839 15.4404 214.899 16.1614 214.256C24.026 207.245 35.8807 202.786 45.9576 207.838C51.5168 210.625 54.96 215.602 56.9434 221.353C57.4298 222.764 57.8534 224.206 58.3194 225.633C52.7685 216.837 44.2776 210.534 32.8963 213.001C31.9498 213.206 32.3504 214.654 33.2966 214.449C44.4925 212.023 52.6608 218.779 57.8121 227.643C55.4205 225.066 52.4248 222.796 48.8789 222.229C40.9781 220.967 35.2381 228.871 28.5294 231.517C27.6387 231.868 28.0269 233.322 28.9297 232.966C34.5392 230.753 38.762 225.591 44.6001 223.988C48.9077 222.805 53.6396 224.94 56.5774 228.069C58.3154 229.921 58.569 231.845 59.2481 234.229C60.0735 237.128 60.8699 240.035 61.6366 242.95C61.9183 244.021 62.2788 245.206 63.2433 245.754C63.9894 246.178 65 246.076 65.6459 245.511C66.9239 244.394 65.9821 242.212 65.8841 240.786C65.7437 238.744 65.7501 236.692 65.9071 234.651C66.1268 231.796 66.7106 228.85 68.134 226.332C69.4021 224.089 71.5661 222.281 73.3339 220.421C77.3985 216.146 82.6359 212.14 88.8052 212.058C99.877 211.911 108.647 222.169 117.052 227.989C117.85 228.54 118.604 227.239 117.812 226.691Z" fill="#004129"/>
<path d="M32.3011 180.357C32.2468 180.337 32.2031 180.305 32.1409 180.294C31.9724 180.263 31.8116 180.262 31.6472 180.247C31.6382 180.246 31.6301 180.244 31.6211 180.243C31.6167 180.242 31.6136 180.244 31.6092 180.243C30.202 180.122 28.9373 180.53 27.7282 181.141C19.044 183.543 12.9911 200.628 24.3431 201.381C29.98 201.756 36.2174 196.927 38.3907 191.958C40.8365 186.367 38.0912 181.394 32.3011 180.357Z" fill="#5E785B"/>
<path d="M31.8265 183.493C31.2132 183.299 30.6068 183.521 30.1331 183.908C29.8444 184.014 29.6546 184.24 29.5883 184.546C29.4182 184.879 29.4806 185.209 29.6775 185.454C29.8759 186.038 30.297 186.574 30.8979 186.725C31.8632 186.967 32.5858 186.085 32.7559 185.223C32.9033 184.476 32.5917 183.735 31.8265 183.493Z" fill="#889E85"/>
<path d="M84.2783 193.506C83.3518 197.975 85.2869 204.318 89.3436 206.794C97.5133 211.781 101.676 197.103 96.8766 191.241C96.3432 190.235 95.6726 189.341 94.6466 188.742C94.6433 188.74 94.6422 188.737 94.6389 188.736C94.6321 188.732 94.6255 188.73 94.6189 188.726C94.4983 188.657 94.3876 188.579 94.2565 188.519C94.2083 188.496 94.1627 188.497 94.1154 188.485C89.6307 186.39 85.321 188.477 84.2783 193.506Z" fill="#5E785B"/>
<path d="M92.9143 190.87C93.4304 191.034 93.7391 191.48 93.876 191.977C94.0229 192.189 94.0435 192.436 93.9398 192.679C93.8944 192.991 93.691 193.187 93.4364 193.26C93.0154 193.565 92.4648 193.73 91.9786 193.542C91.1972 193.24 91.1301 192.284 91.4332 191.608C91.6954 191.023 92.2703 190.666 92.9143 190.87Z" fill="#889E85"/>
<path d="M118.842 214.263C118.704 214.207 118.571 214.195 118.443 214.201C114.965 212.754 111.111 212.609 108.008 215.329C104.237 218.634 103.326 224.104 104.027 228.584C104.879 234.024 108.544 239.412 114.494 241.442C121.322 243.772 124.829 237.928 126.107 232.84C127.976 225.408 127.421 217.743 118.842 214.263Z" fill="#4D6A4A"/>
<path d="M117.164 218.921C117 218.699 116.798 218.55 116.576 218.449C116.581 218.014 116.193 217.564 115.586 217.72C115.112 217.842 114.654 218.043 114.274 218.312C113.556 218.578 113.176 219.312 113.238 219.983C113.253 220.141 113.324 220.262 113.412 220.366C113.68 221.397 114.826 222.025 115.949 222.208C116.282 222.262 116.694 222.177 116.859 221.877C117.338 221.005 117.829 219.824 117.164 218.921Z" fill="#889E85"/>
<path d="M122.239 218.126C121.974 217.484 121.044 217.528 120.734 217.951C120.261 217.695 119.482 217.88 119.478 218.527C119.466 220.685 120.896 222.56 121.42 224.622C122.215 227.754 121.251 230.942 120.92 234.069C120.843 234.799 122.049 235.022 122.423 234.432C125.612 229.393 124.378 223.304 122.239 218.126Z" fill="#889E85"/>
<path d="M95.262 203.046C93.9108 202.73 92.5077 202.606 91.1532 202.648C89.4029 202.703 87.6643 203.064 86.0339 203.7C84.5773 204.268 82.7532 205.031 81.9549 206.427C80.3372 209.257 79.939 212.707 80.4732 215.891C81.3316 221.009 85.0276 226.076 91.0267 227.986C97.911 230.178 101.447 224.68 102.736 219.895C102.758 219.812 102.78 219.73 102.802 219.647C103.793 215.846 104.185 211.52 102.25 207.938C100.809 205.271 98.1537 203.721 95.262 203.046Z" fill="#889E85"/>
<path d="M93.7178 206.801C92.9572 205.838 91.856 205.863 90.8041 206.228C90.0804 206.479 89.697 207.169 89.7601 207.801C89.775 207.949 89.8458 208.063 89.9356 208.161C90.2052 209.13 91.3612 209.721 92.4929 209.893C92.829 209.944 93.2447 209.864 93.411 209.582C93.8939 208.762 94.3889 207.651 93.7178 206.801Z" fill="#B1C1AE"/>
<path d="M38.4117 198.574C35.8476 201.739 35.4332 206.063 35.7048 209.981C35.7109 210.066 35.7171 210.151 35.7235 210.236C36.1059 215.177 38.565 221.231 45.7364 220.343C51.9855 219.57 56.555 215.27 58.3447 210.398C59.4581 207.367 59.7047 203.903 58.6378 200.824C58.1114 199.304 56.4595 198.219 55.1331 197.393C53.648 196.468 52.006 195.793 50.296 195.417C48.9724 195.126 47.5705 194.99 46.184 195.052C43.217 195.183 40.3204 196.218 38.4117 198.574Z" fill="#5E785B"/>
<path d="M47.0074 199.028C47.933 198.221 49.0108 198.449 49.9771 199.001C50.6421 199.381 50.8914 200.129 50.7126 200.739C50.6706 200.882 50.5797 200.981 50.4735 201.06C50.0293 201.963 48.7841 202.331 47.6397 202.292C47.3002 202.281 46.9063 202.125 46.7951 201.817C46.472 200.923 46.1908 199.74 47.0074 199.028Z" fill="#889E85"/>
<path d="M34.1534 202.489C31.2628 197.092 22.9795 196.535 17.7268 198.317C11.7694 200.339 9.00194 206.969 8.5284 212.792C8.0488 218.689 9.92681 225.822 15.7807 228.472C22.5707 231.546 30.6609 227.452 34.9951 222.126C40.0328 215.936 40.5921 207.655 34.1534 202.489Z" fill="#889E85"/>
<path d="M28.0328 205.921C27.8639 205.306 27.3478 204.832 26.7427 204.513C26.688 204.257 26.5004 204.031 26.1632 204.022C25.9018 204.015 25.6295 204.036 25.363 204.086C25.3037 204.08 25.2418 204.068 25.1846 204.065C24.9874 204.056 24.8375 204.146 24.731 204.279C24.151 204.524 23.6788 204.953 23.5488 205.637C23.3337 206.772 24.31 207.589 25.351 207.715C26.4009 207.842 28.4366 207.392 28.0328 205.921Z" fill="#B1C1AE"/>
<path opacity="0.74" d="M21.9827 199.956C20.3862 199.369 19.1238 199.83 18.053 200.74C13.8621 201.552 13.4949 206.555 12.556 210.29C12.2743 210.956 12.0401 211.647 11.876 212.377C11.7299 213.027 12.7273 213.541 13.0197 212.858C13.0399 212.811 13.0568 212.756 13.0764 212.707C13.0784 212.708 13.0806 212.708 13.0828 212.709C13.0889 212.683 13.0986 212.657 13.1048 212.631C13.2689 212.208 13.4108 211.735 13.5391 211.224C14.4245 208.849 16.0379 206.782 17.8856 205.041C19.3699 203.642 21.3393 202.71 22.3567 200.873C22.5648 200.497 22.3641 200.096 21.9827 199.956Z" fill="#889E85"/>
<path d="M123.436 192.64C123.046 185.903 118.676 182.399 112.886 180.625C112.804 180.552 112.703 180.491 112.568 180.459C112.312 180.398 112.061 180.359 111.809 180.316C111.408 180.21 111.002 180.111 110.59 180.02C110.344 179.966 110.138 180.026 109.98 180.145C105.068 180.088 101.246 183.362 100.55 188.743C99.6443 195.739 104.574 201.65 110.945 203.981C114.069 205.125 117.917 205.339 120.563 202.978C123.305 200.531 123.634 196.059 123.436 192.64Z" fill="#5E785B"/>
<path d="M113.353 186.293C113.242 185.708 112.731 185.188 112.141 185.088C112.078 184.927 111.943 184.792 111.728 184.771C110.323 184.635 109.544 186.39 110.358 187.451C111.289 188.666 113.661 187.93 113.353 186.293Z" fill="#889E85"/>
<path opacity="0.54" d="M119.579 185.364C117.61 183.373 114.875 182.432 112.235 181.714C111.768 181.561 111.438 181.857 111.343 182.225C111.231 182.592 111.357 183.032 111.835 183.162C113.906 183.841 115.867 184.919 117.345 186.547C118.856 188.21 119.538 190.286 120.433 192.301C120.744 193.003 121.847 192.624 121.836 191.922C121.794 189.405 121.427 187.231 119.579 185.364Z" fill="#889E85"/>
<path d="M29.5103 244.113C32.9947 244.792 36.1921 242.645 38.2909 240.068C42.5709 234.815 43.7785 227.221 39.4145 221.67C36.0583 217.401 31.0967 216.536 26.9042 219.091C26.7073 219.069 26.4991 219.123 26.3159 219.295C26.0085 219.583 25.7103 219.876 25.4194 220.171C25.225 220.337 25.0293 220.499 24.8405 220.681C24.7406 220.777 24.6855 220.881 24.6525 220.986C20.5859 225.464 18.6261 230.705 21.7434 236.693C23.3257 239.733 25.8999 243.408 29.5103 244.113Z" fill="#5E785B"/>
<path d="M27.1563 226.096C26.9511 225.537 27.1242 224.829 27.5805 224.442C27.5516 224.272 27.5987 224.087 27.7727 223.959C28.9103 223.125 30.479 224.236 30.3239 225.563C30.146 227.083 27.7302 227.66 27.1563 226.096Z" fill="#889E85"/>
<path opacity="0.54" d="M21.3292 228.473C22.0016 225.758 23.8699 223.554 25.7703 221.59C26.0931 221.22 26.5281 221.306 26.7988 221.575C27.0835 221.833 27.2008 222.275 26.8566 222.631C25.4246 224.271 24.2918 226.198 23.8556 228.351C23.4097 230.551 23.8875 232.682 24.1512 234.871C24.243 235.633 23.101 235.87 22.7513 235.261C21.497 233.076 20.6984 231.021 21.3292 228.473Z" fill="#889E85"/>
<path d="M60.3044 177.002C58.543 174.766 55.7028 174.519 53.0745 174.503C53.0736 174.503 53.073 174.503 53.0721 174.503C48.494 173.614 40.6376 182.68 45.5855 184.582C47.6829 185.388 50.5913 184.145 52.732 184.048C55.2739 183.932 58.4925 183.905 60.3232 181.807C61.5927 180.352 61.4668 178.477 60.3044 177.002Z" fill="#4D6A4A"/>
<path d="M78.0168 189.05C75.5087 187.99 71.738 187.645 69.1744 188.636C67.6607 189.221 66.9322 190.334 66.5769 191.653C66.0622 192.289 65.6964 193.087 65.548 193.936C65.0105 197.01 67.8279 198.519 69.641 200.431C71.4006 202.287 72.8523 205.667 75.9099 205.57C78.0961 205.5 79.5784 203.495 80.4761 201.731C82.6401 197.478 83.2302 191.253 78.0168 189.05Z" fill="#4D6A4A"/>
<path d="M74.2962 191.243C74.2343 191.175 74.1574 191.143 74.0917 191.085C74.0216 190.778 73.7976 190.501 73.4023 190.465C73.205 190.447 73.0297 190.468 72.8575 190.494C72.8546 190.494 72.8524 190.492 72.8496 190.492C72.5444 190.447 72.304 190.574 72.1382 190.761C71.8201 190.984 71.5786 191.322 71.4263 191.771C71.3433 192.016 71.4349 192.327 71.6199 192.502C72.5169 193.351 73.8086 193.315 74.414 192.154C74.5757 191.843 74.5305 191.5 74.2962 191.243Z" fill="#889E85"/>
<path d="M78.698 192.535C78.2944 191.95 77.2834 192.124 77.295 192.914C77.3212 194.7 77.5312 196.455 77.1243 198.216C76.8394 199.45 76.5687 200.375 77.2273 201.537C77.344 201.743 77.627 201.942 77.8774 201.909C77.9546 201.898 78.0317 201.888 78.1088 201.878C78.1195 201.876 78.1272 201.871 78.1376 201.869C78.3614 201.931 78.6101 201.903 78.8281 201.7C81.1639 199.519 80.3304 194.898 78.698 192.535Z" fill="#5E785B"/>
<path d="M89.1583 238.269H43.845L47.3233 260.638C48.6872 269.409 56.9753 272.35 66.7565 272.35C76.6905 272.35 85.0578 269.209 86.2414 260.277L89.1583 238.269Z" fill="#FAB057"/>
<path d="M86.8468 257.912H46.8994V259.365H86.8468V257.912Z" fill="#286069"/>
<path d="M47.6346 286.029L46.1857 285.968L50.2365 258.524L51.6633 258.735L47.6346 286.029Z" fill="#286069"/>
<path d="M86.1034 285.976L82.0825 258.735L83.5095 258.524L87.5602 285.968L86.1034 285.976Z" fill="#286069"/>
<path d="M67.5946 258.629H66.1514V289.222H67.5946V258.629Z" fill="#286069"/>
</g>
<defs>
<clipPath id="clip0_2_3634">
<rect width="266" height="293" fill="white"/>
</clipPath>
</defs>
</svg>
